<svg width="1440" height="397" viewBox="0 0 1440 397" fill="none" xmlns="http://www.w3.org/2000/svg">
<rect width="1440" height="397" fill="black"/>
<path d="M907.632 332V327.828H911.86V326.54H907.632V323.348H912.294V322.074H906.26V332H907.632ZM916.223 331.034C915.103 331.034 914.123 330.194 914.123 328.626C914.123 327.072 915.103 326.232 916.223 326.232C917.343 326.232 918.323 327.072 918.323 328.626C918.323 330.194 917.343 331.034 916.223 331.034ZM916.223 325.056C914.207 325.056 912.779 326.582 912.779 328.626C912.779 330.684 914.207 332.21 916.223 332.21C918.239 332.21 919.667 330.684 919.667 328.626C919.667 326.582 918.239 325.056 916.223 325.056ZM922.666 332V321.864H921.35V332H922.666ZM926.221 332V321.864H924.905V332H926.221ZM931.344 331.034C930.224 331.034 929.244 330.194 929.244 328.626C929.244 327.072 930.224 326.232 931.344 326.232C932.464 326.232 933.444 327.072 933.444 328.626C933.444 330.194 932.464 331.034 931.344 331.034ZM931.344 325.056C929.328 325.056 927.9 326.582 927.9 328.626C927.9 330.684 929.328 332.21 931.344 332.21C933.36 332.21 934.788 330.684 934.788 328.626C934.788 326.582 933.36 325.056 931.344 325.056ZM940.129 325.266L938.379 330.334L936.867 325.266H935.425L937.637 332H939.023L940.773 326.876L942.565 332H943.923L946.107 325.266H944.721L943.237 330.334L941.487 325.266H940.129ZM955.374 331.188C955.374 331.468 955.402 331.846 955.43 332H956.69C956.662 331.762 956.62 331.286 956.62 330.754V325.266H955.304V329.326C955.304 330.348 954.772 331.048 953.708 331.048C952.602 331.048 952.182 330.236 952.182 329.312V325.266H950.866V329.508C950.866 331.034 951.818 332.21 953.386 332.21C954.17 332.21 955.01 331.888 955.374 331.188ZM958.236 330.25C958.348 331.02 959.132 332.21 960.98 332.21C962.646 332.21 963.444 331.076 963.444 330.124C963.444 329.13 962.8 328.388 961.582 328.122L960.49 327.884C959.972 327.772 959.72 327.478 959.72 327.072C959.72 326.61 960.168 326.176 960.84 326.176C961.904 326.176 962.184 326.946 962.24 327.296L963.402 326.862C963.262 326.26 962.688 325.056 960.84 325.056C959.524 325.056 958.446 326.036 958.446 327.184C958.446 328.136 959.076 328.85 960.126 329.074L961.274 329.326C961.834 329.452 962.142 329.774 962.142 330.194C962.142 330.67 961.736 331.09 960.994 331.09C960.042 331.09 959.51 330.53 959.426 329.83L958.236 330.25ZM971.58 331.034C970.46 331.034 969.48 330.194 969.48 328.626C969.48 327.072 970.46 326.232 971.58 326.232C972.7 326.232 973.68 327.072 973.68 328.626C973.68 330.194 972.7 331.034 971.58 331.034ZM971.58 325.056C969.564 325.056 968.136 326.582 968.136 328.626C968.136 330.684 969.564 332.21 971.58 332.21C973.596 332.21 975.024 330.684 975.024 328.626C975.024 326.582 973.596 325.056 971.58 325.056ZM978.024 328.108C978.024 327.086 978.556 326.26 979.592 326.26C980.768 326.26 981.16 327.016 981.16 327.954V332H982.476V327.73C982.476 326.232 981.678 325.07 980.068 325.07C979.284 325.07 978.486 325.392 977.996 326.232V325.266H976.708V332H978.024V328.108ZM987.439 330.25C987.551 331.02 988.335 332.21 990.183 332.21C991.849 332.21 992.647 331.076 992.647 330.124C992.647 329.13 992.003 328.388 990.785 328.122L989.693 327.884C989.175 327.772 988.923 327.478 988.923 327.072C988.923 326.61 989.371 326.176 990.043 326.176C991.107 326.176 991.387 326.946 991.443 327.296L992.605 326.862C992.465 326.26 991.891 325.056 990.043 325.056C988.727 325.056 987.649 326.036 987.649 327.184C987.649 328.136 988.279 328.85 989.329 329.074L990.477 329.326C991.037 329.452 991.345 329.774 991.345 330.194C991.345 330.67 990.939 331.09 990.197 331.09C989.245 331.09 988.713 330.53 988.629 329.83L987.439 330.25ZM997.215 331.034C996.095 331.034 995.115 330.194 995.115 328.626C995.115 327.072 996.095 326.232 997.215 326.232C998.335 326.232 999.315 327.072 999.315 328.626C999.315 330.194 998.335 331.034 997.215 331.034ZM997.215 325.056C995.199 325.056 993.771 326.582 993.771 328.626C993.771 330.684 995.199 332.21 997.215 332.21C999.231 332.21 1000.66 330.684 1000.66 328.626C1000.66 326.582 999.231 325.056 997.215 325.056ZM1005.17 326.274C1006.32 326.274 1006.81 327.044 1006.98 327.702L1008.17 327.198C1007.89 326.176 1006.96 325.056 1005.17 325.056C1003.25 325.056 1001.78 326.526 1001.78 328.626C1001.78 330.67 1003.22 332.21 1005.18 332.21C1006.93 332.21 1007.9 331.076 1008.22 330.11L1007.06 329.606C1006.91 330.138 1006.44 330.992 1005.18 330.992C1004.09 330.992 1003.13 330.166 1003.13 328.626C1003.13 327.058 1004.11 326.274 1005.17 326.274ZM1011.07 332V325.266H1009.77V332H1011.07ZM1009.47 322.718C1009.47 323.236 1009.89 323.656 1010.41 323.656C1010.94 323.656 1011.36 323.236 1011.36 322.718C1011.36 322.186 1010.94 321.766 1010.41 321.766C1009.89 321.766 1009.47 322.186 1009.47 322.718ZM1012.89 330.194C1012.89 331.258 1013.77 332.21 1015.14 332.21C1016.35 332.21 1017.02 331.566 1017.31 331.09C1017.31 331.58 1017.35 331.832 1017.38 332H1018.67C1018.64 331.832 1018.59 331.482 1018.59 330.894V327.52C1018.59 326.204 1017.8 325.056 1015.79 325.056C1014.33 325.056 1013.17 325.952 1013.03 327.24L1014.29 327.534C1014.37 326.75 1014.89 326.176 1015.81 326.176C1016.84 326.176 1017.27 326.722 1017.27 327.38C1017.27 327.618 1017.16 327.828 1016.75 327.884L1014.93 328.15C1013.77 328.318 1012.89 328.99 1012.89 330.194ZM1015.32 331.104C1014.65 331.104 1014.23 330.628 1014.23 330.124C1014.23 329.522 1014.65 329.2 1015.21 329.116L1017.27 328.808V329.116C1017.27 330.586 1016.4 331.104 1015.32 331.104ZM1021.95 332V321.864H1020.64V332H1021.95Z" fill="white"/>
<path d="M225.722 327.03C225.722 324.678 227.486 322.886 229.726 322.886C231.966 322.886 233.73 324.678 233.73 327.03C233.73 329.382 231.966 331.188 229.726 331.188C227.486 331.188 225.722 329.382 225.722 327.03ZM224.63 327.03C224.63 329.872 226.898 332.21 229.726 332.21C232.568 332.21 234.864 329.872 234.864 327.03C234.864 324.188 232.568 321.864 229.726 321.864C226.898 321.864 224.63 324.188 224.63 327.03ZM229.754 325.084C230.692 325.084 231.098 325.714 231.224 326.246L232.204 325.84C231.98 325.014 231.224 324.09 229.754 324.09C228.186 324.09 226.996 325.294 226.996 327.002C226.996 328.668 228.172 329.928 229.768 329.928C231.196 329.928 231.98 329.004 232.246 328.22L231.294 327.8C231.168 328.234 230.79 328.934 229.768 328.934C228.872 328.934 228.088 328.262 228.088 327.002C228.088 325.728 228.886 325.084 229.754 325.084ZM240.972 326.19C240.958 326.05 240.944 325.91 240.944 325.784C240.944 324.748 241.504 323.922 242.694 323.922C243.842 323.922 244.402 324.692 244.402 325.518C244.402 326.218 244.01 326.862 243.156 327.408L241.644 328.388C240.104 329.382 239.516 330.516 239.488 332H245.844V330.726H241.182C241.308 330.166 241.77 329.788 242.288 329.452L244.08 328.304C245.116 327.646 245.788 326.694 245.788 325.504C245.788 323.992 244.668 322.718 242.722 322.718C240.734 322.718 239.586 324.104 239.586 325.658C239.586 325.77 239.586 325.896 239.6 326.022L240.972 326.19ZM248.466 327.464C248.466 326.078 248.718 325.098 249.264 324.524C249.614 324.16 250.062 323.936 250.706 323.936C251.35 323.936 251.798 324.16 252.148 324.524C252.694 325.098 252.946 326.078 252.946 327.464C252.946 328.85 252.694 329.83 252.148 330.404C251.798 330.768 251.35 330.992 250.706 330.992C250.062 330.992 249.614 330.768 249.264 330.404C248.718 329.83 248.466 328.85 248.466 327.464ZM247.108 327.464C247.108 328.71 247.318 329.858 247.92 330.754C248.508 331.636 249.418 332.21 250.706 332.21C251.994 332.21 252.904 331.636 253.492 330.754C254.094 329.858 254.304 328.71 254.304 327.464C254.304 326.218 254.094 325.07 253.492 324.174C252.904 323.292 251.994 322.718 250.706 322.718C249.418 322.718 248.508 323.292 247.92 324.174C247.318 325.07 247.108 326.218 247.108 327.464ZM256.982 326.19C256.968 326.05 256.954 325.91 256.954 325.784C256.954 324.748 257.514 323.922 258.704 323.922C259.852 323.922 260.412 324.692 260.412 325.518C260.412 326.218 260.02 326.862 259.166 327.408L257.654 328.388C256.114 329.382 255.526 330.516 255.498 332H261.854V330.726H257.192C257.318 330.166 257.78 329.788 258.298 329.452L260.09 328.304C261.126 327.646 261.798 326.694 261.798 325.504C261.798 323.992 260.678 322.718 258.732 322.718C256.744 322.718 255.596 324.104 255.596 325.658C255.596 325.77 255.596 325.896 255.61 326.022L256.982 326.19ZM264.476 327.464C264.476 326.078 264.728 325.098 265.274 324.524C265.624 324.16 266.072 323.936 266.716 323.936C267.36 323.936 267.808 324.16 268.158 324.524C268.704 325.098 268.956 326.078 268.956 327.464C268.956 328.85 268.704 329.83 268.158 330.404C267.808 330.768 267.36 330.992 266.716 330.992C266.072 330.992 265.624 330.768 265.274 330.404C264.728 329.83 264.476 328.85 264.476 327.464ZM263.118 327.464C263.118 328.71 263.328 329.858 263.93 330.754C264.518 331.636 265.428 332.21 266.716 332.21C268.004 332.21 268.914 331.636 269.502 330.754C270.104 329.858 270.314 328.71 270.314 327.464C270.314 326.218 270.104 325.07 269.502 324.174C268.914 323.292 268.004 322.718 266.716 322.718C265.428 322.718 264.518 323.292 263.93 324.174C263.328 325.07 263.118 326.218 263.118 327.464ZM277.15 326.708V323.306H279.138C280.328 323.306 281.056 323.978 281.056 325.028C281.056 326.05 280.328 326.708 279.138 326.708H277.15ZM279.39 327.94C281.224 327.94 282.456 326.694 282.456 325.014C282.456 323.348 281.224 322.074 279.39 322.074H275.778V332H277.15V327.94H279.39ZM283.147 330.194C283.147 331.258 284.029 332.21 285.401 332.21C286.605 332.21 287.277 331.566 287.571 331.09C287.571 331.58 287.613 331.832 287.641 332H288.929C288.901 331.832 288.845 331.482 288.845 330.894V327.52C288.845 326.204 288.061 325.056 286.045 325.056C284.589 325.056 283.427 325.952 283.287 327.24L284.547 327.534C284.631 326.75 285.149 326.176 286.073 326.176C287.095 326.176 287.529 326.722 287.529 327.38C287.529 327.618 287.417 327.828 287.011 327.884L285.191 328.15C284.029 328.318 283.147 328.99 283.147 330.194ZM285.583 331.104C284.911 331.104 284.491 330.628 284.491 330.124C284.491 329.522 284.911 329.2 285.471 329.116L287.529 328.808V329.116C287.529 330.586 286.661 331.104 285.583 331.104ZM293.723 326.274C294.871 326.274 295.361 327.044 295.529 327.702L296.719 327.198C296.439 326.176 295.515 325.056 293.723 325.056C291.805 325.056 290.335 326.526 290.335 328.626C290.335 330.67 291.777 332.21 293.737 332.21C295.487 332.21 296.453 331.076 296.775 330.11L295.613 329.606C295.459 330.138 294.997 330.992 293.737 330.992C292.645 330.992 291.679 330.166 291.679 328.626C291.679 327.058 292.659 326.274 293.723 326.274ZM300.083 323.138H298.879V324.23C298.879 324.818 298.571 325.266 297.843 325.266H297.479V326.456H298.767V330.152C298.767 331.37 299.495 332.07 300.643 332.07C301.091 332.07 301.427 331.986 301.539 331.944V330.824C301.427 330.852 301.189 330.88 301.021 330.88C300.335 330.88 300.083 330.572 300.083 329.956V326.456H301.539V325.266H300.083V323.138ZM306.111 331.034C304.991 331.034 304.011 330.194 304.011 328.626C304.011 327.072 304.991 326.232 306.111 326.232C307.231 326.232 308.211 327.072 308.211 328.626C308.211 330.194 307.231 331.034 306.111 331.034ZM306.111 325.056C304.095 325.056 302.667 326.582 302.667 328.626C302.667 330.684 304.095 332.21 306.111 332.21C308.127 332.21 309.555 330.684 309.555 328.626C309.555 326.582 308.127 325.056 306.111 325.056ZM314.977 325.196C314.907 325.182 314.725 325.154 314.543 325.154C313.857 325.154 313.017 325.406 312.527 326.442V325.266H311.239V332H312.555V328.626C312.555 327.142 313.297 326.554 314.403 326.554C314.585 326.554 314.781 326.568 314.977 326.596V325.196ZM315.96 330.194C315.96 331.258 316.842 332.21 318.214 332.21C319.418 332.21 320.09 331.566 320.384 331.09C320.384 331.58 320.426 331.832 320.454 332H321.742C321.714 331.832 321.658 331.482 321.658 330.894V327.52C321.658 326.204 320.874 325.056 318.858 325.056C317.402 325.056 316.24 325.952 316.1 327.24L317.36 327.534C317.444 326.75 317.962 326.176 318.886 326.176C319.908 326.176 320.342 326.722 320.342 327.38C320.342 327.618 320.23 327.828 319.824 327.884L318.004 328.15C316.842 328.318 315.96 328.99 315.96 330.194ZM318.396 331.104C317.724 331.104 317.304 330.628 317.304 330.124C317.304 329.522 317.724 329.2 318.284 329.116L320.342 328.808V329.116C320.342 330.586 319.474 331.104 318.396 331.104ZM328.748 332V322.074H327.348V332H328.748ZM332.448 328.108C332.448 327.086 332.98 326.26 334.016 326.26C335.192 326.26 335.584 327.016 335.584 327.954V332H336.9V327.73C336.9 326.232 336.102 325.07 334.492 325.07C333.708 325.07 332.91 325.392 332.42 326.232V325.266H331.132V332H332.448V328.108ZM341.821 326.274C342.969 326.274 343.459 327.044 343.627 327.702L344.817 327.198C344.537 326.176 343.613 325.056 341.821 325.056C339.903 325.056 338.433 326.526 338.433 328.626C338.433 330.67 339.875 332.21 341.835 332.21C343.585 332.21 344.551 331.076 344.873 330.11L343.711 329.606C343.557 330.138 343.095 330.992 341.835 330.992C340.743 330.992 339.777 330.166 339.777 328.626C339.777 327.058 340.757 326.274 341.821 326.274ZM346.277 331.104C346.277 331.65 346.697 332.07 347.243 332.07C347.789 332.07 348.223 331.65 348.223 331.104C348.223 330.558 347.789 330.124 347.243 330.124C346.697 330.124 346.277 330.558 346.277 331.104ZM360.841 332H362.325L358.377 322.074H356.795L352.847 332H354.317L355.367 329.228H359.763L360.841 332ZM357.551 323.502L359.273 327.954H355.857L357.551 323.502ZM364.905 332V321.864H363.589V332H364.905ZM368.459 332V321.864H367.143V332H368.459ZM377.936 325.196C377.866 325.182 377.684 325.154 377.502 325.154C376.816 325.154 375.976 325.406 375.486 326.442V325.266H374.198V332H375.514V328.626C375.514 327.142 376.256 326.554 377.362 326.554C377.544 326.554 377.74 326.568 377.936 326.596V325.196ZM380.641 332V325.266H379.339V332H380.641ZM379.045 322.718C379.045 323.236 379.465 323.656 379.983 323.656C380.515 323.656 380.935 323.236 380.935 322.718C380.935 322.186 380.515 321.766 379.983 321.766C379.465 321.766 379.045 322.186 379.045 322.718ZM382.39 332.364C382.558 333.806 383.818 334.87 385.498 334.87C388.032 334.87 388.872 333.204 388.872 331.496V325.266H387.57V326.204C387.234 325.532 386.534 325.14 385.498 325.14C383.65 325.14 382.404 326.596 382.404 328.416C382.404 330.32 383.706 331.678 385.498 331.678C386.506 331.678 387.234 331.188 387.556 330.572V331.538C387.556 332.994 386.912 333.722 385.498 333.722C384.476 333.722 383.762 333.008 383.664 332.07L382.39 332.364ZM385.694 330.572C384.504 330.572 383.748 329.732 383.748 328.416C383.748 327.114 384.532 326.26 385.694 326.26C386.828 326.26 387.612 327.114 387.612 328.416C387.612 329.718 386.828 330.572 385.694 330.572ZM392.29 328.038C392.318 327.044 392.85 326.26 393.858 326.26C395.034 326.26 395.426 327.016 395.426 327.954V332H396.742V327.73C396.742 326.232 395.944 325.07 394.334 325.07C393.564 325.07 392.78 325.336 392.29 326.05V321.864H390.974V332H392.29V328.038ZM400.599 323.138H399.395V324.23C399.395 324.818 399.087 325.266 398.359 325.266H397.995V326.456H399.283V330.152C399.283 331.37 400.011 332.07 401.159 332.07C401.607 332.07 401.943 331.986 402.055 331.944V330.824C401.943 330.852 401.705 330.88 401.537 330.88C400.851 330.88 400.599 330.572 400.599 329.956V326.456H402.055V325.266H400.599V323.138ZM403.25 330.25C403.362 331.02 404.146 332.21 405.994 332.21C407.66 332.21 408.458 331.076 408.458 330.124C408.458 329.13 407.814 328.388 406.596 328.122L405.504 327.884C404.986 327.772 404.734 327.478 404.734 327.072C404.734 326.61 405.182 326.176 405.854 326.176C406.918 326.176 407.198 326.946 407.254 327.296L408.416 326.862C408.276 326.26 407.702 325.056 405.854 325.056C404.538 325.056 403.46 326.036 403.46 327.184C403.46 328.136 404.09 328.85 405.14 329.074L406.288 329.326C406.848 329.452 407.156 329.774 407.156 330.194C407.156 330.67 406.75 331.09 406.008 331.09C405.056 331.09 404.524 330.53 404.44 329.83L403.25 330.25ZM417.448 325.196C417.378 325.182 417.196 325.154 417.014 325.154C416.328 325.154 415.488 325.406 414.998 326.442V325.266H413.71V332H415.026V328.626C415.026 327.142 415.768 326.554 416.874 326.554C417.056 326.554 417.252 326.568 417.448 326.596V325.196ZM419.636 327.94C419.692 327.072 420.364 326.218 421.47 326.218C422.66 326.218 423.29 326.974 423.318 327.94H419.636ZM423.514 329.69C423.262 330.446 422.716 331.048 421.624 331.048C420.49 331.048 419.622 330.208 419.594 329.004H424.662C424.676 328.92 424.69 328.752 424.69 328.584C424.69 326.484 423.528 325.056 421.456 325.056C419.762 325.056 418.236 326.498 418.236 328.612C418.236 330.894 419.818 332.21 421.624 332.21C423.192 332.21 424.27 331.272 424.648 330.082L423.514 329.69ZM425.74 330.25C425.852 331.02 426.636 332.21 428.484 332.21C430.15 332.21 430.948 331.076 430.948 330.124C430.948 329.13 430.304 328.388 429.086 328.122L427.994 327.884C427.476 327.772 427.224 327.478 427.224 327.072C427.224 326.61 427.672 326.176 428.344 326.176C429.408 326.176 429.688 326.946 429.744 327.296L430.906 326.862C430.766 326.26 430.192 325.056 428.344 325.056C427.028 325.056 425.95 326.036 425.95 327.184C425.95 328.136 426.58 328.85 427.63 329.074L428.778 329.326C429.338 329.452 429.646 329.774 429.646 330.194C429.646 330.67 429.24 331.09 428.498 331.09C427.546 331.09 427.014 330.53 426.93 329.83L425.74 330.25ZM433.486 327.94C433.542 327.072 434.214 326.218 435.32 326.218C436.51 326.218 437.14 326.974 437.168 327.94H433.486ZM437.364 329.69C437.112 330.446 436.566 331.048 435.474 331.048C434.34 331.048 433.472 330.208 433.444 329.004H438.512C438.526 328.92 438.54 328.752 438.54 328.584C438.54 326.484 437.378 325.056 435.306 325.056C433.612 325.056 432.086 326.498 432.086 328.612C432.086 330.894 433.668 332.21 435.474 332.21C437.042 332.21 438.12 331.272 438.498 330.082L437.364 329.69ZM443.958 325.196C443.888 325.182 443.706 325.154 443.524 325.154C442.838 325.154 441.998 325.406 441.508 326.442V325.266H440.22V332H441.536V328.626C441.536 327.142 442.278 326.554 443.384 326.554C443.566 326.554 443.762 326.568 443.958 326.596V325.196ZM451.333 325.266H449.919L447.987 330.46L446.069 325.266H444.585L447.315 332H448.645L451.333 325.266ZM453.242 327.94C453.298 327.072 453.97 326.218 455.076 326.218C456.266 326.218 456.896 326.974 456.924 327.94H453.242ZM457.12 329.69C456.868 330.446 456.322 331.048 455.23 331.048C454.096 331.048 453.228 330.208 453.2 329.004H458.268C458.282 328.92 458.296 328.752 458.296 328.584C458.296 326.484 457.134 325.056 455.062 325.056C453.368 325.056 451.842 326.498 451.842 328.612C451.842 330.894 453.424 332.21 455.23 332.21C456.798 332.21 457.876 331.272 458.254 330.082L457.12 329.69ZM460.759 328.612C460.759 327.226 461.543 326.246 462.747 326.246C463.951 326.246 464.679 327.198 464.679 328.584C464.679 329.97 463.937 331.02 462.733 331.02C461.473 331.02 460.759 329.998 460.759 328.612ZM464.693 331.09C464.693 331.496 464.735 331.846 464.763 332H466.037C466.023 331.888 465.967 331.398 465.967 330.754V321.864H464.665V326.218C464.441 325.672 463.797 325.084 462.607 325.084C460.703 325.084 459.415 326.708 459.415 328.612C459.415 330.614 460.633 332.182 462.607 332.182C463.657 332.182 464.371 331.622 464.693 330.978V331.09ZM468.066 331.104C468.066 331.65 468.486 332.07 469.032 332.07C469.578 332.07 470.012 331.65 470.012 331.104C470.012 330.558 469.578 330.124 469.032 330.124C468.486 330.124 468.066 330.558 468.066 331.104Z" fill="white"/>
<g clip-path="url(#clip0_1_965)">
<path d="M227.52 97.824V94.576H229.264C230.368 94.576 231.04 95.2 231.04 96.208C231.04 97.184 230.368 97.824 229.264 97.824H227.52ZM229.536 99.728C231.776 99.728 233.264 98.256 233.264 96.192C233.264 94.144 231.776 92.656 229.536 92.656H225.296V104H227.504V99.728H229.536ZM239.772 96.096C239.612 96.08 239.452 96.064 239.276 96.064C238.604 96.064 237.516 96.256 237.036 97.296V96.128H234.972V104H237.1V100.4C237.1 98.704 238.044 98.176 239.132 98.176C239.324 98.176 239.532 98.192 239.772 98.24V96.096ZM245.046 102.304C244.006 102.304 243.046 101.536 243.046 100.064C243.046 98.576 244.006 97.824 245.046 97.824C246.086 97.824 247.046 98.576 247.046 100.064C247.046 101.552 246.086 102.304 245.046 102.304ZM245.046 95.888C242.694 95.888 240.918 97.632 240.918 100.064C240.918 102.48 242.694 104.24 245.046 104.24C247.398 104.24 249.174 102.48 249.174 100.064C249.174 97.632 247.398 95.888 245.046 95.888ZM258.678 92.416H256.582V96.912C256.358 96.496 255.718 95.936 254.358 95.936C252.134 95.936 250.582 97.744 250.582 100.048C250.582 102.432 252.182 104.192 254.422 104.192C255.478 104.192 256.278 103.712 256.63 103.088C256.63 103.456 256.678 103.84 256.71 104H258.742C258.71 103.68 258.678 103.104 258.678 102.576V92.416ZM252.726 100.048C252.726 98.64 253.59 97.84 254.678 97.84C255.766 97.84 256.614 98.624 256.614 100.032C256.614 101.456 255.766 102.288 254.678 102.288C253.558 102.288 252.726 101.456 252.726 100.048ZM266.427 104H268.459C268.427 103.728 268.379 103.184 268.379 102.576V96.128H266.251V100.704C266.251 101.616 265.707 102.256 264.763 102.256C263.771 102.256 263.323 101.552 263.323 100.672V96.128H261.195V101.104C261.195 102.816 262.283 104.208 264.187 104.208C265.019 104.208 265.931 103.888 266.363 103.152C266.363 103.472 266.395 103.84 266.427 104ZM274.475 97.856C275.531 97.856 276.027 98.528 276.219 99.184L278.123 98.544C277.787 97.216 276.571 95.888 274.427 95.888C272.139 95.888 270.347 97.632 270.347 100.064C270.347 102.48 272.171 104.24 274.491 104.24C276.587 104.24 277.819 102.896 278.171 101.584L276.299 100.96C276.123 101.568 275.579 102.288 274.491 102.288C273.403 102.288 272.475 101.488 272.475 100.064C272.475 98.64 273.387 97.856 274.475 97.856ZM282.68 93.776H280.76V94.88C280.76 95.584 280.376 96.128 279.544 96.128H279.144V98.016H280.568V101.68C280.568 103.2 281.528 104.112 283.064 104.112C283.688 104.112 284.072 104 284.264 103.92V102.16C284.152 102.192 283.864 102.224 283.608 102.224C283 102.224 282.68 102 282.68 101.312V98.016H284.264V96.128H282.68V93.776Z" fill="white"/>
<g clip-path="url(#clip1_1_965)">
<path d="M226.632 145V140.828H230.86V139.54H226.632V136.348H231.294V135.074H225.26V145H226.632ZM233.473 140.94C233.529 140.072 234.201 139.218 235.307 139.218C236.497 139.218 237.127 139.974 237.155 140.94H233.473ZM237.351 142.69C237.099 143.446 236.553 144.048 235.461 144.048C234.327 144.048 233.459 143.208 233.431 142.004H238.499C238.513 141.92 238.527 141.752 238.527 141.584C238.527 139.484 237.365 138.056 235.293 138.056C233.599 138.056 232.073 139.498 232.073 141.612C232.073 143.894 233.655 145.21 235.461 145.21C237.029 145.21 238.107 144.272 238.485 143.082L237.351 142.69ZM240.067 143.194C240.067 144.258 240.949 145.21 242.321 145.21C243.525 145.21 244.197 144.566 244.491 144.09C244.491 144.58 244.533 144.832 244.561 145H245.849C245.821 144.832 245.765 144.482 245.765 143.894V140.52C245.765 139.204 244.981 138.056 242.965 138.056C241.509 138.056 240.347 138.952 240.207 140.24L241.467 140.534C241.551 139.75 242.069 139.176 242.993 139.176C244.015 139.176 244.449 139.722 244.449 140.38C244.449 140.618 244.337 140.828 243.931 140.884L242.111 141.15C240.949 141.318 240.067 141.99 240.067 143.194ZM242.503 144.104C241.831 144.104 241.411 143.628 241.411 143.124C241.411 142.522 241.831 142.2 242.391 142.116L244.449 141.808V142.116C244.449 143.586 243.581 144.104 242.503 144.104ZM249.859 136.138H248.655V137.23C248.655 137.818 248.347 138.266 247.619 138.266H247.255V139.456H248.543V143.152C248.543 144.37 249.271 145.07 250.419 145.07C250.867 145.07 251.203 144.986 251.315 144.944V143.824C251.203 143.852 250.965 143.88 250.797 143.88C250.111 143.88 249.859 143.572 249.859 142.956V139.456H251.315V138.266H249.859V136.138ZM257.789 144.188C257.789 144.468 257.817 144.846 257.845 145H259.105C259.077 144.762 259.035 144.286 259.035 143.754V138.266H257.719V142.326C257.719 143.348 257.187 144.048 256.123 144.048C255.017 144.048 254.597 143.236 254.597 142.312V138.266H253.281V142.508C253.281 144.034 254.233 145.21 255.801 145.21C256.585 145.21 257.425 144.888 257.789 144.188ZM265.299 138.196C265.229 138.182 265.047 138.154 264.865 138.154C264.179 138.154 263.339 138.406 262.849 139.442V138.266H261.561V145H262.877V141.626C262.877 140.142 263.619 139.554 264.725 139.554C264.907 139.554 265.103 139.568 265.299 139.596V138.196ZM267.767 140.94C267.823 140.072 268.495 139.218 269.601 139.218C270.791 139.218 271.421 139.974 271.449 140.94H267.767ZM271.645 142.69C271.393 143.446 270.847 144.048 269.755 144.048C268.621 144.048 267.753 143.208 267.725 142.004H272.793C272.807 141.92 272.821 141.752 272.821 141.584C272.821 139.484 271.659 138.056 269.587 138.056C267.893 138.056 266.367 139.498 266.367 141.612C266.367 143.894 267.949 145.21 269.755 145.21C271.323 145.21 272.401 144.272 272.779 143.082L271.645 142.69ZM274.151 143.25C274.263 144.02 275.047 145.21 276.895 145.21C278.561 145.21 279.359 144.076 279.359 143.124C279.359 142.13 278.715 141.388 277.497 141.122L276.405 140.884C275.887 140.772 275.635 140.478 275.635 140.072C275.635 139.61 276.083 139.176 276.755 139.176C277.819 139.176 278.099 139.946 278.155 140.296L279.317 139.862C279.177 139.26 278.603 138.056 276.755 138.056C275.439 138.056 274.361 139.036 274.361 140.184C274.361 141.136 274.991 141.85 276.041 142.074L277.189 142.326C277.749 142.452 278.057 142.774 278.057 143.194C278.057 143.67 277.651 144.09 276.909 144.09C275.957 144.09 275.425 143.53 275.341 142.83L274.151 143.25Z" fill="white"/>
<path d="M226.632 167.708V164.306H228.62C229.81 164.306 230.538 164.978 230.538 166.028C230.538 167.05 229.81 167.708 228.62 167.708H226.632ZM228.872 168.94C230.706 168.94 231.938 167.694 231.938 166.014C231.938 164.348 230.706 163.074 228.872 163.074H225.26V173H226.632V168.94H228.872ZM237.286 166.196C237.216 166.182 237.034 166.154 236.852 166.154C236.166 166.154 235.326 166.406 234.836 167.442V166.266H233.548V173H234.864V169.626C234.864 168.142 235.606 167.554 236.712 167.554C236.894 167.554 237.09 167.568 237.286 167.596V166.196ZM240.271 173V166.266H238.969V173H240.271ZM238.675 163.718C238.675 164.236 239.095 164.656 239.613 164.656C240.145 164.656 240.565 164.236 240.565 163.718C240.565 163.186 240.145 162.766 239.613 162.766C239.095 162.766 238.675 163.186 238.675 163.718ZM245.618 167.274C246.766 167.274 247.256 168.044 247.424 168.702L248.614 168.198C248.334 167.176 247.41 166.056 245.618 166.056C243.7 166.056 242.23 167.526 242.23 169.626C242.23 171.67 243.672 173.21 245.632 173.21C247.382 173.21 248.348 172.076 248.67 171.11L247.508 170.606C247.354 171.138 246.892 171.992 245.632 171.992C244.54 171.992 243.574 171.166 243.574 169.626C243.574 168.058 244.554 167.274 245.618 167.274ZM251.796 173V166.266H250.494V173H251.796ZM250.2 163.718C250.2 164.236 250.62 164.656 251.138 164.656C251.67 164.656 252.09 164.236 252.09 163.718C252.09 163.186 251.67 162.766 251.138 162.766C250.62 162.766 250.2 163.186 250.2 163.718ZM255.631 169.108C255.631 168.086 256.163 167.26 257.199 167.26C258.375 167.26 258.767 168.016 258.767 168.954V173H260.083V168.73C260.083 167.232 259.285 166.07 257.675 166.07C256.891 166.07 256.093 166.392 255.603 167.232V166.266H254.315V173H255.631V169.108ZM261.966 173.364C262.134 174.806 263.394 175.87 265.074 175.87C267.608 175.87 268.448 174.204 268.448 172.496V166.266H267.146V167.204C266.81 166.532 266.11 166.14 265.074 166.14C263.226 166.14 261.98 167.596 261.98 169.416C261.98 171.32 263.282 172.678 265.074 172.678C266.082 172.678 266.81 172.188 267.132 171.572V172.538C267.132 173.994 266.488 174.722 265.074 174.722C264.052 174.722 263.338 174.008 263.24 173.07L261.966 173.364ZM265.27 171.572C264.08 171.572 263.324 170.732 263.324 169.416C263.324 168.114 264.108 167.26 265.27 167.26C266.404 167.26 267.188 168.114 267.188 169.416C267.188 170.718 266.404 171.572 265.27 171.572Z" fill="white"/>
<path d="M226.66 201V191.074H225.26V201H226.66ZM230.64 197.108C230.64 196.086 231.172 195.26 232.208 195.26C233.384 195.26 233.776 196.016 233.776 196.954V201H235.092V196.73C235.092 195.232 234.294 194.07 232.684 194.07C231.9 194.07 231.102 194.392 230.612 195.232V194.266H229.324V201H230.64V197.108ZM239.229 192.138H238.025V193.23C238.025 193.818 237.717 194.266 236.989 194.266H236.625V195.456H237.913V199.152C237.913 200.37 238.641 201.07 239.789 201.07C240.237 201.07 240.573 200.986 240.685 200.944V199.824C240.573 199.852 240.335 199.88 240.167 199.88C239.481 199.88 239.229 199.572 239.229 198.956V195.456H240.685V194.266H239.229V192.138ZM243.507 196.94C243.563 196.072 244.235 195.218 245.341 195.218C246.531 195.218 247.161 195.974 247.189 196.94H243.507ZM247.385 198.69C247.133 199.446 246.587 200.048 245.495 200.048C244.361 200.048 243.493 199.208 243.465 198.004H248.533C248.547 197.92 248.561 197.752 248.561 197.584C248.561 195.484 247.399 194.056 245.327 194.056C243.633 194.056 242.107 195.498 242.107 197.612C242.107 199.894 243.689 201.21 245.495 201.21C247.063 201.21 248.141 200.272 248.519 199.082L247.385 198.69ZM250.031 201.364C250.199 202.806 251.459 203.87 253.139 203.87C255.673 203.87 256.513 202.204 256.513 200.496V194.266H255.211V195.204C254.875 194.532 254.175 194.14 253.139 194.14C251.291 194.14 250.045 195.596 250.045 197.416C250.045 199.32 251.347 200.678 253.139 200.678C254.147 200.678 254.875 200.188 255.197 199.572V200.538C255.197 201.994 254.553 202.722 253.139 202.722C252.117 202.722 251.403 202.008 251.305 201.07L250.031 201.364ZM253.335 199.572C252.145 199.572 251.389 198.732 251.389 197.416C251.389 196.114 252.173 195.26 253.335 195.26C254.469 195.26 255.253 196.114 255.253 197.416C255.253 198.718 254.469 199.572 253.335 199.572ZM262.633 194.196C262.563 194.182 262.381 194.154 262.199 194.154C261.513 194.154 260.673 194.406 260.183 195.442V194.266H258.895V201H260.211V197.626C260.211 196.142 260.953 195.554 262.059 195.554C262.241 195.554 262.437 195.568 262.633 195.596V194.196ZM263.896 199.194C263.896 200.258 264.778 201.21 266.15 201.21C267.354 201.21 268.026 200.566 268.32 200.09C268.32 200.58 268.362 200.832 268.39 201H269.678C269.65 200.832 269.594 200.482 269.594 199.894V196.52C269.594 195.204 268.81 194.056 266.794 194.056C265.338 194.056 264.176 194.952 264.036 196.24L265.296 196.534C265.38 195.75 265.898 195.176 266.822 195.176C267.844 195.176 268.278 195.722 268.278 196.38C268.278 196.618 268.166 196.828 267.76 196.884L265.94 197.15C264.778 197.318 263.896 197.99 263.896 199.194ZM266.332 200.104C265.66 200.104 265.24 199.628 265.24 199.124C265.24 198.522 265.66 198.2 266.22 198.116L268.278 197.808V198.116C268.278 199.586 267.41 200.104 266.332 200.104ZM273.688 192.138H272.484V193.23C272.484 193.818 272.176 194.266 271.448 194.266H271.084V195.456H272.372V199.152C272.372 200.37 273.1 201.07 274.248 201.07C274.696 201.07 275.032 200.986 275.144 200.944V199.824C275.032 199.852 274.794 199.88 274.626 199.88C273.94 199.88 273.688 199.572 273.688 198.956V195.456H275.144V194.266H273.688V192.138ZM278.482 201V194.266H277.18V201H278.482ZM276.886 191.718C276.886 192.236 277.306 192.656 277.824 192.656C278.356 192.656 278.776 192.236 278.776 191.718C278.776 191.186 278.356 190.766 277.824 190.766C277.306 190.766 276.886 191.186 276.886 191.718ZM283.885 200.034C282.765 200.034 281.785 199.194 281.785 197.626C281.785 196.072 282.765 195.232 283.885 195.232C285.005 195.232 285.985 196.072 285.985 197.626C285.985 199.194 285.005 200.034 283.885 200.034ZM283.885 194.056C281.869 194.056 280.441 195.582 280.441 197.626C280.441 199.684 281.869 201.21 283.885 201.21C285.901 201.21 287.329 199.684 287.329 197.626C287.329 195.582 285.901 194.056 283.885 194.056ZM290.609 197.108C290.609 196.086 291.141 195.26 292.177 195.26C293.353 195.26 293.745 196.016 293.745 196.954V201H295.061V196.73C295.061 195.232 294.263 194.07 292.653 194.07C291.869 194.07 291.071 194.392 290.581 195.232V194.266H289.293V201H290.609V197.108ZM296.804 199.25C296.916 200.02 297.7 201.21 299.548 201.21C301.214 201.21 302.012 200.076 302.012 199.124C302.012 198.13 301.368 197.388 300.15 197.122L299.058 196.884C298.54 196.772 298.288 196.478 298.288 196.072C298.288 195.61 298.736 195.176 299.408 195.176C300.472 195.176 300.752 195.946 300.808 196.296L301.97 195.862C301.83 195.26 301.256 194.056 299.408 194.056C298.092 194.056 297.014 195.036 297.014 196.184C297.014 197.136 297.644 197.85 298.694 198.074L299.842 198.326C300.402 198.452 300.71 198.774 300.71 199.194C300.71 199.67 300.304 200.09 299.562 200.09C298.61 200.09 298.078 199.53 297.994 198.83L296.804 199.25Z" fill="white"/>
<path d="M226.632 223.708V220.306H228.62C229.81 220.306 230.538 220.978 230.538 222.028C230.538 223.05 229.81 223.708 228.62 223.708H226.632ZM228.872 224.94C230.706 224.94 231.938 223.694 231.938 222.014C231.938 220.348 230.706 219.074 228.872 219.074H225.26V229H226.632V224.94H228.872ZM237.286 222.196C237.216 222.182 237.034 222.154 236.852 222.154C236.166 222.154 235.326 222.406 234.836 223.442V222.266H233.548V229H234.864V225.626C234.864 224.142 235.606 223.554 236.712 223.554C236.894 223.554 237.09 223.568 237.286 223.596V222.196ZM241.785 228.034C240.665 228.034 239.685 227.194 239.685 225.626C239.685 224.072 240.665 223.232 241.785 223.232C242.905 223.232 243.885 224.072 243.885 225.626C243.885 227.194 242.905 228.034 241.785 228.034ZM241.785 222.056C239.769 222.056 238.341 223.582 238.341 225.626C238.341 227.684 239.769 229.21 241.785 229.21C243.801 229.21 245.229 227.684 245.229 225.626C245.229 223.582 243.801 222.056 241.785 222.056ZM247.976 225.612C247.976 224.226 248.76 223.246 249.964 223.246C251.168 223.246 251.896 224.198 251.896 225.584C251.896 226.97 251.154 228.02 249.95 228.02C248.69 228.02 247.976 226.998 247.976 225.612ZM251.91 228.09C251.91 228.496 251.952 228.846 251.98 229H253.254C253.24 228.888 253.184 228.398 253.184 227.754V218.864H251.882V223.218C251.658 222.672 251.014 222.084 249.824 222.084C247.92 222.084 246.632 223.708 246.632 225.612C246.632 227.614 247.85 229.182 249.824 229.182C250.874 229.182 251.588 228.622 251.91 227.978V228.09ZM260.073 228.188C260.073 228.468 260.101 228.846 260.129 229H261.389C261.361 228.762 261.319 228.286 261.319 227.754V222.266H260.003V226.326C260.003 227.348 259.471 228.048 258.407 228.048C257.301 228.048 256.881 227.236 256.881 226.312V222.266H255.565V226.508C255.565 228.034 256.517 229.21 258.085 229.21C258.869 229.21 259.709 228.888 260.073 228.188ZM266.604 223.274C267.752 223.274 268.242 224.044 268.41 224.702L269.6 224.198C269.32 223.176 268.396 222.056 266.604 222.056C264.686 222.056 263.216 223.526 263.216 225.626C263.216 227.67 264.658 229.21 266.618 229.21C268.368 229.21 269.334 228.076 269.656 227.11L268.494 226.606C268.34 227.138 267.878 227.992 266.618 227.992C265.526 227.992 264.56 227.166 264.56 225.626C264.56 224.058 265.54 223.274 266.604 223.274ZM273.244 220.138H272.04V221.23C272.04 221.818 271.732 222.266 271.004 222.266H270.64V223.456H271.928V227.152C271.928 228.37 272.656 229.07 273.804 229.07C274.252 229.07 274.588 228.986 274.7 228.944V227.824C274.588 227.852 274.35 227.88 274.182 227.88C273.496 227.88 273.244 227.572 273.244 226.956V223.456H274.7V222.266H273.244V220.138Z" fill="white"/>
</g>
</g>
<g clip-path="url(#clip2_1_965)">
<path d="M437.432 104.24C440.616 104.24 442.248 102.128 442.68 100.384L440.616 99.76C440.312 100.816 439.368 102.08 437.432 102.08C435.608 102.08 433.912 100.752 433.912 98.336C433.912 95.76 435.704 94.544 437.4 94.544C439.368 94.544 440.248 95.744 440.52 96.832L442.6 96.176C442.152 94.336 440.536 92.416 437.4 92.416C434.36 92.416 431.624 94.72 431.624 98.336C431.624 101.952 434.264 104.24 437.432 104.24ZM447.945 102.304C446.905 102.304 445.945 101.536 445.945 100.064C445.945 98.576 446.905 97.824 447.945 97.824C448.985 97.824 449.945 98.576 449.945 100.064C449.945 101.552 448.985 102.304 447.945 102.304ZM447.945 95.888C445.593 95.888 443.817 97.632 443.817 100.064C443.817 102.48 445.593 104.24 447.945 104.24C450.297 104.24 452.073 102.48 452.073 100.064C452.073 97.632 450.297 95.888 447.945 95.888ZM456.201 104V99.392C456.201 98.528 456.745 97.84 457.673 97.84C458.633 97.84 459.065 98.48 459.065 99.328V104H461.177V99.392C461.177 98.544 461.721 97.84 462.633 97.84C463.609 97.84 464.025 98.48 464.025 99.328V104H466.089V98.896C466.089 96.784 464.697 95.904 463.241 95.904C462.201 95.904 461.369 96.256 460.745 97.216C460.345 96.368 459.481 95.904 458.409 95.904C457.545 95.904 456.537 96.32 456.105 97.088V96.128H454.073V104H456.201ZM470.693 107.04V103.232C471.077 103.76 471.877 104.192 472.965 104.192C475.189 104.192 476.677 102.432 476.677 100.048C476.677 97.712 475.349 95.952 473.045 95.952C471.861 95.952 470.981 96.48 470.629 97.088V96.128H468.565V107.04H470.693ZM474.581 100.064C474.581 101.472 473.717 102.288 472.629 102.288C471.541 102.288 470.661 101.456 470.661 100.064C470.661 98.672 471.541 97.856 472.629 97.856C473.717 97.856 474.581 98.672 474.581 100.064ZM478.202 101.856C478.202 103.088 479.226 104.224 480.906 104.224C482.074 104.224 482.826 103.68 483.226 103.056C483.226 103.36 483.258 103.792 483.306 104H485.258C485.21 103.728 485.162 103.168 485.162 102.752V98.88C485.162 97.296 484.234 95.888 481.738 95.888C479.626 95.888 478.49 97.248 478.362 98.48L480.25 98.88C480.314 98.192 480.826 97.6 481.754 97.6C482.65 97.6 483.082 98.064 483.082 98.624C483.082 98.896 482.938 99.12 482.49 99.184L480.554 99.472C479.242 99.664 478.202 100.448 478.202 101.856ZM481.354 102.64C480.666 102.64 480.33 102.192 480.33 101.728C480.33 101.12 480.762 100.816 481.306 100.736L483.082 100.464V100.816C483.082 102.208 482.25 102.64 481.354 102.64ZM489.755 99.472C489.755 98.56 490.299 97.84 491.227 97.84C492.251 97.84 492.683 98.528 492.683 99.408V104H494.811V99.04C494.811 97.312 493.915 95.92 491.963 95.92C491.115 95.92 490.171 96.288 489.691 97.104V96.128H487.627V104H489.755V99.472ZM499.87 107.104L504.814 96.128H502.542L500.606 100.736L498.51 96.128H496.126L499.47 103.008L497.614 107.104H499.87Z" fill="white"/>
<g clip-path="url(#clip3_1_965)">
<path d="M439.134 145H440.618L436.67 135.074H435.088L431.14 145H432.61L433.66 142.228H438.056L439.134 145ZM435.844 136.502L437.566 140.954H434.15L435.844 136.502ZM443.464 145V144.02C443.884 144.748 444.654 145.182 445.648 145.182C447.65 145.182 448.784 143.6 448.784 141.598C448.784 139.638 447.734 138.07 445.69 138.07C444.57 138.07 443.786 138.616 443.464 139.218V134.864H442.162V145H443.464ZM447.44 141.598C447.44 143.054 446.656 144.006 445.452 144.006C444.29 144.006 443.45 143.054 443.45 141.598C443.45 140.142 444.29 139.232 445.452 139.232C446.67 139.232 447.44 140.142 447.44 141.598ZM453.625 144.034C452.505 144.034 451.525 143.194 451.525 141.626C451.525 140.072 452.505 139.232 453.625 139.232C454.745 139.232 455.725 140.072 455.725 141.626C455.725 143.194 454.745 144.034 453.625 144.034ZM453.625 138.056C451.609 138.056 450.181 139.582 450.181 141.626C450.181 143.684 451.609 145.21 453.625 145.21C455.641 145.21 457.069 143.684 457.069 141.626C457.069 139.582 455.641 138.056 453.625 138.056ZM463.402 144.188C463.402 144.468 463.43 144.846 463.458 145H464.718C464.69 144.762 464.648 144.286 464.648 143.754V138.266H463.332V142.326C463.332 143.348 462.8 144.048 461.736 144.048C460.63 144.048 460.21 143.236 460.21 142.312V138.266H458.894V142.508C458.894 144.034 459.846 145.21 461.414 145.21C462.198 145.21 463.038 144.888 463.402 144.188ZM468.938 136.138H467.734V137.23C467.734 137.818 467.426 138.266 466.698 138.266H466.334V139.456H467.622V143.152C467.622 144.37 468.35 145.07 469.498 145.07C469.946 145.07 470.282 144.986 470.394 144.944V143.824C470.282 143.852 470.044 143.88 469.876 143.88C469.19 143.88 468.938 143.572 468.938 142.956V139.456H470.394V138.266H468.938V136.138ZM480.648 144.188C480.648 144.468 480.676 144.846 480.704 145H481.964C481.936 144.762 481.894 144.286 481.894 143.754V138.266H480.578V142.326C480.578 143.348 480.046 144.048 478.982 144.048C477.876 144.048 477.456 143.236 477.456 142.312V138.266H476.14V142.508C476.14 144.034 477.092 145.21 478.66 145.21C479.444 145.21 480.284 144.888 480.648 144.188ZM483.79 143.25C483.902 144.02 484.686 145.21 486.534 145.21C488.2 145.21 488.998 144.076 488.998 143.124C488.998 142.13 488.354 141.388 487.136 141.122L486.044 140.884C485.526 140.772 485.274 140.478 485.274 140.072C485.274 139.61 485.722 139.176 486.394 139.176C487.458 139.176 487.738 139.946 487.794 140.296L488.956 139.862C488.816 139.26 488.242 138.056 486.394 138.056C485.078 138.056 484 139.036 484 140.184C484 141.136 484.63 141.85 485.68 142.074L486.828 142.326C487.388 142.452 487.696 142.774 487.696 143.194C487.696 143.67 487.29 144.09 486.548 144.09C485.596 144.09 485.064 143.53 484.98 142.83L483.79 143.25Z" fill="white"/>
<path d="M436.558 173.21C438.84 173.21 440.408 171.88 440.94 170.018L439.722 169.57C439.316 170.928 438.252 171.95 436.558 171.95C434.752 171.95 433.03 170.62 433.03 168.03C433.03 165.44 434.752 164.124 436.558 164.124C438.182 164.124 439.274 164.964 439.652 166.462L440.926 166.014C440.422 164.096 438.826 162.864 436.558 162.864C434.094 162.864 431.63 164.712 431.63 168.03C431.63 171.348 433.996 173.21 436.558 173.21ZM445.511 172.034C444.391 172.034 443.411 171.194 443.411 169.626C443.411 168.072 444.391 167.232 445.511 167.232C446.631 167.232 447.611 168.072 447.611 169.626C447.611 171.194 446.631 172.034 445.511 172.034ZM445.511 166.056C443.495 166.056 442.067 167.582 442.067 169.626C442.067 171.684 443.495 173.21 445.511 173.21C447.527 173.21 448.955 171.684 448.955 169.626C448.955 167.582 447.527 166.056 445.511 166.056ZM452.234 169.108C452.234 168.086 452.766 167.26 453.802 167.26C454.978 167.26 455.37 168.016 455.37 168.954V173H456.686V168.73C456.686 167.232 455.888 166.07 454.278 166.07C453.494 166.07 452.696 166.392 452.206 167.232V166.266H450.918V173H452.234V169.108ZM460.824 164.138H459.62V165.23C459.62 165.818 459.312 166.266 458.584 166.266H458.22V167.456H459.508V171.152C459.508 172.37 460.236 173.07 461.384 173.07C461.832 173.07 462.168 172.986 462.28 172.944V171.824C462.168 171.852 461.93 171.88 461.762 171.88C461.076 171.88 460.824 171.572 460.824 170.956V167.456H462.28V166.266H460.824V164.138ZM463.896 171.194C463.896 172.258 464.778 173.21 466.15 173.21C467.354 173.21 468.026 172.566 468.32 172.09C468.32 172.58 468.362 172.832 468.39 173H469.678C469.65 172.832 469.594 172.482 469.594 171.894V168.52C469.594 167.204 468.81 166.056 466.794 166.056C465.338 166.056 464.176 166.952 464.036 168.24L465.296 168.534C465.38 167.75 465.898 167.176 466.822 167.176C467.844 167.176 468.278 167.722 468.278 168.38C468.278 168.618 468.166 168.828 467.76 168.884L465.94 169.15C464.778 169.318 463.896 169.99 463.896 171.194ZM466.332 172.104C465.66 172.104 465.24 171.628 465.24 171.124C465.24 170.522 465.66 170.2 466.22 170.116L468.278 169.808V170.116C468.278 171.586 467.41 172.104 466.332 172.104ZM474.752 167.274C475.9 167.274 476.39 168.044 476.558 168.702L477.748 168.198C477.468 167.176 476.544 166.056 474.752 166.056C472.834 166.056 471.364 167.526 471.364 169.626C471.364 171.67 472.806 173.21 474.766 173.21C476.516 173.21 477.482 172.076 477.804 171.11L476.642 170.606C476.488 171.138 476.026 171.992 474.766 171.992C473.674 171.992 472.708 171.166 472.708 169.626C472.708 168.058 473.688 167.274 474.752 167.274ZM481.392 164.138H480.188V165.23C480.188 165.818 479.88 166.266 479.152 166.266H478.788V167.456H480.076V171.152C480.076 172.37 480.804 173.07 481.952 173.07C482.4 173.07 482.736 172.986 482.848 172.944V171.824C482.736 171.852 482.498 171.88 482.33 171.88C481.644 171.88 481.392 171.572 481.392 170.956V167.456H482.848V166.266H481.392V164.138ZM493.103 172.188C493.103 172.468 493.131 172.846 493.159 173H494.419C494.391 172.762 494.349 172.286 494.349 171.754V166.266H493.033V170.326C493.033 171.348 492.501 172.048 491.437 172.048C490.331 172.048 489.911 171.236 489.911 170.312V166.266H488.595V170.508C488.595 172.034 489.547 173.21 491.115 173.21C491.899 173.21 492.739 172.888 493.103 172.188ZM496.244 171.25C496.356 172.02 497.14 173.21 498.988 173.21C500.654 173.21 501.452 172.076 501.452 171.124C501.452 170.13 500.808 169.388 499.59 169.122L498.498 168.884C497.98 168.772 497.728 168.478 497.728 168.072C497.728 167.61 498.176 167.176 498.848 167.176C499.912 167.176 500.192 167.946 500.248 168.296L501.41 167.862C501.27 167.26 500.696 166.056 498.848 166.056C497.532 166.056 496.454 167.036 496.454 168.184C496.454 169.136 497.084 169.85 498.134 170.074L499.282 170.326C499.842 170.452 500.15 170.774 500.15 171.194C500.15 171.67 499.744 172.09 499.002 172.09C498.05 172.09 497.518 171.53 497.434 170.83L496.244 171.25Z" fill="white"/>
<path d="M438.588 193.328C438.364 192.25 437.468 190.864 435.228 190.864C433.394 190.864 431.952 192.264 431.952 193.818C431.952 195.302 432.96 196.226 434.374 196.534L435.788 196.842C436.782 197.052 437.272 197.668 437.272 198.382C437.272 199.25 436.6 199.964 435.228 199.964C433.73 199.964 432.946 198.942 432.848 197.836L431.532 198.256C431.714 199.67 432.848 201.21 435.242 201.21C437.356 201.21 438.672 199.81 438.672 198.27C438.672 196.884 437.748 195.848 436.096 195.484L434.612 195.162C433.772 194.98 433.338 194.434 433.338 193.72C433.338 192.796 434.136 192.068 435.256 192.068C436.642 192.068 437.244 193.048 437.356 193.762L438.588 193.328ZM444.781 200.188C444.781 200.468 444.809 200.846 444.837 201H446.097C446.069 200.762 446.027 200.286 446.027 199.754V194.266H444.711V198.326C444.711 199.348 444.179 200.048 443.115 200.048C442.009 200.048 441.589 199.236 441.589 198.312V194.266H440.273V198.508C440.273 200.034 441.225 201.21 442.793 201.21C443.577 201.21 444.417 200.888 444.781 200.188ZM449.855 201V200.02C450.275 200.748 451.045 201.182 452.039 201.182C454.041 201.182 455.175 199.6 455.175 197.598C455.175 195.638 454.125 194.07 452.081 194.07C450.961 194.07 450.177 194.616 449.855 195.218V190.864H448.553V201H449.855ZM453.831 197.598C453.831 199.054 453.047 200.006 451.843 200.006C450.681 200.006 449.841 199.054 449.841 197.598C449.841 196.142 450.681 195.232 451.843 195.232C453.061 195.232 453.831 196.142 453.831 197.598ZM458.434 201V196.94C458.434 195.932 459.064 195.232 460.002 195.232C461.01 195.232 461.43 195.904 461.43 196.772V201H462.746V196.926C462.746 195.96 463.376 195.232 464.3 195.232C465.294 195.232 465.728 195.89 465.728 196.772V201H467.03V196.632C467.03 194.868 465.882 194.07 464.706 194.07C463.852 194.07 462.984 194.378 462.452 195.344C462.088 194.476 461.276 194.07 460.436 194.07C459.652 194.07 458.812 194.42 458.392 195.162V194.266H457.132V201H458.434ZM470.718 201V194.266H469.416V201H470.718ZM469.122 191.718C469.122 192.236 469.542 192.656 470.06 192.656C470.592 192.656 471.012 192.236 471.012 191.718C471.012 191.186 470.592 190.766 470.06 190.766C469.542 190.766 469.122 191.186 469.122 191.718ZM475.001 192.138H473.797V193.23C473.797 193.818 473.489 194.266 472.761 194.266H472.397V195.456H473.685V199.152C473.685 200.37 474.413 201.07 475.561 201.07C476.009 201.07 476.345 200.986 476.457 200.944V199.824C476.345 199.852 476.107 199.88 475.939 199.88C475.253 199.88 475.001 199.572 475.001 198.956V195.456H476.457V194.266H475.001V192.138ZM481.853 199.194C481.853 200.258 482.735 201.21 484.107 201.21C485.311 201.21 485.983 200.566 486.277 200.09C486.277 200.58 486.319 200.832 486.347 201H487.635C487.607 200.832 487.551 200.482 487.551 199.894V196.52C487.551 195.204 486.767 194.056 484.751 194.056C483.295 194.056 482.133 194.952 481.993 196.24L483.253 196.534C483.337 195.75 483.855 195.176 484.779 195.176C485.801 195.176 486.235 195.722 486.235 196.38C486.235 196.618 486.123 196.828 485.717 196.884L483.897 197.15C482.735 197.318 481.853 197.99 481.853 199.194ZM484.289 200.104C483.617 200.104 483.197 199.628 483.197 199.124C483.197 198.522 483.617 198.2 484.177 198.116L486.235 197.808V198.116C486.235 199.586 485.367 200.104 484.289 200.104ZM495.425 192.138H494.221V193.23C494.221 193.818 493.913 194.266 493.185 194.266H492.821V195.456H494.109V199.152C494.109 200.37 494.837 201.07 495.985 201.07C496.433 201.07 496.769 200.986 496.881 200.944V199.824C496.769 199.852 496.531 199.88 496.363 199.88C495.677 199.88 495.425 199.572 495.425 198.956V195.456H496.881V194.266H495.425V192.138ZM500.22 201V194.266H498.918V201H500.22ZM498.624 191.718C498.624 192.236 499.044 192.656 499.562 192.656C500.094 192.656 500.514 192.236 500.514 191.718C500.514 191.186 500.094 190.766 499.562 190.766C499.044 190.766 498.624 191.186 498.624 191.718ZM505.567 195.274C506.715 195.274 507.205 196.044 507.373 196.702L508.563 196.198C508.283 195.176 507.359 194.056 505.567 194.056C503.649 194.056 502.179 195.526 502.179 197.626C502.179 199.67 503.621 201.21 505.581 201.21C507.331 201.21 508.297 200.076 508.619 199.11L507.457 198.606C507.303 199.138 506.841 199.992 505.581 199.992C504.489 199.992 503.523 199.166 503.523 197.626C503.523 196.058 504.503 195.274 505.567 195.274ZM516.477 194.266H514.657L511.745 197.248V190.864H510.443V201H511.745V198.97L512.683 198.032L514.881 201H516.533L513.607 197.108L516.477 194.266ZM518.577 196.94C518.633 196.072 519.305 195.218 520.411 195.218C521.601 195.218 522.231 195.974 522.259 196.94H518.577ZM522.455 198.69C522.203 199.446 521.657 200.048 520.565 200.048C519.431 200.048 518.563 199.208 518.535 198.004H523.603C523.617 197.92 523.631 197.752 523.631 197.584C523.631 195.484 522.469 194.056 520.397 194.056C518.703 194.056 517.177 195.498 517.177 197.612C517.177 199.894 518.759 201.21 520.565 201.21C522.133 201.21 523.211 200.272 523.589 199.082L522.455 198.69ZM527.355 192.138H526.151V193.23C526.151 193.818 525.843 194.266 525.115 194.266H524.751V195.456H526.039V199.152C526.039 200.37 526.767 201.07 527.915 201.07C528.363 201.07 528.699 200.986 528.811 200.944V199.824C528.699 199.852 528.461 199.88 528.293 199.88C527.607 199.88 527.355 199.572 527.355 198.956V195.456H528.811V194.266H527.355V192.138Z" fill="white"/>
<path d="M433.632 223.708V220.306H435.62C436.81 220.306 437.538 220.978 437.538 222.028C437.538 223.05 436.81 223.708 435.62 223.708H433.632ZM435.872 224.94C437.706 224.94 438.938 223.694 438.938 222.014C438.938 220.348 437.706 219.074 435.872 219.074H432.26V229H433.632V224.94H435.872ZM444.286 222.196C444.216 222.182 444.034 222.154 443.852 222.154C443.166 222.154 442.326 222.406 441.836 223.442V222.266H440.548V229H441.864V225.626C441.864 224.142 442.606 223.554 443.712 223.554C443.894 223.554 444.09 223.568 444.286 223.596V222.196ZM447.271 229V222.266H445.969V229H447.271ZM445.675 219.718C445.675 220.236 446.095 220.656 446.613 220.656C447.145 220.656 447.565 220.236 447.565 219.718C447.565 219.186 447.145 218.766 446.613 218.766C446.095 218.766 445.675 219.186 445.675 219.718ZM455.558 222.266H454.144L452.212 227.46L450.294 222.266H448.81L451.54 229H452.87L455.558 222.266ZM456.609 227.194C456.609 228.258 457.491 229.21 458.863 229.21C460.067 229.21 460.739 228.566 461.033 228.09C461.033 228.58 461.075 228.832 461.103 229H462.391C462.363 228.832 462.307 228.482 462.307 227.894V224.52C462.307 223.204 461.523 222.056 459.507 222.056C458.051 222.056 456.889 222.952 456.749 224.24L458.009 224.534C458.093 223.75 458.611 223.176 459.535 223.176C460.557 223.176 460.991 223.722 460.991 224.38C460.991 224.618 460.879 224.828 460.473 224.884L458.653 225.15C457.491 225.318 456.609 225.99 456.609 227.194ZM459.045 228.104C458.373 228.104 457.953 227.628 457.953 227.124C457.953 226.522 458.373 226.2 458.933 226.116L460.991 225.808V226.116C460.991 227.586 460.123 228.104 459.045 228.104ZM467.465 223.274C468.613 223.274 469.103 224.044 469.271 224.702L470.461 224.198C470.181 223.176 469.257 222.056 467.465 222.056C465.547 222.056 464.077 223.526 464.077 225.626C464.077 227.67 465.519 229.21 467.479 229.21C469.229 229.21 470.195 228.076 470.517 227.11L469.355 226.606C469.201 227.138 468.739 227.992 467.479 227.992C466.387 227.992 465.421 227.166 465.421 225.626C465.421 224.058 466.401 223.274 467.465 223.274ZM473.953 231.814L478.335 222.266H476.921L474.905 226.914L472.805 222.266H471.293L474.191 228.258L472.511 231.814H473.953ZM484.963 231.66V228.09C485.327 228.692 486.111 229.182 487.147 229.182C489.121 229.182 490.283 227.628 490.283 225.626C490.283 223.666 489.205 222.112 487.189 222.112C486.097 222.112 485.299 222.644 484.935 223.316V222.266H483.661V231.66H484.963ZM488.939 225.626C488.939 227.012 488.169 228.006 486.951 228.006C485.747 228.006 484.949 227.012 484.949 225.626C484.949 224.282 485.747 223.274 486.951 223.274C488.183 223.274 488.939 224.282 488.939 225.626ZM495.124 228.034C494.004 228.034 493.024 227.194 493.024 225.626C493.024 224.072 494.004 223.232 495.124 223.232C496.244 223.232 497.224 224.072 497.224 225.626C497.224 227.194 496.244 228.034 495.124 228.034ZM495.124 222.056C493.108 222.056 491.68 223.582 491.68 225.626C491.68 227.684 493.108 229.21 495.124 229.21C497.14 229.21 498.568 227.684 498.568 225.626C498.568 223.582 497.14 222.056 495.124 222.056ZM501.847 229V218.864H500.531V229H501.847ZM505.668 229V222.266H504.366V229H505.668ZM504.072 219.718C504.072 220.236 504.492 220.656 505.01 220.656C505.542 220.656 505.962 220.236 505.962 219.718C505.962 219.186 505.542 218.766 505.01 218.766C504.492 218.766 504.072 219.186 504.072 219.718ZM511.015 223.274C512.163 223.274 512.653 224.044 512.821 224.702L514.011 224.198C513.731 223.176 512.807 222.056 511.015 222.056C509.097 222.056 507.627 223.526 507.627 225.626C507.627 227.67 509.069 229.21 511.029 229.21C512.779 229.21 513.745 228.076 514.067 227.11L512.905 226.606C512.751 227.138 512.289 227.992 511.029 227.992C509.937 227.992 508.971 227.166 508.971 225.626C508.971 224.058 509.951 223.274 511.015 223.274ZM517.502 231.814L521.884 222.266H520.47L518.454 226.914L516.354 222.266H514.842L517.74 228.258L516.06 231.814H517.502Z" fill="white"/>
<path d="M439.148 248.348V247.074H431.14V248.348H434.458V257H435.83V248.348H439.148ZM440.213 252.94C440.269 252.072 440.941 251.218 442.047 251.218C443.237 251.218 443.867 251.974 443.895 252.94H440.213ZM444.091 254.69C443.839 255.446 443.293 256.048 442.201 256.048C441.067 256.048 440.199 255.208 440.171 254.004H445.239C445.253 253.92 445.267 253.752 445.267 253.584C445.267 251.484 444.105 250.056 442.033 250.056C440.339 250.056 438.813 251.498 438.813 253.612C438.813 255.894 440.395 257.21 442.201 257.21C443.769 257.21 444.847 256.272 445.225 255.082L444.091 254.69ZM450.965 250.196C450.895 250.182 450.713 250.154 450.531 250.154C449.845 250.154 449.005 250.406 448.515 251.442V250.266H447.227V257H448.543V253.626C448.543 252.142 449.285 251.554 450.391 251.554C450.573 251.554 450.769 251.568 450.965 251.596V250.196ZM453.95 257V252.94C453.95 251.932 454.58 251.232 455.518 251.232C456.526 251.232 456.946 251.904 456.946 252.772V257H458.262V252.926C458.262 251.96 458.892 251.232 459.816 251.232C460.81 251.232 461.244 251.89 461.244 252.772V257H462.546V252.632C462.546 250.868 461.398 250.07 460.222 250.07C459.368 250.07 458.5 250.378 457.968 251.344C457.604 250.476 456.792 250.07 455.952 250.07C455.168 250.07 454.328 250.42 453.908 251.162V250.266H452.648V257H453.95ZM464.301 255.25C464.413 256.02 465.197 257.21 467.045 257.21C468.711 257.21 469.509 256.076 469.509 255.124C469.509 254.13 468.865 253.388 467.647 253.122L466.555 252.884C466.037 252.772 465.785 252.478 465.785 252.072C465.785 251.61 466.233 251.176 466.905 251.176C467.969 251.176 468.249 251.946 468.305 252.296L469.467 251.862C469.327 251.26 468.753 250.056 466.905 250.056C465.589 250.056 464.511 251.036 464.511 252.184C464.511 253.136 465.141 253.85 466.191 254.074L467.339 254.326C467.899 254.452 468.207 254.774 468.207 255.194C468.207 255.67 467.801 256.09 467.059 256.09C466.107 256.09 465.575 255.53 465.491 254.83L464.301 255.25ZM481.537 257H483.399L481.145 254.676L482.489 253.122V251.316L480.277 253.78L478.429 251.862L478.933 251.484C479.633 250.966 480.333 250.266 480.333 249.286C480.333 247.802 479.199 246.864 477.701 246.864C476.469 246.864 475.139 247.732 475.139 249.342C475.139 250.308 475.867 251.064 476.329 251.554L476.511 251.75L476.371 251.862C475.321 252.646 474.621 253.346 474.621 254.634C474.621 255.908 475.615 257.168 477.491 257.168C478.597 257.168 479.465 256.594 480.277 255.684L481.537 257ZM477.505 255.908C476.595 255.908 476.035 255.194 476.035 254.522C476.035 253.836 476.399 253.388 476.875 253.024L477.379 252.646L479.395 254.76L479.353 254.816C478.807 255.418 478.261 255.908 477.505 255.908ZM476.497 249.258C476.497 248.474 477.141 248.04 477.715 248.04C478.443 248.04 478.975 248.586 478.975 249.244C478.975 249.664 478.821 250.042 478.233 250.476L477.561 250.98L477.253 250.644C476.931 250.308 476.497 249.818 476.497 249.258ZM490.85 251.274C491.998 251.274 492.488 252.044 492.656 252.702L493.846 252.198C493.566 251.176 492.642 250.056 490.85 250.056C488.932 250.056 487.462 251.526 487.462 253.626C487.462 255.67 488.904 257.21 490.864 257.21C492.614 257.21 493.58 256.076 493.902 255.11L492.74 254.606C492.586 255.138 492.124 255.992 490.864 255.992C489.772 255.992 488.806 255.166 488.806 253.626C488.806 252.058 489.786 251.274 490.85 251.274ZM498.542 256.034C497.422 256.034 496.442 255.194 496.442 253.626C496.442 252.072 497.422 251.232 498.542 251.232C499.662 251.232 500.642 252.072 500.642 253.626C500.642 255.194 499.662 256.034 498.542 256.034ZM498.542 250.056C496.526 250.056 495.098 251.582 495.098 253.626C495.098 255.684 496.526 257.21 498.542 257.21C500.558 257.21 501.986 255.684 501.986 253.626C501.986 251.582 500.558 250.056 498.542 250.056ZM505.265 253.108C505.265 252.086 505.797 251.26 506.833 251.26C508.009 251.26 508.401 252.016 508.401 252.954V257H509.717V252.73C509.717 251.232 508.919 250.07 507.309 250.07C506.525 250.07 505.727 250.392 505.237 251.232V250.266H503.949V257H505.265V253.108ZM512.875 253.612C512.875 252.226 513.659 251.246 514.863 251.246C516.067 251.246 516.795 252.198 516.795 253.584C516.795 254.97 516.053 256.02 514.849 256.02C513.589 256.02 512.875 254.998 512.875 253.612ZM516.809 256.09C516.809 256.496 516.851 256.846 516.879 257H518.153C518.139 256.888 518.083 256.398 518.083 255.754V246.864H516.781V251.218C516.557 250.672 515.913 250.084 514.723 250.084C512.819 250.084 511.531 251.708 511.531 253.612C511.531 255.614 512.749 257.182 514.723 257.182C515.773 257.182 516.487 256.622 516.809 255.978V256.09ZM521.903 257V250.266H520.601V257H521.903ZM520.307 247.718C520.307 248.236 520.727 248.656 521.245 248.656C521.777 248.656 522.197 248.236 522.197 247.718C522.197 247.186 521.777 246.766 521.245 246.766C520.727 246.766 520.307 247.186 520.307 247.718ZM526.186 248.138H524.982V249.23C524.982 249.818 524.674 250.266 523.946 250.266H523.582V251.456H524.87V255.152C524.87 256.37 525.598 257.07 526.746 257.07C527.194 257.07 527.53 256.986 527.642 256.944V255.824C527.53 255.852 527.292 255.88 527.124 255.88C526.438 255.88 526.186 255.572 526.186 254.956V251.456H527.642V250.266H526.186V248.138ZM530.981 257V250.266H529.679V257H530.981ZM529.385 247.718C529.385 248.236 529.805 248.656 530.323 248.656C530.855 248.656 531.275 248.236 531.275 247.718C531.275 247.186 530.855 246.766 530.323 246.766C529.805 246.766 529.385 247.186 529.385 247.718ZM536.384 256.034C535.264 256.034 534.284 255.194 534.284 253.626C534.284 252.072 535.264 251.232 536.384 251.232C537.504 251.232 538.484 252.072 538.484 253.626C538.484 255.194 537.504 256.034 536.384 256.034ZM536.384 250.056C534.368 250.056 532.94 251.582 532.94 253.626C532.94 255.684 534.368 257.21 536.384 257.21C538.4 257.21 539.828 255.684 539.828 253.626C539.828 251.582 538.4 250.056 536.384 250.056ZM543.107 253.108C543.107 252.086 543.639 251.26 544.675 251.26C545.851 251.26 546.243 252.016 546.243 252.954V257H547.559V252.73C547.559 251.232 546.761 250.07 545.151 250.07C544.367 250.07 543.569 250.392 543.079 251.232V250.266H541.791V257H543.107V253.108ZM549.303 255.25C549.415 256.02 550.199 257.21 552.047 257.21C553.713 257.21 554.511 256.076 554.511 255.124C554.511 254.13 553.867 253.388 552.649 253.122L551.557 252.884C551.039 252.772 550.787 252.478 550.787 252.072C550.787 251.61 551.235 251.176 551.907 251.176C552.971 251.176 553.251 251.946 553.307 252.296L554.469 251.862C554.329 251.26 553.755 250.056 551.907 250.056C550.591 250.056 549.513 251.036 549.513 252.184C549.513 253.136 550.143 253.85 551.193 254.074L552.341 254.326C552.901 254.452 553.209 254.774 553.209 255.194C553.209 255.67 552.803 256.09 552.061 256.09C551.109 256.09 550.577 255.53 550.493 254.83L549.303 255.25Z" fill="white"/>
</g>
</g>
<g clip-path="url(#clip4_1_965)">
<path d="M689.536 104.256C691.968 104.256 693.904 102.768 693.904 99.984V92.656H691.696V99.824C691.696 101.312 690.88 102.096 689.536 102.096C688.224 102.096 687.392 101.312 687.392 99.824V92.656H685.184V99.984C685.184 102.768 687.12 104.256 689.536 104.256ZM695.831 101.808C695.927 102.704 696.743 104.24 699.111 104.24C701.175 104.24 702.167 102.928 702.167 101.648C702.167 100.496 701.383 99.552 699.831 99.232L698.711 98.992C698.279 98.912 697.991 98.672 697.991 98.288C697.991 97.84 698.439 97.504 698.999 97.504C699.895 97.504 700.231 98.096 700.295 98.56L702.071 98.16C701.975 97.312 701.223 95.888 698.983 95.888C697.287 95.888 696.039 97.056 696.039 98.464C696.039 99.568 696.727 100.48 698.247 100.816L699.287 101.056C699.895 101.184 700.135 101.472 700.135 101.824C700.135 102.24 699.799 102.608 699.095 102.608C698.167 102.608 697.703 102.032 697.655 101.408L695.831 101.808ZM705.719 99.168C705.767 98.448 706.375 97.616 707.479 97.616C708.695 97.616 709.207 98.384 709.239 99.168H705.719ZM709.447 101.216C709.191 101.92 708.647 102.416 707.655 102.416C706.599 102.416 705.719 101.664 705.671 100.624H711.303C711.303 100.592 711.335 100.272 711.335 99.968C711.335 97.44 709.879 95.888 707.447 95.888C705.431 95.888 703.575 97.52 703.575 100.032C703.575 102.688 705.479 104.24 707.639 104.24C709.575 104.24 710.823 103.104 711.223 101.744L709.447 101.216ZM718.13 96.096C717.97 96.08 717.81 96.064 717.634 96.064C716.962 96.064 715.874 96.256 715.394 97.296V96.128H713.33V104H715.458V100.4C715.458 98.704 716.402 98.176 717.49 98.176C717.682 98.176 717.89 98.192 718.13 98.24V96.096ZM719.322 101.808C719.418 102.704 720.234 104.24 722.602 104.24C724.666 104.24 725.658 102.928 725.658 101.648C725.658 100.496 724.874 99.552 723.322 99.232L722.202 98.992C721.77 98.912 721.482 98.672 721.482 98.288C721.482 97.84 721.93 97.504 722.49 97.504C723.386 97.504 723.722 98.096 723.786 98.56L725.562 98.16C725.466 97.312 724.714 95.888 722.474 95.888C720.778 95.888 719.53 97.056 719.53 98.464C719.53 99.568 720.218 100.48 721.738 100.816L722.778 101.056C723.386 101.184 723.626 101.472 723.626 101.824C723.626 102.24 723.29 102.608 722.586 102.608C721.658 102.608 721.194 102.032 721.146 101.408L719.322 101.808Z" fill="white"/>
<g clip-path="url(#clip5_1_965)">
<path d="M691.322 145V143.712H686.632V135.074H685.26V145H691.322ZM695.886 144.034C694.766 144.034 693.786 143.194 693.786 141.626C693.786 140.072 694.766 139.232 695.886 139.232C697.006 139.232 697.986 140.072 697.986 141.626C697.986 143.194 697.006 144.034 695.886 144.034ZM695.886 138.056C693.87 138.056 692.442 139.582 692.442 141.626C692.442 143.684 693.87 145.21 695.886 145.21C697.902 145.21 699.33 143.684 699.33 141.626C699.33 139.582 697.902 138.056 695.886 138.056ZM700.803 145.364C700.971 146.806 702.231 147.87 703.911 147.87C706.445 147.87 707.285 146.204 707.285 144.496V138.266H705.983V139.204C705.647 138.532 704.947 138.14 703.911 138.14C702.063 138.14 700.817 139.596 700.817 141.416C700.817 143.32 702.119 144.678 703.911 144.678C704.919 144.678 705.647 144.188 705.969 143.572V144.538C705.969 145.994 705.325 146.722 703.911 146.722C702.889 146.722 702.175 146.008 702.077 145.07L700.803 145.364ZM704.107 143.572C702.917 143.572 702.161 142.732 702.161 141.416C702.161 140.114 702.945 139.26 704.107 139.26C705.241 139.26 706.025 140.114 706.025 141.416C706.025 142.718 705.241 143.572 704.107 143.572ZM710.969 145V138.266H709.667V145H710.969ZM709.373 135.718C709.373 136.236 709.793 136.656 710.311 136.656C710.843 136.656 711.263 136.236 711.263 135.718C711.263 135.186 710.843 134.766 710.311 134.766C709.793 134.766 709.373 135.186 709.373 135.718ZM714.804 141.108C714.804 140.086 715.336 139.26 716.372 139.26C717.548 139.26 717.94 140.016 717.94 140.954V145H719.256V140.73C719.256 139.232 718.458 138.07 716.848 138.07C716.064 138.07 715.266 138.392 714.776 139.232V138.266H713.488V145H714.804V141.108Z" fill="white"/>
<path d="M693.856 173V168.142H689.11V169.374H692.554C692.498 170.396 691.7 171.964 689.488 171.964C687.71 171.964 686.03 170.662 686.03 168.03C686.03 165.398 687.766 164.124 689.544 164.124C691.084 164.124 692.246 164.964 692.694 166.392L693.94 165.86C693.366 164.068 691.7 162.864 689.544 162.864C687.094 162.864 684.63 164.67 684.63 168.03C684.63 171.39 686.954 173.21 689.446 173.21C691.112 173.21 692.19 172.384 692.624 171.6L692.75 173H693.856ZM696.959 168.94C697.015 168.072 697.687 167.218 698.793 167.218C699.983 167.218 700.613 167.974 700.641 168.94H696.959ZM700.837 170.69C700.585 171.446 700.039 172.048 698.947 172.048C697.813 172.048 696.945 171.208 696.917 170.004H701.985C701.999 169.92 702.013 169.752 702.013 169.584C702.013 167.484 700.851 166.056 698.779 166.056C697.085 166.056 695.559 167.498 695.559 169.612C695.559 171.894 697.141 173.21 698.947 173.21C700.515 173.21 701.593 172.272 701.971 171.082L700.837 170.69ZM705.737 164.138H704.533V165.23C704.533 165.818 704.225 166.266 703.497 166.266H703.133V167.456H704.421V171.152C704.421 172.37 705.149 173.07 706.297 173.07C706.745 173.07 707.081 172.986 707.193 172.944V171.824C707.081 171.852 706.843 171.88 706.675 171.88C705.989 171.88 705.737 171.572 705.737 170.956V167.456H707.193V166.266H705.737V164.138ZM712.59 171.194C712.59 172.258 713.472 173.21 714.844 173.21C716.048 173.21 716.72 172.566 717.014 172.09C717.014 172.58 717.056 172.832 717.084 173H718.372C718.344 172.832 718.288 172.482 718.288 171.894V168.52C718.288 167.204 717.504 166.056 715.488 166.056C714.032 166.056 712.87 166.952 712.73 168.24L713.99 168.534C714.074 167.75 714.592 167.176 715.516 167.176C716.538 167.176 716.972 167.722 716.972 168.38C716.972 168.618 716.86 168.828 716.454 168.884L714.634 169.15C713.472 169.318 712.59 169.99 712.59 171.194ZM715.026 172.104C714.354 172.104 713.934 171.628 713.934 171.124C713.934 170.522 714.354 170.2 714.914 170.116L716.972 169.808V170.116C716.972 171.586 716.104 172.104 715.026 172.104ZM725.182 169.612C725.182 168.226 725.966 167.246 727.17 167.246C728.374 167.246 729.102 168.198 729.102 169.584C729.102 170.97 728.36 172.02 727.156 172.02C725.896 172.02 725.182 170.998 725.182 169.612ZM729.116 172.09C729.116 172.496 729.158 172.846 729.186 173H730.46C730.446 172.888 730.39 172.398 730.39 171.754V162.864H729.088V167.218C728.864 166.672 728.22 166.084 727.03 166.084C725.126 166.084 723.838 167.708 723.838 169.612C723.838 171.614 725.056 173.182 727.03 173.182C728.08 173.182 728.794 172.622 729.116 171.978V172.09ZM733.762 168.94C733.818 168.072 734.49 167.218 735.596 167.218C736.786 167.218 737.416 167.974 737.444 168.94H733.762ZM737.64 170.69C737.388 171.446 736.842 172.048 735.75 172.048C734.616 172.048 733.748 171.208 733.72 170.004H738.788C738.802 169.92 738.816 169.752 738.816 169.584C738.816 167.484 737.654 166.056 735.582 166.056C733.888 166.056 732.362 167.498 732.362 169.612C732.362 171.894 733.944 173.21 735.75 173.21C737.318 173.21 738.396 172.272 738.774 171.082L737.64 170.69ZM742.078 173V168.94C742.078 167.932 742.708 167.232 743.646 167.232C744.654 167.232 745.074 167.904 745.074 168.772V173H746.39V168.926C746.39 167.96 747.02 167.232 747.944 167.232C748.938 167.232 749.372 167.89 749.372 168.772V173H750.674V168.632C750.674 166.868 749.526 166.07 748.35 166.07C747.496 166.07 746.628 166.378 746.096 167.344C745.732 166.476 744.92 166.07 744.08 166.07C743.296 166.07 742.456 166.42 742.036 167.162V166.266H740.776V173H742.078ZM755.944 172.034C754.824 172.034 753.844 171.194 753.844 169.626C753.844 168.072 754.824 167.232 755.944 167.232C757.064 167.232 758.044 168.072 758.044 169.626C758.044 171.194 757.064 172.034 755.944 172.034ZM755.944 166.056C753.928 166.056 752.5 167.582 752.5 169.626C752.5 171.684 753.928 173.21 755.944 173.21C757.96 173.21 759.388 171.684 759.388 169.626C759.388 167.582 757.96 166.056 755.944 166.056Z" fill="white"/>
<path d="M692.148 192.348V191.074H684.14V192.348H687.458V201H688.83V192.348H692.148ZM692.076 199.194C692.076 200.258 692.958 201.21 694.33 201.21C695.534 201.21 696.206 200.566 696.5 200.09C696.5 200.58 696.542 200.832 696.57 201H697.858C697.83 200.832 697.774 200.482 697.774 199.894V196.52C697.774 195.204 696.99 194.056 694.974 194.056C693.518 194.056 692.356 194.952 692.216 196.24L693.476 196.534C693.56 195.75 694.078 195.176 695.002 195.176C696.024 195.176 696.458 195.722 696.458 196.38C696.458 196.618 696.346 196.828 695.94 196.884L694.12 197.15C692.958 197.318 692.076 197.99 692.076 199.194ZM694.512 200.104C693.84 200.104 693.42 199.628 693.42 199.124C693.42 198.522 693.84 198.2 694.4 198.116L696.458 197.808V198.116C696.458 199.586 695.59 200.104 694.512 200.104ZM701.42 201V190.864H700.104V201H701.42ZM709.973 194.266H708.153L705.241 197.248V190.864H703.939V201H705.241V198.97L706.179 198.032L708.377 201H710.029L707.103 197.108L709.973 194.266ZM717.118 192.138H715.914V193.23C715.914 193.818 715.606 194.266 714.878 194.266H714.514V195.456H715.802V199.152C715.802 200.37 716.53 201.07 717.678 201.07C718.126 201.07 718.462 200.986 718.574 200.944V199.824C718.462 199.852 718.224 199.88 718.056 199.88C717.37 199.88 717.118 199.572 717.118 198.956V195.456H718.574V194.266H717.118V192.138ZM723.426 200.034C722.306 200.034 721.326 199.194 721.326 197.626C721.326 196.072 722.306 195.232 723.426 195.232C724.546 195.232 725.526 196.072 725.526 197.626C725.526 199.194 724.546 200.034 723.426 200.034ZM723.426 194.056C721.41 194.056 719.982 195.582 719.982 197.626C719.982 199.684 721.41 201.21 723.426 201.21C725.442 201.21 726.87 199.684 726.87 197.626C726.87 195.582 725.442 194.056 723.426 194.056ZM737.052 200.188C737.052 200.468 737.08 200.846 737.108 201H738.368C738.34 200.762 738.298 200.286 738.298 199.754V194.266H736.982V198.326C736.982 199.348 736.45 200.048 735.386 200.048C734.28 200.048 733.86 199.236 733.86 198.312V194.266H732.544V198.508C732.544 200.034 733.496 201.21 735.064 201.21C735.848 201.21 736.688 200.888 737.052 200.188ZM740.194 199.25C740.306 200.02 741.09 201.21 742.938 201.21C744.604 201.21 745.402 200.076 745.402 199.124C745.402 198.13 744.758 197.388 743.54 197.122L742.448 196.884C741.93 196.772 741.678 196.478 741.678 196.072C741.678 195.61 742.126 195.176 742.798 195.176C743.862 195.176 744.142 195.946 744.198 196.296L745.36 195.862C745.22 195.26 744.646 194.056 742.798 194.056C741.482 194.056 740.404 195.036 740.404 196.184C740.404 197.136 741.034 197.85 742.084 198.074L743.232 198.326C743.792 198.452 744.1 198.774 744.1 199.194C744.1 199.67 743.694 200.09 742.952 200.09C742 200.09 741.468 199.53 741.384 198.83L740.194 199.25Z" fill="white"/>
<path d="M686.632 223.708V220.306H688.62C689.81 220.306 690.538 220.978 690.538 222.028C690.538 223.05 689.81 223.708 688.62 223.708H686.632ZM688.872 224.94C690.706 224.94 691.938 223.694 691.938 222.014C691.938 220.348 690.706 219.074 688.872 219.074H685.26V229H686.632V224.94H688.872ZM697.286 222.196C697.216 222.182 697.034 222.154 696.852 222.154C696.166 222.154 695.326 222.406 694.836 223.442V222.266H693.548V229H694.864V225.626C694.864 224.142 695.606 223.554 696.712 223.554C696.894 223.554 697.09 223.568 697.286 223.596V222.196ZM700.271 229V222.266H698.969V229H700.271ZM698.675 219.718C698.675 220.236 699.095 220.656 699.613 220.656C700.145 220.656 700.565 220.236 700.565 219.718C700.565 219.186 700.145 218.766 699.613 218.766C699.095 218.766 698.675 219.186 698.675 219.718ZM708.558 222.266H707.144L705.212 227.46L703.294 222.266H701.81L704.54 229H705.87L708.558 222.266ZM709.609 227.194C709.609 228.258 710.491 229.21 711.863 229.21C713.067 229.21 713.739 228.566 714.033 228.09C714.033 228.58 714.075 228.832 714.103 229H715.391C715.363 228.832 715.307 228.482 715.307 227.894V224.52C715.307 223.204 714.523 222.056 712.507 222.056C711.051 222.056 709.889 222.952 709.749 224.24L711.009 224.534C711.093 223.75 711.611 223.176 712.535 223.176C713.557 223.176 713.991 223.722 713.991 224.38C713.991 224.618 713.879 224.828 713.473 224.884L711.653 225.15C710.491 225.318 709.609 225.99 709.609 227.194ZM712.045 228.104C711.373 228.104 710.953 227.628 710.953 227.124C710.953 226.522 711.373 226.2 711.933 226.116L713.991 225.808V226.116C713.991 227.586 713.123 228.104 712.045 228.104ZM720.465 223.274C721.613 223.274 722.103 224.044 722.271 224.702L723.461 224.198C723.181 223.176 722.257 222.056 720.465 222.056C718.547 222.056 717.077 223.526 717.077 225.626C717.077 227.67 718.519 229.21 720.479 229.21C722.229 229.21 723.195 228.076 723.517 227.11L722.355 226.606C722.201 227.138 721.739 227.992 720.479 227.992C719.387 227.992 718.421 227.166 718.421 225.626C718.421 224.058 719.401 223.274 720.465 223.274ZM726.953 231.814L731.335 222.266H729.921L727.905 226.914L725.805 222.266H724.293L727.191 228.258L725.511 231.814H726.953ZM737.963 231.66V228.09C738.327 228.692 739.111 229.182 740.147 229.182C742.121 229.182 743.283 227.628 743.283 225.626C743.283 223.666 742.205 222.112 740.189 222.112C739.097 222.112 738.299 222.644 737.935 223.316V222.266H736.661V231.66H737.963ZM741.939 225.626C741.939 227.012 741.169 228.006 739.951 228.006C738.747 228.006 737.949 227.012 737.949 225.626C737.949 224.282 738.747 223.274 739.951 223.274C741.183 223.274 741.939 224.282 741.939 225.626ZM748.124 228.034C747.004 228.034 746.024 227.194 746.024 225.626C746.024 224.072 747.004 223.232 748.124 223.232C749.244 223.232 750.224 224.072 750.224 225.626C750.224 227.194 749.244 228.034 748.124 228.034ZM748.124 222.056C746.108 222.056 744.68 223.582 744.68 225.626C744.68 227.684 746.108 229.21 748.124 229.21C750.14 229.21 751.568 227.684 751.568 225.626C751.568 223.582 750.14 222.056 748.124 222.056ZM754.847 229V218.864H753.531V229H754.847ZM758.668 229V222.266H757.366V229H758.668ZM757.072 219.718C757.072 220.236 757.492 220.656 758.01 220.656C758.542 220.656 758.962 220.236 758.962 219.718C758.962 219.186 758.542 218.766 758.01 218.766C757.492 218.766 757.072 219.186 757.072 219.718ZM764.015 223.274C765.163 223.274 765.653 224.044 765.821 224.702L767.011 224.198C766.731 223.176 765.807 222.056 764.015 222.056C762.097 222.056 760.627 223.526 760.627 225.626C760.627 227.67 762.069 229.21 764.029 229.21C765.779 229.21 766.745 228.076 767.067 227.11L765.905 226.606C765.751 227.138 765.289 227.992 764.029 227.992C762.937 227.992 761.971 227.166 761.971 225.626C761.971 224.058 762.951 223.274 764.015 223.274ZM770.502 231.814L774.884 222.266H773.47L771.454 226.914L769.354 222.266H767.842L770.74 228.258L769.06 231.814H770.502Z" fill="white"/>
<path d="M692.148 248.348V247.074H684.14V248.348H687.458V257H688.83V248.348H692.148ZM693.213 252.94C693.269 252.072 693.941 251.218 695.047 251.218C696.237 251.218 696.867 251.974 696.895 252.94H693.213ZM697.091 254.69C696.839 255.446 696.293 256.048 695.201 256.048C694.067 256.048 693.199 255.208 693.171 254.004H698.239C698.253 253.92 698.267 253.752 698.267 253.584C698.267 251.484 697.105 250.056 695.033 250.056C693.339 250.056 691.813 251.498 691.813 253.612C691.813 255.894 693.395 257.21 695.201 257.21C696.769 257.21 697.847 256.272 698.225 255.082L697.091 254.69ZM703.965 250.196C703.895 250.182 703.713 250.154 703.531 250.154C702.845 250.154 702.005 250.406 701.515 251.442V250.266H700.227V257H701.543V253.626C701.543 252.142 702.285 251.554 703.391 251.554C703.573 251.554 703.769 251.568 703.965 251.596V250.196ZM706.95 257V252.94C706.95 251.932 707.58 251.232 708.518 251.232C709.526 251.232 709.946 251.904 709.946 252.772V257H711.262V252.926C711.262 251.96 711.892 251.232 712.816 251.232C713.81 251.232 714.244 251.89 714.244 252.772V257H715.546V252.632C715.546 250.868 714.398 250.07 713.222 250.07C712.368 250.07 711.5 250.378 710.968 251.344C710.604 250.476 709.792 250.07 708.952 250.07C708.168 250.07 707.328 250.42 706.908 251.162V250.266H705.648V257H706.95ZM717.301 255.25C717.413 256.02 718.197 257.21 720.045 257.21C721.711 257.21 722.509 256.076 722.509 255.124C722.509 254.13 721.865 253.388 720.647 253.122L719.555 252.884C719.037 252.772 718.785 252.478 718.785 252.072C718.785 251.61 719.233 251.176 719.905 251.176C720.969 251.176 721.249 251.946 721.305 252.296L722.467 251.862C722.327 251.26 721.753 250.056 719.905 250.056C718.589 250.056 717.511 251.036 717.511 252.184C717.511 253.136 718.141 253.85 719.191 254.074L720.339 254.326C720.899 254.452 721.207 254.774 721.207 255.194C721.207 255.67 720.801 256.09 720.059 256.09C719.107 256.09 718.575 255.53 718.491 254.83L717.301 255.25ZM734.537 257H736.399L734.145 254.676L735.489 253.122V251.316L733.277 253.78L731.429 251.862L731.933 251.484C732.633 250.966 733.333 250.266 733.333 249.286C733.333 247.802 732.199 246.864 730.701 246.864C729.469 246.864 728.139 247.732 728.139 249.342C728.139 250.308 728.867 251.064 729.329 251.554L729.511 251.75L729.371 251.862C728.321 252.646 727.621 253.346 727.621 254.634C727.621 255.908 728.615 257.168 730.491 257.168C731.597 257.168 732.465 256.594 733.277 255.684L734.537 257ZM730.505 255.908C729.595 255.908 729.035 255.194 729.035 254.522C729.035 253.836 729.399 253.388 729.875 253.024L730.379 252.646L732.395 254.76L732.353 254.816C731.807 255.418 731.261 255.908 730.505 255.908ZM729.497 249.258C729.497 248.474 730.141 248.04 730.715 248.04C731.443 248.04 731.975 248.586 731.975 249.244C731.975 249.664 731.821 250.042 731.233 250.476L730.561 250.98L730.253 250.644C729.931 250.308 729.497 249.818 729.497 249.258ZM743.85 251.274C744.998 251.274 745.488 252.044 745.656 252.702L746.846 252.198C746.566 251.176 745.642 250.056 743.85 250.056C741.932 250.056 740.462 251.526 740.462 253.626C740.462 255.67 741.904 257.21 743.864 257.21C745.614 257.21 746.58 256.076 746.902 255.11L745.74 254.606C745.586 255.138 745.124 255.992 743.864 255.992C742.772 255.992 741.806 255.166 741.806 253.626C741.806 252.058 742.786 251.274 743.85 251.274ZM751.542 256.034C750.422 256.034 749.442 255.194 749.442 253.626C749.442 252.072 750.422 251.232 751.542 251.232C752.662 251.232 753.642 252.072 753.642 253.626C753.642 255.194 752.662 256.034 751.542 256.034ZM751.542 250.056C749.526 250.056 748.098 251.582 748.098 253.626C748.098 255.684 749.526 257.21 751.542 257.21C753.558 257.21 754.986 255.684 754.986 253.626C754.986 251.582 753.558 250.056 751.542 250.056ZM758.265 253.108C758.265 252.086 758.797 251.26 759.833 251.26C761.009 251.26 761.401 252.016 761.401 252.954V257H762.717V252.73C762.717 251.232 761.919 250.07 760.309 250.07C759.525 250.07 758.727 250.392 758.237 251.232V250.266H756.949V257H758.265V253.108ZM765.875 253.612C765.875 252.226 766.659 251.246 767.863 251.246C769.067 251.246 769.795 252.198 769.795 253.584C769.795 254.97 769.053 256.02 767.849 256.02C766.589 256.02 765.875 254.998 765.875 253.612ZM769.809 256.09C769.809 256.496 769.851 256.846 769.879 257H771.153C771.139 256.888 771.083 256.398 771.083 255.754V246.864H769.781V251.218C769.557 250.672 768.913 250.084 767.723 250.084C765.819 250.084 764.531 251.708 764.531 253.612C764.531 255.614 765.749 257.182 767.723 257.182C768.773 257.182 769.487 256.622 769.809 255.978V256.09ZM774.903 257V250.266H773.601V257H774.903ZM773.307 247.718C773.307 248.236 773.727 248.656 774.245 248.656C774.777 248.656 775.197 248.236 775.197 247.718C775.197 247.186 774.777 246.766 774.245 246.766C773.727 246.766 773.307 247.186 773.307 247.718ZM779.186 248.138H777.982V249.23C777.982 249.818 777.674 250.266 776.946 250.266H776.582V251.456H777.87V255.152C777.87 256.37 778.598 257.07 779.746 257.07C780.194 257.07 780.53 256.986 780.642 256.944V255.824C780.53 255.852 780.292 255.88 780.124 255.88C779.438 255.88 779.186 255.572 779.186 254.956V251.456H780.642V250.266H779.186V248.138ZM783.981 257V250.266H782.679V257H783.981ZM782.385 247.718C782.385 248.236 782.805 248.656 783.323 248.656C783.855 248.656 784.275 248.236 784.275 247.718C784.275 247.186 783.855 246.766 783.323 246.766C782.805 246.766 782.385 247.186 782.385 247.718ZM789.384 256.034C788.264 256.034 787.284 255.194 787.284 253.626C787.284 252.072 788.264 251.232 789.384 251.232C790.504 251.232 791.484 252.072 791.484 253.626C791.484 255.194 790.504 256.034 789.384 256.034ZM789.384 250.056C787.368 250.056 785.94 251.582 785.94 253.626C785.94 255.684 787.368 257.21 789.384 257.21C791.4 257.21 792.828 255.684 792.828 253.626C792.828 251.582 791.4 250.056 789.384 250.056ZM796.107 253.108C796.107 252.086 796.639 251.26 797.675 251.26C798.851 251.26 799.243 252.016 799.243 252.954V257H800.559V252.73C800.559 251.232 799.761 250.07 798.151 250.07C797.367 250.07 796.569 250.392 796.079 251.232V250.266H794.791V257H796.107V253.108ZM802.303 255.25C802.415 256.02 803.199 257.21 805.047 257.21C806.713 257.21 807.511 256.076 807.511 255.124C807.511 254.13 806.867 253.388 805.649 253.122L804.557 252.884C804.039 252.772 803.787 252.478 803.787 252.072C803.787 251.61 804.235 251.176 804.907 251.176C805.971 251.176 806.251 251.946 806.307 252.296L807.469 251.862C807.329 251.26 806.755 250.056 804.907 250.056C803.591 250.056 802.513 251.036 802.513 252.184C802.513 253.136 803.143 253.85 804.193 254.074L805.341 254.326C805.901 254.452 806.209 254.774 806.209 255.194C806.209 255.67 805.803 256.09 805.061 256.09C804.109 256.09 803.577 255.53 803.493 254.83L802.303 255.25Z" fill="white"/>
</g>
</g>
<g clip-path="url(#clip6_1_965)">
<path d="M948.568 104V98.096H942.904V100.016H946.488C946.36 100.816 945.544 102.224 943.448 102.224C941.544 102.224 939.864 100.896 939.864 98.336C939.864 95.648 941.72 94.48 943.432 94.48C945.272 94.48 946.216 95.648 946.504 96.656L948.616 95.904C948.056 94.16 946.408 92.416 943.432 92.416C940.36 92.416 937.624 94.672 937.624 98.336C937.624 102 940.232 104.24 943.288 104.24C945 104.24 946.12 103.472 946.632 102.704L946.776 104H948.568ZM956.077 104H958.109C958.077 103.728 958.029 103.184 958.029 102.576V96.128H955.901V100.704C955.901 101.616 955.357 102.256 954.413 102.256C953.421 102.256 952.973 101.552 952.973 100.672V96.128H950.845V101.104C950.845 102.816 951.933 104.208 953.837 104.208C954.669 104.208 955.581 103.888 956.013 103.152C956.013 103.472 956.045 103.84 956.077 104ZM962.748 104V96.128H960.62V104H962.748ZM960.364 93.552C960.364 94.256 960.956 94.848 961.676 94.848C962.412 94.848 962.988 94.256 962.988 93.552C962.988 92.816 962.412 92.224 961.676 92.224C960.956 92.224 960.364 92.816 960.364 93.552ZM972.85 92.416H970.754V96.912C970.53 96.496 969.89 95.936 968.53 95.936C966.306 95.936 964.754 97.744 964.754 100.048C964.754 102.432 966.354 104.192 968.594 104.192C969.65 104.192 970.45 103.712 970.802 103.088C970.802 103.456 970.85 103.84 970.882 104H972.914C972.882 103.68 972.85 103.104 972.85 102.576V92.416ZM966.898 100.048C966.898 98.64 967.762 97.84 968.85 97.84C969.938 97.84 970.786 98.624 970.786 100.032C970.786 101.456 969.938 102.288 968.85 102.288C967.73 102.288 966.898 101.456 966.898 100.048ZM977.03 99.168C977.078 98.448 977.686 97.616 978.79 97.616C980.006 97.616 980.518 98.384 980.55 99.168H977.03ZM980.758 101.216C980.502 101.92 979.958 102.416 978.966 102.416C977.91 102.416 977.03 101.664 976.982 100.624H982.614C982.614 100.592 982.646 100.272 982.646 99.968C982.646 97.44 981.19 95.888 978.758 95.888C976.742 95.888 974.886 97.52 974.886 100.032C974.886 102.688 976.79 104.24 978.95 104.24C980.886 104.24 982.134 103.104 982.534 101.744L980.758 101.216ZM983.97 101.808C984.066 102.704 984.882 104.24 987.25 104.24C989.314 104.24 990.306 102.928 990.306 101.648C990.306 100.496 989.522 99.552 987.97 99.232L986.85 98.992C986.418 98.912 986.13 98.672 986.13 98.288C986.13 97.84 986.578 97.504 987.138 97.504C988.034 97.504 988.37 98.096 988.434 98.56L990.21 98.16C990.114 97.312 989.362 95.888 987.122 95.888C985.426 95.888 984.178 97.056 984.178 98.464C984.178 99.568 984.866 100.48 986.386 100.816L987.426 101.056C988.034 101.184 988.274 101.472 988.274 101.824C988.274 102.24 987.938 102.608 987.234 102.608C986.306 102.608 985.842 102.032 985.794 101.408L983.97 101.808Z" fill="white"/>
<g clip-path="url(#clip7_1_965)">
<path d="M948.984 145V135.074H947.15L943.622 143.152L940.122 135.074H938.26V145H939.618V137.272L942.978 145H944.238L947.626 137.272V145H948.984ZM958.116 137.328C957.892 136.25 956.996 134.864 954.756 134.864C952.922 134.864 951.48 136.264 951.48 137.818C951.48 139.302 952.488 140.226 953.902 140.534L955.316 140.842C956.31 141.052 956.8 141.668 956.8 142.382C956.8 143.25 956.128 143.964 954.756 143.964C953.258 143.964 952.474 142.942 952.376 141.836L951.06 142.256C951.242 143.67 952.376 145.21 954.77 145.21C956.884 145.21 958.2 143.81 958.2 142.27C958.2 140.884 957.276 139.848 955.624 139.484L954.14 139.162C953.3 138.98 952.866 138.434 952.866 137.72C952.866 136.796 953.664 136.068 954.784 136.068C956.17 136.068 956.772 137.048 956.884 137.762L958.116 137.328ZM961.739 139.708V136.306H963.727C964.917 136.306 965.645 136.978 965.645 138.028C965.645 139.05 964.917 139.708 963.727 139.708H961.739ZM963.979 140.94C965.813 140.94 967.045 139.694 967.045 138.014C967.045 136.348 965.813 135.074 963.979 135.074H960.367V145H961.739V140.94H963.979Z" fill="white"/>
<path d="M948.984 173V163.074H947.15L943.622 171.152L940.122 163.074H938.26V173H939.618V165.272L942.978 173H944.238L947.626 165.272V173H948.984ZM958.116 165.328C957.892 164.25 956.996 162.864 954.756 162.864C952.922 162.864 951.48 164.264 951.48 165.818C951.48 167.302 952.488 168.226 953.902 168.534L955.316 168.842C956.31 169.052 956.8 169.668 956.8 170.382C956.8 171.25 956.128 171.964 954.756 171.964C953.258 171.964 952.474 170.942 952.376 169.836L951.06 170.256C951.242 171.67 952.376 173.21 954.77 173.21C956.884 173.21 958.2 171.81 958.2 170.27C958.2 168.884 957.276 167.848 955.624 167.484L954.14 167.162C953.3 166.98 952.866 166.434 952.866 165.72C952.866 164.796 953.664 164.068 954.784 164.068C956.17 164.068 956.772 165.048 956.884 165.762L958.116 165.328ZM961.739 167.708V164.306H963.727C964.917 164.306 965.645 164.978 965.645 166.028C965.645 167.05 964.917 167.708 963.727 167.708H961.739ZM963.979 168.94C965.813 168.94 967.045 167.694 967.045 166.014C967.045 164.348 965.813 163.074 963.979 163.074H960.367V173H961.739V168.94H963.979ZM979.108 165.328C978.884 164.25 977.988 162.864 975.748 162.864C973.914 162.864 972.472 164.264 972.472 165.818C972.472 167.302 973.48 168.226 974.894 168.534L976.308 168.842C977.302 169.052 977.792 169.668 977.792 170.382C977.792 171.25 977.12 171.964 975.748 171.964C974.25 171.964 973.466 170.942 973.368 169.836L972.052 170.256C972.234 171.67 973.368 173.21 975.762 173.21C977.876 173.21 979.192 171.81 979.192 170.27C979.192 168.884 978.268 167.848 976.616 167.484L975.132 167.162C974.292 166.98 973.858 166.434 973.858 165.72C973.858 164.796 974.656 164.068 975.776 164.068C977.162 164.068 977.764 165.048 977.876 165.762L979.108 165.328ZM980.731 171.194C980.731 172.258 981.613 173.21 982.985 173.21C984.189 173.21 984.861 172.566 985.155 172.09C985.155 172.58 985.197 172.832 985.225 173H986.513C986.485 172.832 986.429 172.482 986.429 171.894V168.52C986.429 167.204 985.645 166.056 983.629 166.056C982.173 166.056 981.011 166.952 980.871 168.24L982.131 168.534C982.215 167.75 982.733 167.176 983.657 167.176C984.679 167.176 985.113 167.722 985.113 168.38C985.113 168.618 985.001 168.828 984.595 168.884L982.775 169.15C981.613 169.318 980.731 169.99 980.731 171.194ZM983.167 172.104C982.495 172.104 982.075 171.628 982.075 171.124C982.075 170.522 982.495 170.2 983.055 170.116L985.113 169.808V170.116C985.113 171.586 984.245 172.104 983.167 172.104ZM990.075 173V162.864H988.759V173H990.075ZM993.448 168.94C993.504 168.072 994.176 167.218 995.282 167.218C996.472 167.218 997.102 167.974 997.13 168.94H993.448ZM997.326 170.69C997.074 171.446 996.528 172.048 995.436 172.048C994.302 172.048 993.434 171.208 993.406 170.004H998.474C998.488 169.92 998.502 169.752 998.502 169.584C998.502 167.484 997.34 166.056 995.268 166.056C993.574 166.056 992.048 167.498 992.048 169.612C992.048 171.894 993.63 173.21 995.436 173.21C997.004 173.21 998.082 172.272 998.46 171.082L997.326 170.69ZM999.832 171.25C999.944 172.02 1000.73 173.21 1002.58 173.21C1004.24 173.21 1005.04 172.076 1005.04 171.124C1005.04 170.13 1004.4 169.388 1003.18 169.122L1002.09 168.884C1001.57 168.772 1001.32 168.478 1001.32 168.072C1001.32 167.61 1001.76 167.176 1002.44 167.176C1003.5 167.176 1003.78 167.946 1003.84 168.296L1005 167.862C1004.86 167.26 1004.28 166.056 1002.44 166.056C1001.12 166.056 1000.04 167.036 1000.04 168.184C1000.04 169.136 1000.67 169.85 1001.72 170.074L1002.87 170.326C1003.43 170.452 1003.74 170.774 1003.74 171.194C1003.74 171.67 1003.33 172.09 1002.59 172.09C1001.64 172.09 1001.11 171.53 1001.02 170.83L999.832 171.25Z" fill="white"/>
</g>
</g>
<g clip-path="url(#clip8_1_965)">
<path d="M1140.43 104.24C1143.62 104.24 1145.25 102.128 1145.68 100.384L1143.62 99.76C1143.31 100.816 1142.37 102.08 1140.43 102.08C1138.61 102.08 1136.91 100.752 1136.91 98.336C1136.91 95.76 1138.7 94.544 1140.4 94.544C1142.37 94.544 1143.25 95.744 1143.52 96.832L1145.6 96.176C1145.15 94.336 1143.54 92.416 1140.4 92.416C1137.36 92.416 1134.62 94.72 1134.62 98.336C1134.62 101.952 1137.26 104.24 1140.43 104.24ZM1150.95 102.304C1149.91 102.304 1148.95 101.536 1148.95 100.064C1148.95 98.576 1149.91 97.824 1150.95 97.824C1151.99 97.824 1152.95 98.576 1152.95 100.064C1152.95 101.552 1151.99 102.304 1150.95 102.304ZM1150.95 95.888C1148.59 95.888 1146.82 97.632 1146.82 100.064C1146.82 102.48 1148.59 104.24 1150.95 104.24C1153.3 104.24 1155.07 102.48 1155.07 100.064C1155.07 97.632 1153.3 95.888 1150.95 95.888ZM1159.2 99.472C1159.2 98.56 1159.74 97.84 1160.67 97.84C1161.7 97.84 1162.13 98.528 1162.13 99.408V104H1164.26V99.04C1164.26 97.312 1163.36 95.92 1161.41 95.92C1160.56 95.92 1159.62 96.288 1159.14 97.104V96.128H1157.07V104H1159.2V99.472ZM1169.36 93.776H1167.44V94.88C1167.44 95.584 1167.06 96.128 1166.22 96.128H1165.82V98.016H1167.25V101.68C1167.25 103.2 1168.21 104.112 1169.74 104.112C1170.37 104.112 1170.75 104 1170.94 103.92V102.16C1170.83 102.192 1170.54 102.224 1170.29 102.224C1169.68 102.224 1169.36 102 1169.36 101.312V98.016H1170.94V96.128H1169.36V93.776ZM1172.64 101.856C1172.64 103.088 1173.66 104.224 1175.34 104.224C1176.51 104.224 1177.26 103.68 1177.66 103.056C1177.66 103.36 1177.7 103.792 1177.74 104H1179.7C1179.65 103.728 1179.6 103.168 1179.6 102.752V98.88C1179.6 97.296 1178.67 95.888 1176.18 95.888C1174.06 95.888 1172.93 97.248 1172.8 98.48L1174.69 98.88C1174.75 98.192 1175.26 97.6 1176.19 97.6C1177.09 97.6 1177.52 98.064 1177.52 98.624C1177.52 98.896 1177.38 99.12 1176.93 99.184L1174.99 99.472C1173.68 99.664 1172.64 100.448 1172.64 101.856ZM1175.79 102.64C1175.1 102.64 1174.77 102.192 1174.77 101.728C1174.77 101.12 1175.2 100.816 1175.74 100.736L1177.52 100.464V100.816C1177.52 102.208 1176.69 102.64 1175.79 102.64ZM1185.57 97.856C1186.62 97.856 1187.12 98.528 1187.31 99.184L1189.22 98.544C1188.88 97.216 1187.66 95.888 1185.52 95.888C1183.23 95.888 1181.44 97.632 1181.44 100.064C1181.44 102.48 1183.26 104.24 1185.58 104.24C1187.68 104.24 1188.91 102.896 1189.26 101.584L1187.39 100.96C1187.22 101.568 1186.67 102.288 1185.58 102.288C1184.5 102.288 1183.57 101.488 1183.57 100.064C1183.57 98.64 1184.48 97.856 1185.57 97.856ZM1193.77 93.776H1191.85V94.88C1191.85 95.584 1191.47 96.128 1190.64 96.128H1190.24V98.016H1191.66V101.68C1191.66 103.2 1192.62 104.112 1194.16 104.112C1194.78 104.112 1195.17 104 1195.36 103.92V102.16C1195.25 102.192 1194.96 102.224 1194.7 102.224C1194.09 102.224 1193.77 102 1193.77 101.312V98.016H1195.36V96.128H1193.77V93.776ZM1206.11 104.256C1208.54 104.256 1210.48 102.768 1210.48 99.984V92.656H1208.27V99.824C1208.27 101.312 1207.46 102.096 1206.11 102.096C1204.8 102.096 1203.97 101.312 1203.97 99.824V92.656H1201.76V99.984C1201.76 102.768 1203.7 104.256 1206.11 104.256ZM1212.41 101.808C1212.5 102.704 1213.32 104.24 1215.69 104.24C1217.75 104.24 1218.74 102.928 1218.74 101.648C1218.74 100.496 1217.96 99.552 1216.41 99.232L1215.29 98.992C1214.85 98.912 1214.57 98.672 1214.57 98.288C1214.57 97.84 1215.01 97.504 1215.57 97.504C1216.47 97.504 1216.81 98.096 1216.87 98.56L1218.65 98.16C1218.55 97.312 1217.8 95.888 1215.56 95.888C1213.86 95.888 1212.61 97.056 1212.61 98.464C1212.61 99.568 1213.3 100.48 1214.82 100.816L1215.86 101.056C1216.47 101.184 1216.71 101.472 1216.71 101.824C1216.71 102.24 1216.37 102.608 1215.67 102.608C1214.74 102.608 1214.28 102.032 1214.23 101.408L1212.41 101.808Z" fill="white"/>
<g clip-path="url(#clip9_1_965)">
<path d="M1142.13 145H1143.62L1139.67 135.074H1138.09L1134.14 145H1135.61L1136.66 142.228H1141.06L1142.13 145ZM1138.84 136.502L1140.57 140.954H1137.15L1138.84 136.502ZM1145.81 141.612C1145.81 140.226 1146.59 139.246 1147.8 139.246C1149 139.246 1149.73 140.198 1149.73 141.584C1149.73 142.97 1148.99 144.02 1147.78 144.02C1146.52 144.02 1145.81 142.998 1145.81 141.612ZM1149.74 144.09C1149.74 144.496 1149.78 144.846 1149.81 145H1151.09C1151.07 144.888 1151.02 144.398 1151.02 143.754V134.864H1149.72V139.218C1149.49 138.672 1148.85 138.084 1147.66 138.084C1145.75 138.084 1144.46 139.708 1144.46 141.612C1144.46 143.614 1145.68 145.182 1147.66 145.182C1148.71 145.182 1149.42 144.622 1149.74 143.978V144.09ZM1154.32 141.612C1154.32 140.226 1155.1 139.246 1156.31 139.246C1157.51 139.246 1158.24 140.198 1158.24 141.584C1158.24 142.97 1157.5 144.02 1156.29 144.02C1155.03 144.02 1154.32 142.998 1154.32 141.612ZM1158.25 144.09C1158.25 144.496 1158.3 144.846 1158.32 145H1159.6C1159.58 144.888 1159.53 144.398 1159.53 143.754V134.864H1158.23V139.218C1158 138.672 1157.36 138.084 1156.17 138.084C1154.26 138.084 1152.98 139.708 1152.98 141.612C1152.98 143.614 1154.19 145.182 1156.17 145.182C1157.22 145.182 1157.93 144.622 1158.25 143.978V144.09ZM1165.78 138.196C1165.71 138.182 1165.53 138.154 1165.35 138.154C1164.66 138.154 1163.82 138.406 1163.33 139.442V138.266H1162.05V145H1163.36V141.626C1163.36 140.142 1164.1 139.554 1165.21 139.554C1165.39 139.554 1165.59 139.568 1165.78 139.596V138.196ZM1168.25 140.94C1168.31 140.072 1168.98 139.218 1170.09 139.218C1171.28 139.218 1171.91 139.974 1171.93 140.94H1168.25ZM1172.13 142.69C1171.88 143.446 1171.33 144.048 1170.24 144.048C1169.11 144.048 1168.24 143.208 1168.21 142.004H1173.28C1173.29 141.92 1173.31 141.752 1173.31 141.584C1173.31 139.484 1172.14 138.056 1170.07 138.056C1168.38 138.056 1166.85 139.498 1166.85 141.612C1166.85 143.894 1168.43 145.21 1170.24 145.21C1171.81 145.21 1172.89 144.272 1173.26 143.082L1172.13 142.69ZM1174.64 143.25C1174.75 144.02 1175.53 145.21 1177.38 145.21C1179.05 145.21 1179.84 144.076 1179.84 143.124C1179.84 142.13 1179.2 141.388 1177.98 141.122L1176.89 140.884C1176.37 140.772 1176.12 140.478 1176.12 140.072C1176.12 139.61 1176.57 139.176 1177.24 139.176C1178.3 139.176 1178.58 139.946 1178.64 140.296L1179.8 139.862C1179.66 139.26 1179.09 138.056 1177.24 138.056C1175.92 138.056 1174.85 139.036 1174.85 140.184C1174.85 141.136 1175.48 141.85 1176.53 142.074L1177.67 142.326C1178.23 142.452 1178.54 142.774 1178.54 143.194C1178.54 143.67 1178.14 144.09 1177.39 144.09C1176.44 144.09 1175.91 143.53 1175.83 142.83L1174.64 143.25ZM1181.25 143.25C1181.36 144.02 1182.14 145.21 1183.99 145.21C1185.66 145.21 1186.45 144.076 1186.45 143.124C1186.45 142.13 1185.81 141.388 1184.59 141.122L1183.5 140.884C1182.98 140.772 1182.73 140.478 1182.73 140.072C1182.73 139.61 1183.18 139.176 1183.85 139.176C1184.91 139.176 1185.19 139.946 1185.25 140.296L1186.41 139.862C1186.27 139.26 1185.7 138.056 1183.85 138.056C1182.53 138.056 1181.46 139.036 1181.46 140.184C1181.46 141.136 1182.09 141.85 1183.14 142.074L1184.28 142.326C1184.84 142.452 1185.15 142.774 1185.15 143.194C1185.15 143.67 1184.75 144.09 1184 144.09C1183.05 144.09 1182.52 143.53 1182.44 142.83L1181.25 143.25Z" fill="white"/>
</g>
</g>
<defs>
<clipPath id="clip0_1_965">
<rect width="79" height="144" fill="white" transform="translate(224 89)"/>
</clipPath>
<clipPath id="clip1_1_965">
<rect width="79" height="102" fill="white" transform="translate(224 131)"/>
</clipPath>
<clipPath id="clip2_1_965">
<rect width="125" height="172" fill="white" transform="translate(431 89)"/>
</clipPath>
<clipPath id="clip3_1_965">
<rect width="125" height="130" fill="white" transform="translate(431 131)"/>
</clipPath>
<clipPath id="clip4_1_965">
<rect width="125" height="172" fill="white" transform="translate(684 89)"/>
</clipPath>
<clipPath id="clip5_1_965">
<rect width="125" height="130" fill="white" transform="translate(684 131)"/>
</clipPath>
<clipPath id="clip6_1_965">
<rect width="69" height="88" fill="white" transform="translate(937 89)"/>
</clipPath>
<clipPath id="clip7_1_965">
<rect width="69" height="46" fill="white" transform="translate(937 131)"/>
</clipPath>
<clipPath id="clip8_1_965">
<rect width="86" height="60" fill="white" transform="translate(1134 89)"/>
</clipPath>
<clipPath id="clip9_1_965">
<rect width="54" height="18" fill="white" transform="translate(1134 131)"/>
</clipPath>
</defs>
</svg>
