<svg width="410" height="258" viewBox="0 0 410 258" fill="none" xmlns="http://www.w3.org/2000/svg">
<path d="M20.244 29V18.668H10.332V22.028H16.604C16.38 23.428 14.952 25.892 11.284 25.892C7.952 25.892 5.012 23.568 5.012 19.088C5.012 14.384 8.26 12.34 11.256 12.34C14.476 12.34 16.128 14.384 16.632 16.148L20.328 14.832C19.348 11.78 16.464 8.728 11.256 8.728C5.88 8.728 1.092 12.676 1.092 19.088C1.092 25.5 5.656 29.42 11.004 29.42C14 29.42 15.96 28.076 16.856 26.732L17.108 29H20.244ZM26.579 20.544C26.663 19.284 27.727 17.828 29.659 17.828C31.787 17.828 32.683 19.172 32.739 20.544H26.579ZM33.103 24.128C32.655 25.36 31.703 26.228 29.967 26.228C28.119 26.228 26.579 24.912 26.495 23.092H36.351C36.351 23.036 36.407 22.476 36.407 21.944C36.407 17.52 33.859 14.804 29.603 14.804C26.075 14.804 22.827 17.66 22.827 22.056C22.827 26.704 26.159 29.42 29.939 29.42C33.327 29.42 35.511 27.432 36.211 25.052L33.103 24.128ZM43.9316 11.108H40.5716V13.04C40.5716 14.272 39.8996 15.224 38.4436 15.224H37.7436V18.528H40.2356V24.94C40.2356 27.6 41.9156 29.196 44.6036 29.196C45.6956 29.196 46.3676 29 46.7036 28.86V25.78C46.5076 25.836 46.0036 25.892 45.5556 25.892C44.4916 25.892 43.9316 25.5 43.9316 24.296V18.528H46.7036V15.224H43.9316V11.108ZM71.5988 12.816V9.148H55.1628V12.816H61.4348V29H65.3268V12.816H71.5988ZM77.8448 20.908C77.9288 19.396 78.8528 18.22 80.4208 18.22C82.2128 18.22 82.9688 19.424 82.9688 20.964V29H86.6928V20.32C86.6928 17.296 85.0688 14.86 81.5688 14.86C80.2528 14.86 78.7408 15.308 77.8448 16.372V8.728H74.1208V29H77.8448V20.908ZM93.1884 20.544C93.2724 19.284 94.3364 17.828 96.2684 17.828C98.3964 17.828 99.2924 19.172 99.3484 20.544H93.1884ZM99.7124 24.128C99.2644 25.36 98.3124 26.228 96.5764 26.228C94.7284 26.228 93.1884 24.912 93.1044 23.092H102.96C102.96 23.036 103.016 22.476 103.016 21.944C103.016 17.52 100.468 14.804 96.2124 14.804C92.6844 14.804 89.4364 17.66 89.4364 22.056C89.4364 26.704 92.7684 29.42 96.5484 29.42C99.9364 29.42 102.12 27.432 102.82 25.052L99.7124 24.128ZM116.479 29V27.32C117.207 28.496 118.663 29.336 120.567 29.336C124.487 29.336 127.063 26.228 127.063 22.056C127.063 17.968 124.739 14.86 120.707 14.86C118.663 14.86 117.151 15.756 116.535 16.736V8.728H112.867V29H116.479ZM123.339 22.084C123.339 24.604 121.827 26.004 119.923 26.004C118.047 26.004 116.479 24.576 116.479 22.084C116.479 19.564 118.047 18.192 119.923 18.192C121.827 18.192 123.339 19.564 123.339 22.084ZM132.727 20.544C132.811 19.284 133.875 17.828 135.807 17.828C137.935 17.828 138.831 19.172 138.887 20.544H132.727ZM139.251 24.128C138.803 25.36 137.851 26.228 136.115 26.228C134.267 26.228 132.727 24.912 132.643 23.092H142.499C142.499 23.036 142.555 22.476 142.555 21.944C142.555 17.52 140.007 14.804 135.751 14.804C132.223 14.804 128.975 17.66 128.975 22.056C128.975 26.704 132.307 29.42 136.087 29.42C139.475 29.42 141.659 27.432 142.359 25.052L139.251 24.128ZM144.312 25.164C144.48 26.732 145.908 29.42 150.052 29.42C153.664 29.42 155.4 27.124 155.4 24.884C155.4 22.868 154.028 21.216 151.312 20.656L149.352 20.236C148.596 20.096 148.092 19.676 148.092 19.004C148.092 18.22 148.876 17.632 149.856 17.632C151.424 17.632 152.012 18.668 152.124 19.48L155.232 18.78C155.064 17.296 153.748 14.804 149.828 14.804C146.86 14.804 144.676 16.848 144.676 19.312C144.676 21.244 145.88 22.84 148.54 23.428L150.36 23.848C151.424 24.072 151.844 24.576 151.844 25.192C151.844 25.92 151.256 26.564 150.024 26.564C148.4 26.564 147.588 25.556 147.504 24.464L144.312 25.164ZM162.986 11.108H159.626V13.04C159.626 14.272 158.954 15.224 157.498 15.224H156.798V18.528H159.29V24.94C159.29 27.6 160.97 29.196 163.658 29.196C164.75 29.196 165.422 29 165.758 28.86V25.78C165.562 25.836 165.058 25.892 164.61 25.892C163.546 25.892 162.986 25.5 162.986 24.296V18.528H165.758V15.224H162.986V11.108ZM188.75 15.224H184.83L181.554 24.464L178.138 15.224H174.05L179.678 29H183.402L188.75 15.224ZM193.321 20.544C193.405 19.284 194.469 17.828 196.401 17.828C198.529 17.828 199.425 19.172 199.481 20.544H193.321ZM199.845 24.128C199.397 25.36 198.445 26.228 196.709 26.228C194.861 26.228 193.321 24.912 193.237 23.092H203.093C203.093 23.036 203.149 22.476 203.149 21.944C203.149 17.52 200.601 14.804 196.345 14.804C192.817 14.804 189.569 17.66 189.569 22.056C189.569 26.704 192.901 29.42 196.681 29.42C200.069 29.42 202.253 27.432 202.953 25.052L199.845 24.128ZM214.482 15.168C214.202 15.14 213.922 15.112 213.614 15.112C212.438 15.112 210.534 15.448 209.694 17.268V15.224H206.082V29H209.806V22.7C209.806 19.732 211.458 18.808 213.362 18.808C213.698 18.808 214.062 18.836 214.482 18.92V15.168ZM216.007 25.164C216.175 26.732 217.603 29.42 221.747 29.42C225.359 29.42 227.095 27.124 227.095 24.884C227.095 22.868 225.723 21.216 223.007 20.656L221.047 20.236C220.291 20.096 219.787 19.676 219.787 19.004C219.787 18.22 220.571 17.632 221.551 17.632C223.119 17.632 223.707 18.668 223.819 19.48L226.927 18.78C226.759 17.296 225.443 14.804 221.523 14.804C218.555 14.804 216.371 16.848 216.371 19.312C216.371 21.244 217.575 22.84 220.235 23.428L222.055 23.848C223.119 24.072 223.539 24.576 223.539 25.192C223.539 25.92 222.951 26.564 221.719 26.564C220.095 26.564 219.283 25.556 219.199 24.464L216.007 25.164ZM233.814 29V15.224H230.09V29H233.814ZM229.642 10.716C229.642 11.948 230.678 12.984 231.938 12.984C233.226 12.984 234.234 11.948 234.234 10.716C234.234 9.428 233.226 8.392 231.938 8.392C230.678 8.392 229.642 9.428 229.642 10.716ZM243.989 26.032C242.169 26.032 240.489 24.688 240.489 22.112C240.489 19.508 242.169 18.192 243.989 18.192C245.809 18.192 247.489 19.508 247.489 22.112C247.489 24.716 245.809 26.032 243.989 26.032ZM243.989 14.804C239.873 14.804 236.765 17.856 236.765 22.112C236.765 26.34 239.873 29.42 243.989 29.42C248.105 29.42 251.213 26.34 251.213 22.112C251.213 17.856 248.105 14.804 243.989 14.804ZM257.876 21.076C257.876 19.48 258.828 18.22 260.452 18.22C262.244 18.22 263 19.424 263 20.964V29H266.724V20.32C266.724 17.296 265.156 14.86 261.74 14.86C260.256 14.86 258.604 15.504 257.764 16.932V15.224H254.152V29H257.876V21.076ZM283.61 26.032C281.79 26.032 280.11 24.688 280.11 22.112C280.11 19.508 281.79 18.192 283.61 18.192C285.43 18.192 287.11 19.508 287.11 22.112C287.11 24.716 285.43 26.032 283.61 26.032ZM283.61 14.804C279.494 14.804 276.386 17.856 276.386 22.112C276.386 26.34 279.494 29.42 283.61 29.42C287.726 29.42 290.834 26.34 290.834 22.112C290.834 17.856 287.726 14.804 283.61 14.804ZM300.157 11.808C300.773 11.808 301.137 11.892 301.333 11.948V8.812C301.025 8.672 300.269 8.532 299.485 8.532C296.433 8.532 294.473 10.548 294.473 13.656V15.224H292.177V18.416H294.473V29H298.225V18.416H301.333V15.224H298.225V13.712C298.225 12.172 299.317 11.808 300.157 11.808ZM7.196 57.656V66H11.06V57.656L18.06 46.148H13.72L9.268 54.016L4.816 46.148H0.28L7.196 57.656ZM23.7619 63.032C21.9419 63.032 20.2619 61.688 20.2619 59.112C20.2619 56.508 21.9419 55.192 23.7619 55.192C25.5819 55.192 27.2619 56.508 27.2619 59.112C27.2619 61.716 25.5819 63.032 23.7619 63.032ZM23.7619 51.804C19.6459 51.804 16.5379 54.856 16.5379 59.112C16.5379 63.34 19.6459 66.42 23.7619 66.42C27.8779 66.42 30.9859 63.34 30.9859 59.112C30.9859 54.856 27.8779 51.804 23.7619 51.804ZM42.8868 66H46.4428C46.3868 65.524 46.3028 64.572 46.3028 63.508V52.224H42.5788V60.232C42.5788 61.828 41.6268 62.948 39.9748 62.948C38.2388 62.948 37.4548 61.716 37.4548 60.176V52.224H33.7308V60.932C33.7308 63.928 35.6348 66.364 38.9668 66.364C40.4228 66.364 42.0188 65.804 42.7748 64.516C42.7748 65.076 42.8308 65.72 42.8868 66ZM58.6771 52.168C58.3971 52.14 58.1171 52.112 57.8091 52.112C56.6331 52.112 54.7291 52.448 53.8891 54.268V52.224H50.2771V66H54.0011V59.7C54.0011 56.732 55.6531 55.808 57.5571 55.808C57.8931 55.808 58.2571 55.836 58.6771 55.92V52.168ZM66.9565 62.164C67.1245 63.732 68.5525 66.42 72.6965 66.42C76.3085 66.42 78.0445 64.124 78.0445 61.884C78.0445 59.868 76.6725 58.216 73.9565 57.656L71.9965 57.236C71.2405 57.096 70.7365 56.676 70.7365 56.004C70.7365 55.22 71.5205 54.632 72.5005 54.632C74.0685 54.632 74.6565 55.668 74.7685 56.48L77.8765 55.78C77.7085 54.296 76.3925 51.804 72.4725 51.804C69.5045 51.804 67.3205 53.848 67.3205 56.312C67.3205 58.244 68.5245 59.84 71.1845 60.428L73.0045 60.848C74.0685 61.072 74.4885 61.576 74.4885 62.192C74.4885 62.92 73.9005 63.564 72.6685 63.564C71.0445 63.564 70.2325 62.556 70.1485 61.464L66.9565 62.164ZM80.0894 62.248C80.0894 64.404 81.8814 66.392 84.8214 66.392C86.8654 66.392 88.1814 65.44 88.8814 64.348C88.8814 64.88 88.9374 65.636 89.0214 66H92.4374C92.3534 65.524 92.2694 64.544 92.2694 63.816V57.04C92.2694 54.268 90.6454 51.804 86.2774 51.804C82.5814 51.804 80.5934 54.184 80.3694 56.34L83.6734 57.04C83.7854 55.836 84.6814 54.8 86.3054 54.8C87.8734 54.8 88.6294 55.612 88.6294 56.592C88.6294 57.068 88.3774 57.46 87.5934 57.572L84.2054 58.076C81.9094 58.412 80.0894 59.784 80.0894 62.248ZM85.6054 63.62C84.4014 63.62 83.8134 62.836 83.8134 62.024C83.8134 60.96 84.5694 60.428 85.5214 60.288L88.6294 59.812V60.428C88.6294 62.864 87.1734 63.62 85.6054 63.62ZM99.7472 66V45.728H96.0232V66H99.7472ZM106.45 57.544C106.534 56.284 107.598 54.828 109.53 54.828C111.658 54.828 112.554 56.172 112.61 57.544H106.45ZM112.974 61.128C112.526 62.36 111.574 63.228 109.838 63.228C107.99 63.228 106.45 61.912 106.366 60.092H116.222C116.222 60.036 116.278 59.476 116.278 58.944C116.278 54.52 113.73 51.804 109.474 51.804C105.946 51.804 102.698 54.66 102.698 59.056C102.698 63.704 106.03 66.42 109.81 66.42C113.198 66.42 115.382 64.432 116.082 62.052L112.974 61.128ZM118.035 62.164C118.203 63.732 119.631 66.42 123.775 66.42C127.387 66.42 129.123 64.124 129.123 61.884C129.123 59.868 127.751 58.216 125.035 57.656L123.075 57.236C122.319 57.096 121.815 56.676 121.815 56.004C121.815 55.22 122.599 54.632 123.579 54.632C125.147 54.632 125.735 55.668 125.847 56.48L128.955 55.78C128.787 54.296 127.471 51.804 123.551 51.804C120.583 51.804 118.399 53.848 118.399 56.312C118.399 58.244 119.603 59.84 122.263 60.428L124.083 60.848C125.147 61.072 125.567 61.576 125.567 62.192C125.567 62.92 124.979 63.564 123.747 63.564C122.123 63.564 121.311 62.556 121.227 61.464L118.035 62.164ZM142.759 71.32V64.656C143.431 65.58 144.831 66.336 146.735 66.336C150.627 66.336 153.231 63.256 153.231 59.084C153.231 54.996 150.907 51.916 146.875 51.916C144.803 51.916 143.263 52.84 142.647 53.904V52.224H139.035V71.32H142.759ZM149.563 59.112C149.563 61.576 148.051 63.004 146.147 63.004C144.243 63.004 142.703 61.548 142.703 59.112C142.703 56.676 144.243 55.248 146.147 55.248C148.051 55.248 149.563 56.676 149.563 59.112ZM159.903 66V45.728H156.179V66H159.903ZM162.968 62.248C162.968 64.404 164.76 66.392 167.7 66.392C169.744 66.392 171.06 65.44 171.76 64.348C171.76 64.88 171.816 65.636 171.9 66H175.316C175.232 65.524 175.148 64.544 175.148 63.816V57.04C175.148 54.268 173.524 51.804 169.156 51.804C165.46 51.804 163.472 54.184 163.248 56.34L166.552 57.04C166.664 55.836 167.56 54.8 169.184 54.8C170.752 54.8 171.508 55.612 171.508 56.592C171.508 57.068 171.256 57.46 170.472 57.572L167.084 58.076C164.788 58.412 162.968 59.784 162.968 62.248ZM168.484 63.62C167.28 63.62 166.692 62.836 166.692 62.024C166.692 60.96 167.448 60.428 168.4 60.288L171.508 59.812V60.428C171.508 62.864 170.052 63.62 168.484 63.62ZM183.307 71.432L191.959 52.224H187.983L184.595 60.288L180.927 52.224H176.755L182.607 64.264L179.359 71.432H183.307ZM197.827 66V64.32C198.555 65.496 200.011 66.336 201.915 66.336C205.835 66.336 208.411 63.228 208.411 59.056C208.411 54.968 206.087 51.86 202.055 51.86C200.011 51.86 198.499 52.756 197.883 53.736V45.728H194.215V66H197.827ZM204.687 59.084C204.687 61.604 203.175 63.004 201.271 63.004C199.395 63.004 197.827 61.576 197.827 59.084C197.827 56.564 199.395 55.192 201.271 55.192C203.175 55.192 204.687 56.564 204.687 59.084ZM217.547 63.032C215.727 63.032 214.047 61.688 214.047 59.112C214.047 56.508 215.727 55.192 217.547 55.192C219.367 55.192 221.047 56.508 221.047 59.112C221.047 61.716 219.367 63.032 217.547 63.032ZM217.547 51.804C213.431 51.804 210.323 54.856 210.323 59.112C210.323 63.34 213.431 66.42 217.547 66.42C221.663 66.42 224.771 63.34 224.771 59.112C224.771 54.856 221.663 51.804 217.547 51.804ZM233.899 63.032C232.079 63.032 230.399 61.688 230.399 59.112C230.399 56.508 232.079 55.192 233.899 55.192C235.719 55.192 237.399 56.508 237.399 59.112C237.399 61.716 235.719 63.032 233.899 63.032ZM233.899 51.804C229.783 51.804 226.675 54.856 226.675 59.112C226.675 63.34 229.783 66.42 233.899 66.42C238.015 66.42 241.123 63.34 241.123 59.112C241.123 54.856 238.015 51.804 233.899 51.804ZM257.418 52.224H252.546L247.786 57.348V45.728H244.062V66H247.786V62.36L249.326 60.736L252.966 66H257.53L251.902 58.02L257.418 52.224Z" fill="#181818"/>
<path d="M11.264 117V111.448H5.84V112.856H9.776C9.712 114.024 8.8 115.816 6.272 115.816C4.24 115.816 2.32 114.328 2.32 111.32C2.32 108.312 4.304 106.856 6.336 106.856C8.096 106.856 9.424 107.816 9.936 109.448L11.36 108.84C10.704 106.792 8.8 105.416 6.336 105.416C3.536 105.416 0.72 107.48 0.72 111.32C0.72 115.16 3.376 117.24 6.224 117.24C8.128 117.24 9.36 116.296 9.856 115.4L10 117H11.264ZM13.1944 114.936C13.1944 116.152 14.2024 117.24 15.7704 117.24C17.1464 117.24 17.9144 116.504 18.2504 115.96C18.2504 116.52 18.2984 116.808 18.3304 117H19.8024C19.7704 116.808 19.7064 116.408 19.7064 115.736V111.88C19.7064 110.376 18.8104 109.064 16.5064 109.064C14.8424 109.064 13.5144 110.088 13.3544 111.56L14.7944 111.896C14.8904 111 15.4824 110.344 16.5384 110.344C17.7064 110.344 18.2024 110.968 18.2024 111.72C18.2024 111.992 18.0744 112.232 17.6104 112.296L15.5304 112.6C14.2024 112.792 13.1944 113.56 13.1944 114.936ZM15.9784 115.976C15.2104 115.976 14.7304 115.432 14.7304 114.856C14.7304 114.168 15.2104 113.8 15.8504 113.704L18.2024 113.352V113.704C18.2024 115.384 17.2104 115.976 15.9784 115.976ZM24.2254 106.872H22.8494V108.12C22.8494 108.792 22.4974 109.304 21.6654 109.304H21.2494V110.664H22.7214V114.888C22.7214 116.28 23.5534 117.08 24.8654 117.08C25.3774 117.08 25.7614 116.984 25.8894 116.936V115.656C25.7614 115.688 25.4894 115.72 25.2974 115.72C24.5134 115.72 24.2254 115.368 24.2254 114.664V110.664H25.8894V109.304H24.2254V106.872ZM29.5609 112.472C29.5929 111.336 30.2009 110.44 31.3529 110.44C32.6969 110.44 33.1449 111.304 33.1449 112.376V117H34.6489V112.12C34.6489 110.408 33.7369 109.08 31.8969 109.08C31.0169 109.08 30.1209 109.384 29.5609 110.2V105.416H28.0569V117H29.5609V112.472ZM38.1772 112.36C38.2412 111.368 39.0092 110.392 40.2732 110.392C41.6332 110.392 42.3532 111.256 42.3852 112.36H38.1772ZM42.6092 114.36C42.3212 115.224 41.6972 115.912 40.4492 115.912C39.1532 115.912 38.1612 114.952 38.1292 113.576H43.9212C43.9373 113.48 43.9532 113.288 43.9532 113.096C43.9532 110.696 42.6252 109.064 40.2572 109.064C38.3212 109.064 36.5772 110.712 36.5772 113.128C36.5772 115.736 38.3852 117.24 40.4492 117.24C42.2412 117.24 43.4732 116.168 43.9052 114.808L42.6092 114.36ZM50.3051 109.224C50.2251 109.208 50.0171 109.176 49.8091 109.176C49.0251 109.176 48.0651 109.464 47.5051 110.648V109.304H46.0331V117H47.5371V113.144C47.5371 111.448 48.3851 110.776 49.6491 110.776C49.8571 110.776 50.0811 110.792 50.3051 110.824V109.224ZM57.7161 117V109.304H56.2281V117H57.7161ZM55.8921 106.392C55.8921 106.984 56.3721 107.464 56.9641 107.464C57.5721 107.464 58.0521 106.984 58.0521 106.392C58.0521 105.784 57.5721 105.304 56.9641 105.304C56.3721 105.304 55.8921 105.784 55.8921 106.392ZM61.939 112.552C61.939 111.384 62.547 110.44 63.731 110.44C65.075 110.44 65.523 111.304 65.523 112.376V117H67.027V112.12C67.027 110.408 66.115 109.08 64.275 109.08C63.379 109.08 62.467 109.448 61.907 110.408V109.304H60.435V117H61.939V112.552ZM68.8594 115C68.9874 115.88 69.8834 117.24 71.9954 117.24C73.8994 117.24 74.8114 115.944 74.8114 114.856C74.8114 113.72 74.0754 112.872 72.6834 112.568L71.4354 112.296C70.8434 112.168 70.5554 111.832 70.5554 111.368C70.5554 110.84 71.0674 110.344 71.8354 110.344C73.0514 110.344 73.3714 111.224 73.4354 111.624L74.7634 111.128C74.6034 110.44 73.9474 109.064 71.8354 109.064C70.3314 109.064 69.0994 110.184 69.0994 111.496C69.0994 112.584 69.8194 113.4 71.0194 113.656L72.3314 113.944C72.9714 114.088 73.3234 114.456 73.3234 114.936C73.3234 115.48 72.8594 115.96 72.0114 115.96C70.9234 115.96 70.3154 115.32 70.2194 114.52L68.8594 115ZM78.4617 117V109.304H76.9737V117H78.4617ZM76.6377 106.392C76.6377 106.984 77.1177 107.464 77.7097 107.464C78.3177 107.464 78.7977 106.984 78.7977 106.392C78.7977 105.784 78.3177 105.304 77.7097 105.304C77.1177 105.304 76.6377 105.784 76.6377 106.392ZM80.6206 117.416C80.8126 119.064 82.2526 120.28 84.1726 120.28C87.0686 120.28 88.0286 118.376 88.0286 116.424V109.304H86.5406V110.376C86.1566 109.608 85.3566 109.16 84.1726 109.16C82.0606 109.16 80.6366 110.824 80.6366 112.904C80.6366 115.08 82.1246 116.632 84.1726 116.632C85.3246 116.632 86.1566 116.072 86.5246 115.368V116.472C86.5246 118.136 85.7886 118.968 84.1726 118.968C83.0046 118.968 82.1886 118.152 82.0766 117.08L80.6206 117.416ZM84.3966 115.368C83.0366 115.368 82.1726 114.408 82.1726 112.904C82.1726 111.416 83.0686 110.44 84.3966 110.44C85.6926 110.44 86.5886 111.416 86.5886 112.904C86.5886 114.392 85.6926 115.368 84.3966 115.368ZM92.0946 112.472C92.1266 111.336 92.7346 110.44 93.8866 110.44C95.2306 110.44 95.6786 111.304 95.6786 112.376V117H97.1826V112.12C97.1826 110.408 96.2706 109.08 94.4306 109.08C93.5506 109.08 92.6546 109.384 92.0946 110.2V105.416H90.5906V117H92.0946V112.472ZM101.751 106.872H100.375V108.12C100.375 108.792 100.023 109.304 99.191 109.304H98.775V110.664H100.247V114.888C100.247 116.28 101.079 117.08 102.391 117.08C102.903 117.08 103.287 116.984 103.415 116.936V115.656C103.287 115.688 103.015 115.72 102.823 115.72C102.039 115.72 101.751 115.368 101.751 114.664V110.664H103.415V109.304H101.751V106.872ZM104.941 115C105.069 115.88 105.965 117.24 108.077 117.24C109.981 117.24 110.893 115.944 110.893 114.856C110.893 113.72 110.157 112.872 108.765 112.568L107.517 112.296C106.925 112.168 106.637 111.832 106.637 111.368C106.637 110.84 107.149 110.344 107.917 110.344C109.133 110.344 109.453 111.224 109.517 111.624L110.845 111.128C110.685 110.44 110.029 109.064 107.917 109.064C106.413 109.064 105.181 110.184 105.181 111.496C105.181 112.584 105.901 113.4 107.101 113.656L108.413 113.944C109.053 114.088 109.405 114.456 109.405 114.936C109.405 115.48 108.941 115.96 108.093 115.96C107.005 115.96 106.397 115.32 106.301 114.52L104.941 115ZM116.735 114.936C116.735 116.152 117.743 117.24 119.311 117.24C120.687 117.24 121.455 116.504 121.791 115.96C121.791 116.52 121.839 116.808 121.871 117H123.343C123.311 116.808 123.247 116.408 123.247 115.736V111.88C123.247 110.376 122.351 109.064 120.047 109.064C118.383 109.064 117.055 110.088 116.895 111.56L118.335 111.896C118.431 111 119.023 110.344 120.079 110.344C121.247 110.344 121.743 110.968 121.743 111.72C121.743 111.992 121.615 112.232 121.151 112.296L119.071 112.6C117.743 112.792 116.735 113.56 116.735 114.936ZM119.519 115.976C118.751 115.976 118.271 115.432 118.271 114.856C118.271 114.168 118.751 113.8 119.391 113.704L121.743 113.352V113.704C121.743 115.384 120.751 115.976 119.519 115.976ZM127.238 117V115.88C127.718 116.712 128.598 117.208 129.734 117.208C132.022 117.208 133.318 115.4 133.318 113.112C133.318 110.872 132.118 109.08 129.782 109.08C128.502 109.08 127.606 109.704 127.238 110.392V105.416H125.75V117H127.238ZM131.782 113.112C131.782 114.776 130.886 115.864 129.51 115.864C128.182 115.864 127.222 114.776 127.222 113.112C127.222 111.448 128.182 110.408 129.51 110.408C130.902 110.408 131.782 111.448 131.782 113.112ZM138.69 115.896C137.41 115.896 136.29 114.936 136.29 113.144C136.29 111.368 137.41 110.408 138.69 110.408C139.97 110.408 141.09 111.368 141.09 113.144C141.09 114.936 139.97 115.896 138.69 115.896ZM138.69 109.064C136.386 109.064 134.754 110.808 134.754 113.144C134.754 115.496 136.386 117.24 138.69 117.24C140.994 117.24 142.626 115.496 142.626 113.144C142.626 110.808 140.994 109.064 138.69 109.064ZM149.704 116.072C149.704 116.392 149.736 116.824 149.768 117H151.208C151.176 116.728 151.128 116.184 151.128 115.576V109.304H149.624V113.944C149.624 115.112 149.016 115.912 147.8 115.912C146.536 115.912 146.056 114.984 146.056 113.928V109.304H144.552V114.152C144.552 115.896 145.64 117.24 147.432 117.24C148.328 117.24 149.288 116.872 149.704 116.072ZM155.871 106.872H154.495V108.12C154.495 108.792 154.143 109.304 153.311 109.304H152.895V110.664H154.367V114.888C154.367 116.28 155.199 117.08 156.511 117.08C157.023 117.08 157.407 116.984 157.535 116.936V115.656C157.407 115.688 157.135 115.72 156.943 115.72C156.159 115.72 155.871 115.368 155.871 114.664V110.664H157.535V109.304H155.871V106.872ZM165.879 106.872H164.503V108.12C164.503 108.792 164.151 109.304 163.319 109.304H162.903V110.664H164.375V114.888C164.375 116.28 165.207 117.08 166.519 117.08C167.031 117.08 167.415 116.984 167.543 116.936V115.656C167.415 115.688 167.143 115.72 166.951 115.72C166.167 115.72 165.879 115.368 165.879 114.664V110.664H167.543V109.304H165.879V106.872ZM172.928 115.896C171.648 115.896 170.528 114.936 170.528 113.144C170.528 111.368 171.648 110.408 172.928 110.408C174.208 110.408 175.328 111.368 175.328 113.144C175.328 114.936 174.208 115.896 172.928 115.896ZM172.928 109.064C170.624 109.064 168.992 110.808 168.992 113.144C168.992 115.496 170.624 117.24 172.928 117.24C175.232 117.24 176.864 115.496 176.864 113.144C176.864 110.808 175.232 109.064 172.928 109.064ZM180.436 120.04V115.96C180.852 116.648 181.748 117.208 182.932 117.208C185.188 117.208 186.516 115.432 186.516 113.144C186.516 110.904 185.284 109.128 182.98 109.128C181.732 109.128 180.82 109.736 180.404 110.504V109.304H178.948V120.04H180.436ZM184.98 113.144C184.98 114.728 184.1 115.864 182.708 115.864C181.332 115.864 180.42 114.728 180.42 113.144C180.42 111.608 181.332 110.456 182.708 110.456C184.116 110.456 184.98 111.608 184.98 113.144ZM195.985 110.456C197.297 110.456 197.857 111.336 198.049 112.088L199.409 111.512C199.089 110.344 198.033 109.064 195.985 109.064C193.793 109.064 192.113 110.744 192.113 113.144C192.113 115.48 193.761 117.24 196.001 117.24C198.001 117.24 199.105 115.944 199.473 114.84L198.145 114.264C197.969 114.872 197.441 115.848 196.001 115.848C194.753 115.848 193.649 114.904 193.649 113.144C193.649 111.352 194.769 110.456 195.985 110.456ZM202.901 112.472C202.933 111.336 203.541 110.44 204.693 110.44C206.037 110.44 206.485 111.304 206.485 112.376V117H207.989V112.12C207.989 110.408 207.077 109.08 205.237 109.08C204.357 109.08 203.461 109.384 202.901 110.2V105.416H201.397V117H202.901V112.472ZM210.061 114.936C210.061 116.152 211.069 117.24 212.637 117.24C214.013 117.24 214.781 116.504 215.117 115.96C215.117 116.52 215.165 116.808 215.197 117H216.669C216.637 116.808 216.573 116.408 216.573 115.736V111.88C216.573 110.376 215.677 109.064 213.373 109.064C211.709 109.064 210.381 110.088 210.221 111.56L211.661 111.896C211.757 111 212.349 110.344 213.405 110.344C214.573 110.344 215.069 110.968 215.069 111.72C215.069 111.992 214.941 112.232 214.477 112.296L212.397 112.6C211.069 112.792 210.061 113.56 210.061 114.936ZM212.845 115.976C212.077 115.976 211.597 115.432 211.597 114.856C211.597 114.168 212.077 113.8 212.717 113.704L215.069 113.352V113.704C215.069 115.384 214.077 115.976 212.845 115.976ZM220.58 112.552C220.58 111.384 221.188 110.44 222.372 110.44C223.716 110.44 224.164 111.304 224.164 112.376V117H225.668V112.12C225.668 110.408 224.756 109.08 222.916 109.08C222.02 109.08 221.108 109.448 220.548 110.408V109.304H219.076V117H220.58V112.552ZM229.725 112.552C229.725 111.384 230.333 110.44 231.517 110.44C232.861 110.44 233.309 111.304 233.309 112.376V117H234.813V112.12C234.813 110.408 233.901 109.08 232.061 109.08C231.165 109.08 230.253 109.448 229.693 110.408V109.304H228.221V117H229.725V112.552ZM238.341 112.36C238.405 111.368 239.173 110.392 240.437 110.392C241.797 110.392 242.517 111.256 242.549 112.36H238.341ZM242.773 114.36C242.485 115.224 241.861 115.912 240.613 115.912C239.317 115.912 238.325 114.952 238.293 113.576H244.085C244.101 113.48 244.117 113.288 244.117 113.096C244.117 110.696 242.789 109.064 240.421 109.064C238.485 109.064 236.741 110.712 236.741 113.128C236.741 115.736 238.549 117.24 240.613 117.24C242.405 117.24 243.637 116.168 244.069 114.808L242.773 114.36ZM247.701 117V105.416H246.197V117H247.701ZM253.859 115C253.987 115.88 254.883 117.24 256.995 117.24C258.899 117.24 259.811 115.944 259.811 114.856C259.811 113.72 259.075 112.872 257.683 112.568L256.435 112.296C255.843 112.168 255.555 111.832 255.555 111.368C255.555 110.84 256.067 110.344 256.835 110.344C258.051 110.344 258.371 111.224 258.435 111.624L259.763 111.128C259.603 110.44 258.947 109.064 256.835 109.064C255.331 109.064 254.099 110.184 254.099 111.496C254.099 112.584 254.819 113.4 256.019 113.656L257.331 113.944C257.971 114.088 258.323 114.456 258.323 114.936C258.323 115.48 257.859 115.96 257.011 115.96C255.923 115.96 255.315 115.32 255.219 114.52L253.859 115ZM262.872 112.36C262.936 111.368 263.704 110.392 264.968 110.392C266.328 110.392 267.048 111.256 267.08 112.36H262.872ZM267.304 114.36C267.016 115.224 266.392 115.912 265.144 115.912C263.848 115.912 262.856 114.952 262.824 113.576H268.616C268.632 113.48 268.648 113.288 268.648 113.096C268.648 110.696 267.32 109.064 264.952 109.064C263.016 109.064 261.272 110.712 261.272 113.128C261.272 115.736 263.08 117.24 265.144 117.24C266.936 117.24 268.168 116.168 268.6 114.808L267.304 114.36ZM272.232 117V105.416H270.728V117H272.232ZM276.454 117V105.416H274.95V117H276.454ZM280.148 112.36C280.212 111.368 280.98 110.392 282.244 110.392C283.604 110.392 284.324 111.256 284.356 112.36H280.148ZM284.58 114.36C284.292 115.224 283.668 115.912 282.42 115.912C281.124 115.912 280.132 114.952 280.1 113.576H285.892C285.908 113.48 285.924 113.288 285.924 113.096C285.924 110.696 284.596 109.064 282.228 109.064C280.292 109.064 278.548 110.712 278.548 113.128C278.548 115.736 280.356 117.24 282.42 117.24C284.212 117.24 285.444 116.168 285.876 114.808L284.58 114.36ZM292.276 109.224C292.196 109.208 291.988 109.176 291.78 109.176C290.996 109.176 290.036 109.464 289.476 110.648V109.304H288.004V117H289.508V113.144C289.508 111.448 290.356 110.776 291.62 110.776C291.828 110.776 292.052 110.792 292.276 110.824V109.224ZM293.319 115C293.447 115.88 294.343 117.24 296.455 117.24C298.359 117.24 299.271 115.944 299.271 114.856C299.271 113.72 298.535 112.872 297.143 112.568L295.895 112.296C295.303 112.168 295.015 111.832 295.015 111.368C295.015 110.84 295.527 110.344 296.295 110.344C297.511 110.344 297.831 111.224 297.895 111.624L299.223 111.128C299.063 110.44 298.407 109.064 296.295 109.064C294.791 109.064 293.559 110.184 293.559 111.496C293.559 112.584 294.279 113.4 295.479 113.656L296.791 113.944C297.431 114.088 297.783 114.456 297.783 114.936C297.783 115.48 297.319 115.96 296.471 115.96C295.383 115.96 294.775 115.32 294.679 114.52L293.319 115ZM305.114 114.936C305.114 116.152 306.122 117.24 307.69 117.24C309.066 117.24 309.834 116.504 310.17 115.96C310.17 116.52 310.218 116.808 310.25 117H311.722C311.69 116.808 311.626 116.408 311.626 115.736V111.88C311.626 110.376 310.73 109.064 308.426 109.064C306.762 109.064 305.434 110.088 305.274 111.56L306.714 111.896C306.81 111 307.402 110.344 308.458 110.344C309.626 110.344 310.122 110.968 310.122 111.72C310.122 111.992 309.994 112.232 309.53 112.296L307.45 112.6C306.122 112.792 305.114 113.56 305.114 114.936ZM307.898 115.976C307.13 115.976 306.65 115.432 306.65 114.856C306.65 114.168 307.13 113.8 307.77 113.704L310.122 113.352V113.704C310.122 115.384 309.13 115.976 307.898 115.976ZM315.633 112.552C315.633 111.384 316.241 110.44 317.425 110.44C318.769 110.44 319.217 111.304 319.217 112.376V117H320.721V112.12C320.721 110.408 319.809 109.08 317.969 109.08C317.073 109.08 316.161 109.448 315.601 110.408V109.304H314.129V117H315.633V112.552ZM324.169 113.128C324.169 111.544 325.065 110.424 326.441 110.424C327.817 110.424 328.649 111.512 328.649 113.096C328.649 114.68 327.801 115.88 326.425 115.88C324.985 115.88 324.169 114.712 324.169 113.128ZM328.665 115.96C328.665 116.424 328.713 116.824 328.745 117H330.201C330.185 116.872 330.121 116.312 330.121 115.576V105.416H328.633V110.392C328.377 109.768 327.641 109.096 326.281 109.096C324.105 109.096 322.633 110.952 322.633 113.128C322.633 115.416 324.025 117.208 326.281 117.208C327.481 117.208 328.297 116.568 328.665 115.832V115.96ZM339.991 105.368C338.599 105.368 337.463 106.296 337.463 108.008V109.304H336.039V110.664H337.463V117H339.015V110.664H342.615V117H344.103V109.304H339.015V108.072C339.015 107.016 339.703 106.776 340.231 106.776C340.615 106.776 340.807 106.84 340.887 106.872V105.528C340.823 105.48 340.503 105.368 339.991 105.368ZM342.279 106.36C342.279 106.952 342.759 107.432 343.351 107.432C343.959 107.432 344.439 106.952 344.439 106.36C344.439 105.752 343.959 105.272 343.351 105.272C342.759 105.272 342.279 105.752 342.279 106.36ZM348.32 112.552C348.32 111.384 348.928 110.44 350.112 110.44C351.456 110.44 351.904 111.304 351.904 112.376V117H353.408V112.12C353.408 110.408 352.496 109.08 350.656 109.08C349.76 109.08 348.848 109.448 348.288 110.408V109.304H346.816V117H348.32V112.552ZM356.856 113.128C356.856 111.544 357.752 110.424 359.128 110.424C360.504 110.424 361.336 111.512 361.336 113.096C361.336 114.68 360.488 115.88 359.112 115.88C357.672 115.88 356.856 114.712 356.856 113.128ZM361.352 115.96C361.352 116.424 361.4 116.824 361.432 117H362.888C362.872 116.872 362.808 116.312 362.808 115.576V105.416H361.32V110.392C361.064 109.768 360.328 109.096 358.968 109.096C356.792 109.096 355.32 110.952 355.32 113.128C355.32 115.416 356.712 117.208 358.968 117.208C360.168 117.208 360.984 116.568 361.352 115.832V115.96ZM4.576 142.896C3.296 142.896 2.176 141.936 2.176 140.144C2.176 138.368 3.296 137.408 4.576 137.408C5.856 137.408 6.976 138.368 6.976 140.144C6.976 141.936 5.856 142.896 4.576 142.896ZM4.576 136.064C2.272 136.064 0.64 137.808 0.64 140.144C0.64 142.496 2.272 144.24 4.576 144.24C6.88 144.24 8.512 142.496 8.512 140.144C8.512 137.808 6.88 136.064 4.576 136.064ZM15.5901 143.072C15.5901 143.392 15.6221 143.824 15.6541 144H17.0941C17.0621 143.728 17.0141 143.184 17.0141 142.576V136.304H15.5101V140.944C15.5101 142.112 14.9021 142.912 13.6861 142.912C12.4221 142.912 11.9421 141.984 11.9421 140.928V136.304H10.4381V141.152C10.4381 142.896 11.5261 144.24 13.3181 144.24C14.2141 144.24 15.1741 143.872 15.5901 143.072ZM21.7566 133.872H20.3806V135.12C20.3806 135.792 20.0286 136.304 19.1966 136.304H18.7806V137.664H20.2526V141.888C20.2526 143.28 21.0846 144.08 22.3966 144.08C22.9086 144.08 23.2926 143.984 23.4206 143.936V142.656C23.2926 142.688 23.0206 142.72 22.8286 142.72C22.0446 142.72 21.7566 142.368 21.7566 141.664V137.664H23.4206V136.304H21.7566V133.872ZM34.0841 136.304L32.0841 142.096L30.3561 136.304H28.7081L31.2361 144H32.8201L34.8201 138.144L36.8681 144H38.4201L40.9161 136.304H39.3321L37.6361 142.096L35.6361 136.304H34.0841ZM44.0996 139.472C44.1316 138.336 44.7396 137.44 45.8916 137.44C47.2356 137.44 47.6836 138.304 47.6836 139.376V144H49.1876V139.12C49.1876 137.408 48.2756 136.08 46.4356 136.08C45.5556 136.08 44.6596 136.384 44.0996 137.2V132.416H42.5956V144H44.0996V139.472ZM51.26 141.936C51.26 143.152 52.268 144.24 53.836 144.24C55.212 144.24 55.98 143.504 56.316 142.96C56.316 143.52 56.364 143.808 56.396 144H57.868C57.836 143.808 57.772 143.408 57.772 142.736V138.88C57.772 137.376 56.876 136.064 54.572 136.064C52.908 136.064 51.58 137.088 51.42 138.56L52.86 138.896C52.956 138 53.548 137.344 54.604 137.344C55.772 137.344 56.268 137.968 56.268 138.72C56.268 138.992 56.14 139.232 55.676 139.296L53.596 139.6C52.268 139.792 51.26 140.56 51.26 141.936ZM54.044 142.976C53.276 142.976 52.796 142.432 52.796 141.856C52.796 141.168 53.276 140.8 53.916 140.704L56.268 140.352V140.704C56.268 142.384 55.276 142.976 54.044 142.976ZM62.291 133.872H60.915V135.12C60.915 135.792 60.563 136.304 59.731 136.304H59.315V137.664H60.787V141.888C60.787 143.28 61.619 144.08 62.931 144.08C63.443 144.08 63.827 143.984 63.955 143.936V142.656C63.827 142.688 63.555 142.72 63.363 142.72C62.579 142.72 62.291 142.368 62.291 141.664V137.664H63.955V136.304H62.291V133.872ZM71.7705 147.04V142.96C72.1865 143.648 73.0825 144.208 74.2665 144.208C76.5225 144.208 77.8505 142.432 77.8505 140.144C77.8505 137.904 76.6185 136.128 74.3145 136.128C73.0665 136.128 72.1545 136.736 71.7385 137.504V136.304H70.2825V147.04H71.7705ZM76.3145 140.144C76.3145 141.728 75.4345 142.864 74.0425 142.864C72.6665 142.864 71.7545 141.728 71.7545 140.144C71.7545 138.608 72.6665 137.456 74.0425 137.456C75.4505 137.456 76.3145 138.608 76.3145 140.144ZM81.4149 144V136.304H79.9269V144H81.4149ZM79.5909 133.392C79.5909 133.984 80.0709 134.464 80.6629 134.464C81.2709 134.464 81.7509 133.984 81.7509 133.392C81.7509 132.784 81.2709 132.304 80.6629 132.304C80.0709 132.304 79.5909 132.784 79.5909 133.392ZM86.1498 133.872H84.7738V135.12C84.7738 135.792 84.4218 136.304 83.5898 136.304H83.1738V137.664H84.6458V141.888C84.6458 143.28 85.4778 144.08 86.7898 144.08C87.3018 144.08 87.6858 143.984 87.8138 143.936V142.656C87.6858 142.688 87.4138 142.72 87.2218 142.72C86.4378 142.72 86.1498 142.368 86.1498 141.664V137.664H87.8138V136.304H86.1498V133.872ZM93.1351 137.456C94.4471 137.456 95.0071 138.336 95.1991 139.088L96.5591 138.512C96.2391 137.344 95.1831 136.064 93.1351 136.064C90.9431 136.064 89.2631 137.744 89.2631 140.144C89.2631 142.48 90.9111 144.24 93.1511 144.24C95.1511 144.24 96.2551 142.944 96.6231 141.84L95.2951 141.264C95.1191 141.872 94.5911 142.848 93.1511 142.848C91.9031 142.848 90.7991 141.904 90.7991 140.144C90.7991 138.352 91.9191 137.456 93.1351 137.456ZM100.052 139.472C100.084 138.336 100.692 137.44 101.844 137.44C103.188 137.44 103.636 138.304 103.636 139.376V144H105.14V139.12C105.14 137.408 104.228 136.08 102.388 136.08C101.508 136.08 100.612 136.384 100.052 137.2V132.416H98.5475V144H100.052V139.472ZM111.372 141.936C111.372 143.152 112.38 144.24 113.948 144.24C115.324 144.24 116.092 143.504 116.428 142.96C116.428 143.52 116.476 143.808 116.508 144H117.98C117.948 143.808 117.884 143.408 117.884 142.736V138.88C117.884 137.376 116.988 136.064 114.684 136.064C113.02 136.064 111.692 137.088 111.532 138.56L112.972 138.896C113.068 138 113.66 137.344 114.716 137.344C115.884 137.344 116.38 137.968 116.38 138.72C116.38 138.992 116.252 139.232 115.788 139.296L113.708 139.6C112.38 139.792 111.372 140.56 111.372 141.936ZM114.156 142.976C113.388 142.976 112.908 142.432 112.908 141.856C112.908 141.168 113.388 140.8 114.028 140.704L116.38 140.352V140.704C116.38 142.384 115.388 142.976 114.156 142.976ZM121.891 139.552C121.891 138.384 122.499 137.44 123.683 137.44C125.027 137.44 125.475 138.304 125.475 139.376V144H126.979V139.12C126.979 137.408 126.067 136.08 124.227 136.08C123.331 136.08 122.419 136.448 121.859 137.408V136.304H120.387V144H121.891V139.552ZM130.427 140.128C130.427 138.544 131.323 137.424 132.699 137.424C134.075 137.424 134.907 138.512 134.907 140.096C134.907 141.68 134.059 142.88 132.683 142.88C131.243 142.88 130.427 141.712 130.427 140.128ZM134.923 142.96C134.923 143.424 134.971 143.824 135.003 144H136.459C136.443 143.872 136.379 143.312 136.379 142.576V132.416H134.891V137.392C134.635 136.768 133.899 136.096 132.539 136.096C130.363 136.096 128.891 137.952 128.891 140.128C128.891 142.416 130.283 144.208 132.539 144.208C133.739 144.208 134.555 143.568 134.923 142.832V142.96ZM146.489 137.456C147.801 137.456 148.361 138.336 148.553 139.088L149.913 138.512C149.593 137.344 148.537 136.064 146.489 136.064C144.297 136.064 142.617 137.744 142.617 140.144C142.617 142.48 144.265 144.24 146.505 144.24C148.505 144.24 149.609 142.944 149.977 141.84L148.649 141.264C148.473 141.872 147.945 142.848 146.505 142.848C145.257 142.848 144.153 141.904 144.153 140.144C144.153 138.352 145.273 137.456 146.489 137.456ZM155.12 142.896C153.84 142.896 152.72 141.936 152.72 140.144C152.72 138.368 153.84 137.408 155.12 137.408C156.4 137.408 157.52 138.368 157.52 140.144C157.52 141.936 156.4 142.896 155.12 142.896ZM155.12 136.064C152.816 136.064 151.184 137.808 151.184 140.144C151.184 142.496 152.816 144.24 155.12 144.24C157.424 144.24 159.056 142.496 159.056 140.144C159.056 137.808 157.424 136.064 155.12 136.064ZM162.644 144V132.416H161.14V144H162.644ZM166.867 144V132.416H165.363V144H166.867ZM169.105 141.936C169.105 143.152 170.113 144.24 171.681 144.24C173.057 144.24 173.825 143.504 174.161 142.96C174.161 143.52 174.209 143.808 174.241 144H175.713C175.681 143.808 175.617 143.408 175.617 142.736V138.88C175.617 137.376 174.721 136.064 172.417 136.064C170.753 136.064 169.425 137.088 169.265 138.56L170.705 138.896C170.801 138 171.393 137.344 172.449 137.344C173.617 137.344 174.113 137.968 174.113 138.72C174.113 138.992 173.985 139.232 173.521 139.296L171.441 139.6C170.113 139.792 169.105 140.56 169.105 141.936ZM171.889 142.976C171.121 142.976 170.641 142.432 170.641 141.856C170.641 141.168 171.121 140.8 171.761 140.704L174.113 140.352V140.704C174.113 142.384 173.121 142.976 171.889 142.976ZM180.136 133.872H178.76V135.12C178.76 135.792 178.408 136.304 177.576 136.304H177.16V137.664H178.632V141.888C178.632 143.28 179.464 144.08 180.776 144.08C181.288 144.08 181.672 143.984 181.8 143.936V142.656C181.672 142.688 181.4 142.72 181.208 142.72C180.424 142.72 180.136 142.368 180.136 141.664V137.664H181.8V136.304H180.136V133.872ZM184.865 139.36C184.929 138.368 185.697 137.392 186.961 137.392C188.321 137.392 189.041 138.256 189.073 139.36H184.865ZM189.297 141.36C189.009 142.224 188.385 142.912 187.137 142.912C185.841 142.912 184.849 141.952 184.817 140.576H190.609C190.625 140.48 190.641 140.288 190.641 140.096C190.641 137.696 189.313 136.064 186.945 136.064C185.009 136.064 183.265 137.712 183.265 140.128C183.265 142.736 185.073 144.24 187.137 144.24C188.929 144.24 190.161 143.168 190.593 141.808L189.297 141.36ZM196.993 136.224C196.913 136.208 196.705 136.176 196.497 136.176C195.713 136.176 194.753 136.464 194.193 137.648V136.304H192.721V144H194.225V140.144C194.225 138.448 195.073 137.776 196.337 137.776C196.545 137.776 196.769 137.792 196.993 137.824V136.224ZM198.276 141.936C198.276 143.152 199.284 144.24 200.852 144.24C202.228 144.24 202.996 143.504 203.332 142.96C203.332 143.52 203.38 143.808 203.412 144H204.884C204.852 143.808 204.788 143.408 204.788 142.736V138.88C204.788 137.376 203.892 136.064 201.588 136.064C199.924 136.064 198.596 137.088 198.436 138.56L199.876 138.896C199.972 138 200.564 137.344 201.62 137.344C202.788 137.344 203.284 137.968 203.284 138.72C203.284 138.992 203.156 139.232 202.692 139.296L200.612 139.6C199.284 139.792 198.276 140.56 198.276 141.936ZM201.06 142.976C200.292 142.976 199.812 142.432 199.812 141.856C199.812 141.168 200.292 140.8 200.932 140.704L203.284 140.352V140.704C203.284 142.384 202.292 142.976 201.06 142.976ZM208.795 144V132.416H207.291V144H208.795ZM210.794 142C210.922 142.88 211.818 144.24 213.93 144.24C215.834 144.24 216.746 142.944 216.746 141.856C216.746 140.72 216.01 139.872 214.618 139.568L213.37 139.296C212.778 139.168 212.49 138.832 212.49 138.368C212.49 137.84 213.002 137.344 213.77 137.344C214.986 137.344 215.306 138.224 215.37 138.624L216.698 138.128C216.538 137.44 215.882 136.064 213.77 136.064C212.266 136.064 211.034 137.184 211.034 138.496C211.034 139.584 211.754 140.4 212.954 140.656L214.266 140.944C214.906 141.088 215.258 141.456 215.258 141.936C215.258 142.48 214.794 142.96 213.946 142.96C212.858 142.96 212.25 142.32 212.154 141.52L210.794 142ZM224.044 139.36C224.108 138.368 224.876 137.392 226.14 137.392C227.5 137.392 228.22 138.256 228.252 139.36H224.044ZM228.476 141.36C228.188 142.224 227.564 142.912 226.316 142.912C225.02 142.912 224.028 141.952 223.996 140.576H229.788C229.804 140.48 229.82 140.288 229.82 140.096C229.82 137.696 228.492 136.064 226.124 136.064C224.188 136.064 222.444 137.712 222.444 140.128C222.444 142.736 224.252 144.24 226.316 144.24C228.108 144.24 229.34 143.168 229.772 141.808L228.476 141.36ZM233.404 139.552C233.404 138.384 234.012 137.44 235.196 137.44C236.54 137.44 236.988 138.304 236.988 139.376V144H238.492V139.12C238.492 137.408 237.58 136.08 235.74 136.08C234.844 136.08 233.932 136.448 233.372 137.408V136.304H231.9V144H233.404V139.552ZM240.324 142C240.452 142.88 241.348 144.24 243.46 144.24C245.364 144.24 246.276 142.944 246.276 141.856C246.276 140.72 245.54 139.872 244.148 139.568L242.9 139.296C242.308 139.168 242.02 138.832 242.02 138.368C242.02 137.84 242.532 137.344 243.3 137.344C244.516 137.344 244.836 138.224 244.9 138.624L246.228 138.128C246.068 137.44 245.412 136.064 243.3 136.064C241.796 136.064 240.564 137.184 240.564 138.496C240.564 139.584 241.284 140.4 242.484 140.656L243.796 140.944C244.436 141.088 244.788 141.456 244.788 141.936C244.788 142.48 244.324 142.96 243.476 142.96C242.388 142.96 241.78 142.32 241.684 141.52L240.324 142ZM253.433 143.072C253.433 143.392 253.465 143.824 253.497 144H254.937C254.905 143.728 254.857 143.184 254.857 142.576V136.304H253.353V140.944C253.353 142.112 252.745 142.912 251.529 142.912C250.265 142.912 249.785 141.984 249.785 140.928V136.304H248.281V141.152C248.281 142.896 249.369 144.24 251.161 144.24C252.057 144.24 253.017 143.872 253.433 143.072ZM261.855 136.224C261.775 136.208 261.567 136.176 261.359 136.176C260.575 136.176 259.615 136.464 259.055 137.648V136.304H257.583V144H259.087V140.144C259.087 138.448 259.935 137.776 261.199 137.776C261.407 137.776 261.631 137.792 261.855 137.824V136.224ZM264.516 139.36C264.58 138.368 265.348 137.392 266.612 137.392C267.972 137.392 268.692 138.256 268.724 139.36H264.516ZM268.948 141.36C268.66 142.224 268.036 142.912 266.788 142.912C265.492 142.912 264.5 141.952 264.468 140.576H270.26C270.276 140.48 270.292 140.288 270.292 140.096C270.292 137.696 268.964 136.064 266.596 136.064C264.66 136.064 262.916 137.712 262.916 140.128C262.916 142.736 264.724 144.24 266.788 144.24C268.58 144.24 269.812 143.168 270.244 141.808L268.948 141.36ZM278.02 144V139.36C278.02 138.208 278.74 137.408 279.812 137.408C280.964 137.408 281.444 138.176 281.444 139.168V144H282.948V139.344C282.948 138.24 283.668 137.408 284.724 137.408C285.86 137.408 286.356 138.16 286.356 139.168V144H287.844V139.008C287.844 136.992 286.532 136.08 285.188 136.08C284.212 136.08 283.22 136.432 282.612 137.536C282.196 136.544 281.268 136.08 280.308 136.08C279.412 136.08 278.452 136.48 277.972 137.328V136.304H276.532V144H278.02ZM289.931 141.936C289.931 143.152 290.939 144.24 292.507 144.24C293.883 144.24 294.651 143.504 294.987 142.96C294.987 143.52 295.035 143.808 295.067 144H296.539C296.507 143.808 296.443 143.408 296.443 142.736V138.88C296.443 137.376 295.547 136.064 293.243 136.064C291.579 136.064 290.251 137.088 290.091 138.56L291.531 138.896C291.627 138 292.219 137.344 293.275 137.344C294.443 137.344 294.939 137.968 294.939 138.72C294.939 138.992 294.811 139.232 294.347 139.296L292.267 139.6C290.939 139.792 289.931 140.56 289.931 141.936ZM292.715 142.976C291.947 142.976 291.467 142.432 291.467 141.856C291.467 141.168 291.947 140.8 292.587 140.704L294.939 140.352V140.704C294.939 142.384 293.947 142.976 292.715 142.976ZM297.826 144H299.618L301.57 141.168L303.554 144H305.362C304.898 143.376 302.994 140.704 302.53 140.08L305.266 136.304H303.49L301.634 139.008L299.746 136.304H297.922L300.69 140.08L297.826 144ZM308.453 144V136.304H306.965V144H308.453ZM306.629 133.392C306.629 133.984 307.109 134.464 307.701 134.464C308.309 134.464 308.789 133.984 308.789 133.392C308.789 132.784 308.309 132.304 307.701 132.304C307.109 132.304 306.629 132.784 306.629 133.392ZM312.66 144V139.36C312.66 138.208 313.38 137.408 314.452 137.408C315.604 137.408 316.084 138.176 316.084 139.168V144H317.588V139.344C317.588 138.24 318.308 137.408 319.364 137.408C320.5 137.408 320.996 138.16 320.996 139.168V144H322.484V139.008C322.484 136.992 321.172 136.08 319.828 136.08C318.852 136.08 317.86 136.432 317.252 137.536C316.836 136.544 315.908 136.08 314.948 136.08C314.052 136.08 313.092 136.48 312.612 137.328V136.304H311.172V144H312.66ZM329.966 143.072C329.966 143.392 329.998 143.824 330.03 144H331.47C331.438 143.728 331.39 143.184 331.39 142.576V136.304H329.886V140.944C329.886 142.112 329.278 142.912 328.062 142.912C326.798 142.912 326.318 141.984 326.318 140.928V136.304H324.814V141.152C324.814 142.896 325.902 144.24 327.694 144.24C328.59 144.24 329.55 143.872 329.966 143.072ZM335.605 144V139.36C335.605 138.208 336.325 137.408 337.397 137.408C338.549 137.408 339.029 138.176 339.029 139.168V144H340.533V139.344C340.533 138.24 341.253 137.408 342.309 137.408C343.445 137.408 343.941 138.16 343.941 139.168V144H345.429V139.008C345.429 136.992 344.117 136.08 342.773 136.08C341.797 136.08 340.805 136.432 340.197 137.536C339.781 136.544 338.853 136.08 337.893 136.08C336.997 136.08 336.037 136.48 335.557 137.328V136.304H334.117V144H335.605ZM2.768 174.04V169.96C3.184 170.648 4.08 171.208 5.264 171.208C7.52 171.208 8.848 169.432 8.848 167.144C8.848 164.904 7.616 163.128 5.312 163.128C4.064 163.128 3.152 163.736 2.736 164.504V163.304H1.28V174.04H2.768ZM7.312 167.144C7.312 168.728 6.432 169.864 5.04 169.864C3.664 169.864 2.752 168.728 2.752 167.144C2.752 165.608 3.664 164.456 5.04 164.456C6.448 164.456 7.312 165.608 7.312 167.144ZM15.1964 163.224C15.1164 163.208 14.9084 163.176 14.7004 163.176C13.9164 163.176 12.9564 163.464 12.3964 164.648V163.304H10.9244V171H12.4284V167.144C12.4284 165.448 13.2764 164.776 14.5404 164.776C14.7484 164.776 14.9724 164.792 15.1964 164.824V163.224ZM20.1772 169.896C18.8972 169.896 17.7772 168.936 17.7772 167.144C17.7772 165.368 18.8972 164.408 20.1772 164.408C21.4573 164.408 22.5773 165.368 22.5773 167.144C22.5773 168.936 21.4573 169.896 20.1772 169.896ZM20.1772 163.064C17.8732 163.064 16.2412 164.808 16.2412 167.144C16.2412 169.496 17.8732 171.24 20.1772 171.24C22.4812 171.24 24.1132 169.496 24.1132 167.144C24.1132 164.808 22.4812 163.064 20.1772 163.064ZM29.1895 159.368C27.7975 159.368 26.6615 160.296 26.6615 162.008V163.304H25.2375V164.664H26.6615V171H28.2135V164.664H31.8135V171H33.3015V163.304H28.2135V162.072C28.2135 161.016 28.9015 160.776 29.4295 160.776C29.8135 160.776 30.0055 160.84 30.0855 160.872V159.528C30.0215 159.48 29.7015 159.368 29.1895 159.368ZM31.4775 160.36C31.4775 160.952 31.9575 161.432 32.5495 161.432C33.1575 161.432 33.6375 160.952 33.6375 160.36C33.6375 159.752 33.1575 159.272 32.5495 159.272C31.9575 159.272 31.4775 159.752 31.4775 160.36ZM38.0297 160.872H36.6537V162.12C36.6537 162.792 36.3017 163.304 35.4697 163.304H35.0537V164.664H36.5257V168.888C36.5257 170.28 37.3577 171.08 38.6697 171.08C39.1817 171.08 39.5657 170.984 39.6937 170.936V169.656C39.5657 169.688 39.2937 169.72 39.1017 169.72C38.3177 169.72 38.0297 169.368 38.0297 168.664V164.664H39.6937V163.304H38.0297V160.872ZM41.3812 168.936C41.3812 170.152 42.3892 171.24 43.9572 171.24C45.3332 171.24 46.1012 170.504 46.4372 169.96C46.4372 170.52 46.4852 170.808 46.5172 171H47.9892C47.9572 170.808 47.8932 170.408 47.8932 169.736V165.88C47.8932 164.376 46.9972 163.064 44.6932 163.064C43.0292 163.064 41.7012 164.088 41.5412 165.56L42.9812 165.896C43.0772 165 43.6692 164.344 44.7252 164.344C45.8932 164.344 46.3892 164.968 46.3892 165.72C46.3892 165.992 46.2612 166.232 45.7972 166.296L43.7172 166.6C42.3892 166.792 41.3812 167.56 41.3812 168.936ZM44.1652 169.976C43.3972 169.976 42.9172 169.432 42.9172 168.856C42.9172 168.168 43.3972 167.8 44.0372 167.704L46.3892 167.352V167.704C46.3892 169.384 45.3972 169.976 44.1652 169.976ZM51.8842 171V169.88C52.3642 170.712 53.2442 171.208 54.3802 171.208C56.6682 171.208 57.9642 169.4 57.9642 167.112C57.9642 164.872 56.7642 163.08 54.4282 163.08C53.1482 163.08 52.2522 163.704 51.8842 164.392V159.416H50.3962V171H51.8842ZM56.4282 167.112C56.4282 168.776 55.5322 169.864 54.1562 169.864C52.8282 169.864 51.8682 168.776 51.8682 167.112C51.8682 165.448 52.8282 164.408 54.1562 164.408C55.5482 164.408 56.4282 165.448 56.4282 167.112ZM61.5286 171V163.304H60.0406V171H61.5286ZM59.7046 160.392C59.7046 160.984 60.1846 161.464 60.7766 161.464C61.3846 161.464 61.8646 160.984 61.8646 160.392C61.8646 159.784 61.3846 159.304 60.7766 159.304C60.1846 159.304 59.7046 159.784 59.7046 160.392ZM65.7515 171V159.416H64.2475V171H65.7515ZM69.958 171V163.304H68.47V171H69.958ZM68.134 160.392C68.134 160.984 68.614 161.464 69.206 161.464C69.814 161.464 70.294 160.984 70.294 160.392C70.294 159.784 69.814 159.304 69.206 159.304C68.614 159.304 68.134 159.784 68.134 160.392ZM74.6929 160.872H73.3169V162.12C73.3169 162.792 72.9649 163.304 72.1329 163.304H71.7169V164.664H73.1889V168.888C73.1889 170.28 74.0209 171.08 75.3329 171.08C75.8449 171.08 76.2289 170.984 76.3569 170.936V169.656C76.2289 169.688 75.9569 169.72 75.7649 169.72C74.9809 169.72 74.6929 169.368 74.6929 168.664V164.664H76.3569V163.304H74.6929V160.872ZM80.5225 174.216L85.5305 163.304H83.9145L81.6105 168.616L79.2105 163.304H77.4825L80.7945 170.152L78.8745 174.216H80.5225ZM85.2119 169.976C85.2119 170.6 85.6919 171.08 86.3159 171.08C86.9399 171.08 87.4359 170.6 87.4359 169.976C87.4359 169.352 86.9399 168.856 86.3159 168.856C85.6919 168.856 85.2119 169.352 85.2119 169.976ZM104.641 168.632L101.729 159.656H100.081L97.2326 168.536L94.7366 159.656H93.1206L96.4006 171H97.9686L100.897 161.8L103.857 171H105.473L108.705 159.656H107.089L104.641 168.632ZM111.871 171V163.304H110.383V171H111.871ZM110.047 160.392C110.047 160.984 110.527 161.464 111.119 161.464C111.727 161.464 112.207 160.984 112.207 160.392C112.207 159.784 111.727 159.304 111.119 159.304C110.527 159.304 110.047 159.784 110.047 160.392ZM116.094 166.552C116.094 165.384 116.702 164.44 117.886 164.44C119.23 164.44 119.678 165.304 119.678 166.376V171H121.182V166.12C121.182 164.408 120.27 163.08 118.43 163.08C117.534 163.08 116.622 163.448 116.062 164.408V163.304H114.59V171H116.094V166.552ZM129.398 166.472C129.43 165.336 130.038 164.44 131.19 164.44C132.534 164.44 132.982 165.304 132.982 166.376V171H134.486V166.12C134.486 164.408 133.574 163.08 131.734 163.08C130.854 163.08 129.958 163.384 129.398 164.2V159.416H127.894V171H129.398V166.472ZM136.559 168.936C136.559 170.152 137.567 171.24 139.135 171.24C140.511 171.24 141.279 170.504 141.615 169.96C141.615 170.52 141.663 170.808 141.695 171H143.167C143.135 170.808 143.071 170.408 143.071 169.736V165.88C143.071 164.376 142.175 163.064 139.871 163.064C138.207 163.064 136.879 164.088 136.719 165.56L138.159 165.896C138.255 165 138.847 164.344 139.903 164.344C141.071 164.344 141.567 164.968 141.567 165.72C141.567 165.992 141.439 166.232 140.975 166.296L138.895 166.6C137.567 166.792 136.559 167.56 136.559 168.936ZM139.343 169.976C138.575 169.976 138.095 169.432 138.095 168.856C138.095 168.168 138.575 167.8 139.215 167.704L141.567 167.352V167.704C141.567 169.384 140.575 169.976 139.343 169.976ZM147.062 174.04V169.96C147.478 170.648 148.374 171.208 149.558 171.208C151.814 171.208 153.142 169.432 153.142 167.144C153.142 164.904 151.91 163.128 149.606 163.128C148.358 163.128 147.446 163.736 147.03 164.504V163.304H145.574V174.04H147.062ZM151.606 167.144C151.606 168.728 150.726 169.864 149.334 169.864C147.958 169.864 147.046 168.728 147.046 167.144C147.046 165.608 147.958 164.456 149.334 164.456C150.742 164.456 151.606 165.608 151.606 167.144ZM156.706 174.04V169.96C157.122 170.648 158.018 171.208 159.202 171.208C161.458 171.208 162.786 169.432 162.786 167.144C162.786 164.904 161.554 163.128 159.25 163.128C158.002 163.128 157.09 163.736 156.674 164.504V163.304H155.218V174.04H156.706ZM161.25 167.144C161.25 168.728 160.37 169.864 158.978 169.864C157.602 169.864 156.69 168.728 156.69 167.144C156.69 165.608 157.602 164.456 158.978 164.456C160.386 164.456 161.25 165.608 161.25 167.144ZM166.47 174.216L171.478 163.304H169.862L167.558 168.616L165.158 163.304H163.43L166.742 170.152L164.822 174.216H166.47ZM180.477 164.456C181.789 164.456 182.349 165.336 182.541 166.088L183.901 165.512C183.581 164.344 182.525 163.064 180.477 163.064C178.285 163.064 176.605 164.744 176.605 167.144C176.605 169.48 178.253 171.24 180.493 171.24C182.493 171.24 183.597 169.944 183.965 168.84L182.637 168.264C182.461 168.872 181.933 169.848 180.493 169.848C179.245 169.848 178.141 168.904 178.141 167.144C178.141 165.352 179.261 164.456 180.477 164.456ZM190.883 170.072C190.883 170.392 190.915 170.824 190.947 171H192.387C192.355 170.728 192.307 170.184 192.307 169.576V163.304H190.803V167.944C190.803 169.112 190.195 169.912 188.979 169.912C187.715 169.912 187.235 168.984 187.235 167.928V163.304H185.731V168.152C185.731 169.896 186.819 171.24 188.611 171.24C189.507 171.24 190.467 170.872 190.883 170.072ZM194.314 169C194.442 169.88 195.338 171.24 197.45 171.24C199.354 171.24 200.266 169.944 200.266 168.856C200.266 167.72 199.53 166.872 198.138 166.568L196.89 166.296C196.298 166.168 196.01 165.832 196.01 165.368C196.01 164.84 196.522 164.344 197.29 164.344C198.506 164.344 198.826 165.224 198.89 165.624L200.218 165.128C200.058 164.44 199.402 163.064 197.29 163.064C195.786 163.064 194.554 164.184 194.554 165.496C194.554 166.584 195.274 167.4 196.474 167.656L197.786 167.944C198.426 168.088 198.778 168.456 198.778 168.936C198.778 169.48 198.314 169.96 197.466 169.96C196.378 169.96 195.77 169.32 195.674 168.52L194.314 169ZM204.444 160.872H203.068V162.12C203.068 162.792 202.716 163.304 201.884 163.304H201.468V164.664H202.94V168.888C202.94 170.28 203.772 171.08 205.084 171.08C205.596 171.08 205.98 170.984 206.108 170.936V169.656C205.98 169.688 205.708 169.72 205.516 169.72C204.732 169.72 204.444 169.368 204.444 168.664V164.664H206.108V163.304H204.444V160.872ZM211.493 169.896C210.213 169.896 209.093 168.936 209.093 167.144C209.093 165.368 210.213 164.408 211.493 164.408C212.773 164.408 213.893 165.368 213.893 167.144C213.893 168.936 212.773 169.896 211.493 169.896ZM211.493 163.064C209.189 163.064 207.557 164.808 207.557 167.144C207.557 169.496 209.189 171.24 211.493 171.24C213.797 171.24 215.429 169.496 215.429 167.144C215.429 164.808 213.797 163.064 211.493 163.064ZM219.002 171V166.36C219.002 165.208 219.722 164.408 220.794 164.408C221.946 164.408 222.426 165.176 222.426 166.168V171H223.93V166.344C223.93 165.24 224.65 164.408 225.706 164.408C226.842 164.408 227.338 165.16 227.338 166.168V171H228.826V166.008C228.826 163.992 227.514 163.08 226.17 163.08C225.194 163.08 224.202 163.432 223.594 164.536C223.178 163.544 222.25 163.08 221.29 163.08C220.394 163.08 219.434 163.48 218.954 164.328V163.304H217.514V171H219.002ZM232.369 166.36C232.433 165.368 233.201 164.392 234.465 164.392C235.825 164.392 236.545 165.256 236.577 166.36H232.369ZM236.801 168.36C236.513 169.224 235.889 169.912 234.641 169.912C233.345 169.912 232.353 168.952 232.321 167.576H238.113C238.129 167.48 238.145 167.288 238.145 167.096C238.145 164.696 236.817 163.064 234.449 163.064C232.513 163.064 230.769 164.712 230.769 167.128C230.769 169.736 232.577 171.24 234.641 171.24C236.433 171.24 237.665 170.168 238.097 168.808L236.801 168.36ZM244.496 163.224C244.416 163.208 244.208 163.176 244 163.176C243.216 163.176 242.256 163.464 241.696 164.648V163.304H240.224V171H241.728V167.144C241.728 165.448 242.576 164.776 243.84 164.776C244.048 164.776 244.272 164.792 244.496 164.824V163.224ZM245.539 169C245.667 169.88 246.563 171.24 248.675 171.24C250.579 171.24 251.491 169.944 251.491 168.856C251.491 167.72 250.755 166.872 249.363 166.568L248.115 166.296C247.523 166.168 247.235 165.832 247.235 165.368C247.235 164.84 247.747 164.344 248.515 164.344C249.731 164.344 250.051 165.224 250.115 165.624L251.443 165.128C251.283 164.44 250.627 163.064 248.515 163.064C247.011 163.064 245.779 164.184 245.779 165.496C245.779 166.584 246.499 167.4 247.699 167.656L249.011 167.944C249.651 168.088 250.003 168.456 250.003 168.936C250.003 169.48 249.539 169.96 248.691 169.96C247.603 169.96 246.995 169.32 246.899 168.52L245.539 169ZM262.15 163.304L260.15 169.096L258.422 163.304H256.774L259.302 171H260.886L262.886 165.144L264.934 171H266.486L268.982 163.304H267.398L265.702 169.096L263.702 163.304H262.15ZM272.149 171V163.304H270.661V171H272.149ZM270.325 160.392C270.325 160.984 270.805 161.464 271.397 161.464C272.005 161.464 272.485 160.984 272.485 160.392C272.485 159.784 272.005 159.304 271.397 159.304C270.805 159.304 270.325 159.784 270.325 160.392ZM276.884 160.872H275.508V162.12C275.508 162.792 275.156 163.304 274.324 163.304H273.908V164.664H275.38V168.888C275.38 170.28 276.212 171.08 277.524 171.08C278.036 171.08 278.42 170.984 278.548 170.936V169.656C278.42 169.688 278.148 169.72 277.956 169.72C277.172 169.72 276.884 169.368 276.884 168.664V164.664H278.548V163.304H276.884V160.872ZM282.22 166.472C282.252 165.336 282.86 164.44 284.012 164.44C285.356 164.44 285.804 165.304 285.804 166.376V171H287.308V166.12C287.308 164.408 286.396 163.08 284.556 163.08C283.676 163.08 282.78 163.384 282.22 164.2V159.416H280.716V171H282.22V166.472ZM293.54 168.936C293.54 170.152 294.548 171.24 296.116 171.24C297.492 171.24 298.26 170.504 298.596 169.96C298.596 170.52 298.644 170.808 298.676 171H300.148C300.116 170.808 300.052 170.408 300.052 169.736V165.88C300.052 164.376 299.156 163.064 296.852 163.064C295.188 163.064 293.86 164.088 293.7 165.56L295.14 165.896C295.236 165 295.828 164.344 296.884 164.344C298.052 164.344 298.548 164.968 298.548 165.72C298.548 165.992 298.42 166.232 297.956 166.296L295.876 166.6C294.548 166.792 293.54 167.56 293.54 168.936ZM296.324 169.976C295.556 169.976 295.076 169.432 295.076 168.856C295.076 168.168 295.556 167.8 296.196 167.704L298.548 167.352V167.704C298.548 169.384 297.556 169.976 296.324 169.976ZM304.059 166.552C304.059 165.384 304.667 164.44 305.851 164.44C307.195 164.44 307.643 165.304 307.643 166.376V171H309.147V166.12C309.147 164.408 308.235 163.08 306.395 163.08C305.499 163.08 304.587 163.448 304.027 164.408V163.304H302.555V171H304.059V166.552ZM4.576 196.896C3.296 196.896 2.176 195.936 2.176 194.144C2.176 192.368 3.296 191.408 4.576 191.408C5.856 191.408 6.976 192.368 6.976 194.144C6.976 195.936 5.856 196.896 4.576 196.896ZM4.576 190.064C2.272 190.064 0.64 191.808 0.64 194.144C0.64 196.496 2.272 198.24 4.576 198.24C6.88 198.24 8.512 196.496 8.512 194.144C8.512 191.808 6.88 190.064 4.576 190.064ZM12.0842 201.04V196.96C12.5003 197.648 13.3963 198.208 14.5803 198.208C16.8363 198.208 18.1643 196.432 18.1643 194.144C18.1643 191.904 16.9323 190.128 14.6283 190.128C13.3802 190.128 12.4683 190.736 12.0522 191.504V190.304H10.5962V201.04H12.0842ZM16.6283 194.144C16.6283 195.728 15.7483 196.864 14.3563 196.864C12.9803 196.864 12.0682 195.728 12.0682 194.144C12.0682 192.608 12.9803 191.456 14.3563 191.456C15.7643 191.456 16.6283 192.608 16.6283 194.144ZM22.1785 187.872H20.8025V189.12C20.8025 189.792 20.4505 190.304 19.6185 190.304H19.2025V191.664H20.6745V195.888C20.6745 197.28 21.5065 198.08 22.8185 198.08C23.3305 198.08 23.7145 197.984 23.8425 197.936V196.656C23.7145 196.688 23.4425 196.72 23.2505 196.72C22.4665 196.72 22.1785 196.368 22.1785 195.664V191.664H23.8425V190.304H22.1785V187.872ZM27.498 198V190.304H26.01V198H27.498ZM25.674 187.392C25.674 187.984 26.154 188.464 26.746 188.464C27.354 188.464 27.834 187.984 27.834 187.392C27.834 186.784 27.354 186.304 26.746 186.304C26.154 186.304 25.674 186.784 25.674 187.392ZM31.7049 198V193.36C31.7049 192.208 32.4249 191.408 33.4969 191.408C34.6489 191.408 35.1289 192.176 35.1289 193.168V198H36.6329V193.344C36.6329 192.24 37.3529 191.408 38.4089 191.408C39.5449 191.408 40.0409 192.16 40.0409 193.168V198H41.5289V193.008C41.5289 190.992 40.2169 190.08 38.8729 190.08C37.8969 190.08 36.9049 190.432 36.2969 191.536C35.8809 190.544 34.9529 190.08 33.9929 190.08C33.0969 190.08 32.1369 190.48 31.6569 191.328V190.304H30.2169V198H31.7049ZM45.5836 198V190.304H44.0956V198H45.5836ZM43.7596 187.392C43.7596 187.984 44.2396 188.464 44.8316 188.464C45.4396 188.464 45.9196 187.984 45.9196 187.392C45.9196 186.784 45.4396 186.304 44.8316 186.304C44.2396 186.304 43.7596 186.784 43.7596 187.392ZM53.8385 198V196.64H49.5345L53.7585 191.616V190.304H47.7265V191.664H51.8865L47.6625 196.688V198H53.8385ZM56.8916 193.36C56.9556 192.368 57.7236 191.392 58.9876 191.392C60.3476 191.392 61.0676 192.256 61.0996 193.36H56.8916ZM61.3236 195.36C61.0356 196.224 60.4116 196.912 59.1636 196.912C57.8676 196.912 56.8756 195.952 56.8436 194.576H62.6356C62.6516 194.48 62.6676 194.288 62.6676 194.096C62.6676 191.696 61.3396 190.064 58.9716 190.064C57.0356 190.064 55.2916 191.712 55.2916 194.128C55.2916 196.736 57.0996 198.24 59.1636 198.24C60.9556 198.24 62.1876 197.168 62.6196 195.808L61.3236 195.36ZM65.6435 194.128C65.6435 192.544 66.5395 191.424 67.9155 191.424C69.2915 191.424 70.1235 192.512 70.1235 194.096C70.1235 195.68 69.2755 196.88 67.8995 196.88C66.4595 196.88 65.6435 195.712 65.6435 194.128ZM70.1395 196.96C70.1395 197.424 70.1875 197.824 70.2195 198H71.6755C71.6595 197.872 71.5955 197.312 71.5955 196.576V186.416H70.1075V191.392C69.8515 190.768 69.1155 190.096 67.7555 190.096C65.5795 190.096 64.1075 191.952 64.1075 194.128C64.1075 196.416 65.4995 198.208 67.7555 198.208C68.9555 198.208 69.7715 197.568 70.1395 196.832V196.96ZM77.7537 196C77.8817 196.88 78.7777 198.24 80.8897 198.24C82.7937 198.24 83.7057 196.944 83.7057 195.856C83.7057 194.72 82.9697 193.872 81.5777 193.568L80.3297 193.296C79.7377 193.168 79.4497 192.832 79.4497 192.368C79.4497 191.84 79.9617 191.344 80.7297 191.344C81.9457 191.344 82.2657 192.224 82.3297 192.624L83.6577 192.128C83.4977 191.44 82.8417 190.064 80.7297 190.064C79.2257 190.064 77.9937 191.184 77.9937 192.496C77.9937 193.584 78.7137 194.4 79.9137 194.656L81.2257 194.944C81.8657 195.088 82.2177 195.456 82.2177 195.936C82.2177 196.48 81.7537 196.96 80.9057 196.96C79.8177 196.96 79.2097 196.32 79.1137 195.52L77.7537 196ZM85.2319 195.936C85.2319 197.152 86.2399 198.24 87.8079 198.24C89.1839 198.24 89.9519 197.504 90.2879 196.96C90.2879 197.52 90.3359 197.808 90.3679 198H91.8399C91.8079 197.808 91.7439 197.408 91.7439 196.736V192.88C91.7439 191.376 90.8479 190.064 88.5439 190.064C86.8799 190.064 85.5519 191.088 85.3919 192.56L86.8319 192.896C86.9279 192 87.5199 191.344 88.5759 191.344C89.7439 191.344 90.2399 191.968 90.2399 192.72C90.2399 192.992 90.1119 193.232 89.6479 193.296L87.5679 193.6C86.2399 193.792 85.2319 194.56 85.2319 195.936ZM88.0159 196.976C87.2479 196.976 86.7679 196.432 86.7679 195.856C86.7679 195.168 87.2479 194.8 87.8879 194.704L90.2399 194.352V194.704C90.2399 196.384 89.2479 196.976 88.0159 196.976ZM95.7509 198V186.416H94.2469V198H95.7509ZM99.4454 193.36C99.5094 192.368 100.277 191.392 101.541 191.392C102.901 191.392 103.621 192.256 103.653 193.36H99.4454ZM103.877 195.36C103.589 196.224 102.965 196.912 101.717 196.912C100.421 196.912 99.4294 195.952 99.3974 194.576H105.189C105.205 194.48 105.221 194.288 105.221 194.096C105.221 191.696 103.893 190.064 101.525 190.064C99.5894 190.064 97.8454 191.712 97.8454 194.128C97.8454 196.736 99.6534 198.24 101.717 198.24C103.509 198.24 104.741 197.168 105.173 195.808L103.877 195.36ZM106.581 196C106.709 196.88 107.605 198.24 109.717 198.24C111.621 198.24 112.533 196.944 112.533 195.856C112.533 194.72 111.797 193.872 110.405 193.568L109.157 193.296C108.565 193.168 108.277 192.832 108.277 192.368C108.277 191.84 108.789 191.344 109.557 191.344C110.773 191.344 111.093 192.224 111.157 192.624L112.485 192.128C112.325 191.44 111.669 190.064 109.557 190.064C108.053 190.064 106.821 191.184 106.821 192.496C106.821 193.584 107.541 194.4 108.741 194.656L110.053 194.944C110.693 195.088 111.045 195.456 111.045 195.936C111.045 196.48 110.581 196.96 109.733 196.96C108.645 196.96 108.037 196.32 107.941 195.52L106.581 196ZM120.344 201.04V196.96C120.76 197.648 121.656 198.208 122.84 198.208C125.096 198.208 126.424 196.432 126.424 194.144C126.424 191.904 125.192 190.128 122.888 190.128C121.64 190.128 120.728 190.736 120.312 191.504V190.304H118.856V201.04H120.344ZM124.888 194.144C124.888 195.728 124.008 196.864 122.616 196.864C121.24 196.864 120.328 195.728 120.328 194.144C120.328 192.608 121.24 191.456 122.616 191.456C124.024 191.456 124.888 192.608 124.888 194.144ZM130.004 198V186.416H128.5V198H130.004ZM132.243 195.936C132.243 197.152 133.251 198.24 134.819 198.24C136.195 198.24 136.963 197.504 137.299 196.96C137.299 197.52 137.347 197.808 137.379 198H138.851C138.819 197.808 138.755 197.408 138.755 196.736V192.88C138.755 191.376 137.859 190.064 135.555 190.064C133.891 190.064 132.563 191.088 132.403 192.56L133.843 192.896C133.939 192 134.531 191.344 135.587 191.344C136.755 191.344 137.251 191.968 137.251 192.72C137.251 192.992 137.123 193.232 136.659 193.296L134.579 193.6C133.251 193.792 132.243 194.56 132.243 195.936ZM135.027 196.976C134.259 196.976 133.779 196.432 133.779 195.856C133.779 195.168 134.259 194.8 134.899 194.704L137.251 194.352V194.704C137.251 196.384 136.259 196.976 135.027 196.976ZM143.021 201.216L148.029 190.304H146.413L144.109 195.616L141.709 190.304H139.981L143.293 197.152L141.373 201.216H143.021ZM151.124 198V196.88C151.604 197.712 152.484 198.208 153.62 198.208C155.908 198.208 157.204 196.4 157.204 194.112C157.204 191.872 156.004 190.08 153.668 190.08C152.388 190.08 151.492 190.704 151.124 191.392V186.416H149.636V198H151.124ZM155.668 194.112C155.668 195.776 154.772 196.864 153.396 196.864C152.068 196.864 151.108 195.776 151.108 194.112C151.108 192.448 152.068 191.408 153.396 191.408C154.788 191.408 155.668 192.448 155.668 194.112ZM162.577 196.896C161.297 196.896 160.177 195.936 160.177 194.144C160.177 192.368 161.297 191.408 162.577 191.408C163.857 191.408 164.977 192.368 164.977 194.144C164.977 195.936 163.857 196.896 162.577 196.896ZM162.577 190.064C160.273 190.064 158.641 191.808 158.641 194.144C158.641 196.496 160.273 198.24 162.577 198.24C164.881 198.24 166.513 196.496 166.513 194.144C166.513 191.808 164.881 190.064 162.577 190.064ZM171.893 196.896C170.613 196.896 169.493 195.936 169.493 194.144C169.493 192.368 170.613 191.408 171.893 191.408C173.173 191.408 174.293 192.368 174.293 194.144C174.293 195.936 173.173 196.896 171.893 196.896ZM171.893 190.064C169.589 190.064 167.957 191.808 167.957 194.144C167.957 196.496 169.589 198.24 171.893 198.24C174.197 198.24 175.829 196.496 175.829 194.144C175.829 191.808 174.197 190.064 171.893 190.064ZM184.809 190.304H182.729L179.401 193.712V186.416H177.913V198H179.401V195.68L180.473 194.608L182.985 198H184.873L181.529 193.552L184.809 190.304ZM186.319 196.976C186.319 197.6 186.799 198.08 187.423 198.08C188.047 198.08 188.543 197.6 188.543 196.976C188.543 196.352 188.047 195.856 187.423 195.856C186.799 195.856 186.319 196.352 186.319 196.976Z" fill="#000C2D"/>
<g clip-path="url(#clip0_1_1544)">
<path d="M9.10506 241.312C8.84906 240.048 7.80906 238.416 5.13706 238.416C3.02506 238.416 1.28106 239.984 1.28106 241.888C1.28106 243.584 2.43306 244.72 4.16106 245.072L5.76106 245.408C6.73706 245.616 7.28106 246.208 7.28106 246.944C7.28106 247.824 6.57706 248.512 5.21706 248.512C3.58506 248.512 2.73706 247.424 2.62506 246.24L0.833063 246.752C1.00906 248.384 2.33706 250.24 5.21706 250.24C7.80906 250.24 9.23306 248.56 9.23306 246.8C9.23306 245.2 8.16106 243.936 6.16106 243.536L4.52906 243.2C3.64906 243.008 3.20106 242.464 3.20106 241.744C3.20106 240.88 4.00106 240.112 5.15306 240.112C6.67306 240.112 7.26506 241.152 7.37706 241.856L9.10506 241.312ZM12.8603 250V242.208H11.0203V250H12.8603ZM10.7323 239.472C10.7323 240.144 11.2763 240.672 11.9323 240.672C12.6043 240.672 13.1483 240.144 13.1483 239.472C13.1483 238.8 12.6043 238.256 11.9323 238.256C11.2763 238.256 10.7323 238.8 10.7323 239.472ZM14.6947 250.432C14.9027 252 16.3427 253.28 18.4067 253.28C21.3347 253.28 22.4067 251.344 22.4067 249.264V242.208H20.6147V243.2C20.2787 242.56 19.5267 242.064 18.3107 242.064C16.1667 242.064 14.7107 243.776 14.7107 245.856C14.7107 248.048 16.2307 249.648 18.3107 249.648C19.4467 249.648 20.2307 249.12 20.5667 248.512V249.328C20.5667 250.912 19.8307 251.664 18.3587 251.664C17.2867 251.664 16.5347 250.944 16.4067 249.984L14.6947 250.432ZM18.6147 248.064C17.3987 248.064 16.5827 247.216 16.5827 245.856C16.5827 244.528 17.4307 243.664 18.6147 243.664C19.7667 243.664 20.6147 244.528 20.6147 245.856C20.6147 247.2 19.7987 248.064 18.6147 248.064ZM26.5326 245.504C26.5326 244.48 27.0926 243.664 28.1486 243.664C29.3166 243.664 29.7486 244.432 29.7486 245.392V250H31.6046V245.072C31.6046 243.36 30.6926 241.984 28.7886 241.984C27.9246 241.984 26.9966 242.352 26.4846 243.248V242.208H24.6766V250H26.5326V245.504ZM38.8267 249.136C38.8267 249.456 38.8587 249.824 38.8907 250H40.6667C40.6347 249.712 40.5867 249.216 40.5867 248.576V242.208H38.7307V246.816C38.7307 247.84 38.1707 248.56 37.0987 248.56C35.9787 248.56 35.5307 247.744 35.5307 246.784V242.208H33.6747V247.12C33.6747 248.848 34.7627 250.224 36.6187 250.224C37.5307 250.224 38.4427 249.84 38.8267 249.136ZM44.8291 253.04V249.12C45.2291 249.712 46.0771 250.192 47.1971 250.192C49.4371 250.192 50.8611 248.432 50.8611 246.096C50.8611 243.792 49.5651 242.032 47.2611 242.032C46.0611 242.032 45.1651 242.592 44.7811 243.264V242.208H42.9891V253.04H44.8291ZM49.0051 246.096C49.0051 247.584 48.1411 248.544 46.9091 248.544C45.6931 248.544 44.8131 247.584 44.8131 246.096C44.8131 244.64 45.6931 243.68 46.9091 243.68C48.1571 243.68 49.0051 244.64 49.0051 246.096ZM58.4701 245.504C58.4701 244.48 59.0301 243.664 60.0861 243.664C61.2541 243.664 61.6861 244.432 61.6861 245.392V250H63.5421V245.072C63.5421 243.36 62.6301 241.984 60.7261 241.984C59.8621 241.984 58.9341 242.352 58.4221 243.248V242.208H56.6141V250H58.4701V245.504ZM69.2256 248.576C68.0896 248.576 67.0496 247.712 67.0496 246.096C67.0496 244.48 68.0896 243.648 69.2256 243.648C70.3776 243.648 71.4016 244.48 71.4016 246.096C71.4016 247.728 70.3776 248.576 69.2256 248.576ZM69.2256 241.968C66.9056 241.968 65.1936 243.712 65.1936 246.096C65.1936 248.496 66.9056 250.24 69.2256 250.24C71.5616 250.24 73.2736 248.496 73.2736 246.096C73.2736 243.712 71.5616 241.968 69.2256 241.968ZM79.2957 242.208L77.4557 247.6L75.8717 242.208H73.8877L76.4157 250H78.3197L80.2077 244.4L82.1437 250H83.9997L86.4957 242.208H84.6077L83.0557 247.6L81.2157 242.208H79.2957Z" fill="#2F70FE"/>
<g clip-path="url(#clip1_1_1544)">
<path d="M109.5 253.5C109.372 253.5 109.244 253.451 109.146 253.354C108.951 253.159 108.951 252.842 109.146 252.647L117.793 244L109.147 235.354C108.952 235.159 108.952 234.842 109.147 234.647C109.342 234.452 109.659 234.452 109.854 234.647L118.854 243.647C119.049 243.842 119.049 244.159 118.854 244.354L109.854 253.354C109.756 253.451 109.628 253.5 109.5 253.5Z" fill="#2F70FE"/>
<path d="M118.5 244.5H95.5C95.224 244.5 95 244.276 95 244C95 243.724 95.224 243.5 95.5 243.5H118.5C118.776 243.5 119 243.724 119 244C119 244.276 118.776 244.5 118.5 244.5Z" fill="#2F70FE"/>
</g>
</g>
<defs>
<clipPath id="clip0_1_1544">
<rect width="119" height="28" fill="white" transform="translate(0 230)"/>
</clipPath>
<clipPath id="clip1_1_1544">
<rect width="24" height="24" fill="white" transform="translate(95 232)"/>
</clipPath>
</defs>
</svg>
