<svg width="410" height="152" viewBox="0 0 410 152" fill="none" xmlns="http://www.w3.org/2000/svg">
<g clip-path="url(#clip0_1_249)">
<path d="M7.196 20.656V29H11.06V20.656L18.06 9.148H13.72L9.268 17.016L4.816 9.148H0.28L7.196 20.656ZM23.7619 26.032C21.9419 26.032 20.2619 24.688 20.2619 22.112C20.2619 19.508 21.9419 18.192 23.7619 18.192C25.5819 18.192 27.2619 19.508 27.2619 22.112C27.2619 24.716 25.5819 26.032 23.7619 26.032ZM23.7619 14.804C19.6459 14.804 16.5379 17.856 16.5379 22.112C16.5379 26.34 19.6459 29.42 23.7619 29.42C27.8779 29.42 30.9859 26.34 30.9859 22.112C30.9859 17.856 27.8779 14.804 23.7619 14.804ZM42.8868 29H46.4428C46.3868 28.524 46.3028 27.572 46.3028 26.508V15.224H42.5788V23.232C42.5788 24.828 41.6268 25.948 39.9748 25.948C38.2388 25.948 37.4548 24.716 37.4548 23.176V15.224H33.7308V23.932C33.7308 26.928 35.6348 29.364 38.9668 29.364C40.4228 29.364 42.0188 28.804 42.7748 27.516C42.7748 28.076 42.8308 28.72 42.8868 29ZM58.6771 15.168C58.3971 15.14 58.1171 15.112 57.8091 15.112C56.6331 15.112 54.7291 15.448 53.8891 17.268V15.224H50.2771V29H54.0011V22.7C54.0011 19.732 55.6531 18.808 57.5571 18.808C57.8931 18.808 58.2571 18.836 58.6771 18.92V15.168ZM74.3205 18.248C76.1685 18.248 77.0365 19.424 77.3725 20.572L80.7045 19.452C80.1165 17.128 77.9885 14.804 74.2365 14.804C70.2325 14.804 67.0965 17.856 67.0965 22.112C67.0965 26.34 70.2885 29.42 74.3485 29.42C78.0165 29.42 80.1725 27.068 80.7885 24.772L77.5125 23.68C77.2045 24.744 76.2525 26.004 74.3485 26.004C72.4445 26.004 70.8205 24.604 70.8205 22.112C70.8205 19.62 72.4165 18.248 74.3205 18.248ZM87.2511 20.908C87.3351 19.396 88.2591 18.22 89.8271 18.22C91.6191 18.22 92.3751 19.424 92.3751 20.964V29H96.0991V20.32C96.0991 17.296 94.4751 14.86 90.9751 14.86C89.6591 14.86 88.1471 15.308 87.2511 16.372V8.728H83.5271V29H87.2511V20.908ZM99.0386 25.248C99.0386 27.404 100.831 29.392 103.771 29.392C105.815 29.392 107.131 28.44 107.831 27.348C107.831 27.88 107.887 28.636 107.971 29H111.387C111.303 28.524 111.219 27.544 111.219 26.816V20.04C111.219 17.268 109.595 14.804 105.227 14.804C101.531 14.804 99.5426 17.184 99.3186 19.34L102.623 20.04C102.735 18.836 103.631 17.8 105.255 17.8C106.823 17.8 107.579 18.612 107.579 19.592C107.579 20.068 107.327 20.46 106.543 20.572L103.155 21.076C100.859 21.412 99.0386 22.784 99.0386 25.248ZM104.555 26.62C103.351 26.62 102.763 25.836 102.763 25.024C102.763 23.96 103.519 23.428 104.471 23.288L107.579 22.812V23.428C107.579 25.864 106.123 26.62 104.555 26.62ZM118.696 21.076C118.696 19.48 119.648 18.22 121.272 18.22C123.064 18.22 123.82 19.424 123.82 20.964V29H127.544V20.32C127.544 17.296 125.976 14.86 122.56 14.86C121.076 14.86 119.424 15.504 118.584 16.932V15.224H114.972V29H118.696V21.076ZM135.048 21.076C135.048 19.48 136 18.22 137.624 18.22C139.416 18.22 140.172 19.424 140.172 20.964V29H143.896V20.32C143.896 17.296 142.328 14.86 138.912 14.86C137.428 14.86 135.776 15.504 134.936 16.932V15.224H131.324V29H135.048V21.076ZM150.392 20.544C150.476 19.284 151.54 17.828 153.472 17.828C155.6 17.828 156.496 19.172 156.552 20.544H150.392ZM156.916 24.128C156.468 25.36 155.516 26.228 153.78 26.228C151.932 26.228 150.392 24.912 150.308 23.092H160.164C160.164 23.036 160.22 22.476 160.22 21.944C160.22 17.52 157.672 14.804 153.416 14.804C149.888 14.804 146.64 17.66 146.64 22.056C146.64 26.704 149.972 29.42 153.752 29.42C157.14 29.42 159.324 27.432 160.024 25.052L156.916 24.128ZM166.876 29V8.728H163.152V29H166.876ZM181.505 34.32V27.656C182.177 28.58 183.577 29.336 185.481 29.336C189.373 29.336 191.977 26.256 191.977 22.084C191.977 17.996 189.653 14.916 185.621 14.916C183.549 14.916 182.009 15.84 181.393 16.904V15.224H177.781V34.32H181.505ZM188.309 22.112C188.309 24.576 186.797 26.004 184.893 26.004C182.989 26.004 181.449 24.548 181.449 22.112C181.449 19.676 182.989 18.248 184.893 18.248C186.797 18.248 188.309 19.676 188.309 22.112ZM203.326 15.168C203.046 15.14 202.766 15.112 202.458 15.112C201.282 15.112 199.378 15.448 198.538 17.268V15.224H194.926V29H198.65V22.7C198.65 19.732 200.302 18.808 202.206 18.808C202.542 18.808 202.906 18.836 203.326 18.92V15.168ZM211.996 26.032C210.176 26.032 208.496 24.688 208.496 22.112C208.496 19.508 210.176 18.192 211.996 18.192C213.816 18.192 215.496 19.508 215.496 22.112C215.496 24.716 213.816 26.032 211.996 26.032ZM211.996 14.804C207.88 14.804 204.772 17.856 204.772 22.112C204.772 26.34 207.88 29.42 211.996 29.42C216.112 29.42 219.22 26.34 219.22 22.112C219.22 17.856 216.112 14.804 211.996 14.804ZM221.18 29.756C221.572 32.388 224.092 34.74 227.872 34.74C233.052 34.74 235.096 31.296 235.096 27.516V15.224H231.512V16.848C231.036 15.924 229.776 14.972 227.592 14.972C223.812 14.972 221.18 18.052 221.18 21.692C221.18 25.556 223.924 28.384 227.592 28.384C229.58 28.384 230.868 27.516 231.428 26.62V27.628C231.428 30.288 230.112 31.464 227.76 31.464C225.996 31.464 224.792 30.372 224.54 28.86L221.18 29.756ZM228.236 25.192C226.304 25.192 224.932 23.848 224.932 21.692C224.932 19.564 226.388 18.22 228.236 18.22C230.028 18.22 231.484 19.564 231.484 21.692C231.484 23.82 230.14 25.192 228.236 25.192ZM247.267 15.168C246.987 15.14 246.707 15.112 246.399 15.112C245.223 15.112 243.319 15.448 242.479 17.268V15.224H238.867V29H242.591V22.7C242.591 19.732 244.243 18.808 246.147 18.808C246.483 18.808 246.847 18.836 247.267 18.92V15.168ZM249.128 25.248C249.128 27.404 250.92 29.392 253.86 29.392C255.904 29.392 257.22 28.44 257.92 27.348C257.92 27.88 257.976 28.636 258.06 29H261.476C261.392 28.524 261.308 27.544 261.308 26.816V20.04C261.308 17.268 259.684 14.804 255.316 14.804C251.62 14.804 249.632 17.184 249.408 19.34L252.712 20.04C252.824 18.836 253.72 17.8 255.344 17.8C256.912 17.8 257.668 18.612 257.668 19.592C257.668 20.068 257.416 20.46 256.632 20.572L253.244 21.076C250.948 21.412 249.128 22.784 249.128 25.248ZM254.644 26.62C253.44 26.62 252.852 25.836 252.852 25.024C252.852 23.96 253.608 23.428 254.56 23.288L257.668 22.812V23.428C257.668 25.864 256.212 26.62 254.644 26.62ZM268.786 29V20.936C268.786 19.424 269.738 18.22 271.362 18.22C273.042 18.22 273.798 19.34 273.798 20.824V29H277.494V20.936C277.494 19.452 278.446 18.22 280.042 18.22C281.75 18.22 282.478 19.34 282.478 20.824V29H286.09V20.068C286.09 16.372 283.654 14.832 281.106 14.832C279.286 14.832 277.83 15.448 276.738 17.128C276.038 15.644 274.526 14.832 272.65 14.832C271.138 14.832 269.374 15.56 268.618 16.904V15.224H265.062V29H268.786ZM8.176 63.032C6.356 63.032 4.676 61.688 4.676 59.112C4.676 56.508 6.356 55.192 8.176 55.192C9.996 55.192 11.676 56.508 11.676 59.112C11.676 61.716 9.996 63.032 8.176 63.032ZM8.176 51.804C4.06 51.804 0.952 54.856 0.952 59.112C0.952 63.34 4.06 66.42 8.176 66.42C12.292 66.42 15.4 63.34 15.4 59.112C15.4 54.856 12.292 51.804 8.176 51.804ZM22.0636 58.076C22.0636 56.48 23.0156 55.22 24.6396 55.22C26.4316 55.22 27.1876 56.424 27.1876 57.964V66H30.9116V57.32C30.9116 54.296 29.3436 51.86 25.9276 51.86C24.4436 51.86 22.7916 52.504 21.9516 53.932V52.224H18.3396V66H22.0636V58.076ZM40.4331 62.164C40.6011 63.732 42.0291 66.42 46.1731 66.42C49.7851 66.42 51.5211 64.124 51.5211 61.884C51.5211 59.868 50.1491 58.216 47.4331 57.656L45.4731 57.236C44.7171 57.096 44.2131 56.676 44.2131 56.004C44.2131 55.22 44.9971 54.632 45.9771 54.632C47.5451 54.632 48.1331 55.668 48.2451 56.48L51.3531 55.78C51.1851 54.296 49.8691 51.804 45.9491 51.804C42.9811 51.804 40.7971 53.848 40.7971 56.312C40.7971 58.244 42.0011 59.84 44.6611 60.428L46.4811 60.848C47.5451 61.072 47.9651 61.576 47.9651 62.192C47.9651 62.92 47.3771 63.564 46.1451 63.564C44.5211 63.564 43.7091 62.556 43.6251 61.464L40.4331 62.164ZM59.1073 48.108H55.7473V50.04C55.7473 51.272 55.0753 52.224 53.6193 52.224H52.9193V55.528H55.4113V61.94C55.4113 64.6 57.0913 66.196 59.7793 66.196C60.8713 66.196 61.5433 66 61.8793 65.86V62.78C61.6833 62.836 61.1793 62.892 60.7313 62.892C59.6673 62.892 59.1073 62.5 59.1073 61.296V55.528H61.8793V52.224H59.1073V48.108ZM67.622 57.544C67.706 56.284 68.77 54.828 70.702 54.828C72.83 54.828 73.726 56.172 73.782 57.544H67.622ZM74.146 61.128C73.698 62.36 72.746 63.228 71.01 63.228C69.162 63.228 67.622 61.912 67.538 60.092H77.394C77.394 60.036 77.45 59.476 77.45 58.944C77.45 54.52 74.902 51.804 70.646 51.804C67.118 51.804 63.87 54.66 63.87 59.056C63.87 63.704 67.202 66.42 70.982 66.42C74.37 66.42 76.554 64.432 77.254 62.052L74.146 61.128ZM88.7825 52.168C88.5025 52.14 88.2225 52.112 87.9145 52.112C86.7385 52.112 84.8345 52.448 83.9945 54.268V52.224H80.3825V66H84.1065V59.7C84.1065 56.732 85.7585 55.808 87.6625 55.808C87.9985 55.808 88.3625 55.836 88.7825 55.92V52.168ZM97.4533 63.032C95.6333 63.032 93.9533 61.688 93.9533 59.112C93.9533 56.508 95.6333 55.192 97.4533 55.192C99.2733 55.192 100.953 56.508 100.953 59.112C100.953 61.716 99.2733 63.032 97.4533 63.032ZM97.4533 51.804C93.3373 51.804 90.2293 54.856 90.2293 59.112C90.2293 63.34 93.3373 66.42 97.4533 66.42C101.569 66.42 104.677 63.34 104.677 59.112C104.677 54.856 101.569 51.804 97.4533 51.804ZM111.341 66V52.224H107.617V66H111.341ZM107.169 47.716C107.169 48.948 108.205 49.984 109.465 49.984C110.753 49.984 111.761 48.948 111.761 47.716C111.761 46.428 110.753 45.392 109.465 45.392C108.205 45.392 107.169 46.428 107.169 47.716ZM128.46 45.728H124.792V53.596C124.4 52.868 123.28 51.888 120.9 51.888C117.008 51.888 114.292 55.052 114.292 59.084C114.292 63.256 117.092 66.336 121.012 66.336C122.86 66.336 124.26 65.496 124.876 64.404C124.876 65.048 124.96 65.72 125.016 66H128.572C128.516 65.44 128.46 64.432 128.46 63.508V45.728ZM118.044 59.084C118.044 56.62 119.556 55.22 121.46 55.22C123.364 55.22 124.848 56.592 124.848 59.056C124.848 61.548 123.364 63.004 121.46 63.004C119.5 63.004 118.044 61.548 118.044 59.084ZM131.324 62.164C131.492 63.732 132.92 66.42 137.064 66.42C140.676 66.42 142.412 64.124 142.412 61.884C142.412 59.868 141.04 58.216 138.324 57.656L136.364 57.236C135.608 57.096 135.104 56.676 135.104 56.004C135.104 55.22 135.888 54.632 136.868 54.632C138.436 54.632 139.024 55.668 139.136 56.48L142.244 55.78C142.076 54.296 140.76 51.804 136.84 51.804C133.872 51.804 131.688 53.848 131.688 56.312C131.688 58.244 132.892 59.84 135.552 60.428L137.372 60.848C138.436 61.072 138.856 61.576 138.856 62.192C138.856 62.92 138.268 63.564 137.036 63.564C135.412 63.564 134.6 62.556 134.516 61.464L131.324 62.164Z" fill="#181818"/>
<path d="M9.312 107.112V105.656H0.16V107.112H3.952V117H5.52V107.112H9.312ZM12.0842 117V109.304H10.5962V117H12.0842ZM10.2602 106.392C10.2602 106.984 10.7402 107.464 11.3322 107.464C11.9402 107.464 12.4202 106.984 12.4202 106.392C12.4202 105.784 11.9402 105.304 11.3322 105.304C10.7402 105.304 10.2602 105.784 10.2602 106.392ZM19.0751 109.224C18.9951 109.208 18.7871 109.176 18.5791 109.176C17.7951 109.176 16.8351 109.464 16.2751 110.648V109.304H14.8031V117H16.3071V113.144C16.3071 111.448 17.1551 110.776 18.4191 110.776C18.6271 110.776 18.8511 110.792 19.0751 110.824V109.224ZM21.736 112.36C21.8 111.368 22.568 110.392 23.832 110.392C25.192 110.392 25.912 111.256 25.944 112.36H21.736ZM26.168 114.36C25.88 115.224 25.256 115.912 24.008 115.912C22.712 115.912 21.72 114.952 21.688 113.576H27.48C27.496 113.48 27.512 113.288 27.512 113.096C27.512 110.696 26.184 109.064 23.816 109.064C21.88 109.064 20.136 110.712 20.136 113.128C20.136 115.736 21.944 117.24 24.008 117.24C25.8 117.24 27.032 116.168 27.464 114.808L26.168 114.36ZM30.4879 113.128C30.4879 111.544 31.3839 110.424 32.7599 110.424C34.1359 110.424 34.9679 111.512 34.9679 113.096C34.9679 114.68 34.1199 115.88 32.7439 115.88C31.3039 115.88 30.4879 114.712 30.4879 113.128ZM34.9839 115.96C34.9839 116.424 35.0319 116.824 35.0639 117H36.5199C36.5039 116.872 36.4399 116.312 36.4399 115.576V105.416H34.9519V110.392C34.6959 109.768 33.9599 109.096 32.5999 109.096C30.4239 109.096 28.9519 110.952 28.9519 113.128C28.9519 115.416 30.3439 117.208 32.5999 117.208C33.7999 117.208 34.6159 116.568 34.9839 115.832V115.96ZM46.6141 115.896C45.3341 115.896 44.2141 114.936 44.2141 113.144C44.2141 111.368 45.3341 110.408 46.6141 110.408C47.8941 110.408 49.0141 111.368 49.0141 113.144C49.0141 114.936 47.8941 115.896 46.6141 115.896ZM46.6141 109.064C44.3101 109.064 42.6781 110.808 42.6781 113.144C42.6781 115.496 44.3101 117.24 46.6141 117.24C48.9181 117.24 50.5501 115.496 50.5501 113.144C50.5501 110.808 48.9181 109.064 46.6141 109.064ZM56.5064 110.664V109.304H54.6504V108.088C54.6504 107.032 55.3384 106.776 55.8664 106.776C56.2504 106.776 56.4424 106.84 56.5224 106.872V105.528C56.4584 105.48 56.1384 105.368 55.6264 105.368C54.2344 105.368 53.0984 106.296 53.0984 108.008V109.304H51.6744V110.664H53.0984V117H54.6504V110.664H56.5064ZM65.4307 105.368C64.0387 105.368 62.9027 106.296 62.9027 108.008V109.304H61.4787V110.664H62.9027V117H64.4547V110.664H68.0547V117H69.5427V109.304H64.4547V108.072C64.4547 107.016 65.1427 106.776 65.6707 106.776C66.0547 106.776 66.2467 106.84 66.3267 106.872V105.528C66.2627 105.48 65.9427 105.368 65.4307 105.368ZM67.7187 106.36C67.7187 106.952 68.1987 107.432 68.7907 107.432C69.3987 107.432 69.8787 106.952 69.8787 106.36C69.8787 105.752 69.3987 105.272 68.7907 105.272C68.1987 105.272 67.7187 105.752 67.7187 106.36ZM73.759 112.552C73.759 111.384 74.367 110.44 75.551 110.44C76.895 110.44 77.343 111.304 77.343 112.376V117H78.847V112.12C78.847 110.408 77.935 109.08 76.095 109.08C75.199 109.08 74.287 109.448 73.727 110.408V109.304H72.255V117H73.759V112.552ZM82.2954 113.128C82.2954 111.544 83.1914 110.424 84.5674 110.424C85.9434 110.424 86.7754 111.512 86.7754 113.096C86.7754 114.68 85.9274 115.88 84.5514 115.88C83.1114 115.88 82.2954 114.712 82.2954 113.128ZM86.7914 115.96C86.7914 116.424 86.8394 116.824 86.8714 117H88.3274C88.3114 116.872 88.2474 116.312 88.2474 115.576V105.416H86.7594V110.392C86.5034 109.768 85.7674 109.096 84.4074 109.096C82.2314 109.096 80.7594 110.952 80.7594 113.128C80.7594 115.416 82.1514 117.208 84.4074 117.208C85.6074 117.208 86.4234 116.568 86.7914 115.832V115.96ZM92.4536 117V109.304H90.9656V117H92.4536ZM90.6296 106.392C90.6296 106.984 91.1096 107.464 91.7016 107.464C92.3096 107.464 92.7896 106.984 92.7896 106.392C92.7896 105.784 92.3096 105.304 91.7016 105.304C91.1096 105.304 90.6296 105.784 90.6296 106.392ZM96.6765 112.552C96.6765 111.384 97.2845 110.44 98.4685 110.44C99.8125 110.44 100.261 111.304 100.261 112.376V117H101.765V112.12C101.765 110.408 100.853 109.08 99.0125 109.08C98.1165 109.08 97.2045 109.448 96.6445 110.408V109.304H95.1725V117H96.6765V112.552ZM103.757 117.416C103.949 119.064 105.389 120.28 107.309 120.28C110.205 120.28 111.165 118.376 111.165 116.424V109.304H109.677V110.376C109.293 109.608 108.493 109.16 107.309 109.16C105.197 109.16 103.773 110.824 103.773 112.904C103.773 115.08 105.261 116.632 107.309 116.632C108.461 116.632 109.293 116.072 109.661 115.368V116.472C109.661 118.136 108.925 118.968 107.309 118.968C106.141 118.968 105.325 118.152 105.213 117.08L103.757 117.416ZM107.533 115.368C106.173 115.368 105.309 114.408 105.309 112.904C105.309 111.416 106.205 110.44 107.533 110.44C108.829 110.44 109.725 111.416 109.725 112.904C109.725 114.392 108.829 115.368 107.533 115.368ZM130.303 117V105.656H128.207L124.175 114.888L120.175 105.656H118.047V117H119.599V108.168L123.439 117H124.879L128.751 108.168V117H130.303ZM140.58 108.232C140.324 107 139.3 105.416 136.74 105.416C134.644 105.416 132.996 107.016 132.996 108.792C132.996 110.488 134.148 111.544 135.764 111.896L137.38 112.248C138.516 112.488 139.076 113.192 139.076 114.008C139.076 115 138.308 115.816 136.74 115.816C135.028 115.816 134.132 114.648 134.02 113.384L132.516 113.864C132.724 115.48 134.02 117.24 136.756 117.24C139.172 117.24 140.676 115.64 140.676 113.88C140.676 112.296 139.62 111.112 137.732 110.696L136.036 110.328C135.076 110.12 134.58 109.496 134.58 108.68C134.58 107.624 135.492 106.792 136.772 106.792C138.356 106.792 139.044 107.912 139.172 108.728L140.58 108.232ZM144.56 110.952V107.064H146.832C148.192 107.064 149.024 107.832 149.024 109.032C149.024 110.2 148.192 110.952 146.832 110.952H144.56ZM147.12 112.36C149.216 112.36 150.624 110.936 150.624 109.016C150.624 107.112 149.216 105.656 147.12 105.656H142.992V117H144.56V112.36H147.12ZM151.412 115C151.54 115.88 152.436 117.24 154.548 117.24C156.452 117.24 157.364 115.944 157.364 114.856C157.364 113.72 156.628 112.872 155.236 112.568L153.988 112.296C153.396 112.168 153.108 111.832 153.108 111.368C153.108 110.84 153.62 110.344 154.388 110.344C155.604 110.344 155.924 111.224 155.988 111.624L157.316 111.128C157.156 110.44 156.5 109.064 154.388 109.064C152.884 109.064 151.652 110.184 151.652 111.496C151.652 112.584 152.372 113.4 153.572 113.656L154.884 113.944C155.524 114.088 155.876 114.456 155.876 114.936C155.876 115.48 155.412 115.96 154.564 115.96C153.476 115.96 152.868 115.32 152.772 114.52L151.412 115ZM165.703 106.872H164.327V108.12C164.327 108.792 163.975 109.304 163.143 109.304H162.727V110.664H164.199V114.888C164.199 116.28 165.031 117.08 166.343 117.08C166.855 117.08 167.239 116.984 167.367 116.936V115.656C167.239 115.688 166.967 115.72 166.775 115.72C165.991 115.72 165.703 115.368 165.703 114.664V110.664H167.367V109.304H165.703V106.872ZM171.038 112.472C171.07 111.336 171.678 110.44 172.83 110.44C174.174 110.44 174.622 111.304 174.622 112.376V117H176.126V112.12C176.126 110.408 175.214 109.08 173.374 109.08C172.494 109.08 171.598 109.384 171.038 110.2V105.416H169.534V117H171.038V112.472ZM178.199 114.936C178.199 116.152 179.207 117.24 180.775 117.24C182.151 117.24 182.919 116.504 183.255 115.96C183.255 116.52 183.303 116.808 183.335 117H184.807C184.775 116.808 184.711 116.408 184.711 115.736V111.88C184.711 110.376 183.815 109.064 181.511 109.064C179.847 109.064 178.519 110.088 178.359 111.56L179.799 111.896C179.895 111 180.487 110.344 181.543 110.344C182.711 110.344 183.207 110.968 183.207 111.72C183.207 111.992 183.079 112.232 182.615 112.296L180.535 112.6C179.207 112.792 178.199 113.56 178.199 114.936ZM180.983 115.976C180.215 115.976 179.735 115.432 179.735 114.856C179.735 114.168 180.215 113.8 180.855 113.704L183.207 113.352V113.704C183.207 115.384 182.215 115.976 180.983 115.976ZM189.23 106.872H187.854V108.12C187.854 108.792 187.502 109.304 186.67 109.304H186.254V110.664H187.726V114.888C187.726 116.28 188.558 117.08 189.87 117.08C190.382 117.08 190.766 116.984 190.894 116.936V115.656C190.766 115.688 190.494 115.72 190.302 115.72C189.518 115.72 189.23 115.368 189.23 114.664V110.664H190.894V109.304H189.23V106.872ZM200.453 110.456C201.765 110.456 202.325 111.336 202.517 112.088L203.877 111.512C203.557 110.344 202.501 109.064 200.453 109.064C198.261 109.064 196.581 110.744 196.581 113.144C196.581 115.48 198.229 117.24 200.469 117.24C202.469 117.24 203.573 115.944 203.941 114.84L202.613 114.264C202.437 114.872 201.909 115.848 200.469 115.848C199.221 115.848 198.117 114.904 198.117 113.144C198.117 111.352 199.237 110.456 200.453 110.456ZM205.308 114.936C205.308 116.152 206.316 117.24 207.884 117.24C209.26 117.24 210.028 116.504 210.364 115.96C210.364 116.52 210.412 116.808 210.444 117H211.916C211.884 116.808 211.82 116.408 211.82 115.736V111.88C211.82 110.376 210.924 109.064 208.62 109.064C206.956 109.064 205.628 110.088 205.468 111.56L206.908 111.896C207.004 111 207.596 110.344 208.652 110.344C209.82 110.344 210.316 110.968 210.316 111.72C210.316 111.992 210.188 112.232 209.724 112.296L207.644 112.6C206.316 112.792 205.308 113.56 205.308 114.936ZM208.092 115.976C207.324 115.976 206.844 115.432 206.844 114.856C206.844 114.168 207.324 113.8 207.964 113.704L210.316 113.352V113.704C210.316 115.384 209.324 115.976 208.092 115.976ZM215.826 112.552C215.826 111.384 216.434 110.44 217.618 110.44C218.962 110.44 219.41 111.304 219.41 112.376V117H220.914V112.12C220.914 110.408 220.002 109.08 218.162 109.08C217.266 109.08 216.354 109.448 215.794 110.408V109.304H214.322V117H215.826V112.552ZM229.131 112.472C229.163 111.336 229.771 110.44 230.923 110.44C232.267 110.44 232.715 111.304 232.715 112.376V117H234.219V112.12C234.219 110.408 233.307 109.08 231.467 109.08C230.587 109.08 229.691 109.384 229.131 110.2V105.416H227.627V117H229.131V112.472ZM237.747 112.36C237.811 111.368 238.579 110.392 239.843 110.392C241.203 110.392 241.923 111.256 241.955 112.36H237.747ZM242.179 114.36C241.891 115.224 241.267 115.912 240.019 115.912C238.723 115.912 237.731 114.952 237.699 113.576H243.491C243.507 113.48 243.523 113.288 243.523 113.096C243.523 110.696 242.195 109.064 239.827 109.064C237.891 109.064 236.147 110.712 236.147 113.128C236.147 115.736 237.955 117.24 240.019 117.24C241.811 117.24 243.043 116.168 243.475 114.808L242.179 114.36ZM247.107 117V105.416H245.603V117H247.107ZM251.314 120.04V115.96C251.73 116.648 252.626 117.208 253.81 117.208C256.066 117.208 257.394 115.432 257.394 113.144C257.394 110.904 256.162 109.128 253.858 109.128C252.61 109.128 251.698 109.736 251.282 110.504V109.304H249.826V120.04H251.314ZM255.858 113.144C255.858 114.728 254.978 115.864 253.586 115.864C252.21 115.864 251.298 114.728 251.298 113.144C251.298 111.608 252.21 110.456 253.586 110.456C254.994 110.456 255.858 111.608 255.858 113.144ZM265.55 120.216L270.558 109.304H268.942L266.638 114.616L264.238 109.304H262.51L265.822 116.152L263.902 120.216H265.55ZM275.149 115.896C273.869 115.896 272.749 114.936 272.749 113.144C272.749 111.368 273.869 110.408 275.149 110.408C276.429 110.408 277.549 111.368 277.549 113.144C277.549 114.936 276.429 115.896 275.149 115.896ZM275.149 109.064C272.845 109.064 271.213 110.808 271.213 113.144C271.213 115.496 272.845 117.24 275.149 117.24C277.453 117.24 279.085 115.496 279.085 113.144C279.085 110.808 277.453 109.064 275.149 109.064ZM286.163 116.072C286.163 116.392 286.195 116.824 286.227 117H287.667C287.635 116.728 287.587 116.184 287.587 115.576V109.304H286.083V113.944C286.083 115.112 285.475 115.912 284.259 115.912C282.995 115.912 282.515 114.984 282.515 113.928V109.304H281.011V114.152C281.011 115.896 282.099 117.24 283.891 117.24C284.787 117.24 285.747 116.872 286.163 116.072ZM295.961 117V115.88C296.441 116.712 297.321 117.208 298.457 117.208C300.745 117.208 302.041 115.4 302.041 113.112C302.041 110.872 300.841 109.08 298.505 109.08C297.225 109.08 296.329 109.704 295.961 110.392V105.416H294.473V117H295.961ZM300.505 113.112C300.505 114.776 299.609 115.864 298.233 115.864C296.905 115.864 295.945 114.776 295.945 113.112C295.945 111.448 296.905 110.408 298.233 110.408C299.625 110.408 300.505 111.448 300.505 113.112ZM307.413 115.896C306.133 115.896 305.013 114.936 305.013 113.144C305.013 111.368 306.133 110.408 307.413 110.408C308.693 110.408 309.813 111.368 309.813 113.144C309.813 114.936 308.693 115.896 307.413 115.896ZM307.413 109.064C305.109 109.064 303.477 110.808 303.477 113.144C303.477 115.496 305.109 117.24 307.413 117.24C309.717 117.24 311.349 115.496 311.349 113.144C311.349 110.808 309.717 109.064 307.413 109.064ZM316.73 115.896C315.45 115.896 314.33 114.936 314.33 113.144C314.33 111.368 315.45 110.408 316.73 110.408C318.01 110.408 319.13 111.368 319.13 113.144C319.13 114.936 318.01 115.896 316.73 115.896ZM316.73 109.064C314.426 109.064 312.794 110.808 312.794 113.144C312.794 115.496 314.426 117.24 316.73 117.24C319.034 117.24 320.666 115.496 320.666 113.144C320.666 110.808 319.034 109.064 316.73 109.064ZM322.03 115C322.158 115.88 323.054 117.24 325.166 117.24C327.07 117.24 327.982 115.944 327.982 114.856C327.982 113.72 327.246 112.872 325.854 112.568L324.606 112.296C324.014 112.168 323.726 111.832 323.726 111.368C323.726 110.84 324.238 110.344 325.006 110.344C326.222 110.344 326.542 111.224 326.606 111.624L327.934 111.128C327.774 110.44 327.118 109.064 325.006 109.064C323.502 109.064 322.27 110.184 322.27 111.496C322.27 112.584 322.99 113.4 324.19 113.656L325.502 113.944C326.142 114.088 326.494 114.456 326.494 114.936C326.494 115.48 326.03 115.96 325.182 115.96C324.094 115.96 323.486 115.32 323.39 114.52L322.03 115ZM332.16 106.872H330.784V108.12C330.784 108.792 330.432 109.304 329.6 109.304H329.184V110.664H330.656V114.888C330.656 116.28 331.488 117.08 332.8 117.08C333.312 117.08 333.696 116.984 333.824 116.936V115.656C333.696 115.688 333.424 115.72 333.232 115.72C332.448 115.72 332.16 115.368 332.16 114.664V110.664H333.824V109.304H332.16V106.872ZM342.072 120.216L347.08 109.304H345.464L343.16 114.616L340.76 109.304H339.032L342.344 116.152L340.424 120.216H342.072ZM351.67 115.896C350.39 115.896 349.27 114.936 349.27 113.144C349.27 111.368 350.39 110.408 351.67 110.408C352.95 110.408 354.07 111.368 354.07 113.144C354.07 114.936 352.95 115.896 351.67 115.896ZM351.67 109.064C349.366 109.064 347.734 110.808 347.734 113.144C347.734 115.496 349.366 117.24 351.67 117.24C353.974 117.24 355.606 115.496 355.606 113.144C355.606 110.808 353.974 109.064 351.67 109.064ZM362.684 116.072C362.684 116.392 362.716 116.824 362.748 117H364.188C364.156 116.728 364.108 116.184 364.108 115.576V109.304H362.604V113.944C362.604 115.112 361.996 115.912 360.78 115.912C359.516 115.912 359.036 114.984 359.036 113.928V109.304H357.532V114.152C357.532 115.896 358.62 117.24 360.412 117.24C361.308 117.24 362.268 116.872 362.684 116.072ZM371.107 109.224C371.027 109.208 370.819 109.176 370.611 109.176C369.827 109.176 368.867 109.464 368.307 110.648V109.304H366.835V117H368.339V113.144C368.339 111.448 369.187 110.776 370.451 110.776C370.659 110.776 370.883 110.792 371.107 110.824V109.224ZM4.512 137.456C5.824 137.456 6.384 138.336 6.576 139.088L7.936 138.512C7.616 137.344 6.56 136.064 4.512 136.064C2.32 136.064 0.64 137.744 0.64 140.144C0.64 142.48 2.288 144.24 4.528 144.24C6.528 144.24 7.632 142.944 8 141.84L6.672 141.264C6.496 141.872 5.968 142.848 4.528 142.848C3.28 142.848 2.176 141.904 2.176 140.144C2.176 138.352 3.296 137.456 4.512 137.456ZM11.4284 139.472C11.4604 138.336 12.0684 137.44 13.2204 137.44C14.5644 137.44 15.0124 138.304 15.0124 139.376V144H16.5164V139.12C16.5164 137.408 15.6044 136.08 13.7644 136.08C12.8844 136.08 11.9884 136.384 11.4284 137.2V132.416H9.92437V144H11.4284V139.472ZM18.5887 141.936C18.5887 143.152 19.5967 144.24 21.1647 144.24C22.5408 144.24 23.3088 143.504 23.6448 142.96C23.6448 143.52 23.6927 143.808 23.7248 144H25.1968C25.1648 143.808 25.1007 143.408 25.1007 142.736V138.88C25.1007 137.376 24.2048 136.064 21.9007 136.064C20.2367 136.064 18.9087 137.088 18.7487 138.56L20.1887 138.896C20.2847 138 20.8767 137.344 21.9327 137.344C23.1007 137.344 23.5967 137.968 23.5967 138.72C23.5967 138.992 23.4688 139.232 23.0047 139.296L20.9247 139.6C19.5967 139.792 18.5887 140.56 18.5887 141.936ZM21.3727 142.976C20.6047 142.976 20.1247 142.432 20.1247 141.856C20.1247 141.168 20.6047 140.8 21.2447 140.704L23.5967 140.352V140.704C23.5967 142.384 22.6048 142.976 21.3727 142.976ZM29.1077 139.552C29.1077 138.384 29.7157 137.44 30.8997 137.44C32.2437 137.44 32.6918 138.304 32.6918 139.376V144H34.1957V139.12C34.1957 137.408 33.2838 136.08 31.4437 136.08C30.5477 136.08 29.6357 136.448 29.0757 137.408V136.304H27.6037V144H29.1077V139.552ZM38.2521 139.552C38.2521 138.384 38.8601 137.44 40.0441 137.44C41.3881 137.44 41.8361 138.304 41.8361 139.376V144H43.3401V139.12C43.3401 137.408 42.4281 136.08 40.5881 136.08C39.6921 136.08 38.7801 136.448 38.2201 137.408V136.304H36.7481V144H38.2521V139.552ZM46.8685 139.36C46.9325 138.368 47.7005 137.392 48.9645 137.392C50.3245 137.392 51.0445 138.256 51.0765 139.36H46.8685ZM51.3005 141.36C51.0125 142.224 50.3885 142.912 49.1405 142.912C47.8445 142.912 46.8525 141.952 46.8205 140.576H52.6125C52.6285 140.48 52.6445 140.288 52.6445 140.096C52.6445 137.696 51.3165 136.064 48.9485 136.064C47.0125 136.064 45.2685 137.712 45.2685 140.128C45.2685 142.736 47.0765 144.24 49.1405 144.24C50.9325 144.24 52.1645 143.168 52.5965 141.808L51.3005 141.36ZM56.2284 144V132.416H54.7244V144H56.2284ZM62.3869 142C62.5149 142.88 63.4109 144.24 65.5229 144.24C67.4269 144.24 68.3389 142.944 68.3389 141.856C68.3389 140.72 67.6029 139.872 66.2109 139.568L64.9629 139.296C64.3709 139.168 64.0829 138.832 64.0829 138.368C64.0829 137.84 64.5949 137.344 65.3629 137.344C66.5789 137.344 66.8989 138.224 66.9629 138.624L68.2909 138.128C68.1309 137.44 67.4749 136.064 65.3629 136.064C63.8589 136.064 62.6269 137.184 62.6269 138.496C62.6269 139.584 63.3469 140.4 64.5469 140.656L65.8589 140.944C66.4989 141.088 66.8509 141.456 66.8509 141.936C66.8509 142.48 66.3869 142.96 65.5389 142.96C64.4509 142.96 63.8429 142.32 63.7469 141.52L62.3869 142ZM69.865 141.936C69.865 143.152 70.873 144.24 72.441 144.24C73.817 144.24 74.585 143.504 74.921 142.96C74.921 143.52 74.969 143.808 75.001 144H76.473C76.441 143.808 76.377 143.408 76.377 142.736V138.88C76.377 137.376 75.481 136.064 73.177 136.064C71.513 136.064 70.185 137.088 70.025 138.56L71.465 138.896C71.561 138 72.153 137.344 73.209 137.344C74.377 137.344 74.873 137.968 74.873 138.72C74.873 138.992 74.745 139.232 74.281 139.296L72.201 139.6C70.873 139.792 69.865 140.56 69.865 141.936ZM72.649 142.976C71.881 142.976 71.401 142.432 71.401 141.856C71.401 141.168 71.881 140.8 72.521 140.704L74.873 140.352V140.704C74.873 142.384 73.881 142.976 72.649 142.976ZM80.384 144V132.416H78.88V144H80.384ZM84.0785 139.36C84.1425 138.368 84.9105 137.392 86.1745 137.392C87.5345 137.392 88.2545 138.256 88.2865 139.36H84.0785ZM88.5105 141.36C88.2225 142.224 87.5985 142.912 86.3505 142.912C85.0545 142.912 84.0625 141.952 84.0305 140.576H89.8225C89.8385 140.48 89.8545 140.288 89.8545 140.096C89.8545 137.696 88.5265 136.064 86.1585 136.064C84.2225 136.064 82.4785 137.712 82.4785 140.128C82.4785 142.736 84.2865 144.24 86.3505 144.24C88.1425 144.24 89.3745 143.168 89.8065 141.808L88.5105 141.36ZM91.2144 142C91.3424 142.88 92.2384 144.24 94.3504 144.24C96.2544 144.24 97.1664 142.944 97.1664 141.856C97.1664 140.72 96.4304 139.872 95.0384 139.568L93.7904 139.296C93.1984 139.168 92.9104 138.832 92.9104 138.368C92.9104 137.84 93.4224 137.344 94.1904 137.344C95.4064 137.344 95.7264 138.224 95.7904 138.624L97.1184 138.128C96.9584 137.44 96.3024 136.064 94.1904 136.064C92.6864 136.064 91.4544 137.184 91.4544 138.496C91.4544 139.584 92.1744 140.4 93.3744 140.656L94.6864 140.944C95.3264 141.088 95.6784 141.456 95.6784 141.936C95.6784 142.48 95.2144 142.96 94.3664 142.96C93.2784 142.96 92.6704 142.32 92.5744 141.52L91.2144 142ZM102.593 140.752C102.577 140.592 102.577 140.528 102.577 140.448C102.577 139.824 102.785 139.248 103.281 138.912L104.017 138.416C104.945 137.792 105.649 136.912 105.649 135.632C105.649 134 104.385 132.416 102.145 132.416C99.6808 132.416 98.6088 134.224 98.6088 135.696C98.6088 135.984 98.6408 136.24 98.7048 136.464L100.257 136.656C100.193 136.48 100.145 136.144 100.145 135.872C100.145 134.864 100.753 133.824 102.145 133.824C103.425 133.824 104.049 134.704 104.049 135.648C104.049 136.272 103.745 136.848 103.201 137.216L102.497 137.696C101.553 138.336 101.169 139.136 101.169 140.192C101.169 140.4 101.169 140.56 101.185 140.752H102.593ZM100.833 143.04C100.833 143.616 101.297 144.08 101.873 144.08C102.449 144.08 102.929 143.616 102.929 143.04C102.929 142.464 102.449 141.984 101.873 141.984C101.297 141.984 100.833 142.464 100.833 143.04ZM118.845 139.152V144H120.413V139.152L124.413 132.656H122.621L119.677 137.712L116.733 132.656H114.845L118.845 139.152ZM127.874 142.896C126.594 142.896 125.474 141.936 125.474 140.144C125.474 138.368 126.594 137.408 127.874 137.408C129.154 137.408 130.274 138.368 130.274 140.144C130.274 141.936 129.154 142.896 127.874 142.896ZM127.874 136.064C125.57 136.064 123.938 137.808 123.938 140.144C123.938 142.496 125.57 144.24 127.874 144.24C130.178 144.24 131.81 142.496 131.81 140.144C131.81 137.808 130.178 136.064 127.874 136.064ZM138.888 143.072C138.888 143.392 138.92 143.824 138.952 144H140.392C140.36 143.728 140.312 143.184 140.312 142.576V136.304H138.808V140.944C138.808 142.112 138.2 142.912 136.984 142.912C135.72 142.912 135.24 141.984 135.24 140.928V136.304H133.736V141.152C133.736 142.896 134.824 144.24 136.616 144.24C137.512 144.24 138.472 143.872 138.888 143.072ZM142.399 133.504C142.399 134.144 142.847 134.528 143.407 134.528C143.567 134.528 143.679 134.48 143.727 134.448C143.711 135.168 143.215 135.904 142.495 136.064V136.832C143.423 136.72 144.703 135.904 144.703 133.92C144.703 132.992 144.127 132.512 143.487 132.512C142.863 132.512 142.399 132.976 142.399 133.504ZM150.408 136.224C150.328 136.208 150.12 136.176 149.912 136.176C149.128 136.176 148.168 136.464 147.608 137.648V136.304H146.136V144H147.64V140.144C147.64 138.448 148.488 137.776 149.752 137.776C149.96 137.776 150.184 137.792 150.408 137.824V136.224ZM153.069 139.36C153.133 138.368 153.901 137.392 155.165 137.392C156.525 137.392 157.245 138.256 157.277 139.36H153.069ZM157.501 141.36C157.213 142.224 156.589 142.912 155.341 142.912C154.045 142.912 153.053 141.952 153.021 140.576H158.813C158.829 140.48 158.845 140.288 158.845 140.096C158.845 137.696 157.517 136.064 155.149 136.064C153.213 136.064 151.469 137.712 151.469 140.128C151.469 142.736 153.277 144.24 155.341 144.24C157.133 144.24 158.365 143.168 158.797 141.808L157.501 141.36ZM166.573 144V136.304H165.085V144H166.573ZM164.749 133.392C164.749 133.984 165.229 134.464 165.821 134.464C166.429 134.464 166.909 133.984 166.909 133.392C166.909 132.784 166.429 132.304 165.821 132.304C165.229 132.304 164.749 132.784 164.749 133.392ZM170.796 139.552C170.796 138.384 171.404 137.44 172.588 137.44C173.932 137.44 174.38 138.304 174.38 139.376V144H175.884V139.12C175.884 137.408 174.972 136.08 173.132 136.08C172.236 136.08 171.324 136.448 170.764 137.408V136.304H169.292V144H170.796V139.552ZM184.1 144V132.416H182.596V144H184.1ZM191.813 143.072C191.813 143.392 191.845 143.824 191.877 144H193.317C193.285 143.728 193.237 143.184 193.237 142.576V136.304H191.733V140.944C191.733 142.112 191.125 142.912 189.909 142.912C188.645 142.912 188.165 141.984 188.165 140.928V136.304H186.661V141.152C186.661 142.896 187.749 144.24 189.541 144.24C190.437 144.24 191.397 143.872 191.813 143.072ZM199.117 137.456C200.429 137.456 200.989 138.336 201.181 139.088L202.541 138.512C202.221 137.344 201.165 136.064 199.117 136.064C196.925 136.064 195.245 137.744 195.245 140.144C195.245 142.48 196.893 144.24 199.133 144.24C201.133 144.24 202.237 142.944 202.605 141.84L201.277 141.264C201.101 141.872 200.573 142.848 199.133 142.848C197.885 142.848 196.781 141.904 196.781 140.144C196.781 138.352 197.901 137.456 199.117 137.456ZM211.425 136.304H209.345L206.017 139.712V132.416H204.529V144H206.017V141.68L207.089 140.608L209.601 144H211.489L208.145 139.552L211.425 136.304ZM212.936 142.976C212.936 143.664 213.416 144.064 214.008 144.064C214.184 144.064 214.312 144.016 214.36 143.984C214.344 144.752 213.816 145.536 213.032 145.712V146.544C214.024 146.416 215.4 145.536 215.4 143.424C215.4 142.416 214.792 141.904 214.104 141.904C213.432 141.904 212.936 142.4 212.936 142.976ZM223.607 144V142.88C224.087 143.712 224.967 144.208 226.103 144.208C228.391 144.208 229.687 142.4 229.687 140.112C229.687 137.872 228.487 136.08 226.151 136.08C224.871 136.08 223.975 136.704 223.607 137.392V132.416H222.119V144H223.607ZM228.151 140.112C228.151 141.776 227.255 142.864 225.879 142.864C224.551 142.864 223.591 141.776 223.591 140.112C223.591 138.448 224.551 137.408 225.879 137.408C227.271 137.408 228.151 138.448 228.151 140.112ZM232.739 139.36C232.803 138.368 233.571 137.392 234.835 137.392C236.195 137.392 236.915 138.256 236.947 139.36H232.739ZM237.171 141.36C236.883 142.224 236.259 142.912 235.011 142.912C233.715 142.912 232.723 141.952 232.691 140.576H238.483C238.499 140.48 238.515 140.288 238.515 140.096C238.515 137.696 237.187 136.064 234.819 136.064C232.883 136.064 231.139 137.712 231.139 140.128C231.139 142.736 232.947 144.24 235.011 144.24C236.803 144.24 238.035 143.168 238.467 141.808L237.171 141.36ZM243.827 137.456C245.139 137.456 245.699 138.336 245.891 139.088L247.251 138.512C246.931 137.344 245.875 136.064 243.827 136.064C241.635 136.064 239.955 137.744 239.955 140.144C239.955 142.48 241.603 144.24 243.843 144.24C245.843 144.24 246.947 142.944 247.315 141.84L245.987 141.264C245.811 141.872 245.283 142.848 243.843 142.848C242.595 142.848 241.491 141.904 241.491 140.144C241.491 138.352 242.611 137.456 243.827 137.456ZM248.681 141.936C248.681 143.152 249.689 144.24 251.257 144.24C252.633 144.24 253.401 143.504 253.737 142.96C253.737 143.52 253.785 143.808 253.817 144H255.289C255.257 143.808 255.193 143.408 255.193 142.736V138.88C255.193 137.376 254.297 136.064 251.993 136.064C250.329 136.064 249.001 137.088 248.841 138.56L250.281 138.896C250.377 138 250.969 137.344 252.025 137.344C253.193 137.344 253.689 137.968 253.689 138.72C253.689 138.992 253.561 139.232 253.097 139.296L251.017 139.6C249.689 139.792 248.681 140.56 248.681 141.936ZM251.465 142.976C250.697 142.976 250.217 142.432 250.217 141.856C250.217 141.168 250.697 140.8 251.337 140.704L253.689 140.352V140.704C253.689 142.384 252.697 142.976 251.465 142.976ZM262.612 143.072C262.612 143.392 262.644 143.824 262.676 144H264.116C264.084 143.728 264.036 143.184 264.036 142.576V136.304H262.532V140.944C262.532 142.112 261.924 142.912 260.708 142.912C259.444 142.912 258.964 141.984 258.964 140.928V136.304H257.46V141.152C257.46 142.896 258.548 144.24 260.34 144.24C261.236 144.24 262.196 143.872 262.612 143.072ZM266.043 142C266.171 142.88 267.067 144.24 269.179 144.24C271.083 144.24 271.995 142.944 271.995 141.856C271.995 140.72 271.259 139.872 269.867 139.568L268.619 139.296C268.027 139.168 267.739 138.832 267.739 138.368C267.739 137.84 268.251 137.344 269.019 137.344C270.235 137.344 270.555 138.224 270.619 138.624L271.947 138.128C271.787 137.44 271.131 136.064 269.019 136.064C267.515 136.064 266.283 137.184 266.283 138.496C266.283 139.584 267.003 140.4 268.203 140.656L269.515 140.944C270.155 141.088 270.507 141.456 270.507 141.936C270.507 142.48 270.043 142.96 269.195 142.96C268.107 142.96 267.499 142.32 267.403 141.52L266.043 142ZM275.055 139.36C275.119 138.368 275.887 137.392 277.151 137.392C278.511 137.392 279.231 138.256 279.263 139.36H275.055ZM279.487 141.36C279.199 142.224 278.575 142.912 277.327 142.912C276.031 142.912 275.039 141.952 275.007 140.576H280.799C280.815 140.48 280.831 140.288 280.831 140.096C280.831 137.696 279.503 136.064 277.135 136.064C275.199 136.064 273.455 137.712 273.455 140.128C273.455 142.736 275.263 144.24 277.327 144.24C279.119 144.24 280.351 143.168 280.783 141.808L279.487 141.36ZM289.087 133.872H287.711V135.12C287.711 135.792 287.359 136.304 286.527 136.304H286.111V137.664H287.583V141.888C287.583 143.28 288.415 144.08 289.727 144.08C290.239 144.08 290.623 143.984 290.751 143.936V142.656C290.623 142.688 290.351 142.72 290.159 142.72C289.375 142.72 289.087 142.368 289.087 141.664V137.664H290.751V136.304H289.087V133.872ZM294.422 139.472C294.454 138.336 295.062 137.44 296.214 137.44C297.558 137.44 298.006 138.304 298.006 139.376V144H299.51V139.12C299.51 137.408 298.598 136.08 296.758 136.08C295.878 136.08 294.982 136.384 294.422 137.2V132.416H292.918V144H294.422V139.472ZM303.039 139.36C303.103 138.368 303.871 137.392 305.135 137.392C306.495 137.392 307.215 138.256 307.247 139.36H303.039ZM307.471 141.36C307.183 142.224 306.559 142.912 305.311 142.912C304.015 142.912 303.023 141.952 302.991 140.576H308.783C308.799 140.48 308.815 140.288 308.815 140.096C308.815 137.696 307.487 136.064 305.119 136.064C303.183 136.064 301.439 137.712 301.439 140.128C301.439 142.736 303.247 144.24 305.311 144.24C307.103 144.24 308.335 143.168 308.767 141.808L307.471 141.36ZM312.658 147.216L317.666 136.304H316.05L313.746 141.616L311.346 136.304H309.618L312.93 143.152L311.01 147.216H312.658ZM318.633 133.504C318.633 134.144 319.081 134.528 319.641 134.528C319.801 134.528 319.913 134.48 319.961 134.448C319.945 135.168 319.449 135.904 318.729 136.064V136.832C319.657 136.72 320.937 135.904 320.937 133.92C320.937 132.992 320.361 132.512 319.721 132.512C319.097 132.512 318.633 132.976 318.633 133.504ZM326.643 136.224C326.563 136.208 326.355 136.176 326.147 136.176C325.363 136.176 324.403 136.464 323.843 137.648V136.304H322.371V144H323.875V140.144C323.875 138.448 324.723 137.776 325.987 137.776C326.195 137.776 326.419 137.792 326.643 137.824V136.224ZM329.303 139.36C329.367 138.368 330.135 137.392 331.399 137.392C332.759 137.392 333.479 138.256 333.511 139.36H329.303ZM333.735 141.36C333.447 142.224 332.823 142.912 331.575 142.912C330.279 142.912 329.287 141.952 329.255 140.576H335.047C335.063 140.48 335.079 140.288 335.079 140.096C335.079 137.696 333.751 136.064 331.383 136.064C329.447 136.064 327.703 137.712 327.703 140.128C327.703 142.736 329.511 144.24 331.575 144.24C333.367 144.24 334.599 143.168 335.031 141.808L333.735 141.36ZM340.839 141.936C340.839 143.152 341.847 144.24 343.415 144.24C344.791 144.24 345.559 143.504 345.895 142.96C345.895 143.52 345.943 143.808 345.975 144H347.447C347.415 143.808 347.351 143.408 347.351 142.736V138.88C347.351 137.376 346.455 136.064 344.151 136.064C342.487 136.064 341.159 137.088 340.999 138.56L342.439 138.896C342.535 138 343.127 137.344 344.183 137.344C345.351 137.344 345.847 137.968 345.847 138.72C345.847 138.992 345.719 139.232 345.255 139.296L343.175 139.6C341.847 139.792 340.839 140.56 340.839 141.936ZM343.623 142.976C342.855 142.976 342.375 142.432 342.375 141.856C342.375 141.168 342.855 140.8 343.495 140.704L345.847 140.352V140.704C345.847 142.384 344.855 142.976 343.623 142.976ZM351.358 144V132.416H349.854V144H351.358ZM355.581 144V132.416H354.077V144H355.581ZM363.963 139.472C363.995 138.336 364.603 137.44 365.755 137.44C367.099 137.44 367.547 138.304 367.547 139.376V144H369.051V139.12C369.051 137.408 368.139 136.08 366.299 136.08C365.419 136.08 364.523 136.384 363.963 137.2V132.416H362.459V144H363.963V139.472ZM372.58 139.36C372.644 138.368 373.412 137.392 374.676 137.392C376.036 137.392 376.756 138.256 376.788 139.36H372.58ZM377.012 141.36C376.724 142.224 376.1 142.912 374.852 142.912C373.556 142.912 372.564 141.952 372.532 140.576H378.324C378.34 140.48 378.356 140.288 378.356 140.096C378.356 137.696 377.028 136.064 374.66 136.064C372.724 136.064 370.98 137.712 370.98 140.128C370.98 142.736 372.788 144.24 374.852 144.24C376.644 144.24 377.876 143.168 378.308 141.808L377.012 141.36ZM384.708 136.224C384.628 136.208 384.42 136.176 384.212 136.176C383.428 136.176 382.468 136.464 381.908 137.648V136.304H380.436V144H381.94V140.144C381.94 138.448 382.788 137.776 384.052 137.776C384.26 137.776 384.484 137.792 384.708 137.824V136.224ZM387.368 139.36C387.432 138.368 388.2 137.392 389.464 137.392C390.824 137.392 391.544 138.256 391.576 139.36H387.368ZM391.8 141.36C391.512 142.224 390.888 142.912 389.64 142.912C388.344 142.912 387.352 141.952 387.32 140.576H393.112C393.128 140.48 393.144 140.288 393.144 140.096C393.144 137.696 391.816 136.064 389.448 136.064C387.512 136.064 385.768 137.712 385.768 140.128C385.768 142.736 387.576 144.24 389.64 144.24C391.432 144.24 392.664 143.168 393.096 141.808L391.8 141.36ZM394.83 142.976C394.83 143.6 395.31 144.08 395.934 144.08C396.558 144.08 397.054 143.6 397.054 142.976C397.054 142.352 396.558 141.856 395.934 141.856C395.31 141.856 394.83 142.352 394.83 142.976Z" fill="#000C2D"/>
</g>
<defs>
<clipPath id="clip0_1_249">
<rect width="410" height="152" fill="white"/>
</clipPath>
</defs>
</svg>
