<svg width="410" height="258" viewBox="0 0 410 258" fill="none" xmlns="http://www.w3.org/2000/svg">
<path d="M6.188 29V9.148H2.268V29H6.188ZM15.0292 11.108H11.6692V13.04C11.6692 14.272 10.9972 15.224 9.54122 15.224H8.84122V18.528H11.3332V24.94C11.3332 27.6 13.0132 29.196 15.7012 29.196C16.7932 29.196 17.4652 29 17.8012 28.86V25.78C17.6052 25.836 17.1012 25.892 16.6532 25.892C15.5892 25.892 15.0292 25.5 15.0292 24.296V18.528H17.8012V15.224H15.0292V11.108ZM19.5731 10.996C19.5731 12.172 20.3571 13.012 21.6171 13.012C21.8691 13.012 22.0651 12.956 22.2051 12.872C22.1491 14.16 20.9731 15.084 19.9091 15.252V16.96C21.6731 16.792 24.2491 15.42 24.2491 11.668C24.2491 10.184 23.2971 8.952 21.8131 8.952C20.4971 8.952 19.5731 9.904 19.5731 10.996ZM24.4917 25.164C24.6597 26.732 26.0877 29.42 30.2317 29.42C33.8437 29.42 35.5797 27.124 35.5797 24.884C35.5797 22.868 34.2077 21.216 31.4917 20.656L29.5317 20.236C28.7757 20.096 28.2717 19.676 28.2717 19.004C28.2717 18.22 29.0557 17.632 30.0357 17.632C31.6037 17.632 32.1917 18.668 32.3037 19.48L35.4117 18.78C35.2437 17.296 33.9277 14.804 30.0077 14.804C27.0397 14.804 24.8557 16.848 24.8557 19.312C24.8557 21.244 26.0597 22.84 28.7197 23.428L30.5397 23.848C31.6037 24.072 32.0237 24.576 32.0237 25.192C32.0237 25.92 31.4357 26.564 30.2037 26.564C28.5797 26.564 27.7677 25.556 27.6837 24.464L24.4917 25.164ZM49.2159 29V8.728H45.4919V29H49.2159ZM56.9268 29V15.224H53.2028V29H56.9268ZM52.7548 10.716C52.7548 11.948 53.7908 12.984 55.0508 12.984C56.3388 12.984 57.3468 11.948 57.3468 10.716C57.3468 9.428 56.3388 8.392 55.0508 8.392C53.7908 8.392 52.7548 9.428 52.7548 10.716ZM74.2698 15.224H69.3978L64.6378 20.348V8.728H60.9138V29H64.6378V25.36L66.1778 23.736L69.8178 29H74.3818L68.7538 21.02L74.2698 15.224ZM78.6415 20.544C78.7255 19.284 79.7895 17.828 81.7215 17.828C83.8495 17.828 84.7455 19.172 84.8015 20.544H78.6415ZM85.1655 24.128C84.7175 25.36 83.7655 26.228 82.0295 26.228C80.1815 26.228 78.6415 24.912 78.5575 23.092H88.4135C88.4135 23.036 88.4695 22.476 88.4695 21.944C88.4695 17.52 85.9215 14.804 81.6655 14.804C78.1375 14.804 74.8895 17.66 74.8895 22.056C74.8895 26.704 78.2215 29.42 82.0015 29.42C85.3895 29.42 87.5735 27.432 88.2735 25.052L85.1655 24.128ZM102.044 20.908C102.128 19.396 103.052 18.22 104.62 18.22C106.412 18.22 107.168 19.424 107.168 20.964V29H110.892V20.32C110.892 17.296 109.268 14.86 105.768 14.86C104.452 14.86 102.94 15.308 102.044 16.372V8.728H98.32V29H102.044V20.908ZM113.832 25.248C113.832 27.404 115.624 29.392 118.564 29.392C120.608 29.392 121.924 28.44 122.624 27.348C122.624 27.88 122.68 28.636 122.764 29H126.18C126.096 28.524 126.012 27.544 126.012 26.816V20.04C126.012 17.268 124.388 14.804 120.02 14.804C116.324 14.804 114.336 17.184 114.112 19.34L117.416 20.04C117.528 18.836 118.424 17.8 120.048 17.8C121.616 17.8 122.372 18.612 122.372 19.592C122.372 20.068 122.12 20.46 121.336 20.572L117.948 21.076C115.652 21.412 113.832 22.784 113.832 25.248ZM119.348 26.62C118.144 26.62 117.556 25.836 117.556 25.024C117.556 23.96 118.312 23.428 119.264 23.288L122.372 22.812V23.428C122.372 25.864 120.916 26.62 119.348 26.62ZM142.511 15.224H138.591L135.315 24.464L131.899 15.224H127.811L133.439 29H137.163L142.511 15.224ZM148.501 29V15.224H144.777V29H148.501ZM144.329 10.716C144.329 11.948 145.365 12.984 146.625 12.984C147.913 12.984 148.921 11.948 148.921 10.716C148.921 9.428 147.913 8.392 146.625 8.392C145.365 8.392 144.329 9.428 144.329 10.716ZM156.212 21.076C156.212 19.48 157.164 18.22 158.788 18.22C160.58 18.22 161.336 19.424 161.336 20.964V29H165.06V20.32C165.06 17.296 163.492 14.86 160.076 14.86C158.592 14.86 156.94 15.504 156.1 16.932V15.224H152.488V29H156.212V21.076ZM167.86 29.756C168.252 32.388 170.772 34.74 174.552 34.74C179.732 34.74 181.776 31.296 181.776 27.516V15.224H178.192V16.848C177.716 15.924 176.456 14.972 174.272 14.972C170.492 14.972 167.86 18.052 167.86 21.692C167.86 25.556 170.604 28.384 174.272 28.384C176.26 28.384 177.548 27.516 178.108 26.62V27.628C178.108 30.288 176.792 31.464 174.44 31.464C172.676 31.464 171.472 30.372 171.22 28.86L167.86 29.756ZM174.916 25.192C172.984 25.192 171.612 23.848 171.612 21.692C171.612 19.564 173.068 18.22 174.916 18.22C176.708 18.22 178.164 19.564 178.164 21.692C178.164 23.82 176.82 25.192 174.916 25.192ZM197.673 20.656V29H201.537V20.656L208.537 9.148H204.197L199.745 17.016L195.293 9.148H190.757L197.673 20.656ZM214.239 26.032C212.419 26.032 210.739 24.688 210.739 22.112C210.739 19.508 212.419 18.192 214.239 18.192C216.059 18.192 217.739 19.508 217.739 22.112C217.739 24.716 216.059 26.032 214.239 26.032ZM214.239 14.804C210.123 14.804 207.015 17.856 207.015 22.112C207.015 26.34 210.123 29.42 214.239 29.42C218.355 29.42 221.463 26.34 221.463 22.112C221.463 17.856 218.355 14.804 214.239 14.804ZM233.363 29H236.919C236.863 28.524 236.779 27.572 236.779 26.508V15.224H233.055V23.232C233.055 24.828 232.103 25.948 230.451 25.948C228.715 25.948 227.931 24.716 227.931 23.176V15.224H224.207V23.932C224.207 26.928 226.111 29.364 229.443 29.364C230.899 29.364 232.495 28.804 233.251 27.516C233.251 28.076 233.307 28.72 233.363 29ZM249.154 15.168C248.874 15.14 248.594 15.112 248.286 15.112C247.11 15.112 245.206 15.448 244.366 17.268V15.224H240.754V29H244.478V22.7C244.478 19.732 246.13 18.808 248.034 18.808C248.37 18.808 248.734 18.836 249.154 18.92V15.168ZM262.221 29V27.32C262.949 28.496 264.405 29.336 266.309 29.336C270.229 29.336 272.805 26.228 272.805 22.056C272.805 17.968 270.481 14.86 266.449 14.86C264.405 14.86 262.893 15.756 262.277 16.736V8.728H258.609V29H262.221ZM269.081 22.084C269.081 24.604 267.569 26.004 265.665 26.004C263.789 26.004 262.221 24.576 262.221 22.084C262.221 19.564 263.789 18.192 265.665 18.192C267.569 18.192 269.081 19.564 269.081 22.084ZM278.47 20.544C278.554 19.284 279.618 17.828 281.55 17.828C283.678 17.828 284.574 19.172 284.63 20.544H278.47ZM284.994 24.128C284.546 25.36 283.594 26.228 281.858 26.228C280.01 26.228 278.47 24.912 278.386 23.092H288.242C288.242 23.036 288.298 22.476 288.298 21.944C288.298 17.52 285.75 14.804 281.494 14.804C277.966 14.804 274.718 17.66 274.718 22.056C274.718 26.704 278.05 29.42 281.83 29.42C285.218 29.42 287.402 27.432 288.102 25.052L284.994 24.128ZM290.054 25.164C290.222 26.732 291.65 29.42 295.794 29.42C299.406 29.42 301.142 27.124 301.142 24.884C301.142 22.868 299.77 21.216 297.054 20.656L295.094 20.236C294.338 20.096 293.834 19.676 293.834 19.004C293.834 18.22 294.618 17.632 295.598 17.632C297.166 17.632 297.754 18.668 297.866 19.48L300.974 18.78C300.806 17.296 299.49 14.804 295.57 14.804C292.602 14.804 290.418 16.848 290.418 19.312C290.418 21.244 291.622 22.84 294.282 23.428L296.102 23.848C297.166 24.072 297.586 24.576 297.586 25.192C297.586 25.92 296.998 26.564 295.766 26.564C294.142 26.564 293.33 25.556 293.246 24.464L290.054 25.164ZM308.728 11.108H305.368V13.04C305.368 14.272 304.696 15.224 303.24 15.224H302.54V18.528H305.032V24.94C305.032 27.6 306.712 29.196 309.4 29.196C310.492 29.196 311.164 29 311.5 28.86V25.78C311.304 25.836 310.8 25.892 310.352 25.892C309.288 25.892 308.728 25.5 308.728 24.296V18.528H311.5V15.224H308.728V11.108ZM15.624 50.88C15.176 48.64 13.328 45.728 8.512 45.728C4.76 45.728 1.596 48.416 1.596 51.944C1.596 54.94 3.64 56.984 6.804 57.628L9.576 58.188C11.116 58.496 11.984 59.392 11.984 60.54C11.984 61.94 10.836 62.976 8.764 62.976C5.964 62.976 4.592 61.212 4.424 59.252L0.84 60.204C1.148 63.032 3.472 66.42 8.736 66.42C13.356 66.42 15.904 63.34 15.904 60.288C15.904 57.488 13.972 55.136 10.36 54.436L7.588 53.904C6.132 53.624 5.432 52.756 5.432 51.664C5.432 50.348 6.664 49.144 8.54 49.144C11.06 49.144 11.956 50.852 12.152 51.944L15.624 50.88ZM17.9918 62.248C17.9918 64.404 19.7838 66.392 22.7238 66.392C24.7678 66.392 26.0838 65.44 26.7838 64.348C26.7838 64.88 26.8398 65.636 26.9238 66H30.3398C30.2558 65.524 30.1718 64.544 30.1718 63.816V57.04C30.1718 54.268 28.5478 51.804 24.1798 51.804C20.4838 51.804 18.4958 54.184 18.2718 56.34L21.5758 57.04C21.6878 55.836 22.5838 54.8 24.2078 54.8C25.7758 54.8 26.5318 55.612 26.5318 56.592C26.5318 57.068 26.2798 57.46 25.4958 57.572L22.1078 58.076C19.8118 58.412 17.9918 59.784 17.9918 62.248ZM23.5078 63.62C22.3038 63.62 21.7158 62.836 21.7158 62.024C21.7158 60.96 22.4718 60.428 23.4238 60.288L26.5318 59.812V60.428C26.5318 62.864 25.0757 63.62 23.5078 63.62ZM37.6495 66V45.728H33.9255V66H37.6495ZM44.3524 57.544C44.4364 56.284 45.5004 54.828 47.4324 54.828C49.5604 54.828 50.4564 56.172 50.5124 57.544H44.3524ZM50.8764 61.128C50.4284 62.36 49.4764 63.228 47.7404 63.228C45.8924 63.228 44.3524 61.912 44.2684 60.092H54.1244C54.1244 60.036 54.1804 59.476 54.1804 58.944C54.1804 54.52 51.6324 51.804 47.3764 51.804C43.8484 51.804 40.6004 54.66 40.6004 59.056C40.6004 63.704 43.9324 66.42 47.7124 66.42C51.1004 66.42 53.2844 64.432 53.9844 62.052L50.8764 61.128ZM55.937 62.164C56.105 63.732 57.533 66.42 61.677 66.42C65.289 66.42 67.025 64.124 67.025 61.884C67.025 59.868 65.653 58.216 62.937 57.656L60.977 57.236C60.221 57.096 59.717 56.676 59.717 56.004C59.717 55.22 60.501 54.632 61.481 54.632C63.049 54.632 63.637 55.668 63.749 56.48L66.857 55.78C66.689 54.296 65.373 51.804 61.453 51.804C58.485 51.804 56.301 53.848 56.301 56.312C56.301 58.244 57.505 59.84 60.165 60.428L61.985 60.848C63.049 61.072 63.469 61.576 63.469 62.192C63.469 62.92 62.881 63.564 61.649 63.564C60.025 63.564 59.213 62.556 59.129 61.464L55.937 62.164ZM73.7433 66V57.936C73.7433 56.424 74.6953 55.22 76.3193 55.22C77.9993 55.22 78.7553 56.34 78.7553 57.824V66H82.4513V57.936C82.4513 56.452 83.4033 55.22 84.9993 55.22C86.7073 55.22 87.4353 56.34 87.4353 57.824V66H91.0473V57.068C91.0473 53.372 88.6113 51.832 86.0633 51.832C84.2433 51.832 82.7873 52.448 81.6953 54.128C80.9953 52.644 79.4833 51.832 77.6073 51.832C76.0953 51.832 74.3313 52.56 73.5753 53.904V52.224H70.0193V66H73.7433ZM93.98 62.248C93.98 64.404 95.772 66.392 98.712 66.392C100.756 66.392 102.072 65.44 102.772 64.348C102.772 64.88 102.828 65.636 102.912 66H106.328C106.244 65.524 106.16 64.544 106.16 63.816V57.04C106.16 54.268 104.536 51.804 100.168 51.804C96.472 51.804 94.484 54.184 94.26 56.34L97.564 57.04C97.676 55.836 98.572 54.8 100.196 54.8C101.764 54.8 102.52 55.612 102.52 56.592C102.52 57.068 102.268 57.46 101.484 57.572L98.096 58.076C95.8 58.412 93.98 59.784 93.98 62.248ZM99.496 63.62C98.292 63.62 97.704 62.836 97.704 62.024C97.704 60.96 98.46 60.428 99.412 60.288L102.52 59.812V60.428C102.52 62.864 101.064 63.62 99.496 63.62ZM113.638 58.076C113.638 56.48 114.59 55.22 116.214 55.22C118.006 55.22 118.762 56.424 118.762 57.964V66H122.486V57.32C122.486 54.296 120.918 51.86 117.502 51.86C116.018 51.86 114.366 52.504 113.526 53.932V52.224H109.914V66H113.638V58.076ZM139.371 63.032C137.551 63.032 135.871 61.688 135.871 59.112C135.871 56.508 137.551 55.192 139.371 55.192C141.191 55.192 142.871 56.508 142.871 59.112C142.871 61.716 141.191 63.032 139.371 63.032ZM139.371 51.804C135.255 51.804 132.147 54.856 132.147 59.112C132.147 63.34 135.255 66.42 139.371 66.42C143.487 66.42 146.595 63.34 146.595 59.112C146.595 54.856 143.487 51.804 139.371 51.804ZM153.259 58.076C153.259 56.48 154.211 55.22 155.835 55.22C157.627 55.22 158.383 56.424 158.383 57.964V66H162.107V57.32C162.107 54.296 160.539 51.86 157.123 51.86C155.639 51.86 153.987 52.504 153.147 53.932V52.224H149.535V66H153.259V58.076ZM171.964 62.248C171.964 64.404 173.756 66.392 176.696 66.392C178.74 66.392 180.056 65.44 180.756 64.348C180.756 64.88 180.812 65.636 180.896 66H184.312C184.228 65.524 184.144 64.544 184.144 63.816V57.04C184.144 54.268 182.52 51.804 178.152 51.804C174.456 51.804 172.468 54.184 172.244 56.34L175.548 57.04C175.66 55.836 176.556 54.8 178.18 54.8C179.748 54.8 180.504 55.612 180.504 56.592C180.504 57.068 180.252 57.46 179.468 57.572L176.08 58.076C173.784 58.412 171.964 59.784 171.964 62.248ZM177.48 63.62C176.276 63.62 175.688 62.836 175.688 62.024C175.688 60.96 176.444 60.428 177.396 60.288L180.504 59.812V60.428C180.504 62.864 179.048 63.62 177.48 63.62ZM196.723 66H200.279C200.223 65.524 200.139 64.572 200.139 63.508V52.224H196.415V60.232C196.415 61.828 195.463 62.948 193.811 62.948C192.075 62.948 191.291 61.716 191.291 60.176V52.224H187.567V60.932C187.567 63.928 189.471 66.364 192.803 66.364C194.259 66.364 195.855 65.804 196.611 64.516C196.611 65.076 196.667 65.72 196.723 66ZM208.705 48.108H205.345V50.04C205.345 51.272 204.673 52.224 203.217 52.224H202.517V55.528H205.009V61.94C205.009 64.6 206.689 66.196 209.377 66.196C210.469 66.196 211.141 66 211.477 65.86V62.78C211.281 62.836 210.777 62.892 210.329 62.892C209.265 62.892 208.705 62.5 208.705 61.296V55.528H211.477V52.224H208.705V48.108ZM220.692 63.032C218.872 63.032 217.192 61.688 217.192 59.112C217.192 56.508 218.872 55.192 220.692 55.192C222.512 55.192 224.192 56.508 224.192 59.112C224.192 61.716 222.512 63.032 220.692 63.032ZM220.692 51.804C216.576 51.804 213.468 54.856 213.468 59.112C213.468 63.34 216.576 66.42 220.692 66.42C224.808 66.42 227.916 63.34 227.916 59.112C227.916 54.856 224.808 51.804 220.692 51.804ZM234.579 71.32V64.656C235.251 65.58 236.651 66.336 238.555 66.336C242.447 66.336 245.051 63.256 245.051 59.084C245.051 54.996 242.727 51.916 238.695 51.916C236.623 51.916 235.083 52.84 234.467 53.904V52.224H230.855V71.32H234.579ZM241.383 59.112C241.383 61.576 239.871 63.004 237.967 63.004C236.063 63.004 234.523 61.548 234.523 59.112C234.523 56.676 236.063 55.248 237.967 55.248C239.871 55.248 241.383 56.676 241.383 59.112ZM251.724 66V52.224H248V66H251.724ZM247.552 47.716C247.552 48.948 248.588 49.984 249.848 49.984C251.136 49.984 252.144 48.948 252.144 47.716C252.144 46.428 251.136 45.392 249.848 45.392C248.588 45.392 247.552 46.428 247.552 47.716ZM259.435 66V45.728H255.711V66H259.435ZM269.61 63.032C267.79 63.032 266.11 61.688 266.11 59.112C266.11 56.508 267.79 55.192 269.61 55.192C271.43 55.192 273.11 56.508 273.11 59.112C273.11 61.716 271.43 63.032 269.61 63.032ZM269.61 51.804C265.494 51.804 262.386 54.856 262.386 59.112C262.386 63.34 265.494 66.42 269.61 66.42C273.726 66.42 276.834 63.34 276.834 59.112C276.834 54.856 273.726 51.804 269.61 51.804ZM284.31 48.108H280.95V50.04C280.95 51.272 280.278 52.224 278.822 52.224H278.122V55.528H280.614V61.94C280.614 64.6 282.294 66.196 284.982 66.196C286.074 66.196 286.746 66 287.082 65.86V62.78C286.886 62.836 286.382 62.892 285.934 62.892C284.87 62.892 284.31 62.5 284.31 61.296V55.528H287.082V52.224H284.31V48.108Z" fill="#181818"/>
<path d="M8.672 108.232C8.416 107 7.392 105.416 4.832 105.416C2.736 105.416 1.088 107.016 1.088 108.792C1.088 110.488 2.24 111.544 3.856 111.896L5.472 112.248C6.608 112.488 7.168 113.192 7.168 114.008C7.168 115 6.4 115.816 4.832 115.816C3.12 115.816 2.224 114.648 2.112 113.384L0.608 113.864C0.816 115.48 2.112 117.24 4.848 117.24C7.264 117.24 8.768 115.64 8.768 113.88C8.768 112.296 7.712 111.112 5.824 110.696L4.128 110.328C3.168 110.12 2.672 109.496 2.672 108.68C2.672 107.624 3.584 106.792 4.864 106.792C6.448 106.792 7.136 107.912 7.264 108.728L8.672 108.232ZM12.3503 112.472C12.3823 111.336 12.9903 110.44 14.1423 110.44C15.4862 110.44 15.9343 111.304 15.9343 112.376V117H17.4383V112.12C17.4383 110.408 16.5263 109.08 14.6863 109.08C13.8063 109.08 12.9102 109.384 12.3503 110.2V105.416H10.8462V117H12.3503V112.472ZM19.5106 114.936C19.5106 116.152 20.5186 117.24 22.0866 117.24C23.4626 117.24 24.2306 116.504 24.5666 115.96C24.5666 116.52 24.6146 116.808 24.6466 117H26.1186C26.0866 116.808 26.0226 116.408 26.0226 115.736V111.88C26.0226 110.376 25.1266 109.064 22.8226 109.064C21.1586 109.064 19.8306 110.088 19.6706 111.56L21.1106 111.896C21.2066 111 21.7986 110.344 22.8546 110.344C24.0226 110.344 24.5186 110.968 24.5186 111.72C24.5186 111.992 24.3906 112.232 23.9266 112.296L21.8466 112.6C20.5186 112.792 19.5106 113.56 19.5106 114.936ZM22.2946 115.976C21.5266 115.976 21.0466 115.432 21.0466 114.856C21.0466 114.168 21.5266 113.8 22.1666 113.704L24.5186 113.352V113.704C24.5186 115.384 23.5266 115.976 22.2946 115.976ZM32.7976 109.224C32.7176 109.208 32.5096 109.176 32.3016 109.176C31.5176 109.176 30.5576 109.464 29.9976 110.648V109.304H28.5256V117H30.0296V113.144C30.0296 111.448 30.8776 110.776 32.1416 110.776C32.3496 110.776 32.5736 110.792 32.7976 110.824V109.224ZM35.4585 112.36C35.5225 111.368 36.2905 110.392 37.5545 110.392C38.9145 110.392 39.6345 111.256 39.6665 112.36H35.4585ZM39.8905 114.36C39.6025 115.224 38.9785 115.912 37.7305 115.912C36.4345 115.912 35.4425 114.952 35.4105 113.576H41.2025C41.2185 113.48 41.2345 113.288 41.2345 113.096C41.2345 110.696 39.9065 109.064 37.5385 109.064C35.6025 109.064 33.8585 110.712 33.8585 113.128C33.8585 115.736 35.6665 117.24 37.7305 117.24C39.5225 117.24 40.7545 116.168 41.1865 114.808L39.8905 114.36ZM50.7064 110.456C52.0184 110.456 52.5784 111.336 52.7704 112.088L54.1304 111.512C53.8104 110.344 52.7544 109.064 50.7064 109.064C48.5144 109.064 46.8344 110.744 46.8344 113.144C46.8344 115.48 48.4824 117.24 50.7224 117.24C52.7224 117.24 53.8264 115.944 54.1944 114.84L52.8664 114.264C52.6904 114.872 52.1624 115.848 50.7224 115.848C49.4744 115.848 48.3704 114.904 48.3704 113.144C48.3704 111.352 49.4904 110.456 50.7064 110.456ZM59.3366 115.896C58.0566 115.896 56.9366 114.936 56.9366 113.144C56.9366 111.368 58.0566 110.408 59.3366 110.408C60.6166 110.408 61.7366 111.368 61.7366 113.144C61.7366 114.936 60.6166 115.896 59.3366 115.896ZM59.3366 109.064C57.0326 109.064 55.4006 110.808 55.4006 113.144C55.4006 115.496 57.0326 117.24 59.3366 117.24C61.6406 117.24 63.2726 115.496 63.2726 113.144C63.2726 110.808 61.6406 109.064 59.3366 109.064ZM66.8609 117V105.416H65.3569V117H66.8609ZM71.0834 117V105.416H69.5794V117H71.0834ZM73.3219 114.936C73.3219 116.152 74.3299 117.24 75.8979 117.24C77.2739 117.24 78.0419 116.504 78.3779 115.96C78.3779 116.52 78.4259 116.808 78.4579 117H79.9299C79.8979 116.808 79.8339 116.408 79.8339 115.736V111.88C79.8339 110.376 78.9379 109.064 76.6339 109.064C74.9699 109.064 73.6419 110.088 73.4819 111.56L74.9219 111.896C75.0179 111 75.6099 110.344 76.6659 110.344C77.8339 110.344 78.3299 110.968 78.3299 111.72C78.3299 111.992 78.2019 112.232 77.7379 112.296L75.6579 112.6C74.3299 112.792 73.3219 113.56 73.3219 114.936ZM76.1059 115.976C75.3379 115.976 74.8579 115.432 74.8579 114.856C74.8579 114.168 75.3379 113.8 75.9779 113.704L78.3299 113.352V113.704C78.3299 115.384 77.3379 115.976 76.1059 115.976ZM84.3529 106.872H82.9769V108.12C82.9769 108.792 82.6249 109.304 81.7929 109.304H81.3769V110.664H82.8489V114.888C82.8489 116.28 83.6809 117.08 84.9929 117.08C85.5049 117.08 85.8889 116.984 86.0169 116.936V115.656C85.8889 115.688 85.6169 115.72 85.4249 115.72C84.6409 115.72 84.3529 115.368 84.3529 114.664V110.664H86.0169V109.304H84.3529V106.872ZM89.0822 112.36C89.1462 111.368 89.9142 110.392 91.1782 110.392C92.5382 110.392 93.2582 111.256 93.2902 112.36H89.0822ZM93.5142 114.36C93.2262 115.224 92.6022 115.912 91.3542 115.912C90.0582 115.912 89.0662 114.952 89.0342 113.576H94.8262C94.8422 113.48 94.8582 113.288 94.8582 113.096C94.8582 110.696 93.5302 109.064 91.1622 109.064C89.2262 109.064 87.4822 110.712 87.4822 113.128C87.4822 115.736 89.2902 117.24 91.3542 117.24C93.1462 117.24 94.3782 116.168 94.8102 114.808L93.5142 114.36ZM101.21 109.224C101.13 109.208 100.922 109.176 100.714 109.176C99.9301 109.176 98.9701 109.464 98.4101 110.648V109.304H96.9381V117H98.4421V113.144C98.4421 111.448 99.2901 110.776 100.554 110.776C100.762 110.776 100.986 110.792 101.21 110.824V109.224ZM102.493 114.936C102.493 116.152 103.501 117.24 105.069 117.24C106.445 117.24 107.213 116.504 107.549 115.96C107.549 116.52 107.597 116.808 107.629 117H109.101C109.069 116.808 109.005 116.408 109.005 115.736V111.88C109.005 110.376 108.109 109.064 105.805 109.064C104.141 109.064 102.813 110.088 102.653 111.56L104.093 111.896C104.189 111 104.781 110.344 105.837 110.344C107.005 110.344 107.501 110.968 107.501 111.72C107.501 111.992 107.373 112.232 106.909 112.296L104.829 112.6C103.501 112.792 102.493 113.56 102.493 114.936ZM105.277 115.976C104.509 115.976 104.029 115.432 104.029 114.856C104.029 114.168 104.509 113.8 105.149 113.704L107.501 113.352V113.704C107.501 115.384 106.509 115.976 105.277 115.976ZM113.012 117V105.416H111.508V117H113.012ZM115.011 115C115.139 115.88 116.035 117.24 118.147 117.24C120.051 117.24 120.963 115.944 120.963 114.856C120.963 113.72 120.227 112.872 118.835 112.568L117.587 112.296C116.995 112.168 116.707 111.832 116.707 111.368C116.707 110.84 117.219 110.344 117.987 110.344C119.203 110.344 119.523 111.224 119.587 111.624L120.915 111.128C120.755 110.44 120.099 109.064 117.987 109.064C116.483 109.064 115.251 110.184 115.251 111.496C115.251 112.584 115.971 113.4 117.171 113.656L118.483 113.944C119.123 114.088 119.475 114.456 119.475 114.936C119.475 115.48 119.011 115.96 118.163 115.96C117.075 115.96 116.467 115.32 116.371 114.52L115.011 115ZM126.805 114.936C126.805 116.152 127.813 117.24 129.381 117.24C130.757 117.24 131.525 116.504 131.861 115.96C131.861 116.52 131.909 116.808 131.941 117H133.413C133.381 116.808 133.317 116.408 133.317 115.736V111.88C133.317 110.376 132.421 109.064 130.117 109.064C128.453 109.064 127.125 110.088 126.965 111.56L128.405 111.896C128.501 111 129.093 110.344 130.149 110.344C131.317 110.344 131.813 110.968 131.813 111.72C131.813 111.992 131.685 112.232 131.221 112.296L129.141 112.6C127.813 112.792 126.805 113.56 126.805 114.936ZM129.589 115.976C128.821 115.976 128.341 115.432 128.341 114.856C128.341 114.168 128.821 113.8 129.461 113.704L131.813 113.352V113.704C131.813 115.384 130.821 115.976 129.589 115.976ZM137.324 112.552C137.324 111.384 137.932 110.44 139.116 110.44C140.46 110.44 140.908 111.304 140.908 112.376V117H142.412V112.12C142.412 110.408 141.5 109.08 139.66 109.08C138.764 109.08 137.852 109.448 137.292 110.408V109.304H135.82V117H137.324V112.552ZM145.86 113.128C145.86 111.544 146.756 110.424 148.132 110.424C149.508 110.424 150.34 111.512 150.34 113.096C150.34 114.68 149.492 115.88 148.116 115.88C146.676 115.88 145.86 114.712 145.86 113.128ZM150.356 115.96C150.356 116.424 150.404 116.824 150.436 117H151.892C151.876 116.872 151.812 116.312 151.812 115.576V105.416H150.324V110.392C150.068 109.768 149.332 109.096 147.972 109.096C145.796 109.096 144.324 110.952 144.324 113.128C144.324 115.416 145.716 117.208 147.972 117.208C149.172 117.208 149.988 116.568 150.356 115.832V115.96ZM159.587 113.128C159.587 111.544 160.483 110.424 161.859 110.424C163.235 110.424 164.067 111.512 164.067 113.096C164.067 114.68 163.219 115.88 161.843 115.88C160.403 115.88 159.587 114.712 159.587 113.128ZM164.083 115.96C164.083 116.424 164.131 116.824 164.163 117H165.619C165.603 116.872 165.539 116.312 165.539 115.576V105.416H164.051V110.392C163.795 109.768 163.059 109.096 161.699 109.096C159.523 109.096 158.051 110.952 158.051 113.128C158.051 115.416 159.443 117.208 161.699 117.208C162.899 117.208 163.715 116.568 164.083 115.832V115.96ZM171.553 115.896C170.273 115.896 169.153 114.936 169.153 113.144C169.153 111.368 170.273 110.408 171.553 110.408C172.833 110.408 173.953 111.368 173.953 113.144C173.953 114.936 172.833 115.896 171.553 115.896ZM171.553 109.064C169.249 109.064 167.617 110.808 167.617 113.144C167.617 115.496 169.249 117.24 171.553 117.24C173.857 117.24 175.489 115.496 175.489 113.144C175.489 110.808 173.857 109.064 171.553 109.064ZM180.805 110.456C182.117 110.456 182.677 111.336 182.869 112.088L184.229 111.512C183.909 110.344 182.853 109.064 180.805 109.064C178.613 109.064 176.933 110.744 176.933 113.144C176.933 115.48 178.581 117.24 180.821 117.24C182.821 117.24 183.925 115.944 184.293 114.84L182.965 114.264C182.789 114.872 182.261 115.848 180.821 115.848C179.573 115.848 178.469 114.904 178.469 113.144C178.469 111.352 179.589 110.456 180.805 110.456ZM191.211 116.072C191.211 116.392 191.243 116.824 191.275 117H192.715C192.683 116.728 192.635 116.184 192.635 115.576V109.304H191.131V113.944C191.131 115.112 190.523 115.912 189.307 115.912C188.043 115.912 187.563 114.984 187.563 113.928V109.304H186.059V114.152C186.059 115.896 187.147 117.24 188.939 117.24C189.835 117.24 190.795 116.872 191.211 116.072ZM196.85 117V112.36C196.85 111.208 197.57 110.408 198.642 110.408C199.794 110.408 200.274 111.176 200.274 112.168V117H201.778V112.344C201.778 111.24 202.498 110.408 203.554 110.408C204.69 110.408 205.186 111.16 205.186 112.168V117H206.674V112.008C206.674 109.992 205.362 109.08 204.018 109.08C203.042 109.08 202.05 109.432 201.442 110.536C201.026 109.544 200.098 109.08 199.138 109.08C198.242 109.08 197.282 109.48 196.802 110.328V109.304H195.362V117H196.85ZM210.217 112.36C210.281 111.368 211.049 110.392 212.313 110.392C213.673 110.392 214.393 111.256 214.425 112.36H210.217ZM214.649 114.36C214.361 115.224 213.737 115.912 212.489 115.912C211.193 115.912 210.201 114.952 210.169 113.576H215.961C215.977 113.48 215.993 113.288 215.993 113.096C215.993 110.696 214.665 109.064 212.297 109.064C210.361 109.064 208.617 110.712 208.617 113.128C208.617 115.736 210.425 117.24 212.489 117.24C214.281 117.24 215.513 116.168 215.945 114.808L214.649 114.36ZM219.576 112.552C219.576 111.384 220.184 110.44 221.368 110.44C222.712 110.44 223.16 111.304 223.16 112.376V117H224.664V112.12C224.664 110.408 223.752 109.08 221.912 109.08C221.016 109.08 220.104 109.448 219.544 110.408V109.304H218.072V117H219.576V112.552ZM229.233 106.872H227.857V108.12C227.857 108.792 227.505 109.304 226.673 109.304H226.257V110.664H227.729V114.888C227.729 116.28 228.561 117.08 229.873 117.08C230.385 117.08 230.769 116.984 230.897 116.936V115.656C230.769 115.688 230.497 115.72 230.305 115.72C229.521 115.72 229.233 115.368 229.233 114.664V110.664H230.897V109.304H229.233V106.872ZM232.423 115C232.551 115.88 233.447 117.24 235.559 117.24C237.463 117.24 238.375 115.944 238.375 114.856C238.375 113.72 237.639 112.872 236.247 112.568L234.999 112.296C234.407 112.168 234.119 111.832 234.119 111.368C234.119 110.84 234.631 110.344 235.399 110.344C236.615 110.344 236.935 111.224 236.999 111.624L238.327 111.128C238.167 110.44 237.511 109.064 235.399 109.064C233.895 109.064 232.663 110.184 232.663 111.496C232.663 112.584 233.383 113.4 234.583 113.656L235.895 113.944C236.535 114.088 236.887 114.456 236.887 114.936C236.887 115.48 236.423 115.96 235.575 115.96C234.487 115.96 233.879 115.32 233.783 114.52L232.423 115ZM246.713 106.872H245.337V108.12C245.337 108.792 244.985 109.304 244.153 109.304H243.737V110.664H245.209V114.888C245.209 116.28 246.041 117.08 247.353 117.08C247.865 117.08 248.249 116.984 248.377 116.936V115.656C248.249 115.688 247.977 115.72 247.785 115.72C247.001 115.72 246.713 115.368 246.713 114.664V110.664H248.377V109.304H246.713V106.872ZM252.048 112.472C252.08 111.336 252.688 110.44 253.84 110.44C255.184 110.44 255.632 111.304 255.632 112.376V117H257.136V112.12C257.136 110.408 256.224 109.08 254.384 109.08C253.504 109.08 252.608 109.384 252.048 110.2V105.416H250.544V117H252.048V112.472ZM259.209 114.936C259.209 116.152 260.217 117.24 261.785 117.24C263.161 117.24 263.929 116.504 264.265 115.96C264.265 116.52 264.313 116.808 264.345 117H265.817C265.785 116.808 265.721 116.408 265.721 115.736V111.88C265.721 110.376 264.825 109.064 262.521 109.064C260.857 109.064 259.529 110.088 259.369 111.56L260.809 111.896C260.905 111 261.497 110.344 262.553 110.344C263.721 110.344 264.217 110.968 264.217 111.72C264.217 111.992 264.089 112.232 263.625 112.296L261.545 112.6C260.217 112.792 259.209 113.56 259.209 114.936ZM261.993 115.976C261.225 115.976 260.745 115.432 260.745 114.856C260.745 114.168 261.225 113.8 261.865 113.704L264.217 113.352V113.704C264.217 115.384 263.225 115.976 261.993 115.976ZM270.24 106.872H268.864V108.12C268.864 108.792 268.512 109.304 267.68 109.304H267.264V110.664H268.736V114.888C268.736 116.28 269.568 117.08 270.88 117.08C271.392 117.08 271.776 116.984 271.904 116.936V115.656C271.776 115.688 271.504 115.72 271.312 115.72C270.528 115.72 270.24 115.368 270.24 114.664V110.664H271.904V109.304H270.24V106.872ZM277.751 114.936C277.751 116.152 278.759 117.24 280.327 117.24C281.703 117.24 282.471 116.504 282.807 115.96C282.807 116.52 282.855 116.808 282.887 117H284.359C284.327 116.808 284.263 116.408 284.263 115.736V111.88C284.263 110.376 283.367 109.064 281.063 109.064C279.399 109.064 278.071 110.088 277.911 111.56L279.351 111.896C279.447 111 280.039 110.344 281.095 110.344C282.263 110.344 282.759 110.968 282.759 111.72C282.759 111.992 282.631 112.232 282.167 112.296L280.087 112.6C278.759 112.792 277.751 113.56 277.751 114.936ZM280.535 115.976C279.767 115.976 279.287 115.432 279.287 114.856C279.287 114.168 279.767 113.8 280.407 113.704L282.759 113.352V113.704C282.759 115.384 281.767 115.976 280.535 115.976ZM291.038 109.224C290.958 109.208 290.75 109.176 290.542 109.176C289.758 109.176 288.798 109.464 288.238 110.648V109.304H286.766V117H288.27V113.144C288.27 111.448 289.118 110.776 290.382 110.776C290.59 110.776 290.814 110.792 291.038 110.824V109.224ZM293.699 112.36C293.763 111.368 294.531 110.392 295.795 110.392C297.155 110.392 297.875 111.256 297.907 112.36H293.699ZM298.131 114.36C297.843 115.224 297.219 115.912 295.971 115.912C294.675 115.912 293.683 114.952 293.651 113.576H299.443C299.459 113.48 299.475 113.288 299.475 113.096C299.475 110.696 298.147 109.064 295.779 109.064C293.843 109.064 292.099 110.712 292.099 113.128C292.099 115.736 293.907 117.24 295.971 117.24C297.763 117.24 298.995 116.168 299.427 114.808L298.131 114.36ZM0.8 141.936C0.8 143.152 1.808 144.24 3.376 144.24C4.752 144.24 5.52 143.504 5.856 142.96C5.856 143.52 5.904 143.808 5.936 144H7.408C7.376 143.808 7.312 143.408 7.312 142.736V138.88C7.312 137.376 6.416 136.064 4.112 136.064C2.448 136.064 1.12 137.088 0.96 138.56L2.4 138.896C2.496 138 3.088 137.344 4.144 137.344C5.312 137.344 5.808 137.968 5.808 138.72C5.808 138.992 5.68 139.232 5.216 139.296L3.136 139.6C1.808 139.792 0.8 140.56 0.8 141.936ZM3.584 142.976C2.816 142.976 2.336 142.432 2.336 141.856C2.336 141.168 2.816 140.8 3.456 140.704L5.808 140.352V140.704C5.808 142.384 4.816 142.976 3.584 142.976ZM14.7308 143.072C14.7308 143.392 14.7628 143.824 14.7948 144H16.2348C16.2028 143.728 16.1548 143.184 16.1548 142.576V136.304H14.6508V140.944C14.6508 142.112 14.0427 142.912 12.8268 142.912C11.5628 142.912 11.0828 141.984 11.0828 140.928V136.304H9.57875V141.152C9.57875 142.896 10.6667 144.24 12.4588 144.24C13.3548 144.24 14.3148 143.872 14.7308 143.072ZM20.8972 133.872H19.5212V135.12C19.5212 135.792 19.1692 136.304 18.3372 136.304H17.9212V137.664H19.3932V141.888C19.3932 143.28 20.2252 144.08 21.5372 144.08C22.0493 144.08 22.4332 143.984 22.5612 143.936V142.656C22.4332 142.688 22.1613 142.72 21.9692 142.72C21.1852 142.72 20.8972 142.368 20.8972 141.664V137.664H22.5612V136.304H20.8972V133.872ZM27.9466 142.896C26.6666 142.896 25.5466 141.936 25.5466 140.144C25.5466 138.368 26.6666 137.408 27.9466 137.408C29.2266 137.408 30.3466 138.368 30.3466 140.144C30.3466 141.936 29.2266 142.896 27.9466 142.896ZM27.9466 136.064C25.6426 136.064 24.0106 137.808 24.0106 140.144C24.0106 142.496 25.6426 144.24 27.9466 144.24C30.2506 144.24 31.8826 142.496 31.8826 140.144C31.8826 137.808 30.2506 136.064 27.9466 136.064ZM35.4549 144V139.36C35.4549 138.208 36.1749 137.408 37.2469 137.408C38.3989 137.408 38.8789 138.176 38.8789 139.168V144H40.3829V139.344C40.3829 138.24 41.1029 137.408 42.1589 137.408C43.2949 137.408 43.7909 138.16 43.7909 139.168V144H45.2789V139.008C45.2789 136.992 43.9669 136.08 42.6229 136.08C41.6469 136.08 40.6549 136.432 40.0469 137.536C39.6309 136.544 38.7029 136.08 37.7429 136.08C36.8469 136.08 35.8869 136.48 35.4069 137.328V136.304H33.9669V144H35.4549ZM47.3656 141.936C47.3656 143.152 48.3736 144.24 49.9416 144.24C51.3176 144.24 52.0856 143.504 52.4216 142.96C52.4216 143.52 52.4696 143.808 52.5016 144H53.9736C53.9416 143.808 53.8776 143.408 53.8776 142.736V138.88C53.8776 137.376 52.9816 136.064 50.6776 136.064C49.0136 136.064 47.6856 137.088 47.5256 138.56L48.9656 138.896C49.0616 138 49.6536 137.344 50.7096 137.344C51.8776 137.344 52.3736 137.968 52.3736 138.72C52.3736 138.992 52.2456 139.232 51.7816 139.296L49.7016 139.6C48.3736 139.792 47.3656 140.56 47.3656 141.936ZM50.1496 142.976C49.3816 142.976 48.9016 142.432 48.9016 141.856C48.9016 141.168 49.3816 140.8 50.0216 140.704L52.3736 140.352V140.704C52.3736 142.384 51.3816 142.976 50.1496 142.976ZM58.3966 133.872H57.0206V135.12C57.0206 135.792 56.6686 136.304 55.8366 136.304H55.4206V137.664H56.8926V141.888C56.8926 143.28 57.7246 144.08 59.0366 144.08C59.5486 144.08 59.9326 143.984 60.0606 143.936V142.656C59.9326 142.688 59.6606 142.72 59.4686 142.72C58.6846 142.72 58.3966 142.368 58.3966 141.664V137.664H60.0606V136.304H58.3966V133.872ZM63.7161 144V136.304H62.2281V144H63.7161ZM61.8921 133.392C61.8921 133.984 62.3721 134.464 62.9641 134.464C63.5721 134.464 64.0521 133.984 64.0521 133.392C64.0521 132.784 63.5721 132.304 62.9641 132.304C62.3721 132.304 61.8921 132.784 61.8921 133.392ZM69.667 137.456C70.979 137.456 71.539 138.336 71.731 139.088L73.091 138.512C72.771 137.344 71.715 136.064 69.667 136.064C67.475 136.064 65.795 137.744 65.795 140.144C65.795 142.48 67.443 144.24 69.683 144.24C71.683 144.24 72.787 142.944 73.155 141.84L71.827 141.264C71.651 141.872 71.123 142.848 69.683 142.848C68.435 142.848 67.331 141.904 67.331 140.144C67.331 138.352 68.451 137.456 69.667 137.456ZM74.5213 141.936C74.5213 143.152 75.5293 144.24 77.0973 144.24C78.4733 144.24 79.2413 143.504 79.5773 142.96C79.5773 143.52 79.6253 143.808 79.6573 144H81.1293C81.0973 143.808 81.0333 143.408 81.0333 142.736V138.88C81.0333 137.376 80.1373 136.064 77.8333 136.064C76.1693 136.064 74.8413 137.088 74.6813 138.56L76.1213 138.896C76.2173 138 76.8093 137.344 77.8653 137.344C79.0333 137.344 79.5293 137.968 79.5293 138.72C79.5293 138.992 79.4013 139.232 78.9373 139.296L76.8573 139.6C75.5293 139.792 74.5213 140.56 74.5213 141.936ZM77.3053 142.976C76.5373 142.976 76.0573 142.432 76.0573 141.856C76.0573 141.168 76.5373 140.8 77.1773 140.704L79.5293 140.352V140.704C79.5293 142.384 78.5373 142.976 77.3053 142.976ZM85.0402 144V132.416H83.5362V144H85.0402ZM89.2628 144V132.416H87.7588V144H89.2628ZM93.9012 147.216L98.9092 136.304H97.2932L94.9892 141.616L92.5892 136.304H90.8612L94.1732 143.152L92.2532 147.216H93.9012ZM106.164 144V142.88C106.644 143.712 107.524 144.208 108.66 144.208C110.948 144.208 112.244 142.4 112.244 140.112C112.244 137.872 111.044 136.08 108.708 136.08C107.428 136.08 106.532 136.704 106.164 137.392V132.416H104.676V144H106.164ZM110.708 140.112C110.708 141.776 109.812 142.864 108.436 142.864C107.108 142.864 106.148 141.776 106.148 140.112C106.148 138.448 107.108 137.408 108.436 137.408C109.828 137.408 110.708 138.448 110.708 140.112ZM118.593 136.224C118.513 136.208 118.305 136.176 118.097 136.176C117.313 136.176 116.353 136.464 115.793 137.648V136.304H114.321V144H115.825V140.144C115.825 138.448 116.673 137.776 117.937 137.776C118.145 137.776 118.369 137.792 118.593 137.824V136.224ZM119.876 141.936C119.876 143.152 120.884 144.24 122.452 144.24C123.828 144.24 124.596 143.504 124.932 142.96C124.932 143.52 124.98 143.808 125.012 144H126.484C126.452 143.808 126.388 143.408 126.388 142.736V138.88C126.388 137.376 125.492 136.064 123.188 136.064C121.524 136.064 120.196 137.088 120.036 138.56L121.476 138.896C121.572 138 122.164 137.344 123.22 137.344C124.388 137.344 124.884 137.968 124.884 138.72C124.884 138.992 124.756 139.232 124.292 139.296L122.212 139.6C120.884 139.792 119.876 140.56 119.876 141.936ZM122.66 142.976C121.892 142.976 121.412 142.432 121.412 141.856C121.412 141.168 121.892 140.8 122.532 140.704L124.884 140.352V140.704C124.884 142.384 123.892 142.976 122.66 142.976ZM130.395 139.552C130.395 138.384 131.003 137.44 132.187 137.44C133.531 137.44 133.979 138.304 133.979 139.376V144H135.483V139.12C135.483 137.408 134.571 136.08 132.731 136.08C131.835 136.08 130.923 136.448 130.363 137.408V136.304H128.891V144H130.395V139.552ZM138.931 140.128C138.931 138.544 139.827 137.424 141.203 137.424C142.579 137.424 143.411 138.512 143.411 140.096C143.411 141.68 142.563 142.88 141.187 142.88C139.747 142.88 138.931 141.712 138.931 140.128ZM143.427 142.96C143.427 143.424 143.475 143.824 143.507 144H144.963C144.947 143.872 144.883 143.312 144.883 142.576V132.416H143.395V137.392C143.139 136.768 142.403 136.096 141.043 136.096C138.867 136.096 137.395 137.952 137.395 140.128C137.395 142.416 138.787 144.208 141.043 144.208C142.243 144.208 143.059 143.568 143.427 142.832V142.96ZM148.577 139.36C148.641 138.368 149.409 137.392 150.673 137.392C152.033 137.392 152.753 138.256 152.785 139.36H148.577ZM153.009 141.36C152.721 142.224 152.097 142.912 150.849 142.912C149.553 142.912 148.561 141.952 148.529 140.576H154.321C154.337 140.48 154.353 140.288 154.353 140.096C154.353 137.696 153.025 136.064 150.657 136.064C148.721 136.064 146.977 137.712 146.977 140.128C146.977 142.736 148.785 144.24 150.849 144.24C152.641 144.24 153.873 143.168 154.305 141.808L153.009 141.36ZM157.329 140.128C157.329 138.544 158.225 137.424 159.601 137.424C160.977 137.424 161.809 138.512 161.809 140.096C161.809 141.68 160.961 142.88 159.585 142.88C158.145 142.88 157.329 141.712 157.329 140.128ZM161.825 142.96C161.825 143.424 161.873 143.824 161.905 144H163.361C163.345 143.872 163.281 143.312 163.281 142.576V132.416H161.793V137.392C161.537 136.768 160.801 136.096 159.441 136.096C157.265 136.096 155.793 137.952 155.793 140.128C155.793 142.416 157.185 144.208 159.441 144.208C160.641 144.208 161.457 143.568 161.825 142.832V142.96ZM165.839 142.976C165.839 143.6 166.319 144.08 166.943 144.08C167.567 144.08 168.063 143.6 168.063 142.976C168.063 142.352 167.567 141.856 166.943 141.856C166.319 141.856 165.839 142.352 165.839 142.976ZM181.876 144V142.528H176.516V132.656H174.948V144H181.876ZM184.612 139.36C184.676 138.368 185.444 137.392 186.708 137.392C188.068 137.392 188.788 138.256 188.82 139.36H184.612ZM189.044 141.36C188.756 142.224 188.132 142.912 186.884 142.912C185.588 142.912 184.596 141.952 184.564 140.576H190.356C190.372 140.48 190.388 140.288 190.388 140.096C190.388 137.696 189.06 136.064 186.692 136.064C184.756 136.064 183.012 137.712 183.012 140.128C183.012 142.736 184.82 144.24 186.884 144.24C188.676 144.24 189.908 143.168 190.34 141.808L189.044 141.36ZM198.903 136.304H197.287L195.079 142.24L192.887 136.304H191.191L194.311 144H195.831L198.903 136.304ZM201.244 139.36C201.308 138.368 202.076 137.392 203.34 137.392C204.7 137.392 205.42 138.256 205.452 139.36H201.244ZM205.676 141.36C205.388 142.224 204.764 142.912 203.516 142.912C202.22 142.912 201.228 141.952 201.196 140.576H206.988C207.004 140.48 207.02 140.288 207.02 140.096C207.02 137.696 205.692 136.064 203.324 136.064C201.388 136.064 199.644 137.712 199.644 140.128C199.644 142.736 201.452 144.24 203.516 144.24C205.308 144.24 206.54 143.168 206.972 141.808L205.676 141.36ZM213.372 136.224C213.292 136.208 213.084 136.176 212.876 136.176C212.092 136.176 211.132 136.464 210.572 137.648V136.304H209.1V144H210.604V140.144C210.604 138.448 211.452 137.776 212.716 137.776C212.924 137.776 213.148 137.792 213.372 137.824V136.224ZM214.655 141.936C214.655 143.152 215.663 144.24 217.231 144.24C218.607 144.24 219.375 143.504 219.711 142.96C219.711 143.52 219.759 143.808 219.791 144H221.263C221.231 143.808 221.167 143.408 221.167 142.736V138.88C221.167 137.376 220.271 136.064 217.967 136.064C216.303 136.064 214.975 137.088 214.815 138.56L216.255 138.896C216.351 138 216.943 137.344 217.999 137.344C219.167 137.344 219.663 137.968 219.663 138.72C219.663 138.992 219.535 139.232 219.071 139.296L216.991 139.6C215.663 139.792 214.655 140.56 214.655 141.936ZM217.439 142.976C216.671 142.976 216.191 142.432 216.191 141.856C216.191 141.168 216.671 140.8 217.311 140.704L219.663 140.352V140.704C219.663 142.384 218.671 142.976 217.439 142.976ZM223.11 144.416C223.302 146.064 224.742 147.28 226.662 147.28C229.558 147.28 230.518 145.376 230.518 143.424V136.304H229.03V137.376C228.646 136.608 227.846 136.16 226.662 136.16C224.55 136.16 223.126 137.824 223.126 139.904C223.126 142.08 224.614 143.632 226.662 143.632C227.814 143.632 228.646 143.072 229.014 142.368V143.472C229.014 145.136 228.278 145.968 226.662 145.968C225.494 145.968 224.678 145.152 224.566 144.08L223.11 144.416ZM226.886 142.368C225.526 142.368 224.662 141.408 224.662 139.904C224.662 138.416 225.558 137.44 226.886 137.44C228.182 137.44 229.078 138.416 229.078 139.904C229.078 141.392 228.182 142.368 226.886 142.368ZM234.056 139.36C234.12 138.368 234.888 137.392 236.152 137.392C237.512 137.392 238.232 138.256 238.264 139.36H234.056ZM238.488 141.36C238.2 142.224 237.576 142.912 236.328 142.912C235.032 142.912 234.04 141.952 234.008 140.576H239.8C239.816 140.48 239.832 140.288 239.832 140.096C239.832 137.696 238.504 136.064 236.136 136.064C234.2 136.064 232.456 137.712 232.456 140.128C232.456 142.736 234.264 144.24 236.328 144.24C238.12 144.24 239.352 143.168 239.784 141.808L238.488 141.36ZM245.592 141.936C245.592 143.152 246.6 144.24 248.168 144.24C249.544 144.24 250.312 143.504 250.648 142.96C250.648 143.52 250.696 143.808 250.728 144H252.2C252.168 143.808 252.104 143.408 252.104 142.736V138.88C252.104 137.376 251.208 136.064 248.904 136.064C247.24 136.064 245.912 137.088 245.752 138.56L247.192 138.896C247.288 138 247.88 137.344 248.936 137.344C250.104 137.344 250.6 137.968 250.6 138.72C250.6 138.992 250.472 139.232 250.008 139.296L247.928 139.6C246.6 139.792 245.592 140.56 245.592 141.936ZM248.376 142.976C247.608 142.976 247.128 142.432 247.128 141.856C247.128 141.168 247.608 140.8 248.248 140.704L250.6 140.352V140.704C250.6 142.384 249.608 142.976 248.376 142.976ZM263.039 136.224C262.959 136.208 262.751 136.176 262.543 136.176C261.759 136.176 260.799 136.464 260.239 137.648V136.304H258.767V144H260.271V140.144C260.271 138.448 261.119 137.776 262.383 137.776C262.591 137.776 262.815 137.792 263.039 137.824V136.224ZM266.29 144V136.304H264.802V144H266.29ZM264.466 133.392C264.466 133.984 264.946 134.464 265.538 134.464C266.146 134.464 266.626 133.984 266.626 133.392C266.626 132.784 266.146 132.304 265.538 132.304C264.946 132.304 264.466 132.784 264.466 133.392ZM272.241 137.456C273.553 137.456 274.113 138.336 274.305 139.088L275.665 138.512C275.345 137.344 274.289 136.064 272.241 136.064C270.049 136.064 268.369 137.744 268.369 140.144C268.369 142.48 270.017 144.24 272.257 144.24C274.257 144.24 275.361 142.944 275.729 141.84L274.401 141.264C274.225 141.872 273.697 142.848 272.257 142.848C271.009 142.848 269.905 141.904 269.905 140.144C269.905 138.352 271.025 137.456 272.241 137.456ZM279.157 139.472C279.189 138.336 279.797 137.44 280.949 137.44C282.293 137.44 282.741 138.304 282.741 139.376V144H284.245V139.12C284.245 137.408 283.333 136.08 281.493 136.08C280.613 136.08 279.717 136.384 279.157 137.2V132.416H277.653V144H279.157V139.472ZM292.445 147.04V142.96C292.861 143.648 293.757 144.208 294.941 144.208C297.197 144.208 298.525 142.432 298.525 140.144C298.525 137.904 297.293 136.128 294.989 136.128C293.741 136.128 292.829 136.736 292.413 137.504V136.304H290.957V147.04H292.445ZM296.989 140.144C296.989 141.728 296.109 142.864 294.717 142.864C293.341 142.864 292.429 141.728 292.429 140.144C292.429 138.608 293.341 137.456 294.717 137.456C296.125 137.456 296.989 138.608 296.989 140.144ZM300.122 141.936C300.122 143.152 301.13 144.24 302.698 144.24C304.074 144.24 304.842 143.504 305.178 142.96C305.178 143.52 305.226 143.808 305.258 144H306.73C306.698 143.808 306.634 143.408 306.634 142.736V138.88C306.634 137.376 305.738 136.064 303.434 136.064C301.77 136.064 300.442 137.088 300.282 138.56L301.722 138.896C301.818 138 302.41 137.344 303.466 137.344C304.634 137.344 305.13 137.968 305.13 138.72C305.13 138.992 305.002 139.232 304.538 139.296L302.458 139.6C301.13 139.792 300.122 140.56 300.122 141.936ZM302.906 142.976C302.138 142.976 301.658 142.432 301.658 141.856C301.658 141.168 302.138 140.8 302.778 140.704L305.13 140.352V140.704C305.13 142.384 304.138 142.976 302.906 142.976ZM313.409 136.224C313.329 136.208 313.121 136.176 312.913 136.176C312.129 136.176 311.169 136.464 310.609 137.648V136.304H309.137V144H310.641V140.144C310.641 138.448 311.489 137.776 312.753 137.776C312.961 137.776 313.185 137.792 313.409 137.824V136.224ZM317.594 133.872H316.218V135.12C316.218 135.792 315.866 136.304 315.034 136.304H314.618V137.664H316.09V141.888C316.09 143.28 316.922 144.08 318.234 144.08C318.746 144.08 319.13 143.984 319.258 143.936V142.656C319.13 142.688 318.858 142.72 318.666 142.72C317.882 142.72 317.594 142.368 317.594 141.664V137.664H319.258V136.304H317.594V133.872ZM322.773 139.552C322.773 138.384 323.381 137.44 324.565 137.44C325.909 137.44 326.357 138.304 326.357 139.376V144H327.861V139.12C327.861 137.408 326.949 136.08 325.109 136.08C324.213 136.08 323.301 136.448 322.741 137.408V136.304H321.269V144H322.773V139.552ZM331.39 139.36C331.454 138.368 332.222 137.392 333.486 137.392C334.846 137.392 335.566 138.256 335.598 139.36H331.39ZM335.822 141.36C335.534 142.224 334.91 142.912 333.662 142.912C332.366 142.912 331.374 141.952 331.342 140.576H337.134C337.15 140.48 337.166 140.288 337.166 140.096C337.166 137.696 335.838 136.064 333.47 136.064C331.534 136.064 329.79 137.712 329.79 140.128C329.79 142.736 331.598 144.24 333.662 144.24C335.454 144.24 336.686 143.168 337.118 141.808L335.822 141.36ZM343.518 136.224C343.438 136.208 343.23 136.176 343.022 136.176C342.238 136.176 341.278 136.464 340.718 137.648V136.304H339.246V144H340.75V140.144C340.75 138.448 341.598 137.776 342.862 137.776C343.07 137.776 343.294 137.792 343.518 137.824V136.224ZM2.784 166.552C2.784 165.384 3.392 164.44 4.576 164.44C5.92 164.44 6.368 165.304 6.368 166.376V171H7.872V166.12C7.872 164.408 6.96 163.08 5.12 163.08C4.224 163.08 3.312 163.448 2.752 164.408V163.304H1.28V171H2.784V166.552ZM11.4004 166.36C11.4644 165.368 12.2324 164.392 13.4964 164.392C14.8564 164.392 15.5764 165.256 15.6084 166.36H11.4004ZM15.8324 168.36C15.5444 169.224 14.9204 169.912 13.6724 169.912C12.3764 169.912 11.3844 168.952 11.3524 167.576H17.1444C17.1604 167.48 17.1764 167.288 17.1764 167.096C17.1764 164.696 15.8484 163.064 13.4804 163.064C11.5444 163.064 9.80037 164.712 9.80037 167.128C9.80037 169.736 11.6084 171.24 13.6724 171.24C15.4644 171.24 16.6964 170.168 17.1284 168.808L15.8324 168.36ZM21.2722 160.872H19.8962V162.12C19.8962 162.792 19.5442 163.304 18.7122 163.304H18.2962V164.664H19.7682V168.888C19.7682 170.28 20.6002 171.08 21.9122 171.08C22.4243 171.08 22.8082 170.984 22.9362 170.936V169.656C22.8082 169.688 22.5363 169.72 22.3442 169.72C21.5602 169.72 21.2722 169.368 21.2722 168.664V164.664H22.9362V163.304H21.2722V160.872ZM29.596 163.304L27.596 169.096L25.868 163.304H24.22L26.748 171H28.332L30.332 165.144L32.38 171H33.932L36.428 163.304H34.844L33.148 169.096L31.148 163.304H29.596ZM41.2472 169.896C39.9672 169.896 38.8472 168.936 38.8472 167.144C38.8472 165.368 39.9672 164.408 41.2472 164.408C42.5272 164.408 43.6472 165.368 43.6472 167.144C43.6472 168.936 42.5272 169.896 41.2472 169.896ZM41.2472 163.064C38.9432 163.064 37.3112 164.808 37.3112 167.144C37.3112 169.496 38.9432 171.24 41.2472 171.24C43.5512 171.24 45.1832 169.496 45.1832 167.144C45.1832 164.808 43.5512 163.064 41.2472 163.064ZM51.5395 163.224C51.4595 163.208 51.2515 163.176 51.0435 163.176C50.2595 163.176 49.2995 163.464 48.7395 164.648V163.304H47.2675V171H48.7715V167.144C48.7715 165.448 49.6195 164.776 50.8835 164.776C51.0915 164.776 51.3155 164.792 51.5395 164.824V163.224ZM60.1985 163.304H58.1185L54.7905 166.712V159.416H53.3025V171H54.7905V168.68L55.8625 167.608L58.3745 171H60.2625L56.9185 166.552L60.1985 163.304ZM68.0447 160.872H66.6687V162.12C66.6687 162.792 66.3167 163.304 65.4847 163.304H65.0687V164.664H66.5407V168.888C66.5407 170.28 67.3727 171.08 68.6847 171.08C69.1967 171.08 69.5807 170.984 69.7087 170.936V169.656C69.5807 169.688 69.3087 169.72 69.1167 169.72C68.3327 169.72 68.0447 169.368 68.0447 168.664V164.664H69.7087V163.304H68.0447V160.872ZM73.3803 166.472C73.4123 165.336 74.0203 164.44 75.1723 164.44C76.5163 164.44 76.9643 165.304 76.9643 166.376V171H78.4683V166.12C78.4683 164.408 77.5563 163.08 75.7163 163.08C74.8363 163.08 73.9403 163.384 73.3803 164.2V159.416H71.8763V171H73.3803V166.472ZM80.5406 168.936C80.5406 170.152 81.5486 171.24 83.1166 171.24C84.4926 171.24 85.2606 170.504 85.5966 169.96C85.5966 170.52 85.6446 170.808 85.6766 171H87.1486C87.1166 170.808 87.0526 170.408 87.0526 169.736V165.88C87.0526 164.376 86.1566 163.064 83.8526 163.064C82.1886 163.064 80.8606 164.088 80.7006 165.56L82.1406 165.896C82.2366 165 82.8286 164.344 83.8846 164.344C85.0526 164.344 85.5486 164.968 85.5486 165.72C85.5486 165.992 85.4206 166.232 84.9566 166.296L82.8766 166.6C81.5486 166.792 80.5406 167.56 80.5406 168.936ZM83.3246 169.976C82.5566 169.976 82.0766 169.432 82.0766 168.856C82.0766 168.168 82.5566 167.8 83.1966 167.704L85.5486 167.352V167.704C85.5486 169.384 84.5566 169.976 83.3246 169.976ZM91.5716 160.872H90.1956V162.12C90.1956 162.792 89.8436 163.304 89.0116 163.304H88.5956V164.664H90.0676V168.888C90.0676 170.28 90.8996 171.08 92.2116 171.08C92.7236 171.08 93.1076 170.984 93.2356 170.936V169.656C93.1076 169.688 92.8356 169.72 92.6436 169.72C91.8596 169.72 91.5716 169.368 91.5716 168.664V164.664H93.2356V163.304H91.5716V160.872ZM98.8431 169C98.9711 169.88 99.8671 171.24 101.979 171.24C103.883 171.24 104.795 169.944 104.795 168.856C104.795 167.72 104.059 166.872 102.667 166.568L101.419 166.296C100.827 166.168 100.539 165.832 100.539 165.368C100.539 164.84 101.051 164.344 101.819 164.344C103.035 164.344 103.355 165.224 103.419 165.624L104.747 165.128C104.587 164.44 103.931 163.064 101.819 163.064C100.315 163.064 99.0831 164.184 99.0831 165.496C99.0831 166.584 99.8031 167.4 101.003 167.656L102.315 167.944C102.955 168.088 103.307 168.456 103.307 168.936C103.307 169.48 102.843 169.96 101.995 169.96C100.907 169.96 100.299 169.32 100.203 168.52L98.8431 169ZM107.855 166.36C107.919 165.368 108.687 164.392 109.951 164.392C111.311 164.392 112.031 165.256 112.063 166.36H107.855ZM112.287 168.36C111.999 169.224 111.375 169.912 110.127 169.912C108.831 169.912 107.839 168.952 107.807 167.576H113.599C113.615 167.48 113.631 167.288 113.631 167.096C113.631 164.696 112.303 163.064 109.935 163.064C107.999 163.064 106.255 164.712 106.255 167.128C106.255 169.736 108.063 171.24 110.127 171.24C111.919 171.24 113.151 170.168 113.583 168.808L112.287 168.36ZM117.215 171V159.416H115.711V171H117.215ZM121.438 171V159.416H119.934V171H121.438ZM123.436 169C123.564 169.88 124.46 171.24 126.572 171.24C128.476 171.24 129.388 169.944 129.388 168.856C129.388 167.72 128.652 166.872 127.26 166.568L126.012 166.296C125.42 166.168 125.132 165.832 125.132 165.368C125.132 164.84 125.644 164.344 126.412 164.344C127.628 164.344 127.948 165.224 128.012 165.624L129.34 165.128C129.18 164.44 128.524 163.064 126.412 163.064C124.908 163.064 123.676 164.184 123.676 165.496C123.676 166.584 124.396 167.4 125.596 167.656L126.908 167.944C127.548 168.088 127.9 168.456 127.9 168.936C127.9 169.48 127.436 169.96 126.588 169.96C125.5 169.96 124.892 169.32 124.796 168.52L123.436 169ZM137.631 174.216L142.639 163.304H141.023L138.719 168.616L136.319 163.304H134.591L137.903 170.152L135.983 174.216H137.631ZM147.229 169.896C145.949 169.896 144.829 168.936 144.829 167.144C144.829 165.368 145.949 164.408 147.229 164.408C148.509 164.408 149.629 165.368 149.629 167.144C149.629 168.936 148.509 169.896 147.229 169.896ZM147.229 163.064C144.925 163.064 143.293 164.808 143.293 167.144C143.293 169.496 144.925 171.24 147.229 171.24C149.533 171.24 151.165 169.496 151.165 167.144C151.165 164.808 149.533 163.064 147.229 163.064ZM158.243 170.072C158.243 170.392 158.275 170.824 158.307 171H159.747C159.715 170.728 159.667 170.184 159.667 169.576V163.304H158.163V167.944C158.163 169.112 157.555 169.912 156.339 169.912C155.075 169.912 154.595 168.984 154.595 167.928V163.304H153.091V168.152C153.091 169.896 154.179 171.24 155.971 171.24C156.867 171.24 157.827 170.872 158.243 170.072ZM166.666 163.224C166.586 163.208 166.378 163.176 166.17 163.176C165.386 163.176 164.426 163.464 163.866 164.648V163.304H162.394V171H163.898V167.144C163.898 165.448 164.746 164.776 166.01 164.776C166.218 164.776 166.442 164.792 166.666 164.824V163.224ZM171.869 169C171.997 169.88 172.893 171.24 175.005 171.24C176.909 171.24 177.821 169.944 177.821 168.856C177.821 167.72 177.085 166.872 175.693 166.568L174.445 166.296C173.853 166.168 173.565 165.832 173.565 165.368C173.565 164.84 174.077 164.344 174.845 164.344C176.061 164.344 176.381 165.224 176.445 165.624L177.773 165.128C177.613 164.44 176.957 163.064 174.845 163.064C173.341 163.064 172.109 164.184 172.109 165.496C172.109 166.584 172.829 167.4 174.029 167.656L175.341 167.944C175.981 168.088 176.333 168.456 176.333 168.936C176.333 169.48 175.869 169.96 175.021 169.96C173.933 169.96 173.325 169.32 173.229 168.52L171.869 169ZM183.201 169.896C181.921 169.896 180.801 168.936 180.801 167.144C180.801 165.368 181.921 164.408 183.201 164.408C184.481 164.408 185.601 165.368 185.601 167.144C185.601 168.936 184.481 169.896 183.201 169.896ZM183.201 163.064C180.897 163.064 179.265 164.808 179.265 167.144C179.265 169.496 180.897 171.24 183.201 171.24C185.505 171.24 187.137 169.496 187.137 167.144C187.137 164.808 185.505 163.064 183.201 163.064ZM190.725 171V159.416H189.221V171H190.725ZM198.438 170.072C198.438 170.392 198.47 170.824 198.502 171H199.942C199.91 170.728 199.862 170.184 199.862 169.576V163.304H198.358V167.944C198.358 169.112 197.75 169.912 196.534 169.912C195.27 169.912 194.79 168.984 194.79 167.928V163.304H193.286V168.152C193.286 169.896 194.374 171.24 196.166 171.24C197.062 171.24 198.022 170.872 198.438 170.072ZM204.604 160.872H203.228V162.12C203.228 162.792 202.876 163.304 202.044 163.304H201.628V164.664H203.1V168.888C203.1 170.28 203.932 171.08 205.244 171.08C205.756 171.08 206.14 170.984 206.268 170.936V169.656C206.14 169.688 205.868 169.72 205.676 169.72C204.892 169.72 204.604 169.368 204.604 168.664V164.664H206.268V163.304H204.604V160.872ZM209.924 171V163.304H208.436V171H209.924ZM208.1 160.392C208.1 160.984 208.58 161.464 209.172 161.464C209.78 161.464 210.26 160.984 210.26 160.392C210.26 159.784 209.78 159.304 209.172 159.304C208.58 159.304 208.1 159.784 208.1 160.392ZM215.939 169.896C214.659 169.896 213.539 168.936 213.539 167.144C213.539 165.368 214.659 164.408 215.939 164.408C217.219 164.408 218.339 165.368 218.339 167.144C218.339 168.936 217.219 169.896 215.939 169.896ZM215.939 163.064C213.635 163.064 212.003 164.808 212.003 167.144C212.003 169.496 213.635 171.24 215.939 171.24C218.243 171.24 219.875 169.496 219.875 167.144C219.875 164.808 218.243 163.064 215.939 163.064ZM223.463 166.552C223.463 165.384 224.071 164.44 225.255 164.44C226.599 164.44 227.047 165.304 227.047 166.376V171H228.551V166.12C228.551 164.408 227.639 163.08 225.799 163.08C224.903 163.08 223.991 163.448 223.431 164.408V163.304H221.959V171H223.463V166.552ZM236.239 166.36C236.303 165.368 237.071 164.392 238.335 164.392C239.695 164.392 240.415 165.256 240.447 166.36H236.239ZM240.671 168.36C240.383 169.224 239.759 169.912 238.511 169.912C237.215 169.912 236.223 168.952 236.191 167.576H241.983C241.999 167.48 242.015 167.288 242.015 167.096C242.015 164.696 240.687 163.064 238.319 163.064C236.383 163.064 234.639 164.712 234.639 167.128C234.639 169.736 236.447 171.24 238.511 171.24C240.303 171.24 241.535 170.168 241.967 168.808L240.671 168.36ZM242.897 171H244.689L246.641 168.168L248.625 171H250.433C249.969 170.376 248.065 167.704 247.601 167.08L250.337 163.304H248.561L246.705 166.008L244.817 163.304H242.993L245.761 167.08L242.897 171ZM251.556 168.936C251.556 170.152 252.564 171.24 254.132 171.24C255.508 171.24 256.276 170.504 256.612 169.96C256.612 170.52 256.66 170.808 256.692 171H258.164C258.132 170.808 258.068 170.408 258.068 169.736V165.88C258.068 164.376 257.172 163.064 254.868 163.064C253.204 163.064 251.876 164.088 251.716 165.56L253.156 165.896C253.252 165 253.844 164.344 254.9 164.344C256.068 164.344 256.564 164.968 256.564 165.72C256.564 165.992 256.436 166.232 255.972 166.296L253.892 166.6C252.564 166.792 251.556 167.56 251.556 168.936ZM254.34 169.976C253.572 169.976 253.092 169.432 253.092 168.856C253.092 168.168 253.572 167.8 254.212 167.704L256.564 167.352V167.704C256.564 169.384 255.572 169.976 254.34 169.976ZM263.803 164.456C265.115 164.456 265.675 165.336 265.867 166.088L267.227 165.512C266.907 164.344 265.851 163.064 263.803 163.064C261.611 163.064 259.931 164.744 259.931 167.144C259.931 169.48 261.579 171.24 263.819 171.24C265.819 171.24 266.923 169.944 267.291 168.84L265.963 168.264C265.787 168.872 265.259 169.848 263.819 169.848C262.571 169.848 261.467 168.904 261.467 167.144C261.467 165.352 262.587 164.456 263.803 164.456ZM271.232 160.872H269.856V162.12C269.856 162.792 269.504 163.304 268.672 163.304H268.256V164.664H269.728V168.888C269.728 170.28 270.56 171.08 271.872 171.08C272.384 171.08 272.768 170.984 272.896 170.936V169.656C272.768 169.688 272.496 169.72 272.304 169.72C271.52 169.72 271.232 169.368 271.232 168.664V164.664H272.896V163.304H271.232V160.872ZM276.567 171V159.416H275.063V171H276.567ZM281.206 174.216L286.214 163.304H284.598L282.294 168.616L279.894 163.304H278.166L281.478 170.152L279.558 174.216H281.206ZM293.997 160.872H292.621V162.12C292.621 162.792 292.269 163.304 291.437 163.304H291.021V164.664H292.493V168.888C292.493 170.28 293.325 171.08 294.637 171.08C295.149 171.08 295.533 170.984 295.661 170.936V169.656C295.533 169.688 295.261 169.72 295.069 169.72C294.285 169.72 293.997 169.368 293.997 168.664V164.664H295.661V163.304H293.997V160.872ZM299.332 166.472C299.364 165.336 299.972 164.44 301.124 164.44C302.468 164.44 302.916 165.304 302.916 166.376V171H304.42V166.12C304.42 164.408 303.508 163.08 301.668 163.08C300.788 163.08 299.892 163.384 299.332 164.2V159.416H297.828V171H299.332V166.472ZM307.949 166.36C308.013 165.368 308.781 164.392 310.045 164.392C311.405 164.392 312.125 165.256 312.157 166.36H307.949ZM312.381 168.36C312.093 169.224 311.469 169.912 310.221 169.912C308.925 169.912 307.933 168.952 307.901 167.576H313.693C313.709 167.48 313.725 167.288 313.725 167.096C313.725 164.696 312.397 163.064 310.029 163.064C308.093 163.064 306.349 164.712 306.349 167.128C306.349 169.736 308.157 171.24 310.221 171.24C312.013 171.24 313.245 170.168 313.677 168.808L312.381 168.36ZM324.3 163.304L322.3 169.096L320.572 163.304H318.924L321.452 171H323.036L325.036 165.144L327.084 171H328.636L331.132 163.304H329.548L327.852 169.096L325.852 163.304H324.3ZM332.254 168.936C332.254 170.152 333.262 171.24 334.83 171.24C336.206 171.24 336.974 170.504 337.31 169.96C337.31 170.52 337.358 170.808 337.39 171H338.862C338.83 170.808 338.766 170.408 338.766 169.736V165.88C338.766 164.376 337.87 163.064 335.566 163.064C333.902 163.064 332.574 164.088 332.414 165.56L333.854 165.896C333.95 165 334.542 164.344 335.598 164.344C336.766 164.344 337.262 164.968 337.262 165.72C337.262 165.992 337.134 166.232 336.67 166.296L334.59 166.6C333.262 166.792 332.254 167.56 332.254 168.936ZM335.038 169.976C334.27 169.976 333.79 169.432 333.79 168.856C333.79 168.168 334.27 167.8 334.91 167.704L337.262 167.352V167.704C337.262 169.384 336.27 169.976 335.038 169.976ZM343.032 174.216L348.04 163.304H346.424L344.12 168.616L341.72 163.304H339.992L343.304 170.152L341.384 174.216H343.032ZM3.2 201.216L8.208 190.304H6.592L4.288 195.616L1.888 190.304H0.16L3.472 197.152L1.552 201.216H3.2ZM12.7985 196.896C11.5185 196.896 10.3985 195.936 10.3985 194.144C10.3985 192.368 11.5185 191.408 12.7985 191.408C14.0785 191.408 15.1985 192.368 15.1985 194.144C15.1985 195.936 14.0785 196.896 12.7985 196.896ZM12.7985 190.064C10.4945 190.064 8.8625 191.808 8.8625 194.144C8.8625 196.496 10.4945 198.24 12.7985 198.24C15.1025 198.24 16.7345 196.496 16.7345 194.144C16.7345 191.808 15.1025 190.064 12.7985 190.064ZM23.8126 197.072C23.8126 197.392 23.8446 197.824 23.8766 198H25.3166C25.2846 197.728 25.2366 197.184 25.2366 196.576V190.304H23.7326V194.944C23.7326 196.112 23.1246 196.912 21.9086 196.912C20.6446 196.912 20.1646 195.984 20.1646 194.928V190.304H18.6606V195.152C18.6606 196.896 19.7486 198.24 21.5406 198.24C22.4366 198.24 23.3966 197.872 23.8126 197.072ZM32.2351 190.224C32.1551 190.208 31.9471 190.176 31.7391 190.176C30.9551 190.176 29.9951 190.464 29.4351 191.648V190.304H27.9631V198H29.4671V194.144C29.4671 192.448 30.3151 191.776 31.5791 191.776C31.7871 191.776 32.0111 191.792 32.2351 191.824V190.224ZM39.6461 198V196.88C40.1261 197.712 41.0061 198.208 42.1421 198.208C44.4301 198.208 45.7261 196.4 45.7261 194.112C45.7261 191.872 44.5261 190.08 42.1901 190.08C40.9101 190.08 40.0141 190.704 39.6461 191.392V186.416H38.1581V198H39.6461ZM44.1901 194.112C44.1901 195.776 43.2941 196.864 41.9181 196.864C40.5901 196.864 39.6301 195.776 39.6301 194.112C39.6301 192.448 40.5901 191.408 41.9181 191.408C43.3101 191.408 44.1901 192.448 44.1901 194.112ZM48.7785 193.36C48.8425 192.368 49.6105 191.392 50.8745 191.392C52.2345 191.392 52.9545 192.256 52.9865 193.36H48.7785ZM53.2105 195.36C52.9225 196.224 52.2985 196.912 51.0505 196.912C49.7545 196.912 48.7625 195.952 48.7305 194.576H54.5225C54.5385 194.48 54.5545 194.288 54.5545 194.096C54.5545 191.696 53.2265 190.064 50.8585 190.064C48.9225 190.064 47.1785 191.712 47.1785 194.128C47.1785 196.736 48.9865 198.24 51.0505 198.24C52.8425 198.24 54.0745 197.168 54.5065 195.808L53.2105 195.36ZM55.9144 196C56.0424 196.88 56.9384 198.24 59.0504 198.24C60.9544 198.24 61.8664 196.944 61.8664 195.856C61.8664 194.72 61.1304 193.872 59.7384 193.568L58.4904 193.296C57.8984 193.168 57.6104 192.832 57.6104 192.368C57.6104 191.84 58.1224 191.344 58.8904 191.344C60.1064 191.344 60.4264 192.224 60.4904 192.624L61.8184 192.128C61.6584 191.44 61.0024 190.064 58.8904 190.064C57.3864 190.064 56.1544 191.184 56.1544 192.496C56.1544 193.584 56.8744 194.4 58.0744 194.656L59.3864 194.944C60.0264 195.088 60.3784 195.456 60.3784 195.936C60.3784 196.48 59.9144 196.96 59.0664 196.96C57.9784 196.96 57.3704 196.32 57.2744 195.52L55.9144 196ZM66.0447 187.872H64.6687V189.12C64.6687 189.792 64.3167 190.304 63.4847 190.304H63.0687V191.664H64.5407V195.888C64.5407 197.28 65.3727 198.08 66.6847 198.08C67.1967 198.08 67.5807 197.984 67.7087 197.936V196.656C67.5807 196.688 67.3087 196.72 67.1167 196.72C66.3327 196.72 66.0447 196.368 66.0447 195.664V191.664H67.7087V190.304H66.0447V187.872ZM73.3162 196C73.4442 196.88 74.3402 198.24 76.4522 198.24C78.3562 198.24 79.2682 196.944 79.2682 195.856C79.2682 194.72 78.5322 193.872 77.1402 193.568L75.8922 193.296C75.3002 193.168 75.0122 192.832 75.0122 192.368C75.0122 191.84 75.5242 191.344 76.2922 191.344C77.5082 191.344 77.8282 192.224 77.8922 192.624L79.2202 192.128C79.0602 191.44 78.4042 190.064 76.2922 190.064C74.7882 190.064 73.5562 191.184 73.5562 192.496C73.5562 193.584 74.2762 194.4 75.4762 194.656L76.7882 194.944C77.4282 195.088 77.7802 195.456 77.7802 195.936C77.7802 196.48 77.3162 196.96 76.4682 196.96C75.3802 196.96 74.7722 196.32 74.6762 195.52L73.3162 196ZM80.7944 195.936C80.7944 197.152 81.8024 198.24 83.3704 198.24C84.7464 198.24 85.5144 197.504 85.8504 196.96C85.8504 197.52 85.8984 197.808 85.9304 198H87.4024C87.3704 197.808 87.3064 197.408 87.3064 196.736V192.88C87.3064 191.376 86.4104 190.064 84.1064 190.064C82.4424 190.064 81.1144 191.088 80.9544 192.56L82.3944 192.896C82.4904 192 83.0824 191.344 84.1384 191.344C85.3064 191.344 85.8024 191.968 85.8024 192.72C85.8024 192.992 85.6744 193.232 85.2104 193.296L83.1304 193.6C81.8024 193.792 80.7944 194.56 80.7944 195.936ZM83.5784 196.976C82.8104 196.976 82.3304 196.432 82.3304 195.856C82.3304 195.168 82.8104 194.8 83.4504 194.704L85.8024 194.352V194.704C85.8024 196.384 84.8104 196.976 83.5784 196.976ZM91.3134 198V186.416H89.8094V198H91.3134ZM95.0079 193.36C95.0719 192.368 95.8399 191.392 97.1039 191.392C98.4639 191.392 99.1839 192.256 99.2159 193.36H95.0079ZM99.4399 195.36C99.1519 196.224 98.5279 196.912 97.2799 196.912C95.9839 196.912 94.9919 195.952 94.9599 194.576H100.752C100.768 194.48 100.784 194.288 100.784 194.096C100.784 191.696 99.4559 190.064 97.0879 190.064C95.1519 190.064 93.4079 191.712 93.4079 194.128C93.4079 196.736 95.2159 198.24 97.2799 198.24C99.0719 198.24 100.304 197.168 100.736 195.808L99.4399 195.36ZM102.144 196C102.272 196.88 103.168 198.24 105.28 198.24C107.184 198.24 108.096 196.944 108.096 195.856C108.096 194.72 107.36 193.872 105.968 193.568L104.72 193.296C104.128 193.168 103.84 192.832 103.84 192.368C103.84 191.84 104.352 191.344 105.12 191.344C106.336 191.344 106.656 192.224 106.72 192.624L108.048 192.128C107.888 191.44 107.232 190.064 105.12 190.064C103.616 190.064 102.384 191.184 102.384 192.496C102.384 193.584 103.104 194.4 104.304 194.656L105.616 194.944C106.256 195.088 106.608 195.456 106.608 195.936C106.608 196.48 106.144 196.96 105.296 196.96C104.208 196.96 103.6 196.32 103.504 195.52L102.144 196ZM111.746 198V193.36C111.746 192.208 112.466 191.408 113.538 191.408C114.69 191.408 115.17 192.176 115.17 193.168V198H116.674V193.344C116.674 192.24 117.394 191.408 118.45 191.408C119.586 191.408 120.082 192.16 120.082 193.168V198H121.57V193.008C121.57 190.992 120.258 190.08 118.914 190.08C117.938 190.08 116.946 190.432 116.338 191.536C115.922 190.544 114.994 190.08 114.034 190.08C113.138 190.08 112.178 190.48 111.698 191.328V190.304H110.258V198H111.746ZM123.657 195.936C123.657 197.152 124.665 198.24 126.233 198.24C127.609 198.24 128.377 197.504 128.713 196.96C128.713 197.52 128.761 197.808 128.793 198H130.265C130.233 197.808 130.169 197.408 130.169 196.736V192.88C130.169 191.376 129.273 190.064 126.969 190.064C125.305 190.064 123.977 191.088 123.817 192.56L125.257 192.896C125.353 192 125.945 191.344 127.001 191.344C128.169 191.344 128.665 191.968 128.665 192.72C128.665 192.992 128.537 193.232 128.073 193.296L125.993 193.6C124.665 193.792 123.657 194.56 123.657 195.936ZM126.441 196.976C125.673 196.976 125.193 196.432 125.193 195.856C125.193 195.168 125.673 194.8 126.313 194.704L128.665 194.352V194.704C128.665 196.384 127.673 196.976 126.441 196.976ZM134.176 193.552C134.176 192.384 134.784 191.44 135.968 191.44C137.312 191.44 137.76 192.304 137.76 193.376V198H139.264V193.12C139.264 191.408 138.352 190.08 136.512 190.08C135.616 190.08 134.704 190.448 134.144 191.408V190.304H132.672V198H134.176V193.552ZM150.312 190.304L148.312 196.096L146.584 190.304H144.936L147.464 198H149.048L151.048 192.144L153.096 198H154.648L157.144 190.304H155.56L153.864 196.096L151.864 190.304H150.312ZM161.963 196.896C160.683 196.896 159.563 195.936 159.563 194.144C159.563 192.368 160.683 191.408 161.963 191.408C163.243 191.408 164.363 192.368 164.363 194.144C164.363 195.936 163.243 196.896 161.963 196.896ZM161.963 190.064C159.659 190.064 158.027 191.808 158.027 194.144C158.027 196.496 159.659 198.24 161.963 198.24C164.267 198.24 165.899 196.496 165.899 194.144C165.899 191.808 164.267 190.064 161.963 190.064ZM172.978 197.072C172.978 197.392 173.01 197.824 173.042 198H174.482C174.45 197.728 174.402 197.184 174.402 196.576V190.304H172.898V194.944C172.898 196.112 172.29 196.912 171.074 196.912C169.81 196.912 169.33 195.984 169.33 194.928V190.304H167.826V195.152C167.826 196.896 168.914 198.24 170.706 198.24C171.602 198.24 172.562 197.872 172.978 197.072ZM178.632 198V186.416H177.128V198H178.632ZM182.247 194.128C182.247 192.544 183.143 191.424 184.519 191.424C185.895 191.424 186.727 192.512 186.727 194.096C186.727 195.68 185.879 196.88 184.503 196.88C183.063 196.88 182.247 195.712 182.247 194.128ZM186.743 196.96C186.743 197.424 186.791 197.824 186.823 198H188.279C188.263 197.872 188.199 197.312 188.199 196.576V186.416H186.711V191.392C186.455 190.768 185.719 190.096 184.359 190.096C182.183 190.096 180.711 191.952 180.711 194.128C180.711 196.416 182.103 198.208 184.359 198.208C185.559 198.208 186.375 197.568 186.743 196.832V196.96ZM190.757 196.976C190.757 197.6 191.237 198.08 191.861 198.08C192.485 198.08 192.981 197.6 192.981 196.976C192.981 196.352 192.485 195.856 191.861 195.856C191.237 195.856 190.757 196.352 190.757 196.976Z" fill="#000C2D"/>
<g clip-path="url(#clip0_1_1528)">
<path d="M9.10506 241.312C8.84906 240.048 7.80906 238.416 5.13706 238.416C3.02506 238.416 1.28106 239.984 1.28106 241.888C1.28106 243.584 2.43306 244.72 4.16106 245.072L5.76106 245.408C6.73706 245.616 7.28106 246.208 7.28106 246.944C7.28106 247.824 6.57706 248.512 5.21706 248.512C3.58506 248.512 2.73706 247.424 2.62506 246.24L0.833063 246.752C1.00906 248.384 2.33706 250.24 5.21706 250.24C7.80906 250.24 9.23306 248.56 9.23306 246.8C9.23306 245.2 8.16106 243.936 6.16106 243.536L4.52906 243.2C3.64906 243.008 3.20106 242.464 3.20106 241.744C3.20106 240.88 4.00106 240.112 5.15306 240.112C6.67306 240.112 7.26506 241.152 7.37706 241.856L9.10506 241.312ZM12.8603 250V242.208H11.0203V250H12.8603ZM10.7323 239.472C10.7323 240.144 11.2763 240.672 11.9323 240.672C12.6043 240.672 13.1483 240.144 13.1483 239.472C13.1483 238.8 12.6043 238.256 11.9323 238.256C11.2763 238.256 10.7323 238.8 10.7323 239.472ZM14.6947 250.432C14.9027 252 16.3427 253.28 18.4067 253.28C21.3347 253.28 22.4067 251.344 22.4067 249.264V242.208H20.6147V243.2C20.2787 242.56 19.5267 242.064 18.3107 242.064C16.1667 242.064 14.7107 243.776 14.7107 245.856C14.7107 248.048 16.2307 249.648 18.3107 249.648C19.4467 249.648 20.2307 249.12 20.5667 248.512V249.328C20.5667 250.912 19.8307 251.664 18.3587 251.664C17.2867 251.664 16.5347 250.944 16.4067 249.984L14.6947 250.432ZM18.6147 248.064C17.3987 248.064 16.5827 247.216 16.5827 245.856C16.5827 244.528 17.4307 243.664 18.6147 243.664C19.7667 243.664 20.6147 244.528 20.6147 245.856C20.6147 247.2 19.7987 248.064 18.6147 248.064ZM26.5326 245.504C26.5326 244.48 27.0926 243.664 28.1486 243.664C29.3166 243.664 29.7486 244.432 29.7486 245.392V250H31.6046V245.072C31.6046 243.36 30.6926 241.984 28.7886 241.984C27.9246 241.984 26.9966 242.352 26.4846 243.248V242.208H24.6766V250H26.5326V245.504ZM38.8267 249.136C38.8267 249.456 38.8587 249.824 38.8907 250H40.6667C40.6347 249.712 40.5867 249.216 40.5867 248.576V242.208H38.7307V246.816C38.7307 247.84 38.1707 248.56 37.0987 248.56C35.9787 248.56 35.5307 247.744 35.5307 246.784V242.208H33.6747V247.12C33.6747 248.848 34.7627 250.224 36.6187 250.224C37.5307 250.224 38.4427 249.84 38.8267 249.136ZM44.8291 253.04V249.12C45.2291 249.712 46.0771 250.192 47.1971 250.192C49.4371 250.192 50.8611 248.432 50.8611 246.096C50.8611 243.792 49.5651 242.032 47.2611 242.032C46.0611 242.032 45.1651 242.592 44.7811 243.264V242.208H42.9891V253.04H44.8291ZM49.0051 246.096C49.0051 247.584 48.1411 248.544 46.9091 248.544C45.6931 248.544 44.8131 247.584 44.8131 246.096C44.8131 244.64 45.6931 243.68 46.9091 243.68C48.1571 243.68 49.0051 244.64 49.0051 246.096ZM58.4701 245.504C58.4701 244.48 59.0301 243.664 60.0861 243.664C61.2541 243.664 61.6861 244.432 61.6861 245.392V250H63.5421V245.072C63.5421 243.36 62.6301 241.984 60.7261 241.984C59.8621 241.984 58.9341 242.352 58.4221 243.248V242.208H56.6141V250H58.4701V245.504ZM69.2256 248.576C68.0896 248.576 67.0496 247.712 67.0496 246.096C67.0496 244.48 68.0896 243.648 69.2256 243.648C70.3776 243.648 71.4016 244.48 71.4016 246.096C71.4016 247.728 70.3776 248.576 69.2256 248.576ZM69.2256 241.968C66.9056 241.968 65.1936 243.712 65.1936 246.096C65.1936 248.496 66.9056 250.24 69.2256 250.24C71.5616 250.24 73.2736 248.496 73.2736 246.096C73.2736 243.712 71.5616 241.968 69.2256 241.968ZM79.2957 242.208L77.4557 247.6L75.8717 242.208H73.8877L76.4157 250H78.3197L80.2077 244.4L82.1437 250H83.9997L86.4957 242.208H84.6077L83.0557 247.6L81.2157 242.208H79.2957Z" fill="#2F70FE"/>
<g clip-path="url(#clip1_1_1528)">
<path d="M109.5 253.5C109.372 253.5 109.244 253.451 109.146 253.354C108.951 253.159 108.951 252.842 109.146 252.647L117.793 244L109.147 235.354C108.952 235.159 108.952 234.842 109.147 234.647C109.342 234.452 109.659 234.452 109.854 234.647L118.854 243.647C119.049 243.842 119.049 244.159 118.854 244.354L109.854 253.354C109.756 253.451 109.628 253.5 109.5 253.5Z" fill="#2F70FE"/>
<path d="M118.5 244.5H95.5C95.224 244.5 95 244.276 95 244C95 243.724 95.224 243.5 95.5 243.5H118.5C118.776 243.5 119 243.724 119 244C119 244.276 118.776 244.5 118.5 244.5Z" fill="#2F70FE"/>
</g>
</g>
<defs>
<clipPath id="clip0_1_1528">
<rect width="119" height="28" fill="white" transform="translate(0 230)"/>
</clipPath>
<clipPath id="clip1_1_1528">
<rect width="24" height="24" fill="white" transform="translate(95 232)"/>
</clipPath>
</defs>
</svg>
