<svg width="410" height="231" viewBox="0 0 410 231" fill="none" xmlns="http://www.w3.org/2000/svg">
<g clip-path="url(#clip0_1_1531)">
<path d="M16.884 12.816V9.148H0.448V12.816H6.72V29H10.612V12.816H16.884ZM25.7005 15.168C25.4205 15.14 25.1405 15.112 24.8325 15.112C23.6565 15.112 21.7525 15.448 20.9125 17.268V15.224H17.3005V29H21.0245V22.7C21.0245 19.732 22.6765 18.808 24.5805 18.808C24.9165 18.808 25.2805 18.836 25.7005 18.92V15.168ZM27.5621 25.248C27.5621 27.404 29.3541 29.392 32.2941 29.392C34.3381 29.392 35.6541 28.44 36.3541 27.348C36.3541 27.88 36.4101 28.636 36.4941 29H39.9101C39.8261 28.524 39.7421 27.544 39.7421 26.816V20.04C39.7421 17.268 38.1181 14.804 33.7501 14.804C30.0541 14.804 28.0661 17.184 27.8421 19.34L31.1461 20.04C31.2581 18.836 32.1541 17.8 33.7781 17.8C35.3461 17.8 36.1021 18.612 36.1021 19.592C36.1021 20.068 35.8501 20.46 35.0661 20.572L31.6781 21.076C29.3821 21.412 27.5621 22.784 27.5621 25.248ZM33.0781 26.62C31.8741 26.62 31.2861 25.836 31.2861 25.024C31.2861 23.96 32.0421 23.428 32.9941 23.288L36.1021 22.812V23.428C36.1021 25.864 34.6461 26.62 33.0781 26.62ZM49.6291 18.248C51.4771 18.248 52.3451 19.424 52.6811 20.572L56.0131 19.452C55.4251 17.128 53.2971 14.804 49.5451 14.804C45.5411 14.804 42.4051 17.856 42.4051 22.112C42.4051 26.34 45.5971 29.42 49.6571 29.42C53.3251 29.42 55.4811 27.068 56.0971 24.772L52.8211 23.68C52.5131 24.744 51.5611 26.004 49.6571 26.004C47.7531 26.004 46.1291 24.604 46.1291 22.112C46.1291 19.62 47.7251 18.248 49.6291 18.248ZM72.1917 15.224H67.3197L62.5597 20.348V8.728H58.8357V29H62.5597V25.36L64.0997 23.736L67.7397 29H72.3037L66.6757 21.02L72.1917 15.224ZM86.1543 34.432L94.8063 15.224H90.8303L87.4423 23.288L83.7743 15.224H79.6023L85.4543 27.264L82.2063 34.432H86.1543ZM102.594 26.032C100.774 26.032 99.094 24.688 99.094 22.112C99.094 19.508 100.774 18.192 102.594 18.192C104.414 18.192 106.094 19.508 106.094 22.112C106.094 24.716 104.414 26.032 102.594 26.032ZM102.594 14.804C98.478 14.804 95.37 17.856 95.37 22.112C95.37 26.34 98.478 29.42 102.594 29.42C106.71 29.42 109.818 26.34 109.818 22.112C109.818 17.856 106.71 14.804 102.594 14.804ZM121.719 29H125.275C125.219 28.524 125.135 27.572 125.135 26.508V15.224H121.411V23.232C121.411 24.828 120.459 25.948 118.807 25.948C117.071 25.948 116.287 24.716 116.287 23.176V15.224H112.563V23.932C112.563 26.928 114.467 29.364 117.799 29.364C119.255 29.364 120.851 28.804 121.607 27.516C121.607 28.076 121.663 28.72 121.719 29ZM137.509 15.168C137.229 15.14 136.949 15.112 136.641 15.112C135.465 15.112 133.561 15.448 132.721 17.268V15.224H129.109V29H132.833V22.7C132.833 19.732 134.485 18.808 136.389 18.808C136.725 18.808 137.089 18.836 137.509 18.92V15.168ZM153.153 18.248C155.001 18.248 155.869 19.424 156.205 20.572L159.537 19.452C158.949 17.128 156.821 14.804 153.069 14.804C149.065 14.804 145.929 17.856 145.929 22.112C145.929 26.34 149.121 29.42 153.181 29.42C156.849 29.42 159.005 27.068 159.621 24.772L156.345 23.68C156.037 24.744 155.085 26.004 153.181 26.004C151.277 26.004 149.653 24.604 149.653 22.112C149.653 19.62 151.249 18.248 153.153 18.248ZM166.083 20.908C166.167 19.396 167.091 18.22 168.659 18.22C170.451 18.22 171.207 19.424 171.207 20.964V29H174.931V20.32C174.931 17.296 173.307 14.86 169.807 14.86C168.491 14.86 166.979 15.308 166.083 16.372V8.728H162.359V29H166.083V20.908ZM177.871 25.248C177.871 27.404 179.663 29.392 182.603 29.392C184.647 29.392 185.963 28.44 186.663 27.348C186.663 27.88 186.719 28.636 186.803 29H190.219C190.135 28.524 190.051 27.544 190.051 26.816V20.04C190.051 17.268 188.427 14.804 184.059 14.804C180.363 14.804 178.375 17.184 178.151 19.34L181.455 20.04C181.567 18.836 182.463 17.8 184.087 17.8C185.655 17.8 186.411 18.612 186.411 19.592C186.411 20.068 186.159 20.46 185.375 20.572L181.987 21.076C179.691 21.412 177.871 22.784 177.871 25.248ZM183.387 26.62C182.183 26.62 181.595 25.836 181.595 25.024C181.595 23.96 182.351 23.428 183.303 23.288L186.411 22.812V23.428C186.411 25.864 184.955 26.62 183.387 26.62ZM197.528 21.076C197.528 19.48 198.48 18.22 200.104 18.22C201.896 18.22 202.652 19.424 202.652 20.964V29H206.376V20.32C206.376 17.296 204.808 14.86 201.392 14.86C199.908 14.86 198.256 15.504 197.416 16.932V15.224H193.804V29H197.528V21.076ZM213.88 21.076C213.88 19.48 214.832 18.22 216.456 18.22C218.248 18.22 219.004 19.424 219.004 20.964V29H222.728V20.32C222.728 17.296 221.16 14.86 217.744 14.86C216.26 14.86 214.608 15.504 213.768 16.932V15.224H210.156V29H213.88V21.076ZM229.224 20.544C229.308 19.284 230.372 17.828 232.304 17.828C234.432 17.828 235.328 19.172 235.384 20.544H229.224ZM235.748 24.128C235.3 25.36 234.348 26.228 232.612 26.228C230.764 26.228 229.224 24.912 229.14 23.092H238.996C238.996 23.036 239.052 22.476 239.052 21.944C239.052 17.52 236.504 14.804 232.248 14.804C228.72 14.804 225.472 17.66 225.472 22.056C225.472 26.704 228.804 29.42 232.584 29.42C235.972 29.42 238.156 27.432 238.856 25.052L235.748 24.128ZM245.708 29V8.728H241.984V29H245.708ZM5.712 71.32V64.656C6.384 65.58 7.784 66.336 9.688 66.336C13.58 66.336 16.184 63.256 16.184 59.084C16.184 54.996 13.86 51.916 9.828 51.916C7.756 51.916 6.216 52.84 5.6 53.904V52.224H1.988V71.32H5.712ZM12.516 59.112C12.516 61.576 11.004 63.004 9.1 63.004C7.196 63.004 5.656 61.548 5.656 59.112C5.656 56.676 7.196 55.248 9.1 55.248C11.004 55.248 12.516 56.676 12.516 59.112ZM21.8485 57.544C21.9325 56.284 22.9965 54.828 24.9285 54.828C27.0565 54.828 27.9525 56.172 28.0085 57.544H21.8485ZM28.3725 61.128C27.9245 62.36 26.9725 63.228 25.2365 63.228C23.3885 63.228 21.8485 61.912 21.7645 60.092H31.6205C31.6205 60.036 31.6765 59.476 31.6765 58.944C31.6765 54.52 29.1285 51.804 24.8725 51.804C21.3445 51.804 18.0965 54.66 18.0965 59.056C18.0965 63.704 21.4285 66.42 25.2085 66.42C28.5965 66.42 30.7805 64.432 31.4805 62.052L28.3725 61.128ZM43.0091 52.168C42.7291 52.14 42.4491 52.112 42.1411 52.112C40.9651 52.112 39.0611 52.448 38.2211 54.268V52.224H34.6091V66H38.3331V59.7C38.3331 56.732 39.9851 55.808 41.8891 55.808C42.2251 55.808 42.5891 55.836 43.0091 55.92V52.168ZM52.5595 48.808C53.1755 48.808 53.5395 48.892 53.7355 48.948V45.812C53.4275 45.672 52.6715 45.532 51.8875 45.532C48.8355 45.532 46.8755 47.548 46.8755 50.656V52.224H44.5795V55.416H46.8755V66H50.6275V55.416H53.7355V52.224H50.6275V50.712C50.6275 49.172 51.7195 48.808 52.5595 48.808ZM62.0432 63.032C60.2232 63.032 58.5432 61.688 58.5432 59.112C58.5432 56.508 60.2232 55.192 62.0432 55.192C63.8632 55.192 65.5432 56.508 65.5432 59.112C65.5432 61.716 63.8632 63.032 62.0432 63.032ZM62.0432 51.804C57.9272 51.804 54.8192 54.856 54.8192 59.112C54.8192 63.34 57.9272 66.42 62.0432 66.42C66.1592 66.42 69.2672 63.34 69.2672 59.112C69.2672 54.856 66.1592 51.804 62.0432 51.804ZM80.6068 52.168C80.3268 52.14 80.0468 52.112 79.7388 52.112C78.5628 52.112 76.6588 52.448 75.8188 54.268V52.224H72.2068V66H75.9308V59.7C75.9308 56.732 77.5828 55.808 79.4868 55.808C79.8228 55.808 80.1868 55.836 80.6068 55.92V52.168ZM86.9503 66V57.936C86.9503 56.424 87.9023 55.22 89.5263 55.22C91.2063 55.22 91.9623 56.34 91.9623 57.824V66H95.6583V57.936C95.6583 56.452 96.6103 55.22 98.2063 55.22C99.9143 55.22 100.642 56.34 100.642 57.824V66H104.254V57.068C104.254 53.372 101.818 51.832 99.2703 51.832C97.4503 51.832 95.9943 52.448 94.9023 54.128C94.2023 52.644 92.6903 51.832 90.8143 51.832C89.3023 51.832 87.5383 52.56 86.7823 53.904V52.224H83.2263V66H86.9503ZM107.187 62.248C107.187 64.404 108.979 66.392 111.919 66.392C113.963 66.392 115.279 65.44 115.979 64.348C115.979 64.88 116.035 65.636 116.119 66H119.535C119.451 65.524 119.367 64.544 119.367 63.816V57.04C119.367 54.268 117.743 51.804 113.375 51.804C109.679 51.804 107.691 54.184 107.467 56.34L110.771 57.04C110.883 55.836 111.779 54.8 113.403 54.8C114.971 54.8 115.727 55.612 115.727 56.592C115.727 57.068 115.475 57.46 114.691 57.572L111.303 58.076C109.007 58.412 107.187 59.784 107.187 62.248ZM112.703 63.62C111.499 63.62 110.911 62.836 110.911 62.024C110.911 60.96 111.667 60.428 112.619 60.288L115.727 59.812V60.428C115.727 62.864 114.271 63.62 112.703 63.62ZM126.845 58.076C126.845 56.48 127.797 55.22 129.421 55.22C131.213 55.22 131.969 56.424 131.969 57.964V66H135.693V57.32C135.693 54.296 134.125 51.86 130.709 51.86C129.225 51.86 127.573 52.504 126.733 53.932V52.224H123.121V66H126.845V58.076ZM145.66 55.248C147.508 55.248 148.376 56.424 148.712 57.572L152.044 56.452C151.456 54.128 149.328 51.804 145.576 51.804C141.572 51.804 138.436 54.856 138.436 59.112C138.436 63.34 141.628 66.42 145.688 66.42C149.356 66.42 151.512 64.068 152.128 61.772L148.852 60.68C148.544 61.744 147.592 63.004 145.688 63.004C143.784 63.004 142.16 61.604 142.16 59.112C142.16 56.62 143.756 55.248 145.66 55.248ZM157.446 57.544C157.53 56.284 158.594 54.828 160.526 54.828C162.654 54.828 163.55 56.172 163.606 57.544H157.446ZM163.97 61.128C163.522 62.36 162.57 63.228 160.834 63.228C158.986 63.228 157.446 61.912 157.362 60.092H167.218C167.218 60.036 167.274 59.476 167.274 58.944C167.274 54.52 164.726 51.804 160.47 51.804C156.942 51.804 153.694 54.66 153.694 59.056C153.694 63.704 157.026 66.42 160.806 66.42C164.194 66.42 166.378 64.432 167.078 62.052L163.97 61.128Z" fill="#181818"/>
<path d="M13.696 117V105.656H11.6L7.568 114.888L3.568 105.656H1.44V117H2.992V108.168L6.832 117H8.272L12.144 108.168V117H13.696ZM19.8766 115.896C18.5966 115.896 17.4766 114.936 17.4766 113.144C17.4766 111.368 18.5966 110.408 19.8766 110.408C21.1566 110.408 22.2766 111.368 22.2766 113.144C22.2766 114.936 21.1566 115.896 19.8766 115.896ZM19.8766 109.064C17.5726 109.064 15.9406 110.808 15.9406 113.144C15.9406 115.496 17.5726 117.24 19.8766 117.24C22.1806 117.24 23.8126 115.496 23.8126 113.144C23.8126 110.808 22.1806 109.064 19.8766 109.064ZM27.4009 112.552C27.4009 111.384 28.0089 110.44 29.1929 110.44C30.5369 110.44 30.9849 111.304 30.9849 112.376V117H32.4889V112.12C32.4889 110.408 31.5769 109.08 29.7369 109.08C28.8409 109.08 27.9289 109.448 27.3689 110.408V109.304H25.8969V117H27.4009V112.552ZM36.5292 117V109.304H35.0412V117H36.5292ZM34.7052 106.392C34.7052 106.984 35.1852 107.464 35.7772 107.464C36.3852 107.464 36.8652 106.984 36.8652 106.392C36.8652 105.784 36.3852 105.304 35.7772 105.304C35.1852 105.304 34.7052 105.784 34.7052 106.392ZM41.2641 106.872H39.8881V108.12C39.8881 108.792 39.5361 109.304 38.7041 109.304H38.2881V110.664H39.7601V114.888C39.7601 116.28 40.5921 117.08 41.9041 117.08C42.4161 117.08 42.8001 116.984 42.9281 116.936V115.656C42.8001 115.688 42.5281 115.72 42.3361 115.72C41.5521 115.72 41.2641 115.368 41.2641 114.664V110.664H42.9281V109.304H41.2641V106.872ZM48.3135 115.896C47.0335 115.896 45.9135 114.936 45.9135 113.144C45.9135 111.368 47.0335 110.408 48.3135 110.408C49.5935 110.408 50.7135 111.368 50.7135 113.144C50.7135 114.936 49.5935 115.896 48.3135 115.896ZM48.3135 109.064C46.0095 109.064 44.3775 110.808 44.3775 113.144C44.3775 115.496 46.0095 117.24 48.3135 117.24C50.6175 117.24 52.2495 115.496 52.2495 113.144C52.2495 110.808 50.6175 109.064 48.3135 109.064ZM58.6057 109.224C58.5257 109.208 58.3177 109.176 58.1097 109.176C57.3257 109.176 56.3657 109.464 55.8057 110.648V109.304H54.3337V117H55.8377V113.144C55.8377 111.448 56.6857 110.776 57.9497 110.776C58.1577 110.776 58.3817 110.792 58.6057 110.824V109.224ZM66.5447 106.872H65.1687V108.12C65.1687 108.792 64.8167 109.304 63.9847 109.304H63.5687V110.664H65.0407V114.888C65.0407 116.28 65.8727 117.08 67.1847 117.08C67.6967 117.08 68.0807 116.984 68.2087 116.936V115.656C68.0807 115.688 67.8087 115.72 67.6167 115.72C66.8327 115.72 66.5447 115.368 66.5447 114.664V110.664H68.2087V109.304H66.5447V106.872ZM71.8803 112.472C71.9123 111.336 72.5203 110.44 73.6723 110.44C75.0163 110.44 75.4643 111.304 75.4643 112.376V117H76.9683V112.12C76.9683 110.408 76.0563 109.08 74.2163 109.08C73.3363 109.08 72.4403 109.384 71.8803 110.2V105.416H70.3763V117H71.8803V112.472ZM80.4966 112.36C80.5606 111.368 81.3286 110.392 82.5926 110.392C83.9526 110.392 84.6726 111.256 84.7046 112.36H80.4966ZM84.9286 114.36C84.6406 115.224 84.0166 115.912 82.7686 115.912C81.4726 115.912 80.4806 114.952 80.4486 113.576H86.2406C86.2566 113.48 86.2726 113.288 86.2726 113.096C86.2726 110.696 84.9446 109.064 82.5766 109.064C80.6406 109.064 78.8966 110.712 78.8966 113.128C78.8966 115.736 80.7046 117.24 82.7686 117.24C84.5606 117.24 85.7926 116.168 86.2246 114.808L84.9286 114.36ZM94.0165 112.472C94.0485 111.336 94.6565 110.44 95.8085 110.44C97.1525 110.44 97.6005 111.304 97.6005 112.376V117H99.1045V112.12C99.1045 110.408 98.1925 109.08 96.3525 109.08C95.4725 109.08 94.5765 109.384 94.0165 110.2V105.416H92.5125V117H94.0165V112.472ZM102.633 112.36C102.697 111.368 103.465 110.392 104.729 110.392C106.089 110.392 106.809 111.256 106.841 112.36H102.633ZM107.065 114.36C106.777 115.224 106.153 115.912 104.905 115.912C103.609 115.912 102.617 114.952 102.585 113.576H108.377C108.393 113.48 108.409 113.288 108.409 113.096C108.409 110.696 107.081 109.064 104.713 109.064C102.777 109.064 101.033 110.712 101.033 113.128C101.033 115.736 102.841 117.24 104.905 117.24C106.697 117.24 107.929 116.168 108.361 114.808L107.065 114.36ZM110.009 114.936C110.009 116.152 111.017 117.24 112.585 117.24C113.961 117.24 114.729 116.504 115.065 115.96C115.065 116.52 115.113 116.808 115.145 117H116.617C116.585 116.808 116.521 116.408 116.521 115.736V111.88C116.521 110.376 115.625 109.064 113.321 109.064C111.657 109.064 110.329 110.088 110.169 111.56L111.609 111.896C111.705 111 112.297 110.344 113.353 110.344C114.521 110.344 115.017 110.968 115.017 111.72C115.017 111.992 114.889 112.232 114.425 112.296L112.345 112.6C111.017 112.792 110.009 113.56 110.009 114.936ZM112.793 115.976C112.025 115.976 111.545 115.432 111.545 114.856C111.545 114.168 112.025 113.8 112.665 113.704L115.017 113.352V113.704C115.017 115.384 114.025 115.976 112.793 115.976ZM120.528 117V105.416H119.024V117H120.528ZM125.262 106.872H123.886V108.12C123.886 108.792 123.534 109.304 122.702 109.304H122.286V110.664H123.758V114.888C123.758 116.28 124.59 117.08 125.902 117.08C126.414 117.08 126.798 116.984 126.926 116.936V115.656C126.798 115.688 126.526 115.72 126.334 115.72C125.55 115.72 125.262 115.368 125.262 114.664V110.664H126.926V109.304H125.262V106.872ZM130.598 112.472C130.63 111.336 131.238 110.44 132.39 110.44C133.734 110.44 134.182 111.304 134.182 112.376V117H135.686V112.12C135.686 110.408 134.774 109.08 132.934 109.08C132.054 109.08 131.158 109.384 130.598 110.2V105.416H129.094V117H130.598V112.472ZM141.918 114.936C141.918 116.152 142.926 117.24 144.494 117.24C145.87 117.24 146.638 116.504 146.974 115.96C146.974 116.52 147.022 116.808 147.054 117H148.526C148.494 116.808 148.43 116.408 148.43 115.736V111.88C148.43 110.376 147.534 109.064 145.23 109.064C143.566 109.064 142.238 110.088 142.078 111.56L143.518 111.896C143.614 111 144.206 110.344 145.262 110.344C146.43 110.344 146.926 110.968 146.926 111.72C146.926 111.992 146.798 112.232 146.334 112.296L144.254 112.6C142.926 112.792 141.918 113.56 141.918 114.936ZM144.702 115.976C143.934 115.976 143.454 115.432 143.454 114.856C143.454 114.168 143.934 113.8 144.574 113.704L146.926 113.352V113.704C146.926 115.384 145.934 115.976 144.702 115.976ZM152.437 112.552C152.437 111.384 153.045 110.44 154.229 110.44C155.573 110.44 156.021 111.304 156.021 112.376V117H157.525V112.12C157.525 110.408 156.613 109.08 154.773 109.08C153.877 109.08 152.965 109.448 152.405 110.408V109.304H150.933V117H152.437V112.552ZM160.974 113.128C160.974 111.544 161.87 110.424 163.246 110.424C164.622 110.424 165.454 111.512 165.454 113.096C165.454 114.68 164.606 115.88 163.23 115.88C161.79 115.88 160.974 114.712 160.974 113.128ZM165.47 115.96C165.47 116.424 165.518 116.824 165.55 117H167.006C166.99 116.872 166.926 116.312 166.926 115.576V105.416H165.438V110.392C165.182 109.768 164.446 109.096 163.086 109.096C160.91 109.096 159.438 110.952 159.438 113.128C159.438 115.416 160.83 117.208 163.086 117.208C164.286 117.208 165.102 116.568 165.47 115.832V115.96ZM178.076 109.224C177.996 109.208 177.788 109.176 177.58 109.176C176.796 109.176 175.836 109.464 175.276 110.648V109.304H173.804V117H175.308V113.144C175.308 111.448 176.156 110.776 177.42 110.776C177.628 110.776 177.852 110.792 178.076 110.824V109.224ZM180.737 112.36C180.801 111.368 181.569 110.392 182.833 110.392C184.193 110.392 184.913 111.256 184.945 112.36H180.737ZM185.169 114.36C184.881 115.224 184.257 115.912 183.009 115.912C181.713 115.912 180.721 114.952 180.689 113.576H186.481C186.497 113.48 186.513 113.288 186.513 113.096C186.513 110.696 185.185 109.064 182.817 109.064C180.881 109.064 179.137 110.712 179.137 113.128C179.137 115.736 180.945 117.24 183.009 117.24C184.801 117.24 186.033 116.168 186.465 114.808L185.169 114.36ZM195.028 109.304H193.412L191.204 115.24L189.012 109.304H187.316L190.436 117H191.956L195.028 109.304ZM197.369 112.36C197.433 111.368 198.201 110.392 199.465 110.392C200.825 110.392 201.545 111.256 201.577 112.36H197.369ZM201.801 114.36C201.513 115.224 200.889 115.912 199.641 115.912C198.345 115.912 197.353 114.952 197.321 113.576H203.113C203.129 113.48 203.145 113.288 203.145 113.096C203.145 110.696 201.817 109.064 199.449 109.064C197.513 109.064 195.769 110.712 195.769 113.128C195.769 115.736 197.577 117.24 199.641 117.24C201.433 117.24 202.665 116.168 203.097 114.808L201.801 114.36ZM206.729 112.552C206.729 111.384 207.337 110.44 208.521 110.44C209.865 110.44 210.313 111.304 210.313 112.376V117H211.817V112.12C211.817 110.408 210.905 109.08 209.065 109.08C208.169 109.08 207.257 109.448 206.697 110.408V109.304H205.225V117H206.729V112.552ZM219.285 116.072C219.285 116.392 219.317 116.824 219.349 117H220.789C220.757 116.728 220.709 116.184 220.709 115.576V109.304H219.205V113.944C219.205 115.112 218.597 115.912 217.381 115.912C216.117 115.912 215.637 114.984 215.637 113.928V109.304H214.133V114.152C214.133 115.896 215.221 117.24 217.013 117.24C217.909 117.24 218.869 116.872 219.285 116.072ZM224.333 112.36C224.397 111.368 225.165 110.392 226.429 110.392C227.789 110.392 228.509 111.256 228.541 112.36H224.333ZM228.765 114.36C228.477 115.224 227.853 115.912 226.605 115.912C225.309 115.912 224.317 114.952 224.285 113.576H230.077C230.094 113.48 230.109 113.288 230.109 113.096C230.109 110.696 228.781 109.064 226.413 109.064C224.477 109.064 222.733 110.712 222.733 113.128C222.733 115.736 224.541 117.24 226.605 117.24C228.397 117.24 229.629 116.168 230.061 114.808L228.765 114.36ZM239.645 115.896C238.365 115.896 237.245 114.936 237.245 113.144C237.245 111.368 238.365 110.408 239.645 110.408C240.925 110.408 242.045 111.368 242.045 113.144C242.045 114.936 240.925 115.896 239.645 115.896ZM239.645 109.064C237.341 109.064 235.709 110.808 235.709 113.144C235.709 115.496 237.341 117.24 239.645 117.24C241.949 117.24 243.581 115.496 243.581 113.144C243.581 110.808 241.949 109.064 239.645 109.064ZM249.538 110.664V109.304H247.682V108.088C247.682 107.032 248.37 106.776 248.898 106.776C249.282 106.776 249.474 106.84 249.554 106.872V105.528C249.49 105.48 249.17 105.368 248.658 105.368C247.266 105.368 246.13 106.296 246.13 108.008V109.304H244.706V110.664H246.13V117H247.682V110.664H249.538ZM257.39 120.216L262.398 109.304H260.782L258.478 114.616L256.078 109.304H254.35L257.662 116.152L255.742 120.216H257.39ZM266.989 115.896C265.709 115.896 264.589 114.936 264.589 113.144C264.589 111.368 265.709 110.408 266.989 110.408C268.269 110.408 269.389 111.368 269.389 113.144C269.389 114.936 268.269 115.896 266.989 115.896ZM266.989 109.064C264.685 109.064 263.053 110.808 263.053 113.144C263.053 115.496 264.685 117.24 266.989 117.24C269.293 117.24 270.925 115.496 270.925 113.144C270.925 110.808 269.293 109.064 266.989 109.064ZM278.003 116.072C278.003 116.392 278.035 116.824 278.067 117H279.507C279.475 116.728 279.427 116.184 279.427 115.576V109.304H277.923V113.944C277.923 115.112 277.315 115.912 276.099 115.912C274.835 115.912 274.355 114.984 274.355 113.928V109.304H272.851V114.152C272.851 115.896 273.939 117.24 275.731 117.24C276.627 117.24 277.587 116.872 278.003 116.072ZM286.425 109.224C286.345 109.208 286.137 109.176 285.929 109.176C285.145 109.176 284.185 109.464 283.625 110.648V109.304H282.153V117H283.657V113.144C283.657 111.448 284.505 110.776 285.769 110.776C285.977 110.776 286.201 110.792 286.425 110.824V109.224ZM295.58 110.456C296.892 110.456 297.452 111.336 297.644 112.088L299.004 111.512C298.684 110.344 297.628 109.064 295.58 109.064C293.388 109.064 291.708 110.744 291.708 113.144C291.708 115.48 293.356 117.24 295.596 117.24C297.596 117.24 298.7 115.944 299.068 114.84L297.74 114.264C297.564 114.872 297.036 115.848 295.596 115.848C294.348 115.848 293.244 114.904 293.244 113.144C293.244 111.352 294.364 110.456 295.58 110.456ZM302.496 112.472C302.528 111.336 303.136 110.44 304.288 110.44C305.632 110.44 306.08 111.304 306.08 112.376V117H307.584V112.12C307.584 110.408 306.672 109.08 304.832 109.08C303.952 109.08 303.056 109.384 302.496 110.2V105.416H300.992V117H302.496V112.472ZM309.657 114.936C309.657 116.152 310.665 117.24 312.233 117.24C313.609 117.24 314.377 116.504 314.713 115.96C314.713 116.52 314.761 116.808 314.793 117H316.265C316.233 116.808 316.169 116.408 316.169 115.736V111.88C316.169 110.376 315.273 109.064 312.969 109.064C311.305 109.064 309.977 110.088 309.817 111.56L311.257 111.896C311.353 111 311.945 110.344 313.001 110.344C314.169 110.344 314.665 110.968 314.665 111.72C314.665 111.992 314.537 112.232 314.073 112.296L311.993 112.6C310.665 112.792 309.657 113.56 309.657 114.936ZM312.441 115.976C311.673 115.976 311.193 115.432 311.193 114.856C311.193 114.168 311.673 113.8 312.313 113.704L314.665 113.352V113.704C314.665 115.384 313.673 115.976 312.441 115.976ZM320.176 112.552C320.176 111.384 320.784 110.44 321.968 110.44C323.312 110.44 323.76 111.304 323.76 112.376V117H325.264V112.12C325.264 110.408 324.352 109.08 322.512 109.08C321.616 109.08 320.704 109.448 320.144 110.408V109.304H318.672V117H320.176V112.552ZM329.32 112.552C329.32 111.384 329.928 110.44 331.112 110.44C332.456 110.44 332.904 111.304 332.904 112.376V117H334.408V112.12C334.408 110.408 333.496 109.08 331.656 109.08C330.76 109.08 329.848 109.448 329.288 110.408V109.304H327.816V117H329.32V112.552ZM337.937 112.36C338.001 111.368 338.769 110.392 340.033 110.392C341.393 110.392 342.113 111.256 342.145 112.36H337.937ZM342.369 114.36C342.081 115.224 341.457 115.912 340.209 115.912C338.913 115.912 337.921 114.952 337.889 113.576H343.681C343.697 113.48 343.713 113.288 343.713 113.096C343.713 110.696 342.385 109.064 340.017 109.064C338.081 109.064 336.337 110.712 336.337 113.128C336.337 115.736 338.145 117.24 340.209 117.24C342.001 117.24 343.233 116.168 343.665 114.808L342.369 114.36ZM347.297 117V105.416H345.793V117H347.297ZM2.768 147.04V142.96C3.184 143.648 4.08 144.208 5.264 144.208C7.52 144.208 8.848 142.432 8.848 140.144C8.848 137.904 7.616 136.128 5.312 136.128C4.064 136.128 3.152 136.736 2.736 137.504V136.304H1.28V147.04H2.768ZM7.312 140.144C7.312 141.728 6.432 142.864 5.04 142.864C3.664 142.864 2.752 141.728 2.752 140.144C2.752 138.608 3.664 137.456 5.04 137.456C6.448 137.456 7.312 138.608 7.312 140.144ZM15.1964 136.224C15.1164 136.208 14.9084 136.176 14.7004 136.176C13.9164 136.176 12.9564 136.464 12.3964 137.648V136.304H10.9244V144H12.4284V140.144C12.4284 138.448 13.2764 137.776 14.5404 137.776C14.7484 137.776 14.9724 137.792 15.1964 137.824V136.224ZM20.1772 142.896C18.8972 142.896 17.7772 141.936 17.7772 140.144C17.7772 138.368 18.8972 137.408 20.1772 137.408C21.4573 137.408 22.5773 138.368 22.5773 140.144C22.5773 141.936 21.4573 142.896 20.1772 142.896ZM20.1772 136.064C17.8732 136.064 16.2412 137.808 16.2412 140.144C16.2412 142.496 17.8732 144.24 20.1772 144.24C22.4812 144.24 24.1132 142.496 24.1132 140.144C24.1132 137.808 22.4812 136.064 20.1772 136.064ZM25.6375 144.416C25.8295 146.064 27.2695 147.28 29.1895 147.28C32.0855 147.28 33.0455 145.376 33.0455 143.424V136.304H31.5575V137.376C31.1735 136.608 30.3735 136.16 29.1895 136.16C27.0775 136.16 25.6535 137.824 25.6535 139.904C25.6535 142.08 27.1415 143.632 29.1895 143.632C30.3415 143.632 31.1735 143.072 31.5415 142.368V143.472C31.5415 145.136 30.8055 145.968 29.1895 145.968C28.0215 145.968 27.2055 145.152 27.0935 144.08L25.6375 144.416ZM29.4135 142.368C28.0535 142.368 27.1895 141.408 27.1895 139.904C27.1895 138.416 28.0855 137.44 29.4135 137.44C30.7095 137.44 31.6055 138.416 31.6055 139.904C31.6055 141.392 30.7095 142.368 29.4135 142.368ZM39.8795 136.224C39.7995 136.208 39.5915 136.176 39.3835 136.176C38.5995 136.176 37.6395 136.464 37.0795 137.648V136.304H35.6075V144H37.1115V140.144C37.1115 138.448 37.9595 137.776 39.2235 137.776C39.4315 137.776 39.6555 137.792 39.8795 137.824V136.224ZM41.1625 141.936C41.1625 143.152 42.1705 144.24 43.7385 144.24C45.1145 144.24 45.8825 143.504 46.2185 142.96C46.2185 143.52 46.2665 143.808 46.2985 144H47.7705C47.7385 143.808 47.6745 143.408 47.6745 142.736V138.88C47.6745 137.376 46.7785 136.064 44.4745 136.064C42.8105 136.064 41.4825 137.088 41.3225 138.56L42.7625 138.896C42.8585 138 43.4505 137.344 44.5065 137.344C45.6745 137.344 46.1705 137.968 46.1705 138.72C46.1705 138.992 46.0425 139.232 45.5785 139.296L43.4985 139.6C42.1705 139.792 41.1625 140.56 41.1625 141.936ZM43.9465 142.976C43.1785 142.976 42.6985 142.432 42.6985 141.856C42.6985 141.168 43.1785 140.8 43.8185 140.704L46.1705 140.352V140.704C46.1705 142.384 45.1785 142.976 43.9465 142.976ZM51.6655 144V139.36C51.6655 138.208 52.3855 137.408 53.4575 137.408C54.6095 137.408 55.0895 138.176 55.0895 139.168V144H56.5935V139.344C56.5935 138.24 57.3135 137.408 58.3695 137.408C59.5055 137.408 60.0015 138.16 60.0015 139.168V144H61.4895V139.008C61.4895 136.992 60.1775 136.08 58.8335 136.08C57.8575 136.08 56.8655 136.432 56.2575 137.536C55.8415 136.544 54.9135 136.08 53.9535 136.08C53.0575 136.08 52.0975 136.48 51.6175 137.328V136.304H50.1775V144H51.6655ZM67.7362 141.936C67.7362 143.152 68.7442 144.24 70.3122 144.24C71.6882 144.24 72.4562 143.504 72.7922 142.96C72.7922 143.52 72.8402 143.808 72.8722 144H74.3442C74.3122 143.808 74.2482 143.408 74.2482 142.736V138.88C74.2482 137.376 73.3522 136.064 71.0482 136.064C69.3842 136.064 68.0562 137.088 67.8962 138.56L69.3362 138.896C69.4322 138 70.0242 137.344 71.0802 137.344C72.2482 137.344 72.7442 137.968 72.7442 138.72C72.7442 138.992 72.6162 139.232 72.1522 139.296L70.0722 139.6C68.7442 139.792 67.7362 140.56 67.7362 141.936ZM70.5202 142.976C69.7522 142.976 69.2722 142.432 69.2722 141.856C69.2722 141.168 69.7522 140.8 70.3922 140.704L72.7442 140.352V140.704C72.7442 142.384 71.7522 142.976 70.5202 142.976ZM78.2553 139.552C78.2553 138.384 78.8633 137.44 80.0473 137.44C81.3913 137.44 81.8393 138.304 81.8393 139.376V144H83.3433V139.12C83.3433 137.408 82.4313 136.08 80.5913 136.08C79.6953 136.08 78.7833 136.448 78.2233 137.408V136.304H76.7513V144H78.2553V139.552ZM86.7916 140.128C86.7916 138.544 87.6876 137.424 89.0636 137.424C90.4396 137.424 91.2716 138.512 91.2716 140.096C91.2716 141.68 90.4236 142.88 89.0476 142.88C87.6076 142.88 86.7916 141.712 86.7916 140.128ZM91.2876 142.96C91.2876 143.424 91.3356 143.824 91.3676 144H92.8236C92.8076 143.872 92.7436 143.312 92.7436 142.576V132.416H91.2556V137.392C90.9996 136.768 90.2636 136.096 88.9036 136.096C86.7276 136.096 85.2556 137.952 85.2556 140.128C85.2556 142.416 86.6476 144.208 88.9036 144.208C90.1036 144.208 90.9196 143.568 91.2876 142.832V142.96ZM98.9019 142C99.0299 142.88 99.9259 144.24 102.038 144.24C103.942 144.24 104.854 142.944 104.854 141.856C104.854 140.72 104.118 139.872 102.726 139.568L101.478 139.296C100.886 139.168 100.598 138.832 100.598 138.368C100.598 137.84 101.11 137.344 101.878 137.344C103.094 137.344 103.414 138.224 103.478 138.624L104.806 138.128C104.646 137.44 103.99 136.064 101.878 136.064C100.374 136.064 99.1419 137.184 99.1419 138.496C99.1419 139.584 99.8619 140.4 101.062 140.656L102.374 140.944C103.014 141.088 103.366 141.456 103.366 141.936C103.366 142.48 102.902 142.96 102.054 142.96C100.966 142.96 100.358 142.32 100.262 141.52L98.9019 142ZM109.032 133.872H107.656V135.12C107.656 135.792 107.304 136.304 106.472 136.304H106.056V137.664H107.528V141.888C107.528 143.28 108.36 144.08 109.672 144.08C110.184 144.08 110.568 143.984 110.696 143.936V142.656C110.568 142.688 110.296 142.72 110.104 142.72C109.32 142.72 109.032 142.368 109.032 141.664V137.664H110.696V136.304H109.032V133.872ZM116.979 136.224C116.899 136.208 116.691 136.176 116.483 136.176C115.699 136.176 114.739 136.464 114.179 137.648V136.304H112.707V144H114.211V140.144C114.211 138.448 115.059 137.776 116.323 137.776C116.531 137.776 116.755 137.792 116.979 137.824V136.224ZM119.64 139.36C119.704 138.368 120.472 137.392 121.736 137.392C123.096 137.392 123.816 138.256 123.848 139.36H119.64ZM124.072 141.36C123.784 142.224 123.16 142.912 121.912 142.912C120.616 142.912 119.624 141.952 119.592 140.576H125.384C125.4 140.48 125.416 140.288 125.416 140.096C125.416 137.696 124.088 136.064 121.72 136.064C119.784 136.064 118.04 137.712 118.04 140.128C118.04 142.736 119.848 144.24 121.912 144.24C123.704 144.24 124.936 143.168 125.368 141.808L124.072 141.36ZM127.016 141.936C127.016 143.152 128.024 144.24 129.592 144.24C130.968 144.24 131.736 143.504 132.072 142.96C132.072 143.52 132.12 143.808 132.152 144H133.624C133.592 143.808 133.528 143.408 133.528 142.736V138.88C133.528 137.376 132.632 136.064 130.328 136.064C128.664 136.064 127.336 137.088 127.176 138.56L128.616 138.896C128.712 138 129.304 137.344 130.36 137.344C131.528 137.344 132.024 137.968 132.024 138.72C132.024 138.992 131.896 139.232 131.432 139.296L129.352 139.6C128.024 139.792 127.016 140.56 127.016 141.936ZM129.8 142.976C129.032 142.976 128.552 142.432 128.552 141.856C128.552 141.168 129.032 140.8 129.672 140.704L132.024 140.352V140.704C132.024 142.384 131.032 142.976 129.8 142.976ZM137.519 144V139.36C137.519 138.208 138.239 137.408 139.311 137.408C140.463 137.408 140.943 138.176 140.943 139.168V144H142.447V139.344C142.447 138.24 143.167 137.408 144.223 137.408C145.359 137.408 145.855 138.16 145.855 139.168V144H147.343V139.008C147.343 136.992 146.031 136.08 144.687 136.08C143.711 136.08 142.719 136.432 142.111 137.536C141.695 136.544 140.767 136.08 139.807 136.08C138.911 136.08 137.951 136.48 137.471 137.328V136.304H136.031V144H137.519ZM151.414 144V132.416H149.91V144H151.414ZM155.62 144V136.304H154.132V144H155.62ZM153.796 133.392C153.796 133.984 154.276 134.464 154.868 134.464C155.476 134.464 155.956 133.984 155.956 133.392C155.956 132.784 155.476 132.304 154.868 132.304C154.276 132.304 153.796 132.784 153.796 133.392ZM159.843 139.552C159.843 138.384 160.451 137.44 161.635 137.44C162.979 137.44 163.427 138.304 163.427 139.376V144H164.931V139.12C164.931 137.408 164.019 136.08 162.179 136.08C161.283 136.08 160.371 136.448 159.811 137.408V136.304H158.339V144H159.843V139.552ZM168.46 139.36C168.524 138.368 169.292 137.392 170.556 137.392C171.916 137.392 172.636 138.256 172.668 139.36H168.46ZM172.892 141.36C172.604 142.224 171.98 142.912 170.732 142.912C169.436 142.912 168.444 141.952 168.412 140.576H174.204C174.22 140.48 174.236 140.288 174.236 140.096C174.236 137.696 172.908 136.064 170.54 136.064C168.604 136.064 166.86 137.712 166.86 140.128C166.86 142.736 168.668 144.24 170.732 144.24C172.524 144.24 173.756 143.168 174.188 141.808L172.892 141.36ZM182.396 147.216L187.404 136.304H185.788L183.484 141.616L181.084 136.304H179.356L182.668 143.152L180.748 147.216H182.396ZM191.994 142.896C190.714 142.896 189.594 141.936 189.594 140.144C189.594 138.368 190.714 137.408 191.994 137.408C193.274 137.408 194.394 138.368 194.394 140.144C194.394 141.936 193.274 142.896 191.994 142.896ZM191.994 136.064C189.69 136.064 188.058 137.808 188.058 140.144C188.058 142.496 189.69 144.24 191.994 144.24C194.298 144.24 195.93 142.496 195.93 140.144C195.93 137.808 194.298 136.064 191.994 136.064ZM203.008 143.072C203.008 143.392 203.04 143.824 203.072 144H204.512C204.48 143.728 204.432 143.184 204.432 142.576V136.304H202.928V140.944C202.928 142.112 202.32 142.912 201.104 142.912C199.84 142.912 199.36 141.984 199.36 140.928V136.304H197.856V141.152C197.856 142.896 198.944 144.24 200.736 144.24C201.632 144.24 202.592 143.872 203.008 143.072ZM211.431 136.224C211.351 136.208 211.143 136.176 210.935 136.176C210.151 136.176 209.191 136.464 208.631 137.648V136.304H207.159V144H208.663V140.144C208.663 138.448 209.511 137.776 210.775 137.776C210.983 137.776 211.207 137.792 211.431 137.824V136.224ZM220.586 137.456C221.898 137.456 222.458 138.336 222.65 139.088L224.01 138.512C223.69 137.344 222.634 136.064 220.586 136.064C218.394 136.064 216.714 137.744 216.714 140.144C216.714 142.48 218.362 144.24 220.602 144.24C222.602 144.24 223.706 142.944 224.074 141.84L222.746 141.264C222.57 141.872 222.042 142.848 220.602 142.848C219.354 142.848 218.25 141.904 218.25 140.144C218.25 138.352 219.37 137.456 220.586 137.456ZM225.44 141.936C225.44 143.152 226.448 144.24 228.016 144.24C229.392 144.24 230.16 143.504 230.496 142.96C230.496 143.52 230.544 143.808 230.576 144H232.048C232.016 143.808 231.952 143.408 231.952 142.736V138.88C231.952 137.376 231.056 136.064 228.752 136.064C227.088 136.064 225.76 137.088 225.6 138.56L227.04 138.896C227.136 138 227.728 137.344 228.784 137.344C229.952 137.344 230.448 137.968 230.448 138.72C230.448 138.992 230.32 139.232 229.856 139.296L227.776 139.6C226.448 139.792 225.44 140.56 225.44 141.936ZM228.224 142.976C227.456 142.976 226.976 142.432 226.976 141.856C226.976 141.168 227.456 140.8 228.096 140.704L230.448 140.352V140.704C230.448 142.384 229.456 142.976 228.224 142.976ZM235.943 144V139.36C235.943 138.208 236.663 137.408 237.735 137.408C238.887 137.408 239.367 138.176 239.367 139.168V144H240.871V139.344C240.871 138.24 241.591 137.408 242.647 137.408C243.783 137.408 244.279 138.16 244.279 139.168V144H245.767V139.008C245.767 136.992 244.455 136.08 243.111 136.08C242.135 136.08 241.143 136.432 240.535 137.536C240.119 136.544 239.191 136.08 238.231 136.08C237.335 136.08 236.375 136.48 235.895 137.328V136.304H234.455V144H235.943ZM249.822 147.04V142.96C250.238 143.648 251.134 144.208 252.318 144.208C254.574 144.208 255.902 142.432 255.902 140.144C255.902 137.904 254.67 136.128 252.366 136.128C251.118 136.128 250.206 136.736 249.79 137.504V136.304H248.334V147.04H249.822ZM254.366 140.144C254.366 141.728 253.486 142.864 252.094 142.864C250.718 142.864 249.806 141.728 249.806 140.144C249.806 138.608 250.718 137.456 252.094 137.456C253.502 137.456 254.366 138.608 254.366 140.144ZM257.498 141.936C257.498 143.152 258.506 144.24 260.074 144.24C261.45 144.24 262.218 143.504 262.554 142.96C262.554 143.52 262.602 143.808 262.634 144H264.106C264.074 143.808 264.01 143.408 264.01 142.736V138.88C264.01 137.376 263.114 136.064 260.81 136.064C259.146 136.064 257.818 137.088 257.658 138.56L259.098 138.896C259.194 138 259.786 137.344 260.842 137.344C262.01 137.344 262.506 137.968 262.506 138.72C262.506 138.992 262.378 139.232 261.914 139.296L259.834 139.6C258.506 139.792 257.498 140.56 257.498 141.936ZM260.282 142.976C259.514 142.976 259.034 142.432 259.034 141.856C259.034 141.168 259.514 140.8 260.154 140.704L262.506 140.352V140.704C262.506 142.384 261.514 142.976 260.282 142.976ZM268.001 144V136.304H266.513V144H268.001ZM266.177 133.392C266.177 133.984 266.657 134.464 267.249 134.464C267.857 134.464 268.337 133.984 268.337 133.392C268.337 132.784 267.857 132.304 267.249 132.304C266.657 132.304 266.177 132.784 266.177 133.392ZM270.16 144.416C270.352 146.064 271.792 147.28 273.712 147.28C276.608 147.28 277.568 145.376 277.568 143.424V136.304H276.08V137.376C275.696 136.608 274.896 136.16 273.712 136.16C271.6 136.16 270.176 137.824 270.176 139.904C270.176 142.08 271.664 143.632 273.712 143.632C274.864 143.632 275.696 143.072 276.064 142.368V143.472C276.064 145.136 275.328 145.968 273.712 145.968C272.544 145.968 271.728 145.152 271.616 144.08L270.16 144.416ZM273.936 142.368C272.576 142.368 271.712 141.408 271.712 139.904C271.712 138.416 272.608 137.44 273.936 137.44C275.232 137.44 276.128 138.416 276.128 139.904C276.128 141.392 275.232 142.368 273.936 142.368ZM281.634 139.552C281.634 138.384 282.242 137.44 283.426 137.44C284.77 137.44 285.218 138.304 285.218 139.376V144H286.722V139.12C286.722 137.408 285.81 136.08 283.97 136.08C283.074 136.08 282.162 136.448 281.602 137.408V136.304H280.13V144H281.634V139.552ZM295.45 133.872H294.074V135.12C294.074 135.792 293.722 136.304 292.89 136.304H292.474V137.664H293.946V141.888C293.946 143.28 294.778 144.08 296.09 144.08C296.602 144.08 296.986 143.984 297.114 143.936V142.656C296.986 142.688 296.714 142.72 296.522 142.72C295.738 142.72 295.45 142.368 295.45 141.664V137.664H297.114V136.304H295.45V133.872ZM302.5 142.896C301.22 142.896 300.1 141.936 300.1 140.144C300.1 138.368 301.22 137.408 302.5 137.408C303.78 137.408 304.9 138.368 304.9 140.144C304.9 141.936 303.78 142.896 302.5 142.896ZM302.5 136.064C300.196 136.064 298.564 137.808 298.564 140.144C298.564 142.496 300.196 144.24 302.5 144.24C304.804 144.24 306.436 142.496 306.436 140.144C306.436 137.808 304.804 136.064 302.5 136.064ZM317.016 136.304L315.016 142.096L313.288 136.304H311.64L314.168 144H315.752L317.752 138.144L319.8 144H321.352L323.848 136.304H322.264L320.568 142.096L318.568 136.304H317.016ZM327.015 144V136.304H325.527V144H327.015ZM325.191 133.392C325.191 133.984 325.671 134.464 326.263 134.464C326.871 134.464 327.351 133.984 327.351 133.392C327.351 132.784 326.871 132.304 326.263 132.304C325.671 132.304 325.191 132.784 325.191 133.392ZM331.238 139.552C331.238 138.384 331.846 137.44 333.03 137.44C334.374 137.44 334.822 138.304 334.822 139.376V144H336.326V139.12C336.326 137.408 335.414 136.08 333.574 136.08C332.678 136.08 331.766 136.448 331.206 137.408V136.304H329.734V144H331.238V139.552ZM344.527 144V139.36C344.527 138.208 345.247 137.408 346.319 137.408C347.471 137.408 347.951 138.176 347.951 139.168V144H349.455V139.344C349.455 138.24 350.175 137.408 351.231 137.408C352.367 137.408 352.863 138.16 352.863 139.168V144H354.351V139.008C354.351 136.992 353.039 136.08 351.695 136.08C350.719 136.08 349.727 136.432 349.119 137.536C348.703 136.544 347.775 136.08 346.815 136.08C345.919 136.08 344.959 136.48 344.479 137.328V136.304H343.039V144H344.527ZM360.214 142.896C358.934 142.896 357.814 141.936 357.814 140.144C357.814 138.368 358.934 137.408 360.214 137.408C361.494 137.408 362.614 138.368 362.614 140.144C362.614 141.936 361.494 142.896 360.214 142.896ZM360.214 136.064C357.91 136.064 356.278 137.808 356.278 140.144C356.278 142.496 357.91 144.24 360.214 144.24C362.518 144.24 364.15 142.496 364.15 140.144C364.15 137.808 362.518 136.064 360.214 136.064ZM370.506 136.224C370.426 136.208 370.218 136.176 370.01 136.176C369.226 136.176 368.266 136.464 367.706 137.648V136.304H366.234V144H367.738V140.144C367.738 138.448 368.586 137.776 369.85 137.776C370.058 137.776 370.282 137.792 370.506 137.824V136.224ZM373.167 139.36C373.231 138.368 373.999 137.392 375.263 137.392C376.623 137.392 377.343 138.256 377.375 139.36H373.167ZM377.599 141.36C377.311 142.224 376.687 142.912 375.439 142.912C374.143 142.912 373.151 141.952 373.119 140.576H378.911C378.927 140.48 378.943 140.288 378.943 140.096C378.943 137.696 377.615 136.064 375.247 136.064C373.311 136.064 371.567 137.712 371.567 140.128C371.567 142.736 373.375 144.24 375.439 144.24C377.231 144.24 378.463 143.168 378.895 141.808L377.599 141.36ZM4.512 164.456C5.824 164.456 6.384 165.336 6.576 166.088L7.936 165.512C7.616 164.344 6.56 163.064 4.512 163.064C2.32 163.064 0.64 164.744 0.64 167.144C0.64 169.48 2.288 171.24 4.528 171.24C6.528 171.24 7.632 169.944 8 168.84L6.672 168.264C6.496 168.872 5.968 169.848 4.528 169.848C3.28 169.848 2.176 168.904 2.176 167.144C2.176 165.352 3.296 164.456 4.512 164.456ZM14.9183 170.072C14.9183 170.392 14.9503 170.824 14.9823 171H16.4223C16.3903 170.728 16.3423 170.184 16.3423 169.576V163.304H14.8383V167.944C14.8383 169.112 14.2302 169.912 13.0143 169.912C11.7503 169.912 11.2703 168.984 11.2703 167.928V163.304H9.76625V168.152C9.76625 169.896 10.8542 171.24 12.6463 171.24C13.5423 171.24 14.5023 170.872 14.9183 170.072ZM18.3487 169C18.4767 169.88 19.3727 171.24 21.4847 171.24C23.3888 171.24 24.3007 169.944 24.3007 168.856C24.3007 167.72 23.5648 166.872 22.1727 166.568L20.9247 166.296C20.3327 166.168 20.0447 165.832 20.0447 165.368C20.0447 164.84 20.5567 164.344 21.3247 164.344C22.5408 164.344 22.8607 165.224 22.9247 165.624L24.2527 165.128C24.0928 164.44 23.4367 163.064 21.3247 163.064C19.8207 163.064 18.5887 164.184 18.5887 165.496C18.5887 166.584 19.3087 167.4 20.5087 167.656L21.8207 167.944C22.4608 168.088 22.8127 168.456 22.8127 168.936C22.8127 169.48 22.3488 169.96 21.5007 169.96C20.4127 169.96 19.8047 169.32 19.7087 168.52L18.3487 169ZM28.4791 160.872H27.1031V162.12C27.1031 162.792 26.7511 163.304 25.9191 163.304H25.5031V164.664H26.9751V168.888C26.9751 170.28 27.8071 171.08 29.1191 171.08C29.6311 171.08 30.0151 170.984 30.1431 170.936V169.656C30.0151 169.688 29.7431 169.72 29.5511 169.72C28.7671 169.72 28.4791 169.368 28.4791 168.664V164.664H30.1431V163.304H28.4791V160.872ZM35.5285 169.896C34.2485 169.896 33.1285 168.936 33.1285 167.144C33.1285 165.368 34.2485 164.408 35.5285 164.408C36.8085 164.408 37.9285 165.368 37.9285 167.144C37.9285 168.936 36.8085 169.896 35.5285 169.896ZM35.5285 163.064C33.2245 163.064 31.5925 164.808 31.5925 167.144C31.5925 169.496 33.2245 171.24 35.5285 171.24C37.8325 171.24 39.4645 169.496 39.4645 167.144C39.4645 164.808 37.8325 163.064 35.5285 163.064ZM43.0367 171V166.36C43.0367 165.208 43.7567 164.408 44.8287 164.408C45.9807 164.408 46.4607 165.176 46.4607 166.168V171H47.9647V166.344C47.9647 165.24 48.6847 164.408 49.7407 164.408C50.8767 164.408 51.3727 165.16 51.3727 166.168V171H52.8608V166.008C52.8608 163.992 51.5487 163.08 50.2048 163.08C49.2287 163.08 48.2367 163.432 47.6287 164.536C47.2127 163.544 46.2847 163.08 45.3247 163.08C44.4287 163.08 43.4687 163.48 42.9887 164.328V163.304H41.5487V171H43.0367ZM56.4035 166.36C56.4675 165.368 57.2355 164.392 58.4995 164.392C59.8595 164.392 60.5795 165.256 60.6115 166.36H56.4035ZM60.8355 168.36C60.5475 169.224 59.9235 169.912 58.6755 169.912C57.3795 169.912 56.3875 168.952 56.3555 167.576H62.1475C62.1635 167.48 62.1795 167.288 62.1795 167.096C62.1795 164.696 60.8515 163.064 58.4835 163.064C56.5475 163.064 54.8035 164.712 54.8035 167.128C54.8035 169.736 56.6115 171.24 58.6755 171.24C60.4675 171.24 61.6995 170.168 62.1315 168.808L60.8355 168.36ZM68.5314 163.224C68.4514 163.208 68.2434 163.176 68.0354 163.176C67.2514 163.176 66.2914 163.464 65.7314 164.648V163.304H64.2594V171H65.7634V167.144C65.7634 165.448 66.6114 164.776 67.8754 164.776C68.0834 164.776 68.3074 164.792 68.5314 164.824V163.224ZM69.5744 169C69.7024 169.88 70.5984 171.24 72.7104 171.24C74.6144 171.24 75.5264 169.944 75.5264 168.856C75.5264 167.72 74.7904 166.872 73.3984 166.568L72.1504 166.296C71.5584 166.168 71.2704 165.832 71.2704 165.368C71.2704 164.84 71.7824 164.344 72.5504 164.344C73.7664 164.344 74.0864 165.224 74.1504 165.624L75.4784 165.128C75.3184 164.44 74.6624 163.064 72.5504 163.064C71.0464 163.064 69.8144 164.184 69.8144 165.496C69.8144 166.584 70.5344 167.4 71.7344 167.656L73.0464 167.944C73.6864 168.088 74.0384 168.456 74.0384 168.936C74.0384 169.48 73.5744 169.96 72.7264 169.96C71.6384 169.96 71.0304 169.32 70.9344 168.52L69.5744 169ZM86.1847 163.304L84.1847 169.096L82.4567 163.304H80.8087L83.3367 171H84.9207L86.9207 165.144L88.9687 171H90.5207L93.0167 163.304H91.4327L89.7367 169.096L87.7367 163.304H86.1847ZM96.1843 171V163.304H94.6963V171H96.1843ZM94.3603 160.392C94.3603 160.984 94.8403 161.464 95.4323 161.464C96.0403 161.464 96.5203 160.984 96.5203 160.392C96.5203 159.784 96.0403 159.304 95.4323 159.304C94.8403 159.304 94.3603 159.784 94.3603 160.392ZM100.919 160.872H99.5431V162.12C99.5431 162.792 99.1911 163.304 98.3591 163.304H97.9431V164.664H99.4151V168.888C99.4151 170.28 100.247 171.08 101.559 171.08C102.071 171.08 102.455 170.984 102.583 170.936V169.656C102.455 169.688 102.183 169.72 101.991 169.72C101.207 169.72 100.919 169.368 100.919 168.664V164.664H102.583V163.304H100.919V160.872ZM106.255 166.472C106.287 165.336 106.895 164.44 108.047 164.44C109.391 164.44 109.839 165.304 109.839 166.376V171H111.343V166.12C111.343 164.408 110.431 163.08 108.591 163.08C107.711 163.08 106.815 163.384 106.255 164.2V159.416H104.751V171H106.255V166.472ZM115.383 171V163.304H113.895V171H115.383ZM113.559 160.392C113.559 160.984 114.039 161.464 114.631 161.464C115.239 161.464 115.719 160.984 115.719 160.392C115.719 159.784 115.239 159.304 114.631 159.304C114.039 159.304 113.559 159.784 113.559 160.392ZM119.606 166.552C119.606 165.384 120.214 164.44 121.398 164.44C122.742 164.44 123.19 165.304 123.19 166.376V171H124.694V166.12C124.694 164.408 123.782 163.08 121.942 163.08C121.046 163.08 120.134 163.448 119.574 164.408V163.304H118.102V171H119.606V166.552ZM139.598 171V169.528H132.718L139.518 161.176V159.656H131.006V161.112H137.614L130.846 169.432V171H139.598ZM144.894 169.896C143.614 169.896 142.494 168.936 142.494 167.144C142.494 165.368 143.614 164.408 144.894 164.408C146.174 164.408 147.294 165.368 147.294 167.144C147.294 168.936 146.174 169.896 144.894 169.896ZM144.894 163.064C142.59 163.064 140.958 164.808 140.958 167.144C140.958 169.496 142.59 171.24 144.894 171.24C147.198 171.24 148.83 169.496 148.83 167.144C148.83 164.808 147.198 163.064 144.894 163.064ZM152.402 171V166.36C152.402 165.208 153.122 164.408 154.194 164.408C155.346 164.408 155.826 165.176 155.826 166.168V171H157.33V166.344C157.33 165.24 158.05 164.408 159.106 164.408C160.242 164.408 160.738 165.16 160.738 166.168V171H162.226V166.008C162.226 163.992 160.914 163.08 159.57 163.08C158.594 163.08 157.602 163.432 156.994 164.536C156.578 163.544 155.65 163.08 154.69 163.08C153.794 163.08 152.834 163.48 152.354 164.328V163.304H150.914V171H152.402ZM165.768 166.36C165.832 165.368 166.6 164.392 167.864 164.392C169.224 164.392 169.944 165.256 169.976 166.36H165.768ZM170.2 168.36C169.912 169.224 169.288 169.912 168.04 169.912C166.744 169.912 165.752 168.952 165.72 167.576H171.512C171.528 167.48 171.544 167.288 171.544 167.096C171.544 164.696 170.216 163.064 167.848 163.064C165.912 163.064 164.168 164.712 164.168 167.128C164.168 169.736 165.976 171.24 168.04 171.24C169.832 171.24 171.064 170.168 171.496 168.808L170.2 168.36ZM175.128 166.552C175.128 165.384 175.736 164.44 176.92 164.44C178.264 164.44 178.712 165.304 178.712 166.376V171H180.216V166.12C180.216 164.408 179.304 163.08 177.464 163.08C176.568 163.08 175.656 163.448 175.096 164.408V163.304H173.624V171H175.128V166.552ZM184.785 160.872H183.409V162.12C183.409 162.792 183.057 163.304 182.225 163.304H181.809V164.664H183.281V168.888C183.281 170.28 184.113 171.08 185.425 171.08C185.937 171.08 186.321 170.984 186.449 170.936V169.656C186.321 169.688 186.049 169.72 185.857 169.72C185.073 169.72 184.785 169.368 184.785 168.664V164.664H186.449V163.304H184.785V160.872ZM193.688 170.072C193.688 170.392 193.72 170.824 193.752 171H195.192C195.16 170.728 195.112 170.184 195.112 169.576V163.304H193.608V167.944C193.608 169.112 193 169.912 191.784 169.912C190.52 169.912 190.04 168.984 190.04 167.928V163.304H188.536V168.152C188.536 169.896 189.624 171.24 191.416 171.24C192.312 171.24 193.272 170.872 193.688 170.072ZM199.327 171V166.36C199.327 165.208 200.047 164.408 201.119 164.408C202.271 164.408 202.751 165.176 202.751 166.168V171H204.255V166.344C204.255 165.24 204.975 164.408 206.031 164.408C207.167 164.408 207.663 165.16 207.663 166.168V171H209.151V166.008C209.151 163.992 207.839 163.08 206.495 163.08C205.519 163.08 204.527 163.432 203.919 164.536C203.503 163.544 202.575 163.08 201.615 163.08C200.719 163.08 199.759 163.48 199.279 164.328V163.304H197.839V171H199.327ZM211.558 169.976C211.558 170.6 212.038 171.08 212.662 171.08C213.286 171.08 213.782 170.6 213.782 169.976C213.782 169.352 213.286 168.856 212.662 168.856C212.038 168.856 211.558 169.352 211.558 169.976Z" fill="#000C2D"/>
<g clip-path="url(#clip1_1_1531)">
<path d="M9.10506 214.312C8.84906 213.048 7.80906 211.416 5.13706 211.416C3.02506 211.416 1.28106 212.984 1.28106 214.888C1.28106 216.584 2.43306 217.72 4.16106 218.072L5.76106 218.408C6.73706 218.616 7.28106 219.208 7.28106 219.944C7.28106 220.824 6.57706 221.512 5.21706 221.512C3.58506 221.512 2.73706 220.424 2.62506 219.24L0.833063 219.752C1.00906 221.384 2.33706 223.24 5.21706 223.24C7.80906 223.24 9.23306 221.56 9.23306 219.8C9.23306 218.2 8.16106 216.936 6.16106 216.536L4.52906 216.2C3.64906 216.008 3.20106 215.464 3.20106 214.744C3.20106 213.88 4.00106 213.112 5.15306 213.112C6.67306 213.112 7.26506 214.152 7.37706 214.856L9.10506 214.312ZM12.8603 223V215.208H11.0203V223H12.8603ZM10.7323 212.472C10.7323 213.144 11.2763 213.672 11.9323 213.672C12.6043 213.672 13.1483 213.144 13.1483 212.472C13.1483 211.8 12.6043 211.256 11.9323 211.256C11.2763 211.256 10.7323 211.8 10.7323 212.472ZM14.6947 223.432C14.9027 225 16.3427 226.28 18.4067 226.28C21.3347 226.28 22.4067 224.344 22.4067 222.264V215.208H20.6147V216.2C20.2787 215.56 19.5267 215.064 18.3107 215.064C16.1667 215.064 14.7107 216.776 14.7107 218.856C14.7107 221.048 16.2307 222.648 18.3107 222.648C19.4467 222.648 20.2307 222.12 20.5667 221.512V222.328C20.5667 223.912 19.8307 224.664 18.3587 224.664C17.2867 224.664 16.5347 223.944 16.4067 222.984L14.6947 223.432ZM18.6147 221.064C17.3987 221.064 16.5827 220.216 16.5827 218.856C16.5827 217.528 17.4307 216.664 18.6147 216.664C19.7667 216.664 20.6147 217.528 20.6147 218.856C20.6147 220.2 19.7987 221.064 18.6147 221.064ZM26.5326 218.504C26.5326 217.48 27.0926 216.664 28.1486 216.664C29.3166 216.664 29.7486 217.432 29.7486 218.392V223H31.6046V218.072C31.6046 216.36 30.6926 214.984 28.7886 214.984C27.9246 214.984 26.9966 215.352 26.4846 216.248V215.208H24.6766V223H26.5326V218.504ZM38.8267 222.136C38.8267 222.456 38.8587 222.824 38.8907 223H40.6667C40.6347 222.712 40.5867 222.216 40.5867 221.576V215.208H38.7307V219.816C38.7307 220.84 38.1707 221.56 37.0987 221.56C35.9787 221.56 35.5307 220.744 35.5307 219.784V215.208H33.6747V220.12C33.6747 221.848 34.7627 223.224 36.6187 223.224C37.5307 223.224 38.4427 222.84 38.8267 222.136ZM44.8291 226.04V222.12C45.2291 222.712 46.0771 223.192 47.1971 223.192C49.4371 223.192 50.8611 221.432 50.8611 219.096C50.8611 216.792 49.5651 215.032 47.2611 215.032C46.0611 215.032 45.1651 215.592 44.7811 216.264V215.208H42.9891V226.04H44.8291ZM49.0051 219.096C49.0051 220.584 48.1411 221.544 46.9091 221.544C45.6931 221.544 44.8131 220.584 44.8131 219.096C44.8131 217.64 45.6931 216.68 46.9091 216.68C48.1571 216.68 49.0051 217.64 49.0051 219.096ZM58.4701 218.504C58.4701 217.48 59.0301 216.664 60.0861 216.664C61.2541 216.664 61.6861 217.432 61.6861 218.392V223H63.5421V218.072C63.5421 216.36 62.6301 214.984 60.7261 214.984C59.8621 214.984 58.9341 215.352 58.4221 216.248V215.208H56.6141V223H58.4701V218.504ZM69.2256 221.576C68.0896 221.576 67.0496 220.712 67.0496 219.096C67.0496 217.48 68.0896 216.648 69.2256 216.648C70.3776 216.648 71.4016 217.48 71.4016 219.096C71.4016 220.728 70.3776 221.576 69.2256 221.576ZM69.2256 214.968C66.9056 214.968 65.1936 216.712 65.1936 219.096C65.1936 221.496 66.9056 223.24 69.2256 223.24C71.5616 223.24 73.2736 221.496 73.2736 219.096C73.2736 216.712 71.5616 214.968 69.2256 214.968ZM79.2957 215.208L77.4557 220.6L75.8717 215.208H73.8877L76.4157 223H78.3197L80.2077 217.4L82.1437 223H83.9997L86.4957 215.208H84.6077L83.0557 220.6L81.2157 215.208H79.2957Z" fill="#2F70FE"/>
<g clip-path="url(#clip2_1_1531)">
<path d="M109.5 226.5C109.372 226.5 109.244 226.451 109.146 226.354C108.951 226.159 108.951 225.842 109.146 225.647L117.793 217L109.147 208.354C108.952 208.159 108.952 207.842 109.147 207.647C109.342 207.452 109.659 207.452 109.854 207.647L118.854 216.647C119.049 216.842 119.049 217.159 118.854 217.354L109.854 226.354C109.756 226.451 109.628 226.5 109.5 226.5Z" fill="#2F70FE"/>
<path d="M118.5 217.5H95.5C95.224 217.5 95 217.276 95 217C95 216.724 95.224 216.5 95.5 216.5H118.5C118.776 216.5 119 216.724 119 217C119 217.276 118.776 217.5 118.5 217.5Z" fill="#2F70FE"/>
</g>
</g>
</g>
<defs>
<clipPath id="clip0_1_1531">
<rect width="410" height="231" fill="white"/>
</clipPath>
<clipPath id="clip1_1_1531">
<rect width="119" height="28" fill="white" transform="translate(0 203)"/>
</clipPath>
<clipPath id="clip2_1_1531">
<rect width="24" height="24" fill="white" transform="translate(95 205)"/>
</clipPath>
</defs>
</svg>
