<svg width="410" height="231" viewBox="0 0 410 231" fill="none" xmlns="http://www.w3.org/2000/svg">
<g clip-path="url(#clip0_1_1525)">
<path d="M2.268 9.148V29H9.94C13.664 29 16.072 26.676 16.072 23.456C16.072 20.992 14.504 19.228 12.572 18.752C14.224 18.192 15.456 16.54 15.456 14.496C15.456 11.416 13.272 9.148 9.408 9.148H2.268ZM6.076 17.352V12.396H8.792C10.668 12.396 11.648 13.348 11.648 14.86C11.648 16.372 10.584 17.352 8.82 17.352H6.076ZM6.076 25.78V20.544H9.268C11.2 20.544 12.208 21.636 12.208 23.204C12.208 24.8 11.088 25.78 9.212 25.78H6.076ZM21.9306 20.544C22.0146 19.284 23.0786 17.828 25.0106 17.828C27.1386 17.828 28.0346 19.172 28.0906 20.544H21.9306ZM28.4546 24.128C28.0066 25.36 27.0546 26.228 25.3186 26.228C23.4706 26.228 21.9306 24.912 21.8466 23.092H31.7026C31.7026 23.036 31.7586 22.476 31.7586 21.944C31.7586 17.52 29.2106 14.804 24.9546 14.804C21.4266 14.804 18.1786 17.66 18.1786 22.056C18.1786 26.704 21.5106 29.42 25.2906 29.42C28.6786 29.42 30.8626 27.432 31.5626 25.052L28.4546 24.128ZM40.8791 18.248C42.7271 18.248 43.5951 19.424 43.9311 20.572L47.2631 19.452C46.6751 17.128 44.5471 14.804 40.7951 14.804C36.7911 14.804 33.6551 17.856 33.6551 22.112C33.6551 26.34 36.8471 29.42 40.9071 29.42C44.5751 29.42 46.7311 27.068 47.3471 24.772L44.0711 23.68C43.7631 24.744 42.8111 26.004 40.9071 26.004C39.0031 26.004 37.3791 24.604 37.3791 22.112C37.3791 19.62 38.9751 18.248 40.8791 18.248ZM56.1369 26.032C54.3169 26.032 52.6369 24.688 52.6369 22.112C52.6369 19.508 54.3169 18.192 56.1369 18.192C57.9569 18.192 59.6369 19.508 59.6369 22.112C59.6369 24.716 57.9569 26.032 56.1369 26.032ZM56.1369 14.804C52.0209 14.804 48.9129 17.856 48.9129 22.112C48.9129 26.34 52.0209 29.42 56.1369 29.42C60.2529 29.42 63.3609 26.34 63.3609 22.112C63.3609 17.856 60.2529 14.804 56.1369 14.804ZM70.0245 29V20.936C70.0245 19.424 70.9765 18.22 72.6005 18.22C74.2805 18.22 75.0365 19.34 75.0365 20.824V29H78.7325V20.936C78.7325 19.452 79.6845 18.22 81.2805 18.22C82.9885 18.22 83.7165 19.34 83.7165 20.824V29H87.3285V20.068C87.3285 16.372 84.8925 14.832 82.3445 14.832C80.5245 14.832 79.0685 15.448 77.9765 17.128C77.2765 15.644 75.7645 14.832 73.8885 14.832C72.3765 14.832 70.6125 15.56 69.8565 16.904V15.224H66.3005V29H70.0245ZM93.8173 20.544C93.9013 19.284 94.9653 17.828 96.8973 17.828C99.0253 17.828 99.9213 19.172 99.9773 20.544H93.8173ZM100.341 24.128C99.8933 25.36 98.9413 26.228 97.2053 26.228C95.3573 26.228 93.8173 24.912 93.7333 23.092H103.589C103.589 23.036 103.645 22.476 103.645 21.944C103.645 17.52 101.097 14.804 96.8413 14.804C93.3133 14.804 90.0653 17.66 90.0653 22.056C90.0653 26.704 93.3973 29.42 97.1773 29.42C100.565 29.42 102.749 27.432 103.449 25.052L100.341 24.128ZM118.088 11.108H114.728V13.04C114.728 14.272 114.056 15.224 112.6 15.224H111.9V18.528H114.392V24.94C114.392 27.6 116.072 29.196 118.76 29.196C119.852 29.196 120.524 29 120.86 28.86V25.78C120.664 25.836 120.16 25.892 119.712 25.892C118.648 25.892 118.088 25.5 118.088 24.296V18.528H120.86V15.224H118.088V11.108ZM127.064 20.908C127.148 19.396 128.072 18.22 129.64 18.22C131.432 18.22 132.188 19.424 132.188 20.964V29H135.912V20.32C135.912 17.296 134.288 14.86 130.788 14.86C129.472 14.86 127.96 15.308 127.064 16.372V8.728H123.34V29H127.064V20.908ZM142.407 20.544C142.491 19.284 143.555 17.828 145.487 17.828C147.615 17.828 148.511 19.172 148.567 20.544H142.407ZM148.931 24.128C148.483 25.36 147.531 26.228 145.795 26.228C143.947 26.228 142.407 24.912 142.323 23.092H152.179C152.179 23.036 152.235 22.476 152.235 21.944C152.235 17.52 149.687 14.804 145.431 14.804C141.903 14.804 138.655 17.66 138.655 22.056C138.655 26.704 141.987 29.42 145.767 29.42C149.155 29.42 151.339 27.432 152.039 25.052L148.931 24.128ZM175.078 15.224H171.158L167.882 24.464L164.466 15.224H160.378L166.006 29H169.73L175.078 15.224ZM179.649 20.544C179.733 19.284 180.797 17.828 182.729 17.828C184.857 17.828 185.753 19.172 185.809 20.544H179.649ZM186.173 24.128C185.725 25.36 184.773 26.228 183.037 26.228C181.189 26.228 179.649 24.912 179.565 23.092H189.421C189.421 23.036 189.477 22.476 189.477 21.944C189.477 17.52 186.929 14.804 182.673 14.804C179.145 14.804 175.897 17.66 175.897 22.056C175.897 26.704 179.229 29.42 183.009 29.42C186.397 29.42 188.581 27.432 189.281 25.052L186.173 24.128ZM196.134 21.076C196.134 19.48 197.086 18.22 198.71 18.22C200.502 18.22 201.258 19.424 201.258 20.964V29H204.982V20.32C204.982 17.296 203.414 14.86 199.998 14.86C198.514 14.86 196.862 15.504 196.022 16.932V15.224H192.41V29H196.134V21.076ZM221.893 8.728H218.225V16.596C217.833 15.868 216.713 14.888 214.333 14.888C210.441 14.888 207.725 18.052 207.725 22.084C207.725 26.256 210.525 29.336 214.445 29.336C216.293 29.336 217.693 28.496 218.309 27.404C218.309 28.048 218.393 28.72 218.449 29H222.005C221.949 28.44 221.893 27.432 221.893 26.508V8.728ZM211.477 22.084C211.477 19.62 212.989 18.22 214.893 18.22C216.797 18.22 218.281 19.592 218.281 22.056C218.281 24.548 216.797 26.004 214.893 26.004C212.933 26.004 211.477 24.548 211.477 22.084ZM232.121 26.032C230.301 26.032 228.621 24.688 228.621 22.112C228.621 19.508 230.301 18.192 232.121 18.192C233.941 18.192 235.621 19.508 235.621 22.112C235.621 24.716 233.941 26.032 232.121 26.032ZM232.121 14.804C228.005 14.804 224.897 17.856 224.897 22.112C224.897 26.34 228.005 29.42 232.121 29.42C236.237 29.42 239.345 26.34 239.345 22.112C239.345 17.856 236.237 14.804 232.121 14.804ZM250.685 15.168C250.405 15.14 250.125 15.112 249.817 15.112C248.641 15.112 246.737 15.448 245.897 17.268V15.224H242.285V29H246.009V22.7C246.009 19.732 247.661 18.808 249.565 18.808C249.901 18.808 250.265 18.836 250.685 18.92V15.168ZM4.704 57.544C4.788 56.284 5.852 54.828 7.784 54.828C9.912 54.828 10.808 56.172 10.864 57.544H4.704ZM11.228 61.128C10.78 62.36 9.828 63.228 8.092 63.228C6.244 63.228 4.704 61.912 4.62 60.092H14.476C14.476 60.036 14.532 59.476 14.532 58.944C14.532 54.52 11.984 51.804 7.728 51.804C4.2 51.804 0.952 54.66 0.952 59.056C0.952 63.704 4.284 66.42 8.064 66.42C11.452 66.42 13.636 64.432 14.336 62.052L11.228 61.128ZM30.1831 52.224H26.2631L22.9871 61.464L19.5711 52.224H15.4831L21.1111 66H24.8351L30.1831 52.224ZM34.7548 57.544C34.8388 56.284 35.9028 54.828 37.8348 54.828C39.9628 54.828 40.8588 56.172 40.9148 57.544H34.7548ZM41.2788 61.128C40.8308 62.36 39.8788 63.228 38.1428 63.228C36.2948 63.228 34.7548 61.912 34.6708 60.092H44.5268C44.5268 60.036 44.5828 59.476 44.5828 58.944C44.5828 54.52 42.0348 51.804 37.7788 51.804C34.2508 51.804 31.0028 54.66 31.0028 59.056C31.0028 63.704 34.3348 66.42 38.1148 66.42C41.5028 66.42 43.6868 64.432 44.3868 62.052L41.2788 61.128ZM55.9153 52.168C55.6353 52.14 55.3553 52.112 55.0473 52.112C53.8713 52.112 51.9673 52.448 51.1273 54.268V52.224H47.5153V66H51.2393V59.7C51.2393 56.732 52.8913 55.808 54.7953 55.808C55.1313 55.808 55.4953 55.836 55.9153 55.92V52.168ZM63.8964 71.432L72.5484 52.224H68.5724L65.1844 60.288L61.5164 52.224H57.3444L63.1964 64.264L59.9484 71.432H63.8964ZM80.3362 63.032C78.5162 63.032 76.8362 61.688 76.8362 59.112C76.8362 56.508 78.5162 55.192 80.3362 55.192C82.1562 55.192 83.8362 56.508 83.8362 59.112C83.8362 61.716 82.1562 63.032 80.3362 63.032ZM80.3362 51.804C76.2202 51.804 73.1122 54.856 73.1122 59.112C73.1122 63.34 76.2202 66.42 80.3362 66.42C84.4522 66.42 87.5602 63.34 87.5602 59.112C87.5602 54.856 84.4522 51.804 80.3362 51.804ZM94.2237 58.076C94.2237 56.48 95.1757 55.22 96.7997 55.22C98.5917 55.22 99.3477 56.424 99.3477 57.964V66H103.072V57.32C103.072 54.296 101.504 51.86 98.0877 51.86C96.6037 51.86 94.9517 52.504 94.1117 53.932V52.224H90.4997V66H94.2237V58.076ZM109.567 57.544C109.651 56.284 110.715 54.828 112.647 54.828C114.775 54.828 115.671 56.172 115.727 57.544H109.567ZM116.091 61.128C115.643 62.36 114.691 63.228 112.955 63.228C111.107 63.228 109.567 61.912 109.483 60.092H119.339C119.339 60.036 119.395 59.476 119.395 58.944C119.395 54.52 116.847 51.804 112.591 51.804C109.063 51.804 105.815 54.66 105.815 59.056C105.815 63.704 109.147 66.42 112.927 66.42C116.315 66.42 118.499 64.432 119.199 62.052L116.091 61.128ZM137.058 52.224L134.062 61.072L131.514 52.224H127.594L131.99 66H135.77L138.934 56.592L142.154 66H145.878L150.19 52.224H146.494L143.946 61.1L140.978 52.224H137.058ZM151.621 62.248C151.621 64.404 153.413 66.392 156.353 66.392C158.397 66.392 159.713 65.44 160.413 64.348C160.413 64.88 160.469 65.636 160.553 66H163.969C163.885 65.524 163.801 64.544 163.801 63.816V57.04C163.801 54.268 162.177 51.804 157.809 51.804C154.113 51.804 152.125 54.184 151.901 56.34L155.205 57.04C155.317 55.836 156.213 54.8 157.837 54.8C159.405 54.8 160.161 55.612 160.161 56.592C160.161 57.068 159.909 57.46 159.125 57.572L155.737 58.076C153.441 58.412 151.621 59.784 151.621 62.248ZM157.137 63.62C155.933 63.62 155.345 62.836 155.345 62.024C155.345 60.96 156.101 60.428 157.053 60.288L160.161 59.812V60.428C160.161 62.864 158.705 63.62 157.137 63.62ZM171.278 58.076C171.278 56.48 172.23 55.22 173.854 55.22C175.646 55.22 176.402 56.424 176.402 57.964V66H180.126V57.32C180.126 54.296 178.558 51.86 175.142 51.86C173.658 51.86 172.006 52.504 171.166 53.932V52.224H167.554V66H171.278V58.076ZM188.498 48.108H185.138V50.04C185.138 51.272 184.466 52.224 183.01 52.224H182.31V55.528H184.802V61.94C184.802 64.6 186.482 66.196 189.17 66.196C190.262 66.196 190.934 66 191.27 65.86V62.78C191.074 62.836 190.57 62.892 190.122 62.892C189.058 62.892 188.498 62.5 188.498 61.296V55.528H191.27V52.224H188.498V48.108ZM193.558 62.164C193.726 63.732 195.154 66.42 199.298 66.42C202.91 66.42 204.646 64.124 204.646 61.884C204.646 59.868 203.274 58.216 200.558 57.656L198.598 57.236C197.842 57.096 197.338 56.676 197.338 56.004C197.338 55.22 198.122 54.632 199.102 54.632C200.67 54.632 201.258 55.668 201.37 56.48L204.478 55.78C204.31 54.296 202.994 51.804 199.074 51.804C196.106 51.804 193.922 53.848 193.922 56.312C193.922 58.244 195.126 59.84 197.786 60.428L199.606 60.848C200.67 61.072 201.09 61.576 201.09 62.192C201.09 62.92 200.502 63.564 199.27 63.564C197.646 63.564 196.834 62.556 196.75 61.464L193.558 62.164ZM219.15 48.108H215.79V50.04C215.79 51.272 215.118 52.224 213.662 52.224H212.962V55.528H215.454V61.94C215.454 64.6 217.134 66.196 219.822 66.196C220.914 66.196 221.586 66 221.922 65.86V62.78C221.726 62.836 221.222 62.892 220.774 62.892C219.71 62.892 219.15 62.5 219.15 61.296V55.528H221.922V52.224H219.15V48.108ZM231.137 63.032C229.317 63.032 227.637 61.688 227.637 59.112C227.637 56.508 229.317 55.192 231.137 55.192C232.957 55.192 234.637 56.508 234.637 59.112C234.637 61.716 232.957 63.032 231.137 63.032ZM231.137 51.804C227.021 51.804 223.913 54.856 223.913 59.112C223.913 63.34 227.021 66.42 231.137 66.42C235.253 66.42 238.361 63.34 238.361 59.112C238.361 54.856 235.253 51.804 231.137 51.804ZM251.83 66V64.32C252.558 65.496 254.014 66.336 255.918 66.336C259.838 66.336 262.414 63.228 262.414 59.056C262.414 54.968 260.09 51.86 256.058 51.86C254.014 51.86 252.502 52.756 251.886 53.736V45.728H248.218V66H251.83ZM258.69 59.084C258.69 61.604 257.178 63.004 255.274 63.004C253.398 63.004 251.83 61.576 251.83 59.084C251.83 56.564 253.398 55.192 255.274 55.192C257.178 55.192 258.69 56.564 258.69 59.084ZM274.324 66H277.88C277.824 65.524 277.74 64.572 277.74 63.508V52.224H274.016V60.232C274.016 61.828 273.064 62.948 271.412 62.948C269.676 62.948 268.892 61.716 268.892 60.176V52.224H265.168V60.932C265.168 63.928 267.072 66.364 270.404 66.364C271.86 66.364 273.456 65.804 274.212 64.516C274.212 65.076 274.268 65.72 274.324 66ZM286.475 71.432L295.127 52.224H291.151L287.763 60.288L284.095 52.224H279.923L285.775 64.264L282.527 71.432H286.475ZM310.685 48.808C311.301 48.808 311.665 48.892 311.861 48.948V45.812C311.553 45.672 310.797 45.532 310.013 45.532C306.961 45.532 305.001 47.548 305.001 50.656V52.224H302.705V55.416H305.001V66H308.753V55.416H311.861V52.224H308.753V50.712C308.753 49.172 309.845 48.808 310.685 48.808ZM322.681 52.168C322.401 52.14 322.121 52.112 321.813 52.112C320.637 52.112 318.733 52.448 317.893 54.268V52.224H314.281V66H318.005V59.7C318.005 56.732 319.657 55.808 321.561 55.808C321.897 55.808 322.261 55.836 322.681 55.92V52.168ZM331.352 63.032C329.532 63.032 327.852 61.688 327.852 59.112C327.852 56.508 329.532 55.192 331.352 55.192C333.172 55.192 334.852 56.508 334.852 59.112C334.852 61.716 333.172 63.032 331.352 63.032ZM331.352 51.804C327.236 51.804 324.128 54.856 324.128 59.112C324.128 63.34 327.236 66.42 331.352 66.42C335.468 66.42 338.576 63.34 338.576 59.112C338.576 54.856 335.468 51.804 331.352 51.804ZM345.239 66V57.936C345.239 56.424 346.191 55.22 347.815 55.22C349.495 55.22 350.251 56.34 350.251 57.824V66H353.947V57.936C353.947 56.452 354.899 55.22 356.495 55.22C358.203 55.22 358.931 56.34 358.931 57.824V66H362.543V57.068C362.543 53.372 360.107 51.832 357.559 51.832C355.739 51.832 354.283 52.448 353.191 54.128C352.491 52.644 350.979 51.832 349.103 51.832C347.591 51.832 345.827 52.56 345.071 53.904V52.224H341.515V66H345.239Z" fill="#181818"/>
<path d="M11.264 117V111.448H5.84V112.856H9.776C9.712 114.024 8.8 115.816 6.272 115.816C4.24 115.816 2.32 114.328 2.32 111.32C2.32 108.312 4.304 106.856 6.336 106.856C8.096 106.856 9.424 107.816 9.936 109.448L11.36 108.84C10.704 106.792 8.8 105.416 6.336 105.416C3.536 105.416 0.72 107.48 0.72 111.32C0.72 115.16 3.376 117.24 6.224 117.24C8.128 117.24 9.36 116.296 9.856 115.4L10 117H11.264ZM13.1944 114.936C13.1944 116.152 14.2024 117.24 15.7704 117.24C17.1464 117.24 17.9144 116.504 18.2504 115.96C18.2504 116.52 18.2984 116.808 18.3304 117H19.8024C19.7704 116.808 19.7064 116.408 19.7064 115.736V111.88C19.7064 110.376 18.8104 109.064 16.5064 109.064C14.8424 109.064 13.5144 110.088 13.3544 111.56L14.7944 111.896C14.8904 111 15.4824 110.344 16.5384 110.344C17.7064 110.344 18.2024 110.968 18.2024 111.72C18.2024 111.992 18.0744 112.232 17.6104 112.296L15.5304 112.6C14.2024 112.792 13.1944 113.56 13.1944 114.936ZM15.9784 115.976C15.2104 115.976 14.7304 115.432 14.7304 114.856C14.7304 114.168 15.2104 113.8 15.8504 113.704L18.2024 113.352V113.704C18.2024 115.384 17.2104 115.976 15.9784 115.976ZM23.6974 117V109.304H22.2094V117H23.6974ZM21.8734 106.392C21.8734 106.984 22.3534 107.464 22.9454 107.464C23.5534 107.464 24.0334 106.984 24.0334 106.392C24.0334 105.784 23.5534 105.304 22.9454 105.304C22.3534 105.304 21.8734 105.784 21.8734 106.392ZM27.9202 112.552C27.9202 111.384 28.5282 110.44 29.7122 110.44C31.0562 110.44 31.5043 111.304 31.5043 112.376V117H33.0082V112.12C33.0082 110.408 32.0963 109.08 30.2562 109.08C29.3602 109.08 28.4482 109.448 27.8882 110.408V109.304H26.4162V117H27.9202V112.552ZM41.2086 117V115.88C41.6886 116.712 42.5686 117.208 43.7046 117.208C45.9926 117.208 47.2886 115.4 47.2886 113.112C47.2886 110.872 46.0886 109.08 43.7526 109.08C42.4726 109.08 41.5766 109.704 41.2086 110.392V105.416H39.7206V117H41.2086ZM45.7526 113.112C45.7526 114.776 44.8566 115.864 43.4806 115.864C42.1526 115.864 41.1926 114.776 41.1926 113.112C41.1926 111.448 42.1526 110.408 43.4806 110.408C44.8726 110.408 45.7526 111.448 45.7526 113.112ZM53.637 109.224C53.557 109.208 53.349 109.176 53.141 109.176C52.357 109.176 51.397 109.464 50.837 110.648V109.304H49.365V117H50.869V113.144C50.869 111.448 51.717 110.776 52.981 110.776C53.189 110.776 53.413 110.792 53.637 110.824V109.224ZM54.92 114.936C54.92 116.152 55.928 117.24 57.496 117.24C58.872 117.24 59.64 116.504 59.976 115.96C59.976 116.52 60.024 116.808 60.056 117H61.528C61.496 116.808 61.432 116.408 61.432 115.736V111.88C61.432 110.376 60.536 109.064 58.232 109.064C56.568 109.064 55.24 110.088 55.08 111.56L56.52 111.896C56.616 111 57.208 110.344 58.264 110.344C59.432 110.344 59.928 110.968 59.928 111.72C59.928 111.992 59.8 112.232 59.336 112.296L57.256 112.6C55.928 112.792 54.92 113.56 54.92 114.936ZM57.704 115.976C56.936 115.976 56.456 115.432 56.456 114.856C56.456 114.168 56.936 113.8 57.576 113.704L59.928 113.352V113.704C59.928 115.384 58.936 115.976 57.704 115.976ZM65.439 112.552C65.439 111.384 66.047 110.44 67.231 110.44C68.575 110.44 69.023 111.304 69.023 112.376V117H70.527V112.12C70.527 110.408 69.615 109.08 67.775 109.08C66.879 109.08 65.967 109.448 65.407 110.408V109.304H63.935V117H65.439V112.552ZM73.9754 113.128C73.9754 111.544 74.8714 110.424 76.2474 110.424C77.6234 110.424 78.4554 111.512 78.4554 113.096C78.4554 114.68 77.6074 115.88 76.2314 115.88C74.7914 115.88 73.9754 114.712 73.9754 113.128ZM78.4714 115.96C78.4714 116.424 78.5194 116.824 78.5514 117H80.0074C79.9914 116.872 79.9274 116.312 79.9274 115.576V105.416H78.4394V110.392C78.1834 109.768 77.4474 109.096 76.0874 109.096C73.9114 109.096 72.4394 110.952 72.4394 113.128C72.4394 115.416 73.8314 117.208 76.0874 117.208C77.2874 117.208 78.1034 116.568 78.4714 115.832V115.96ZM86.3256 114.936C86.3256 116.152 87.3336 117.24 88.9016 117.24C90.2776 117.24 91.0456 116.504 91.3816 115.96C91.3816 116.52 91.4296 116.808 91.4616 117H92.9336C92.9016 116.808 92.8376 116.408 92.8376 115.736V111.88C92.8376 110.376 91.9416 109.064 89.6376 109.064C87.9736 109.064 86.6456 110.088 86.4856 111.56L87.9256 111.896C88.0216 111 88.6136 110.344 89.6696 110.344C90.8376 110.344 91.3336 110.968 91.3336 111.72C91.3336 111.992 91.2056 112.232 90.7416 112.296L88.6616 112.6C87.3336 112.792 86.3256 113.56 86.3256 114.936ZM89.1096 115.976C88.3416 115.976 87.8616 115.432 87.8616 114.856C87.8616 114.168 88.3416 113.8 88.9816 113.704L91.3336 113.352V113.704C91.3336 115.384 90.3416 115.976 89.1096 115.976ZM100.256 116.072C100.256 116.392 100.288 116.824 100.32 117H101.76C101.728 116.728 101.68 116.184 101.68 115.576V109.304H100.176V113.944C100.176 115.112 99.5684 115.912 98.3524 115.912C97.0884 115.912 96.6084 114.984 96.6084 113.928V109.304H95.1044V114.152C95.1044 115.896 96.1924 117.24 97.9844 117.24C98.8804 117.24 99.8404 116.872 100.256 116.072ZM106.423 106.872H105.047V108.12C105.047 108.792 104.695 109.304 103.863 109.304H103.447V110.664H104.919V114.888C104.919 116.28 105.751 117.08 107.063 117.08C107.575 117.08 107.959 116.984 108.087 116.936V115.656C107.959 115.688 107.687 115.72 107.495 115.72C106.711 115.72 106.423 115.368 106.423 114.664V110.664H108.087V109.304H106.423V106.872ZM111.758 112.472C111.79 111.336 112.398 110.44 113.55 110.44C114.894 110.44 115.342 111.304 115.342 112.376V117H116.846V112.12C116.846 110.408 115.934 109.08 114.094 109.08C113.214 109.08 112.318 109.384 111.758 110.2V105.416H110.254V117H111.758V112.472ZM122.695 115.896C121.415 115.896 120.295 114.936 120.295 113.144C120.295 111.368 121.415 110.408 122.695 110.408C123.975 110.408 125.095 111.368 125.095 113.144C125.095 114.936 123.975 115.896 122.695 115.896ZM122.695 109.064C120.391 109.064 118.759 110.808 118.759 113.144C118.759 115.496 120.391 117.24 122.695 117.24C124.999 117.24 126.631 115.496 126.631 113.144C126.631 110.808 124.999 109.064 122.695 109.064ZM132.987 109.224C132.907 109.208 132.699 109.176 132.491 109.176C131.707 109.176 130.747 109.464 130.187 110.648V109.304H128.715V117H130.219V113.144C130.219 111.448 131.067 110.776 132.331 110.776C132.539 110.776 132.763 110.792 132.987 110.824V109.224ZM136.238 117V109.304H134.75V117H136.238ZM134.414 106.392C134.414 106.984 134.894 107.464 135.486 107.464C136.094 107.464 136.574 106.984 136.574 106.392C136.574 105.784 136.094 105.304 135.486 105.304C134.894 105.304 134.414 105.784 134.414 106.392ZM140.973 106.872H139.597V108.12C139.597 108.792 139.245 109.304 138.413 109.304H137.997V110.664H139.469V114.888C139.469 116.28 140.301 117.08 141.613 117.08C142.125 117.08 142.509 116.984 142.637 116.936V115.656C142.509 115.688 142.237 115.72 142.045 115.72C141.261 115.72 140.973 115.368 140.973 114.664V110.664H142.637V109.304H140.973V106.872ZM146.802 120.216L151.81 109.304H150.194L147.89 114.616L145.49 109.304H143.762L147.074 116.152L145.154 120.216H146.802ZM157.098 114.936C157.098 116.152 158.106 117.24 159.674 117.24C161.05 117.24 161.818 116.504 162.154 115.96C162.154 116.52 162.202 116.808 162.234 117H163.706C163.674 116.808 163.61 116.408 163.61 115.736V111.88C163.61 110.376 162.714 109.064 160.41 109.064C158.746 109.064 157.418 110.088 157.258 111.56L158.698 111.896C158.794 111 159.386 110.344 160.442 110.344C161.61 110.344 162.106 110.968 162.106 111.72C162.106 111.992 161.978 112.232 161.514 112.296L159.434 112.6C158.106 112.792 157.098 113.56 157.098 114.936ZM159.882 115.976C159.114 115.976 158.634 115.432 158.634 114.856C158.634 114.168 159.114 113.8 159.754 113.704L162.106 113.352V113.704C162.106 115.384 161.114 115.976 159.882 115.976ZM167.617 112.552C167.617 111.384 168.225 110.44 169.409 110.44C170.753 110.44 171.201 111.304 171.201 112.376V117H172.705V112.12C172.705 110.408 171.793 109.08 169.953 109.08C169.057 109.08 168.145 109.448 167.585 110.408V109.304H166.113V117H167.617V112.552ZM176.153 113.128C176.153 111.544 177.049 110.424 178.425 110.424C179.801 110.424 180.633 111.512 180.633 113.096C180.633 114.68 179.785 115.88 178.409 115.88C176.969 115.88 176.153 114.712 176.153 113.128ZM180.649 115.96C180.649 116.424 180.697 116.824 180.729 117H182.185C182.169 116.872 182.105 116.312 182.105 115.576V105.416H180.617V110.392C180.361 109.768 179.625 109.096 178.265 109.096C176.089 109.096 174.617 110.952 174.617 113.128C174.617 115.416 176.009 117.208 178.265 117.208C179.465 117.208 180.281 116.568 180.649 115.832V115.96ZM195.575 109.304H193.959L191.751 115.24L189.559 109.304H187.863L190.983 117H192.503L195.575 109.304ZM198.662 117V109.304H197.174V117H198.662ZM196.838 106.392C196.838 106.984 197.318 107.464 197.91 107.464C198.518 107.464 198.998 106.984 198.998 106.392C198.998 105.784 198.518 105.304 197.91 105.304C197.318 105.304 196.838 105.784 196.838 106.392ZM200.661 115C200.789 115.88 201.685 117.24 203.797 117.24C205.701 117.24 206.613 115.944 206.613 114.856C206.613 113.72 205.877 112.872 204.485 112.568L203.237 112.296C202.645 112.168 202.357 111.832 202.357 111.368C202.357 110.84 202.869 110.344 203.637 110.344C204.853 110.344 205.173 111.224 205.237 111.624L206.565 111.128C206.405 110.44 205.749 109.064 203.637 109.064C202.133 109.064 200.901 110.184 200.901 111.496C200.901 112.584 201.621 113.4 202.821 113.656L204.133 113.944C204.773 114.088 205.125 114.456 205.125 114.936C205.125 115.48 204.661 115.96 203.813 115.96C202.725 115.96 202.117 115.32 202.021 114.52L200.661 115ZM210.264 117V109.304H208.776V117H210.264ZM208.44 106.392C208.44 106.984 208.92 107.464 209.512 107.464C210.12 107.464 210.6 106.984 210.6 106.392C210.6 105.784 210.12 105.304 209.512 105.304C208.92 105.304 208.44 105.784 208.44 106.392ZM214.47 117V115.88C214.95 116.712 215.83 117.208 216.966 117.208C219.254 117.208 220.55 115.4 220.55 113.112C220.55 110.872 219.35 109.08 217.014 109.08C215.734 109.08 214.838 109.704 214.47 110.392V105.416H212.982V117H214.47ZM219.014 113.112C219.014 114.776 218.118 115.864 216.742 115.864C215.414 115.864 214.454 114.776 214.454 113.112C214.454 111.448 215.414 110.408 216.742 110.408C218.134 110.408 219.014 111.448 219.014 113.112ZM224.115 117V109.304H222.627V117H224.115ZM222.291 106.392C222.291 106.984 222.771 107.464 223.363 107.464C223.971 107.464 224.451 106.984 224.451 106.392C224.451 105.784 223.971 105.304 223.363 105.304C222.771 105.304 222.291 105.784 222.291 106.392ZM228.338 117V105.416H226.834V117H228.338ZM232.544 117V109.304H231.056V117H232.544ZM230.72 106.392C230.72 106.984 231.2 107.464 231.792 107.464C232.4 107.464 232.88 106.984 232.88 106.392C232.88 105.784 232.4 105.304 231.792 105.304C231.2 105.304 230.72 105.784 230.72 106.392ZM237.279 106.872H235.903V108.12C235.903 108.792 235.551 109.304 234.719 109.304H234.303V110.664H235.775V114.888C235.775 116.28 236.607 117.08 237.919 117.08C238.431 117.08 238.815 116.984 238.943 116.936V115.656C238.815 115.688 238.543 115.72 238.351 115.72C237.567 115.72 237.279 115.368 237.279 114.664V110.664H238.943V109.304H237.279V106.872ZM243.109 120.216L248.117 109.304H246.501L244.197 114.616L241.797 109.304H240.069L243.381 116.152L241.461 120.216H243.109ZM258.22 109.304L256.22 115.096L254.492 109.304H252.844L255.372 117H256.956L258.956 111.144L261.004 117H262.556L265.052 109.304H263.468L261.772 115.096L259.772 109.304H258.22ZM268.219 117V109.304H266.731V117H268.219ZM266.395 106.392C266.395 106.984 266.875 107.464 267.467 107.464C268.075 107.464 268.555 106.984 268.555 106.392C268.555 105.784 268.075 105.304 267.467 105.304C266.875 105.304 266.395 105.784 266.395 106.392ZM272.954 106.872H271.578V108.12C271.578 108.792 271.226 109.304 270.394 109.304H269.978V110.664H271.45V114.888C271.45 116.28 272.282 117.08 273.594 117.08C274.106 117.08 274.49 116.984 274.618 116.936V115.656C274.49 115.688 274.218 115.72 274.026 115.72C273.242 115.72 272.954 115.368 272.954 114.664V110.664H274.618V109.304H272.954V106.872ZM278.29 112.472C278.322 111.336 278.93 110.44 280.082 110.44C281.426 110.44 281.874 111.304 281.874 112.376V117H283.378V112.12C283.378 110.408 282.466 109.08 280.626 109.08C279.746 109.08 278.85 109.384 278.29 110.2V105.416H276.786V117H278.29V112.472ZM292.106 106.872H290.73V108.12C290.73 108.792 290.378 109.304 289.546 109.304H289.13V110.664H290.602V114.888C290.602 116.28 291.434 117.08 292.746 117.08C293.258 117.08 293.642 116.984 293.77 116.936V115.656C293.642 115.688 293.37 115.72 293.178 115.72C292.394 115.72 292.106 115.368 292.106 114.664V110.664H293.77V109.304H292.106V106.872ZM297.442 112.472C297.474 111.336 298.082 110.44 299.234 110.44C300.578 110.44 301.026 111.304 301.026 112.376V117H302.53V112.12C302.53 110.408 301.618 109.08 299.778 109.08C298.898 109.08 298.002 109.384 297.442 110.2V105.416H295.938V117H297.442V112.472ZM306.058 112.36C306.122 111.368 306.89 110.392 308.154 110.392C309.514 110.392 310.234 111.256 310.266 112.36H306.058ZM310.49 114.36C310.202 115.224 309.578 115.912 308.33 115.912C307.034 115.912 306.042 114.952 306.01 113.576H311.802C311.818 113.48 311.834 113.288 311.834 113.096C311.834 110.696 310.506 109.064 308.138 109.064C306.202 109.064 304.458 110.712 304.458 113.128C304.458 115.736 306.266 117.24 308.33 117.24C310.122 117.24 311.354 116.168 311.786 114.808L310.49 114.36ZM319.578 112.472C319.61 111.336 320.218 110.44 321.37 110.44C322.714 110.44 323.162 111.304 323.162 112.376V117H324.666V112.12C324.666 110.408 323.754 109.08 321.914 109.08C321.034 109.08 320.138 109.384 319.578 110.2V105.416H318.074V117H319.578V112.472ZM328.194 112.36C328.258 111.368 329.026 110.392 330.29 110.392C331.65 110.392 332.37 111.256 332.402 112.36H328.194ZM332.626 114.36C332.338 115.224 331.714 115.912 330.466 115.912C329.17 115.912 328.178 114.952 328.146 113.576H333.938C333.954 113.48 333.97 113.288 333.97 113.096C333.97 110.696 332.642 109.064 330.274 109.064C328.338 109.064 326.594 110.712 326.594 113.128C326.594 115.736 328.402 117.24 330.466 117.24C332.258 117.24 333.49 116.168 333.922 114.808L332.626 114.36ZM337.554 117V105.416H336.05V117H337.554ZM341.76 120.04V115.96C342.176 116.648 343.072 117.208 344.256 117.208C346.512 117.208 347.84 115.432 347.84 113.144C347.84 110.904 346.608 109.128 344.304 109.128C343.056 109.128 342.144 109.736 341.728 110.504V109.304H340.272V120.04H341.76ZM346.304 113.144C346.304 114.728 345.424 115.864 344.032 115.864C342.656 115.864 341.744 114.728 341.744 113.144C341.744 111.608 342.656 110.456 344.032 110.456C345.44 110.456 346.304 111.608 346.304 113.144ZM357.373 115.896C356.093 115.896 354.973 114.936 354.973 113.144C354.973 111.368 356.093 110.408 357.373 110.408C358.653 110.408 359.773 111.368 359.773 113.144C359.773 114.936 358.653 115.896 357.373 115.896ZM357.373 109.064C355.069 109.064 353.437 110.808 353.437 113.144C353.437 115.496 355.069 117.24 357.373 117.24C359.677 117.24 361.309 115.496 361.309 113.144C361.309 110.808 359.677 109.064 357.373 109.064ZM367.265 110.664V109.304H365.409V108.088C365.409 107.032 366.097 106.776 366.625 106.776C367.009 106.776 367.201 106.84 367.281 106.872V105.528C367.217 105.48 366.897 105.368 366.385 105.368C364.993 105.368 363.857 106.296 363.857 108.008V109.304H362.433V110.664H363.857V117H365.409V110.664H367.265ZM375.214 106.872H373.838V108.12C373.838 108.792 373.486 109.304 372.654 109.304H372.238V110.664H373.71V114.888C373.71 116.28 374.542 117.08 375.854 117.08C376.366 117.08 376.75 116.984 376.878 116.936V115.656C376.75 115.688 376.478 115.72 376.286 115.72C375.502 115.72 375.214 115.368 375.214 114.664V110.664H376.878V109.304H375.214V106.872ZM380.549 112.472C380.581 111.336 381.189 110.44 382.341 110.44C383.685 110.44 384.133 111.304 384.133 112.376V117H385.637V112.12C385.637 110.408 384.725 109.08 382.885 109.08C382.005 109.08 381.109 109.384 380.549 110.2V105.416H379.045V117H380.549V112.472ZM389.165 112.36C389.229 111.368 389.997 110.392 391.261 110.392C392.621 110.392 393.341 111.256 393.373 112.36H389.165ZM393.597 114.36C393.309 115.224 392.685 115.912 391.437 115.912C390.141 115.912 389.149 114.952 389.117 113.576H394.909C394.925 113.48 394.941 113.288 394.941 113.096C394.941 110.696 393.613 109.064 391.245 109.064C389.309 109.064 387.565 110.712 387.565 113.128C387.565 115.736 389.373 117.24 391.437 117.24C393.229 117.24 394.461 116.168 394.893 114.808L393.597 114.36ZM2.784 144V132.416H1.28V144H2.784ZM5.0225 141.936C5.0225 143.152 6.0305 144.24 7.5985 144.24C8.9745 144.24 9.7425 143.504 10.0785 142.96C10.0785 143.52 10.1265 143.808 10.1585 144H11.6305C11.5985 143.808 11.5345 143.408 11.5345 142.736V138.88C11.5345 137.376 10.6385 136.064 8.3345 136.064C6.6705 136.064 5.3425 137.088 5.1825 138.56L6.6225 138.896C6.7185 138 7.3105 137.344 8.3665 137.344C9.5345 137.344 10.0305 137.968 10.0305 138.72C10.0305 138.992 9.9025 139.232 9.4385 139.296L7.3585 139.6C6.0305 139.792 5.0225 140.56 5.0225 141.936ZM7.8065 142.976C7.0385 142.976 6.5585 142.432 6.5585 141.856C6.5585 141.168 7.0385 140.8 7.6785 140.704L10.0305 140.352V140.704C10.0305 142.384 9.0385 142.976 7.8065 142.976ZM18.3095 136.224C18.2295 136.208 18.0215 136.176 17.8135 136.176C17.0295 136.176 16.0695 136.464 15.5095 137.648V136.304H14.0375V144H15.5415V140.144C15.5415 138.448 16.3895 137.776 17.6535 137.776C17.8615 137.776 18.0855 137.792 18.3095 137.824V136.224ZM19.4344 144.416C19.6264 146.064 21.0664 147.28 22.9864 147.28C25.8824 147.28 26.8424 145.376 26.8424 143.424V136.304H25.3544V137.376C24.9704 136.608 24.1704 136.16 22.9864 136.16C20.8744 136.16 19.4504 137.824 19.4504 139.904C19.4504 142.08 20.9384 143.632 22.9864 143.632C24.1384 143.632 24.9704 143.072 25.3384 142.368V143.472C25.3384 145.136 24.6024 145.968 22.9864 145.968C21.8184 145.968 21.0024 145.152 20.8904 144.08L19.4344 144.416ZM23.2104 142.368C21.8504 142.368 20.9864 141.408 20.9864 139.904C20.9864 138.416 21.8824 137.44 23.2104 137.44C24.5064 137.44 25.4024 138.416 25.4024 139.904C25.4024 141.392 24.5064 142.368 23.2104 142.368ZM30.3804 139.36C30.4444 138.368 31.2124 137.392 32.4764 137.392C33.8364 137.392 34.5564 138.256 34.5884 139.36H30.3804ZM34.8124 141.36C34.5244 142.224 33.9004 142.912 32.6524 142.912C31.3564 142.912 30.3644 141.952 30.3324 140.576H36.1244C36.1404 140.48 36.1564 140.288 36.1564 140.096C36.1564 137.696 34.8284 136.064 32.4604 136.064C30.5244 136.064 28.7804 137.712 28.7804 140.128C28.7804 142.736 30.5884 144.24 32.6524 144.24C34.4444 144.24 35.6764 143.168 36.1084 141.808L34.8124 141.36ZM37.5162 142C37.6442 142.88 38.5402 144.24 40.6522 144.24C42.5562 144.24 43.4682 142.944 43.4682 141.856C43.4682 140.72 42.7322 139.872 41.3402 139.568L40.0922 139.296C39.5002 139.168 39.2122 138.832 39.2122 138.368C39.2122 137.84 39.7242 137.344 40.4922 137.344C41.7082 137.344 42.0282 138.224 42.0922 138.624L43.4202 138.128C43.2602 137.44 42.6042 136.064 40.4922 136.064C38.9882 136.064 37.7562 137.184 37.7562 138.496C37.7562 139.584 38.4762 140.4 39.6762 140.656L40.9882 140.944C41.6282 141.088 41.9802 141.456 41.9802 141.936C41.9802 142.48 41.5162 142.96 40.6682 142.96C39.5802 142.96 38.9722 142.32 38.8762 141.52L37.5162 142ZM47.6466 133.872H46.2706V135.12C46.2706 135.792 45.9186 136.304 45.0866 136.304H44.6706V137.664H46.1426V141.888C46.1426 143.28 46.9746 144.08 48.2866 144.08C48.7986 144.08 49.1826 143.984 49.3106 143.936V142.656C49.1826 142.688 48.9106 142.72 48.7186 142.72C47.9346 142.72 47.6466 142.368 47.6466 141.664V137.664H49.3106V136.304H47.6466V133.872ZM57.3981 144V132.656H55.7981V144H57.3981ZM68.3145 134.112V132.656H59.1625V134.112H62.9545V144H64.5225V134.112H68.3145ZM73.3513 142C73.4793 142.88 74.3753 144.24 76.4873 144.24C78.3913 144.24 79.3033 142.944 79.3033 141.856C79.3033 140.72 78.5673 139.872 77.1753 139.568L75.9273 139.296C75.3353 139.168 75.0473 138.832 75.0473 138.368C75.0473 137.84 75.5593 137.344 76.3273 137.344C77.5433 137.344 77.8633 138.224 77.9273 138.624L79.2553 138.128C79.0953 137.44 78.4393 136.064 76.3273 136.064C74.8233 136.064 73.5913 137.184 73.5913 138.496C73.5913 139.584 74.3113 140.4 75.5113 140.656L76.8233 140.944C77.4633 141.088 77.8153 141.456 77.8153 141.936C77.8153 142.48 77.3513 142.96 76.5033 142.96C75.4153 142.96 74.8073 142.32 74.7113 141.52L73.3513 142ZM82.3635 139.36C82.4275 138.368 83.1955 137.392 84.4595 137.392C85.8195 137.392 86.5395 138.256 86.5715 139.36H82.3635ZM86.7955 141.36C86.5075 142.224 85.8835 142.912 84.6355 142.912C83.3395 142.912 82.3475 141.952 82.3155 140.576H88.1075C88.1235 140.48 88.1395 140.288 88.1395 140.096C88.1395 137.696 86.8115 136.064 84.4435 136.064C82.5075 136.064 80.7635 137.712 80.7635 140.128C80.7635 142.736 82.5715 144.24 84.6355 144.24C86.4275 144.24 87.6595 143.168 88.0915 141.808L86.7955 141.36ZM94.4914 136.224C94.4114 136.208 94.2034 136.176 93.9954 136.176C93.2114 136.176 92.2514 136.464 91.6914 137.648V136.304H90.2194V144H91.7234V140.144C91.7234 138.448 92.5714 137.776 93.8354 137.776C94.0434 137.776 94.2674 137.792 94.4914 137.824V136.224ZM103.081 136.304H101.465L99.2567 142.24L97.0647 136.304H95.3687L98.4887 144H100.009L103.081 136.304ZM106.168 144V136.304H104.68V144H106.168ZM104.344 133.392C104.344 133.984 104.824 134.464 105.416 134.464C106.024 134.464 106.504 133.984 106.504 133.392C106.504 132.784 106.024 132.304 105.416 132.304C104.824 132.304 104.344 132.784 104.344 133.392ZM112.119 137.456C113.431 137.456 113.991 138.336 114.183 139.088L115.543 138.512C115.223 137.344 114.167 136.064 112.119 136.064C109.927 136.064 108.247 137.744 108.247 140.144C108.247 142.48 109.895 144.24 112.135 144.24C114.135 144.24 115.239 142.944 115.607 141.84L114.279 141.264C114.103 141.872 113.575 142.848 112.135 142.848C110.887 142.848 109.783 141.904 109.783 140.144C109.783 138.352 110.903 137.456 112.119 137.456ZM118.429 139.36C118.493 138.368 119.261 137.392 120.525 137.392C121.885 137.392 122.605 138.256 122.637 139.36H118.429ZM122.861 141.36C122.573 142.224 121.949 142.912 120.701 142.912C119.405 142.912 118.413 141.952 118.381 140.576H124.173C124.189 140.48 124.205 140.288 124.205 140.096C124.205 137.696 122.877 136.064 120.509 136.064C118.573 136.064 116.829 137.712 116.829 140.128C116.829 142.736 118.637 144.24 120.701 144.24C122.493 144.24 123.725 143.168 124.157 141.808L122.861 141.36ZM131.421 139.36C131.485 138.368 132.253 137.392 133.517 137.392C134.877 137.392 135.597 138.256 135.629 139.36H131.421ZM135.853 141.36C135.565 142.224 134.941 142.912 133.693 142.912C132.397 142.912 131.405 141.952 131.373 140.576H137.165C137.181 140.48 137.197 140.288 137.197 140.096C137.197 137.696 135.869 136.064 133.501 136.064C131.565 136.064 129.821 137.712 129.821 140.128C129.821 142.736 131.629 144.24 133.693 144.24C135.485 144.24 136.717 143.168 137.149 141.808L135.853 141.36ZM142.509 137.456C143.821 137.456 144.381 138.336 144.573 139.088L145.933 138.512C145.613 137.344 144.557 136.064 142.509 136.064C140.317 136.064 138.637 137.744 138.637 140.144C138.637 142.48 140.285 144.24 142.525 144.24C144.525 144.24 145.629 142.944 145.997 141.84L144.669 141.264C144.493 141.872 143.965 142.848 142.525 142.848C141.277 142.848 140.173 141.904 140.173 140.144C140.173 138.352 141.293 137.456 142.509 137.456ZM151.139 142.896C149.859 142.896 148.739 141.936 148.739 140.144C148.739 138.368 149.859 137.408 151.139 137.408C152.419 137.408 153.539 138.368 153.539 140.144C153.539 141.936 152.419 142.896 151.139 142.896ZM151.139 136.064C148.835 136.064 147.203 137.808 147.203 140.144C147.203 142.496 148.835 144.24 151.139 144.24C153.443 144.24 155.075 142.496 155.075 140.144C155.075 137.808 153.443 136.064 151.139 136.064ZM156.439 142C156.567 142.88 157.463 144.24 159.575 144.24C161.479 144.24 162.391 142.944 162.391 141.856C162.391 140.72 161.655 139.872 160.263 139.568L159.015 139.296C158.423 139.168 158.135 138.832 158.135 138.368C158.135 137.84 158.647 137.344 159.415 137.344C160.631 137.344 160.951 138.224 161.015 138.624L162.343 138.128C162.183 137.44 161.527 136.064 159.415 136.064C157.911 136.064 156.679 137.184 156.679 138.496C156.679 139.584 157.399 140.4 158.599 140.656L159.911 140.944C160.551 141.088 160.903 141.456 160.903 141.936C160.903 142.48 160.439 142.96 159.591 142.96C158.503 142.96 157.895 142.32 157.799 141.52L156.439 142ZM166.396 147.216L171.404 136.304H169.788L167.484 141.616L165.084 136.304H163.356L166.668 143.152L164.748 147.216H166.396ZM172.134 142C172.262 142.88 173.158 144.24 175.27 144.24C177.174 144.24 178.086 142.944 178.086 141.856C178.086 140.72 177.35 139.872 175.958 139.568L174.71 139.296C174.118 139.168 173.83 138.832 173.83 138.368C173.83 137.84 174.342 137.344 175.11 137.344C176.326 137.344 176.646 138.224 176.71 138.624L178.038 138.128C177.878 137.44 177.222 136.064 175.11 136.064C173.606 136.064 172.374 137.184 172.374 138.496C172.374 139.584 173.094 140.4 174.294 140.656L175.606 140.944C176.246 141.088 176.598 141.456 176.598 141.936C176.598 142.48 176.134 142.96 175.286 142.96C174.198 142.96 173.59 142.32 173.494 141.52L172.134 142ZM182.265 133.872H180.889V135.12C180.889 135.792 180.537 136.304 179.705 136.304H179.289V137.664H180.761V141.888C180.761 143.28 181.593 144.08 182.905 144.08C183.417 144.08 183.801 143.984 183.929 143.936V142.656C183.801 142.688 183.529 142.72 183.337 142.72C182.553 142.72 182.265 142.368 182.265 141.664V137.664H183.929V136.304H182.265V133.872ZM186.994 139.36C187.058 138.368 187.826 137.392 189.09 137.392C190.45 137.392 191.17 138.256 191.202 139.36H186.994ZM191.426 141.36C191.138 142.224 190.514 142.912 189.266 142.912C187.97 142.912 186.978 141.952 186.946 140.576H192.738C192.754 140.48 192.77 140.288 192.77 140.096C192.77 137.696 191.442 136.064 189.074 136.064C187.138 136.064 185.394 137.712 185.394 140.128C185.394 142.736 187.202 144.24 189.266 144.24C191.058 144.24 192.29 143.168 192.722 141.808L191.426 141.36ZM196.338 144V139.36C196.338 138.208 197.058 137.408 198.13 137.408C199.282 137.408 199.762 138.176 199.762 139.168V144H201.266V139.344C201.266 138.24 201.986 137.408 203.042 137.408C204.178 137.408 204.674 138.16 204.674 139.168V144H206.162V139.008C206.162 136.992 204.85 136.08 203.506 136.08C202.53 136.08 201.538 136.432 200.93 137.536C200.514 136.544 199.586 136.08 198.626 136.08C197.73 136.08 196.77 136.48 196.29 137.328V136.304H194.85V144H196.338ZM208.569 142.976C208.569 143.6 209.049 144.08 209.673 144.08C210.297 144.08 210.793 143.6 210.793 142.976C210.793 142.352 210.297 141.856 209.673 141.856C209.049 141.856 208.569 142.352 208.569 142.976ZM219.246 144V139.232H224.078V137.76H219.246V134.112H224.574V132.656H217.678V144H219.246ZM227.9 144V136.304H226.412V144H227.9ZM226.076 133.392C226.076 133.984 226.556 134.464 227.148 134.464C227.756 134.464 228.236 133.984 228.236 133.392C228.236 132.784 227.756 132.304 227.148 132.304C226.556 132.304 226.076 132.784 226.076 133.392ZM232.123 139.552C232.123 138.384 232.731 137.44 233.915 137.44C235.259 137.44 235.707 138.304 235.707 139.376V144H237.211V139.12C237.211 137.408 236.299 136.08 234.459 136.08C233.563 136.08 232.651 136.448 232.091 137.408V136.304H230.619V144H232.123V139.552ZM240.659 140.128C240.659 138.544 241.555 137.424 242.931 137.424C244.307 137.424 245.139 138.512 245.139 140.096C245.139 141.68 244.291 142.88 242.915 142.88C241.475 142.88 240.659 141.712 240.659 140.128ZM245.155 142.96C245.155 143.424 245.203 143.824 245.235 144H246.691C246.675 143.872 246.611 143.312 246.611 142.576V132.416H245.123V137.392C244.867 136.768 244.131 136.096 242.771 136.096C240.595 136.096 239.123 137.952 239.123 140.128C239.123 142.416 240.515 144.208 242.771 144.208C243.971 144.208 244.787 143.568 245.155 142.832V142.96ZM256.721 137.456C258.033 137.456 258.593 138.336 258.785 139.088L260.145 138.512C259.825 137.344 258.769 136.064 256.721 136.064C254.529 136.064 252.849 137.744 252.849 140.144C252.849 142.48 254.497 144.24 256.737 144.24C258.737 144.24 259.841 142.944 260.209 141.84L258.881 141.264C258.705 141.872 258.177 142.848 256.737 142.848C255.489 142.848 254.385 141.904 254.385 140.144C254.385 138.352 255.505 137.456 256.721 137.456ZM267.128 143.072C267.128 143.392 267.16 143.824 267.192 144H268.632C268.6 143.728 268.552 143.184 268.552 142.576V136.304H267.048V140.944C267.048 142.112 266.44 142.912 265.224 142.912C263.96 142.912 263.48 141.984 263.48 140.928V136.304H261.976V141.152C261.976 142.896 263.064 144.24 264.856 144.24C265.752 144.24 266.712 143.872 267.128 143.072ZM270.558 142C270.686 142.88 271.582 144.24 273.694 144.24C275.598 144.24 276.51 142.944 276.51 141.856C276.51 140.72 275.774 139.872 274.382 139.568L273.134 139.296C272.542 139.168 272.254 138.832 272.254 138.368C272.254 137.84 272.766 137.344 273.534 137.344C274.75 137.344 275.07 138.224 275.134 138.624L276.462 138.128C276.302 137.44 275.646 136.064 273.534 136.064C272.03 136.064 270.798 137.184 270.798 138.496C270.798 139.584 271.518 140.4 272.718 140.656L274.03 140.944C274.67 141.088 275.022 141.456 275.022 141.936C275.022 142.48 274.558 142.96 273.71 142.96C272.622 142.96 272.014 142.32 271.918 141.52L270.558 142ZM280.688 133.872H279.312V135.12C279.312 135.792 278.96 136.304 278.128 136.304H277.712V137.664H279.184V141.888C279.184 143.28 280.016 144.08 281.328 144.08C281.84 144.08 282.224 143.984 282.352 143.936V142.656C282.224 142.688 281.952 142.72 281.76 142.72C280.976 142.72 280.688 142.368 280.688 141.664V137.664H282.352V136.304H280.688V133.872ZM287.738 142.896C286.458 142.896 285.338 141.936 285.338 140.144C285.338 138.368 286.458 137.408 287.738 137.408C289.018 137.408 290.138 138.368 290.138 140.144C290.138 141.936 289.018 142.896 287.738 142.896ZM287.738 136.064C285.434 136.064 283.802 137.808 283.802 140.144C283.802 142.496 285.434 144.24 287.738 144.24C290.042 144.24 291.674 142.496 291.674 140.144C291.674 137.808 290.042 136.064 287.738 136.064ZM295.246 144V139.36C295.246 138.208 295.966 137.408 297.038 137.408C298.19 137.408 298.67 138.176 298.67 139.168V144H300.174V139.344C300.174 138.24 300.894 137.408 301.95 137.408C303.086 137.408 303.582 138.16 303.582 139.168V144H305.07V139.008C305.07 136.992 303.758 136.08 302.414 136.08C301.438 136.08 300.446 136.432 299.838 137.536C299.422 136.544 298.494 136.08 297.534 136.08C296.638 136.08 295.678 136.48 295.198 137.328V136.304H293.758V144H295.246ZM308.613 139.36C308.677 138.368 309.445 137.392 310.709 137.392C312.069 137.392 312.789 138.256 312.821 139.36H308.613ZM313.045 141.36C312.757 142.224 312.133 142.912 310.885 142.912C309.589 142.912 308.597 141.952 308.565 140.576H314.357C314.373 140.48 314.389 140.288 314.389 140.096C314.389 137.696 313.061 136.064 310.693 136.064C308.757 136.064 307.013 137.712 307.013 140.128C307.013 142.736 308.821 144.24 310.885 144.24C312.677 144.24 313.909 143.168 314.341 141.808L313.045 141.36ZM320.741 136.224C320.661 136.208 320.453 136.176 320.245 136.176C319.461 136.176 318.501 136.464 317.941 137.648V136.304H316.469V144H317.973V140.144C317.973 138.448 318.821 137.776 320.085 137.776C320.293 137.776 320.517 137.792 320.741 137.824V136.224ZM321.784 142C321.912 142.88 322.808 144.24 324.92 144.24C326.824 144.24 327.736 142.944 327.736 141.856C327.736 140.72 327 139.872 325.608 139.568L324.36 139.296C323.768 139.168 323.48 138.832 323.48 138.368C323.48 137.84 323.992 137.344 324.76 137.344C325.976 137.344 326.296 138.224 326.36 138.624L327.688 138.128C327.528 137.44 326.872 136.064 324.76 136.064C323.256 136.064 322.024 137.184 322.024 138.496C322.024 139.584 322.744 140.4 323.944 140.656L325.256 140.944C325.896 141.088 326.248 141.456 326.248 141.936C326.248 142.48 325.784 142.96 324.936 142.96C323.848 142.96 323.24 142.32 323.144 141.52L321.784 142ZM338.394 136.304L336.394 142.096L334.666 136.304H333.018L335.546 144H337.13L339.13 138.144L341.178 144H342.73L345.226 136.304H343.642L341.946 142.096L339.946 136.304H338.394ZM348.41 139.472C348.442 138.336 349.05 137.44 350.202 137.44C351.546 137.44 351.994 138.304 351.994 139.376V144H353.498V139.12C353.498 137.408 352.586 136.08 350.746 136.08C349.866 136.08 348.97 136.384 348.41 137.2V132.416H346.906V144H348.41V139.472ZM359.346 142.896C358.066 142.896 356.946 141.936 356.946 140.144C356.946 138.368 358.066 137.408 359.346 137.408C360.626 137.408 361.746 138.368 361.746 140.144C361.746 141.936 360.626 142.896 359.346 142.896ZM359.346 136.064C357.042 136.064 355.41 137.808 355.41 140.144C355.41 142.496 357.042 144.24 359.346 144.24C361.65 144.24 363.282 142.496 363.282 140.144C363.282 137.808 361.65 136.064 359.346 136.064ZM369.046 141.936C369.046 143.152 370.054 144.24 371.622 144.24C372.998 144.24 373.766 143.504 374.102 142.96C374.102 143.52 374.15 143.808 374.182 144H375.654C375.622 143.808 375.558 143.408 375.558 142.736V138.88C375.558 137.376 374.662 136.064 372.358 136.064C370.694 136.064 369.366 137.088 369.206 138.56L370.646 138.896C370.742 138 371.334 137.344 372.39 137.344C373.558 137.344 374.054 137.968 374.054 138.72C374.054 138.992 373.926 139.232 373.462 139.296L371.382 139.6C370.054 139.792 369.046 140.56 369.046 141.936ZM371.83 142.976C371.062 142.976 370.582 142.432 370.582 141.856C370.582 141.168 371.062 140.8 371.702 140.704L374.054 140.352V140.704C374.054 142.384 373.062 142.976 371.83 142.976ZM382.333 136.224C382.253 136.208 382.045 136.176 381.837 136.176C381.053 136.176 380.093 136.464 379.533 137.648V136.304H378.061V144H379.565V140.144C379.565 138.448 380.413 137.776 381.677 137.776C381.885 137.776 382.109 137.792 382.333 137.824V136.224ZM384.994 139.36C385.058 138.368 385.826 137.392 387.09 137.392C388.45 137.392 389.17 138.256 389.202 139.36H384.994ZM389.426 141.36C389.138 142.224 388.514 142.912 387.266 142.912C385.97 142.912 384.978 141.952 384.946 140.576H390.738C390.754 140.48 390.77 140.288 390.77 140.096C390.77 137.696 389.442 136.064 387.074 136.064C385.138 136.064 383.394 137.712 383.394 140.128C383.394 142.736 385.202 144.24 387.266 144.24C389.058 144.24 390.29 143.168 390.722 141.808L389.426 141.36ZM2.784 171V159.416H1.28V171H2.784ZM8.7985 169.896C7.5185 169.896 6.3985 168.936 6.3985 167.144C6.3985 165.368 7.5185 164.408 8.7985 164.408C10.0785 164.408 11.1985 165.368 11.1985 167.144C11.1985 168.936 10.0785 169.896 8.7985 169.896ZM8.7985 163.064C6.4945 163.064 4.8625 164.808 4.8625 167.144C4.8625 169.496 6.4945 171.24 8.7985 171.24C11.1025 171.24 12.7345 169.496 12.7345 167.144C12.7345 164.808 11.1025 163.064 8.7985 163.064ZM18.1147 169.896C16.8347 169.896 15.7147 168.936 15.7147 167.144C15.7147 165.368 16.8347 164.408 18.1147 164.408C19.3948 164.408 20.5148 165.368 20.5148 167.144C20.5148 168.936 19.3948 169.896 18.1147 169.896ZM18.1147 163.064C15.8107 163.064 14.1787 164.808 14.1787 167.144C14.1787 169.496 15.8107 171.24 18.1147 171.24C20.4187 171.24 22.0507 169.496 22.0507 167.144C22.0507 164.808 20.4187 163.064 18.1147 163.064ZM31.031 163.304H28.951L25.623 166.712V159.416H24.135V171H25.623V168.68L26.695 167.608L29.207 171H31.095L27.751 166.552L31.031 163.304ZM34.1892 171V163.304H32.7012V171H34.1892ZM32.3652 160.392C32.3652 160.984 32.8452 161.464 33.4372 161.464C34.0452 161.464 34.5252 160.984 34.5252 160.392C34.5252 159.784 34.0452 159.304 33.4372 159.304C32.8452 159.304 32.3652 159.784 32.3652 160.392ZM38.4121 166.552C38.4121 165.384 39.0201 164.44 40.2041 164.44C41.5481 164.44 41.9961 165.304 41.9961 166.376V171H43.5001V166.12C43.5001 164.408 42.5881 163.08 40.7481 163.08C39.8521 163.08 38.9401 163.448 38.3801 164.408V163.304H36.9081V171H38.4121V166.552ZM45.4925 171.416C45.6845 173.064 47.1245 174.28 49.0445 174.28C51.9405 174.28 52.9005 172.376 52.9005 170.424V163.304H51.4125V164.376C51.0285 163.608 50.2285 163.16 49.0445 163.16C46.9325 163.16 45.5085 164.824 45.5085 166.904C45.5085 169.08 46.9965 170.632 49.0445 170.632C50.1965 170.632 51.0285 170.072 51.3965 169.368V170.472C51.3965 172.136 50.6605 172.968 49.0445 172.968C47.8765 172.968 47.0605 172.152 46.9485 171.08L45.4925 171.416ZM49.2685 169.368C47.9085 169.368 47.0445 168.408 47.0445 166.904C47.0445 165.416 47.9405 164.44 49.2685 164.44C50.5645 164.44 51.4605 165.416 51.4605 166.904C51.4605 168.392 50.5645 169.368 49.2685 169.368ZM63.4945 164.664V163.304H61.6385V162.088C61.6385 161.032 62.3265 160.776 62.8545 160.776C63.2385 160.776 63.4305 160.84 63.5105 160.872V159.528C63.4465 159.48 63.1265 159.368 62.6145 159.368C61.2225 159.368 60.0865 160.296 60.0865 162.008V163.304H58.6625V164.664H60.0865V171H61.6385V164.664H63.4945ZM68.2504 169.896C66.9704 169.896 65.8504 168.936 65.8504 167.144C65.8504 165.368 66.9704 164.408 68.2504 164.408C69.5304 164.408 70.6504 165.368 70.6504 167.144C70.6504 168.936 69.5304 169.896 68.2504 169.896ZM68.2504 163.064C65.9464 163.064 64.3144 164.808 64.3144 167.144C64.3144 169.496 65.9464 171.24 68.2504 171.24C70.5544 171.24 72.1864 169.496 72.1864 167.144C72.1864 164.808 70.5544 163.064 68.2504 163.064ZM78.5426 163.224C78.4626 163.208 78.2546 163.176 78.0466 163.176C77.2626 163.176 76.3026 163.464 75.7426 164.648V163.304H74.2706V171H75.7746V167.144C75.7746 165.448 76.6226 164.776 77.8866 164.776C78.0946 164.776 78.3186 164.792 78.5426 164.824V163.224ZM86.3856 174.216L91.3936 163.304H89.7776L87.4736 168.616L85.0736 163.304H83.3456L86.6576 170.152L84.7376 174.216H86.3856ZM95.9841 169.896C94.7041 169.896 93.5841 168.936 93.5841 167.144C93.5841 165.368 94.7041 164.408 95.9841 164.408C97.2641 164.408 98.3841 165.368 98.3841 167.144C98.3841 168.936 97.2641 169.896 95.9841 169.896ZM95.9841 163.064C93.6801 163.064 92.0481 164.808 92.0481 167.144C92.0481 169.496 93.6801 171.24 95.9841 171.24C98.2881 171.24 99.9201 169.496 99.9201 167.144C99.9201 164.808 98.2881 163.064 95.9841 163.064ZM106.998 170.072C106.998 170.392 107.03 170.824 107.062 171H108.502C108.47 170.728 108.422 170.184 108.422 169.576V163.304H106.918V167.944C106.918 169.112 106.31 169.912 105.094 169.912C103.83 169.912 103.35 168.984 103.35 167.928V163.304H101.846V168.152C101.846 169.896 102.934 171.24 104.726 171.24C105.622 171.24 106.582 170.872 106.998 170.072ZM115.421 163.224C115.341 163.208 115.133 163.176 114.925 163.176C114.141 163.176 113.181 163.464 112.621 164.648V163.304H111.149V171H112.653V167.144C112.653 165.448 113.501 164.776 114.765 164.776C114.973 164.776 115.197 164.792 115.421 164.824V163.224ZM120.624 169C120.752 169.88 121.648 171.24 123.76 171.24C125.664 171.24 126.576 169.944 126.576 168.856C126.576 167.72 125.84 166.872 124.448 166.568L123.2 166.296C122.608 166.168 122.32 165.832 122.32 165.368C122.32 164.84 122.832 164.344 123.6 164.344C124.816 164.344 125.136 165.224 125.2 165.624L126.528 165.128C126.368 164.44 125.712 163.064 123.6 163.064C122.096 163.064 120.864 164.184 120.864 165.496C120.864 166.584 121.584 167.4 122.784 167.656L124.096 167.944C124.736 168.088 125.088 168.456 125.088 168.936C125.088 169.48 124.624 169.96 123.776 169.96C122.688 169.96 122.08 169.32 121.984 168.52L120.624 169ZM131.956 169.896C130.676 169.896 129.556 168.936 129.556 167.144C129.556 165.368 130.676 164.408 131.956 164.408C133.236 164.408 134.356 165.368 134.356 167.144C134.356 168.936 133.236 169.896 131.956 169.896ZM131.956 163.064C129.652 163.064 128.02 164.808 128.02 167.144C128.02 169.496 129.652 171.24 131.956 171.24C134.26 171.24 135.892 169.496 135.892 167.144C135.892 164.808 134.26 163.064 131.956 163.064ZM139.48 171V159.416H137.976V171H139.48ZM147.193 170.072C147.193 170.392 147.225 170.824 147.257 171H148.697C148.665 170.728 148.617 170.184 148.617 169.576V163.304H147.113V167.944C147.113 169.112 146.505 169.912 145.289 169.912C144.025 169.912 143.545 168.984 143.545 167.928V163.304H142.041V168.152C142.041 169.896 143.129 171.24 144.921 171.24C145.817 171.24 146.777 170.872 147.193 170.072ZM153.359 160.872H151.983V162.12C151.983 162.792 151.631 163.304 150.799 163.304H150.383V164.664H151.855V168.888C151.855 170.28 152.687 171.08 153.999 171.08C154.511 171.08 154.895 170.984 155.023 170.936V169.656C154.895 169.688 154.623 169.72 154.431 169.72C153.647 169.72 153.359 169.368 153.359 168.664V164.664H155.023V163.304H153.359V160.872ZM158.679 171V163.304H157.191V171H158.679ZM156.855 160.392C156.855 160.984 157.335 161.464 157.927 161.464C158.535 161.464 159.015 160.984 159.015 160.392C159.015 159.784 158.535 159.304 157.927 159.304C157.335 159.304 156.855 159.784 156.855 160.392ZM164.693 169.896C163.413 169.896 162.293 168.936 162.293 167.144C162.293 165.368 163.413 164.408 164.693 164.408C165.973 164.408 167.093 165.368 167.093 167.144C167.093 168.936 165.973 169.896 164.693 169.896ZM164.693 163.064C162.389 163.064 160.757 164.808 160.757 167.144C160.757 169.496 162.389 171.24 164.693 171.24C166.997 171.24 168.629 169.496 168.629 167.144C168.629 164.808 166.997 163.064 164.693 163.064ZM172.218 166.552C172.218 165.384 172.826 164.44 174.01 164.44C175.354 164.44 175.802 165.304 175.802 166.376V171H177.306V166.12C177.306 164.408 176.394 163.08 174.554 163.08C173.658 163.08 172.746 163.448 172.186 164.408V163.304H170.714V171H172.218V166.552ZM188.29 163.224C188.21 163.208 188.002 163.176 187.794 163.176C187.01 163.176 186.05 163.464 185.49 164.648V163.304H184.018V171H185.522V167.144C185.522 165.448 186.37 164.776 187.634 164.776C187.842 164.776 188.066 164.792 188.29 164.824V163.224ZM191.541 171V163.304H190.053V171H191.541ZM189.717 160.392C189.717 160.984 190.197 161.464 190.789 161.464C191.397 161.464 191.877 160.984 191.877 160.392C191.877 159.784 191.397 159.304 190.789 159.304C190.197 159.304 189.717 159.784 189.717 160.392ZM193.7 171.416C193.892 173.064 195.332 174.28 197.252 174.28C200.148 174.28 201.108 172.376 201.108 170.424V163.304H199.62V164.376C199.236 163.608 198.436 163.16 197.252 163.16C195.14 163.16 193.716 164.824 193.716 166.904C193.716 169.08 195.204 170.632 197.252 170.632C198.404 170.632 199.236 170.072 199.604 169.368V170.472C199.604 172.136 198.868 172.968 197.252 172.968C196.084 172.968 195.268 172.152 195.156 171.08L193.7 171.416ZM197.476 169.368C196.116 169.368 195.252 168.408 195.252 166.904C195.252 165.416 196.148 164.44 197.476 164.44C198.772 164.44 199.668 165.416 199.668 166.904C199.668 168.392 198.772 169.368 197.476 169.368ZM205.174 166.472C205.206 165.336 205.814 164.44 206.966 164.44C208.31 164.44 208.758 165.304 208.758 166.376V171H210.262V166.12C210.262 164.408 209.35 163.08 207.51 163.08C206.63 163.08 205.734 163.384 205.174 164.2V159.416H203.67V171H205.174V166.472ZM214.83 160.872H213.454V162.12C213.454 162.792 213.102 163.304 212.27 163.304H211.854V164.664H213.326V168.888C213.326 170.28 214.158 171.08 215.47 171.08C215.982 171.08 216.366 170.984 216.494 170.936V169.656C216.366 169.688 216.094 169.72 215.902 169.72C215.118 169.72 214.83 169.368 214.83 168.664V164.664H216.494V163.304H214.83V160.872ZM224.326 166.552C224.326 165.384 224.934 164.44 226.118 164.44C227.462 164.44 227.91 165.304 227.91 166.376V171H229.414V166.12C229.414 164.408 228.502 163.08 226.662 163.08C225.766 163.08 224.854 163.448 224.294 164.408V163.304H222.822V171H224.326V166.552ZM235.262 169.896C233.982 169.896 232.862 168.936 232.862 167.144C232.862 165.368 233.982 164.408 235.262 164.408C236.542 164.408 237.662 165.368 237.662 167.144C237.662 168.936 236.542 169.896 235.262 169.896ZM235.262 163.064C232.958 163.064 231.326 164.808 231.326 167.144C231.326 169.496 232.958 171.24 235.262 171.24C237.566 171.24 239.198 169.496 239.198 167.144C239.198 164.808 237.566 163.064 235.262 163.064ZM245.462 163.304L243.462 169.096L241.734 163.304H240.086L242.614 171H244.198L246.198 165.144L248.246 171H249.798L252.294 163.304H250.71L249.014 169.096L247.014 163.304H245.462ZM256.118 159.656H254.23L254.646 167.752H255.718L256.118 159.656ZM254.134 170.04C254.134 170.616 254.598 171.08 255.174 171.08C255.75 171.08 256.23 170.616 256.23 170.04C256.23 169.464 255.75 168.984 255.174 168.984C254.598 168.984 254.134 169.464 254.134 170.04Z" fill="#000C2D"/>
<g clip-path="url(#clip1_1_1525)">
<path d="M9.10506 214.312C8.84906 213.048 7.80906 211.416 5.13706 211.416C3.02506 211.416 1.28106 212.984 1.28106 214.888C1.28106 216.584 2.43306 217.72 4.16106 218.072L5.76106 218.408C6.73706 218.616 7.28106 219.208 7.28106 219.944C7.28106 220.824 6.57706 221.512 5.21706 221.512C3.58506 221.512 2.73706 220.424 2.62506 219.24L0.833063 219.752C1.00906 221.384 2.33706 223.24 5.21706 223.24C7.80906 223.24 9.23306 221.56 9.23306 219.8C9.23306 218.2 8.16106 216.936 6.16106 216.536L4.52906 216.2C3.64906 216.008 3.20106 215.464 3.20106 214.744C3.20106 213.88 4.00106 213.112 5.15306 213.112C6.67306 213.112 7.26506 214.152 7.37706 214.856L9.10506 214.312ZM12.8603 223V215.208H11.0203V223H12.8603ZM10.7323 212.472C10.7323 213.144 11.2763 213.672 11.9323 213.672C12.6043 213.672 13.1483 213.144 13.1483 212.472C13.1483 211.8 12.6043 211.256 11.9323 211.256C11.2763 211.256 10.7323 211.8 10.7323 212.472ZM14.6947 223.432C14.9027 225 16.3427 226.28 18.4067 226.28C21.3347 226.28 22.4067 224.344 22.4067 222.264V215.208H20.6147V216.2C20.2787 215.56 19.5267 215.064 18.3107 215.064C16.1667 215.064 14.7107 216.776 14.7107 218.856C14.7107 221.048 16.2307 222.648 18.3107 222.648C19.4467 222.648 20.2307 222.12 20.5667 221.512V222.328C20.5667 223.912 19.8307 224.664 18.3587 224.664C17.2867 224.664 16.5347 223.944 16.4067 222.984L14.6947 223.432ZM18.6147 221.064C17.3987 221.064 16.5827 220.216 16.5827 218.856C16.5827 217.528 17.4307 216.664 18.6147 216.664C19.7667 216.664 20.6147 217.528 20.6147 218.856C20.6147 220.2 19.7987 221.064 18.6147 221.064ZM26.5326 218.504C26.5326 217.48 27.0926 216.664 28.1486 216.664C29.3166 216.664 29.7486 217.432 29.7486 218.392V223H31.6046V218.072C31.6046 216.36 30.6926 214.984 28.7886 214.984C27.9246 214.984 26.9966 215.352 26.4846 216.248V215.208H24.6766V223H26.5326V218.504ZM38.8267 222.136C38.8267 222.456 38.8587 222.824 38.8907 223H40.6667C40.6347 222.712 40.5867 222.216 40.5867 221.576V215.208H38.7307V219.816C38.7307 220.84 38.1707 221.56 37.0987 221.56C35.9787 221.56 35.5307 220.744 35.5307 219.784V215.208H33.6747V220.12C33.6747 221.848 34.7627 223.224 36.6187 223.224C37.5307 223.224 38.4427 222.84 38.8267 222.136ZM44.8291 226.04V222.12C45.2291 222.712 46.0771 223.192 47.1971 223.192C49.4371 223.192 50.8611 221.432 50.8611 219.096C50.8611 216.792 49.5651 215.032 47.2611 215.032C46.0611 215.032 45.1651 215.592 44.7811 216.264V215.208H42.9891V226.04H44.8291ZM49.0051 219.096C49.0051 220.584 48.1411 221.544 46.9091 221.544C45.6931 221.544 44.8131 220.584 44.8131 219.096C44.8131 217.64 45.6931 216.68 46.9091 216.68C48.1571 216.68 49.0051 217.64 49.0051 219.096ZM58.4701 218.504C58.4701 217.48 59.0301 216.664 60.0861 216.664C61.2541 216.664 61.6861 217.432 61.6861 218.392V223H63.5421V218.072C63.5421 216.36 62.6301 214.984 60.7261 214.984C59.8621 214.984 58.9341 215.352 58.4221 216.248V215.208H56.6141V223H58.4701V218.504ZM69.2256 221.576C68.0896 221.576 67.0496 220.712 67.0496 219.096C67.0496 217.48 68.0896 216.648 69.2256 216.648C70.3776 216.648 71.4016 217.48 71.4016 219.096C71.4016 220.728 70.3776 221.576 69.2256 221.576ZM69.2256 214.968C66.9056 214.968 65.1936 216.712 65.1936 219.096C65.1936 221.496 66.9056 223.24 69.2256 223.24C71.5616 223.24 73.2736 221.496 73.2736 219.096C73.2736 216.712 71.5616 214.968 69.2256 214.968ZM79.2957 215.208L77.4557 220.6L75.8717 215.208H73.8877L76.4157 223H78.3197L80.2077 217.4L82.1437 223H83.9997L86.4957 215.208H84.6077L83.0557 220.6L81.2157 215.208H79.2957Z" fill="#2F70FE"/>
<g clip-path="url(#clip2_1_1525)">
<path d="M109.5 226.5C109.372 226.5 109.244 226.451 109.146 226.354C108.951 226.159 108.951 225.842 109.146 225.647L117.793 217L109.147 208.354C108.952 208.159 108.952 207.842 109.147 207.647C109.342 207.452 109.659 207.452 109.854 207.647L118.854 216.647C119.049 216.842 119.049 217.159 118.854 217.354L109.854 226.354C109.756 226.451 109.628 226.5 109.5 226.5Z" fill="#2F70FE"/>
<path d="M118.5 217.5H95.5C95.224 217.5 95 217.276 95 217C95 216.724 95.224 216.5 95.5 216.5H118.5C118.776 216.5 119 216.724 119 217C119 217.276 118.776 217.5 118.5 217.5Z" fill="#2F70FE"/>
</g>
</g>
</g>
<defs>
<clipPath id="clip0_1_1525">
<rect width="410" height="231" fill="white"/>
</clipPath>
<clipPath id="clip1_1_1525">
<rect width="119" height="28" fill="white" transform="translate(0 203)"/>
</clipPath>
<clipPath id="clip2_1_1525">
<rect width="24" height="24" fill="white" transform="translate(95 205)"/>
</clipPath>
</defs>
</svg>
